<?xml version="1.0" encoding="utf-8"?>
<!-- Svg Vector Icons : http://www.onlinewebfonts.com/icon -->
<!DOCTYPE svg PUBLIC "-//W3C//DTD SVG 1.1//EN" "http://www.w3.org/Graphics/SVG/1.1/DTD/svg11.dtd">
<svg version="1.1" xmlns="http://www.w3.org/2000/svg" xmlns:xlink="http://www.w3.org/1999/xlink" x="0px" y="0px" viewBox="0 0 256 256" enable-background="new 0 0 256 256" xml:space="preserve">
<metadata> Svg Vector Icons : http://www.onlinewebfonts.com/icon </metadata>
<g><g><g><path fill="#3f7473" d="M48.4,10.3c-6.2,1.2-12.8,3.9-18.5,7.8c-3.6,2.5-9.3,8.1-11.8,11.8c-2.8,4-5.8,10.6-7.1,15.3L10,49.1V128v78.9l1.1,3.9c1.3,4.7,4.3,11.2,7.1,15.3c2.5,3.8,8.1,9.4,11.9,11.9c4.1,2.8,10.6,5.8,15.3,7.1l3.9,1.1H128h78.7l3.9-1.1c4.7-1.3,11.2-4.3,15.3-7.1c3.8-2.5,9.4-8.1,11.9-11.9c2.8-4.1,5.8-10.6,7.1-15.3l1.1-3.9V128V49.1l-1.1-3.9c-4.7-17-16.9-29.3-34.3-34.4l-3.5-1l-77.7-0.1C67.1,9.7,51,9.8,48.4,10.3z M212.8,73.8c7.5,7.9,9.3,10,9,10.6c-0.2,0.4-6.5,7-14,14.7L194.2,113l-0.2-7.4l-0.2-7.4l-13.4,0c-21.8,0.1-26.7,1.4-41.5,11.2c-3.5,2.3-6.7,4.4-7.3,4.7l-1,0.6l0.8-2c2.3-5.8,11.1-18.1,17.4-24.5c11.1-11,24.8-17.3,40.4-18.4l4.6-0.3l0.1-6.2c0.1-3.4,0.3-6.8,0.4-7.4C194.5,54.6,193.6,53.7,212.8,73.8z M85.2,62.1c17,3.6,32,12.8,37,22.5l1.6,3.1l5.8-3.4c5.1-3,5.8-3.3,6-2.5c0.1,0.7-10.2,33-10.8,33.7c0,0-6-1.2-13.2-2.7c-7.2-1.5-14.9-3.1-17.3-3.4c-6.4-1.1-6.4-1.3,0.4-5c3.2-1.7,5.8-3.4,5.8-3.7c0-1.4-3.9-6.4-8.6-11c-9.7-9.3-21-15.4-34-18.3C52.6,70.1,43,70.2,38,71.5c-2.1,0.6-3.9,0.9-4.1,0.8c-0.5-0.5,0.5-2.1,1.6-3c3.3-2.3,18.7-7.2,26-8.2C68.1,60.2,78.5,60.6,85.2,62.1z M42.9,110.2c1.2,0.5,1.9,1.3,2.6,2.9l1,2.2l0.1,38.3l0.1,38.3h80.5h80.6l-0.1-23.5c-0.1-22-0.1-23.6,0.7-25.2c1.2-2.4,3.6-3.8,6.6-3.8c2.8,0,4.5,1,6,3.5c0.9,1.5,0.9,2.3,0.8,38.8c-0.1,34.8-0.1,37.3-0.9,38.4c-1.3,1.7-3.7,2.8-6.3,2.8c-3.1,0-4.4-0.8-5.7-3.3c-1-2-1.1-2.8-1.1-8.7l0-6.5h-80.4H46.9l0.2,4.3c0.3,4.6-0.3,9.2-1.5,11.5c-1.9,3.6-9.3,3.6-11.2,0c-0.3-0.6-0.5-18.2-0.7-49c-0.1-26.4-0.2-49.1-0.2-50.4c0-5.6,1.7-9.8,4.6-10.7C40.2,109.4,41,109.4,42.9,110.2z M182,145.6c6.2,0.5,8.7,1.5,10.4,4.5c2.4,4.1,3.3,11.8,2.7,23l-0.3,6.3h-48.9h-49l-0.3-8c-0.4-12,0.4-18.6,2.9-22c0.5-0.7,2-1.8,3.3-2.4l2.5-1.1l33.5-0.2c18.5-0.1,34.6-0.3,35.9-0.3C176,145.3,179.3,145.4,182,145.6z M79.7,147.1c3.3,1.5,6.2,4.3,7.7,7.7c1.1,2.3,1.2,3.2,1.2,7.2s-0.1,5-1.3,7.3c-1.6,3.5-4.8,6.6-8.6,8.4c-2.7,1.3-3.6,1.5-7,1.5c-3.2,0-4.3-0.2-6.2-1.1c-9.3-4.6-13-17-7.3-24.9c1.9-2.5,3.9-4.1,8.2-6c3.3-1.5,3.9-1.6,7.1-1.4C76.1,145.9,77.9,146.3,79.7,147.1z"/></g></g></g>
</svg>