<svg width="22" height="22" viewBox="0 0 22 22" fill="none" xmlns="http://www.w3.org/2000/svg">
<g clip-path="url(#clip0_491_2707)">
<path fill-rule="evenodd" clip-rule="evenodd" d="M6.4284 7.33338L10.164 1.11031L8.90267 0.356445L4.71827 7.33338H1.03107C0.757611 7.33338 0.495355 7.44201 0.301992 7.63537C0.10863 7.82873 0 8.09099 0 8.36445L0 9.00831C0 13.3262 1.00467 17.5839 2.93627 21.4456C3.01977 21.6122 3.14793 21.7522 3.30644 21.8501C3.46495 21.9481 3.64756 21.9999 3.83387 22H18.1661C18.5475 22 18.8936 21.7859 19.0637 21.4442C20.9947 17.5826 22 13.3244 22 9.00685V8.36445C22 8.09099 21.8914 7.82873 21.698 7.63537C21.5046 7.44201 21.2424 7.33338 20.9689 7.33338H17.2817L13.0973 0.356445L11.836 1.11031L15.5716 7.33338H6.4284ZM10.2667 17.6V14.6667H7.33333V13.2H10.2667V10.2667H11.7333V13.2H14.6667V14.6667H11.7333V17.6H10.2667Z" fill="white"/>
</g>
<defs>
<clipPath id="clip0_491_2707">
<rect width="22" height="22" fill="white"/>
</clipPath>
</defs>
</svg>
