<?xml version="1.0" standalone="no"?>
<!DOCTYPE svg PUBLIC "-//W3C//DTD SVG 20010904//EN"
 "http://www.w3.org/TR/2001/REC-SVG-20010904/DTD/svg10.dtd">
<svg version="1.0" xmlns="http://www.w3.org/2000/svg"
 width="100" height="100" viewBox="0 0 860.000000 816.000000"
 preserveAspectRatio="xMidYMid meet">

<g transform="translate(0.000000,816.000000) scale(0.100000,-0.100000)"
fill="#3f7473" stroke="none">
<path d="M2335 7718 c-32 -11 -91 -52 -113 -78 -7 -8 -23 -35 -35 -60 -20 -42
-22 -62 -25 -297 l-4 -252 -461 -3 c-442 -4 -465 -5 -535 -26 -205 -62 -362
-193 -452 -377 -76 -156 -71 51 -68 -2527 l3 -2313 28 -80 c64 -180 196 -330
361 -410 166 -80 30 -75 2001 -75 965 0 1755 2 1755 4 0 2 -11 46 -25 98 -32
119 -55 273 -55 366 l0 72 -1700 0 c-1867 0 -1729 -5 -1784 60 -14 17 -30 48
-36 69 -7 26 -9 572 -8 1662 l3 1624 2715 0 2715 0 3 -756 2 -756 105 -7 c107
-7 277 -34 373 -60 l52 -14 -2 1441 c-3 1433 -3 1442 -24 1503 -64 186 -196
343 -354 422 -154 76 -148 75 -667 80 l-463 3 0 252 c0 232 -2 256 -21 297
-27 60 -64 98 -124 126 -48 23 -58 24 -301 24 -271 0 -302 -5 -368 -55 -18
-14 -46 -49 -62 -77 l-29 -53 -3 -258 -3 -257 -827 2 -827 3 -5 265 c-5 250
-6 267 -27 300 -31 50 -71 86 -123 109 -42 19 -64 21 -300 20 -151 0 -267 -5
-285 -11z"/>
<path d="M2668 4724 c-54 -29 -58 -50 -58 -324 0 -203 3 -257 15 -280 31 -59
34 -60 328 -60 l269 0 34 34 34 34 0 261 c0 288 -3 307 -60 336 -42 22 -522
21 -562 -1z"/>
<path d="M3602 4706 l-37 -34 -3 -256 c-3 -223 -1 -260 14 -291 29 -62 43 -65
335 -65 l261 0 33 33 c44 44 47 72 43 344 -3 207 -4 223 -24 250 -38 51 -50
53 -327 53 l-257 0 -38 -34z"/>
<path d="M4563 4720 c-17 -10 -37 -28 -42 -39 -7 -12 -11 -117 -11 -286 l0
-267 34 -34 34 -34 261 0 c215 0 267 3 291 15 56 29 59 47 61 336 l1 263 -36
33 -36 33 -262 0 c-243 0 -265 -2 -295 -20z"/>
<path d="M5518 4724 c-54 -29 -58 -50 -58 -324 0 -205 3 -256 15 -280 29 -57
48 -60 336 -60 l261 0 34 34 34 34 0 266 c0 292 -2 301 -61 332 -41 21 -522
20 -561 -2z"/>
<path d="M1713 3801 c-17 -11 -37 -29 -42 -40 -7 -12 -11 -117 -11 -286 l0
-267 34 -34 34 -34 270 0 c369 0 344 -25 340 353 l-3 257 -33 32 -32 33 -263
3 c-246 2 -264 1 -294 -17z"/>
<path d="M2672 3803 c-61 -30 -63 -44 -60 -339 l3 -266 33 -29 32 -29 271 0
271 0 34 34 34 34 0 261 c0 293 -4 311 -65 337 -53 22 -507 20 -553 -3z"/>
<path d="M3635 3810 c-11 -4 -31 -20 -45 -35 l-25 -27 -3 -246 c-4 -268 2
-308 45 -341 24 -20 39 -21 290 -21 231 0 269 2 294 17 52 31 59 69 58 321 0
254 -6 284 -58 319 -33 22 -40 23 -285 22 -138 0 -260 -4 -271 -9z"/>
<path d="M4568 3805 c-55 -30 -58 -50 -58 -336 l0 -261 34 -34 34 -34 269 0
c294 0 297 1 328 60 12 24 15 78 15 289 l0 261 -29 32 -29 33 -269 2 c-223 2
-273 0 -295 -12z"/>
<path d="M6425 3129 c-38 -5 -112 -21 -163 -34 -259 -69 -454 -185 -644 -383
-182 -190 -294 -403 -350 -664 -28 -134 -31 -379 -5 -511 36 -183 109 -361
209 -512 70 -106 270 -307 373 -374 555 -362 1264 -290 1721 176 188 192 312
423 370 694 26 118 26 390 1 509 -61 283 -182 512 -377 709 -188 189 -441 325
-702 376 -100 20 -337 27 -433 14z m740 -919 l130 -131 -439 -437 -438 -437
-257 265 -258 265 101 96 c56 53 118 111 139 129 l38 33 125 -124 124 -124
298 298 c163 163 299 297 302 297 3 0 64 -59 135 -130z"/>
<path d="M1713 2870 c-17 -10 -37 -28 -42 -39 -7 -12 -11 -117 -11 -286 l0
-267 34 -34 34 -34 266 0 c292 0 301 2 332 61 20 40 21 504 0 554 -26 61 -45
65 -328 65 -233 0 -256 -2 -285 -20z"/>
<path d="M2668 2874 c-54 -29 -58 -50 -58 -324 0 -203 3 -257 15 -280 31 -59
34 -60 328 -60 l269 0 34 34 34 34 0 261 c0 288 -3 307 -60 336 -42 22 -522
21 -562 -1z"/>
<path d="M3635 2880 c-11 -4 -31 -20 -45 -35 l-25 -27 -3 -246 c-4 -279 1
-312 51 -342 30 -18 52 -20 294 -20 l261 0 31 26 c17 14 35 42 41 62 14 53 12
468 -3 512 -7 19 -27 44 -46 57 -33 22 -40 23 -285 22 -138 0 -260 -4 -271 -9z"/>
</g>
</svg>
