<svg width="18" height="18" viewBox="0 0 18 18" fill="none" xmlns="http://www.w3.org/2000/svg">
<path d="M9 1.5C4.86469 1.5 1.5 4.86469 1.5 9C1.5 13.1353 4.86469 16.5 9 16.5C13.1353 16.5 16.5 13.1353 16.5 9C16.5 4.86469 13.1353 1.5 9 1.5ZM4.3125 9C4.3125 8.22 4.5225 7.49625 4.86 6.84844L11.1516 13.14C10.4893 13.4941 9.75096 13.682 9 13.6875C6.41531 13.6875 4.3125 11.5847 4.3125 9ZM13.14 11.1516L6.84844 4.86C7.51067 4.50586 8.24904 4.31797 9 4.3125C11.5847 4.3125 13.6875 6.41531 13.6875 9C13.6875 9.78 13.4775 10.5038 13.14 11.1516Z" fill="#E71D36"/>
</svg>
