<svg width="18" height="18" viewBox="0 0 18 18" fill="none" xmlns="http://www.w3.org/2000/svg">
<path d="M11.6667 6.86667C11.6667 5.69013 12.6235 4.73333 13.8 4.73333C14.9765 4.73333 15.9333 5.69013 15.9333 6.86667C15.9333 8.0432 14.9765 9 13.8 9C12.6235 9 11.6667 8.0432 11.6667 6.86667ZM15.8805 9.76853C15.7994 9.69914 15.6994 9.65561 15.5933 9.64354C15.4872 9.63147 15.38 9.65141 15.2853 9.7008C14.3749 10.1792 13.2251 10.1792 12.3147 9.7008C12.22 9.65134 12.1128 9.63136 12.0067 9.64343C11.9006 9.6555 11.8006 9.69908 11.7195 9.76853C11.3686 10.0691 11.0869 10.4421 10.8936 10.8617C10.7004 11.2814 10.6002 11.738 10.6 12.2V12.7333C10.6 12.8748 10.6562 13.0104 10.7562 13.1105C10.8562 13.2105 10.9919 13.2667 11.1333 13.2667H16.4667C16.6081 13.2667 16.7438 13.2105 16.8438 13.1105C16.9438 13.0104 17 12.8748 17 12.7333V12.2C16.9998 11.738 16.8996 11.2814 16.7064 10.8617C16.5131 10.4421 16.2314 10.0691 15.8805 9.76853ZM9 7.4H7.4V5.8C7.40023 5.69442 7.36909 5.59115 7.31053 5.5033C7.25197 5.41545 7.16863 5.34697 7.07108 5.30657C6.97353 5.26617 6.86618 5.25566 6.76266 5.27638C6.65913 5.2971 6.56409 5.34811 6.4896 5.42293L3.2896 8.62293C3.18962 8.72295 3.13345 8.85858 3.13345 9C3.13345 9.14142 3.18962 9.27705 3.2896 9.37707L6.4896 12.5771C6.56419 12.6516 6.65921 12.7024 6.76265 12.723C6.86609 12.7435 6.97331 12.733 7.07075 12.6926C7.16819 12.6523 7.25148 12.5839 7.31008 12.4962C7.36869 12.4086 7.39998 12.3055 7.4 12.2V10.6H9C9.14145 10.6 9.27711 10.5438 9.37712 10.4438C9.47714 10.3438 9.53333 10.2081 9.53333 10.0667V7.93333C9.53333 7.79188 9.47714 7.65623 9.37712 7.55621C9.27711 7.45619 9.14145 7.4 9 7.4ZM9.53333 16.4667C9.53333 16.3252 9.47714 16.1896 9.37712 16.0895C9.27711 15.9895 9.14145 15.9333 9 15.9333H3.13333C2.54507 15.9333 2.06667 15.4549 2.06667 14.8667V3.13333C2.06667 2.54507 2.54507 2.06667 3.13333 2.06667H9C9.14145 2.06667 9.27711 2.01048 9.37712 1.91046C9.47714 1.81044 9.53333 1.67478 9.53333 1.53333C9.53333 1.39188 9.47714 1.25623 9.37712 1.15621C9.27711 1.05619 9.14145 1 9 1H3.13333C1.9568 1 1 1.9568 1 3.13333V14.8667C1 16.0432 1.9568 17 3.13333 17H9C9.14145 17 9.27711 16.9438 9.37712 16.8438C9.47714 16.7438 9.53333 16.6081 9.53333 16.4667Z" fill="#5B93FF"/>
</svg>
