<svg width="18" height="18" viewBox="0 0 18 18" fill="none" xmlns="http://www.w3.org/2000/svg">
<path d="M6.33333 6.86667C6.33333 5.69013 5.37653 4.73333 4.2 4.73333C3.02347 4.73333 2.06667 5.69013 2.06667 6.86667C2.06667 8.0432 3.02347 9 4.2 9C5.37653 9 6.33333 8.0432 6.33333 6.86667ZM2.11947 9.76853C2.20059 9.69914 2.30062 9.65561 2.4067 9.64354C2.51277 9.63147 2.62002 9.65141 2.71467 9.7008C3.62507 10.1792 4.77493 10.1792 5.68533 9.7008C5.77996 9.65134 5.88723 9.63136 5.99332 9.64343C6.0994 9.6555 6.19944 9.69908 6.28053 9.76853C6.63142 10.0691 6.91315 10.4421 7.10638 10.8617C7.29961 11.2814 7.39977 11.738 7.4 12.2V12.7333C7.4 12.8748 7.34381 13.0104 7.24379 13.1105C7.14377 13.2105 7.00811 13.2667 6.86667 13.2667H1.53333C1.39188 13.2667 1.25623 13.2105 1.15621 13.1105C1.05619 13.0104 1 12.8748 1 12.7333V12.2C1.00023 11.738 1.10039 11.2814 1.29362 10.8617C1.48685 10.4421 1.76858 10.0691 2.11947 9.76853ZM9 7.4H10.6V5.8C10.5998 5.69442 10.6309 5.59115 10.6895 5.5033C10.748 5.41545 10.8314 5.34697 10.9289 5.30657C11.0265 5.26617 11.1338 5.25566 11.2373 5.27638C11.3409 5.2971 11.4359 5.34811 11.5104 5.42293L14.7104 8.62293C14.8104 8.72295 14.8666 8.85858 14.8666 9C14.8666 9.14142 14.8104 9.27705 14.7104 9.37707L11.5104 12.5771C11.4358 12.6516 11.3408 12.7024 11.2373 12.723C11.1339 12.7435 11.0267 12.733 10.9293 12.6926C10.8318 12.6523 10.7485 12.5839 10.6899 12.4962C10.6313 12.4086 10.6 12.3055 10.6 12.2V10.6H9C8.85855 10.6 8.72289 10.5438 8.62288 10.4438C8.52286 10.3438 8.46667 10.2081 8.46667 10.0667V7.93333C8.46667 7.79189 8.52286 7.65623 8.62288 7.55621C8.72289 7.45619 8.85855 7.4 9 7.4ZM8.46667 16.4667C8.46667 16.3252 8.52286 16.1896 8.62288 16.0895C8.72289 15.9895 8.85855 15.9333 9 15.9333H14.8667C15.4549 15.9333 15.9333 15.4549 15.9333 14.8667V3.13333C15.9333 2.54507 15.4549 2.06667 14.8667 2.06667H9C8.85855 2.06667 8.72289 2.01048 8.62288 1.91046C8.52286 1.81044 8.46667 1.67478 8.46667 1.53333C8.46667 1.39188 8.52286 1.25623 8.62288 1.15621C8.72289 1.05619 8.85855 1 9 1H14.8667C16.0432 1 17 1.9568 17 3.13333V14.8667C17 16.0432 16.0432 17 14.8667 17H9C8.85855 17 8.72289 16.9438 8.62288 16.8438C8.52286 16.7438 8.46667 16.6081 8.46667 16.4667Z" fill="#5B93FF"/>
</svg>
