<svg width="30" height="30" viewBox="0 0 30 30" fill="none" xmlns="http://www.w3.org/2000/svg">
<path fill-rule="evenodd" clip-rule="evenodd" d="M13.0568 2.27844C12.0513 2.27844 11.1959 2.97717 10.9558 3.91894H19.0298C18.7897 2.97717 17.9342 2.27844 16.9287 2.27844H13.0568ZM21.3107 3.91897H24.2821C27.4337 3.91897 30 6.51642 30 9.70628C30 9.70628 29.91 11.0567 29.8799 12.9371C29.8769 13.086 29.8049 13.2318 29.6863 13.3199C28.9645 13.8531 28.3042 14.2936 28.2441 14.324C25.7529 15.9949 22.8579 17.1705 19.7739 17.7554C19.5728 17.7948 19.3747 17.69 19.2726 17.5108C18.4082 16.0131 16.7934 15.0379 14.9925 15.0379C13.2036 15.0379 11.5738 16.0025 10.6838 17.5017C10.5803 17.6779 10.3852 17.7797 10.1856 17.7417C7.12706 17.1554 4.23212 15.9812 1.75588 14.3392L0.315158 13.3366C0.195098 13.2607 0.12006 13.124 0.12006 12.9721C0.0750375 12.1974 0 9.70628 0 9.70628C0 6.51642 2.56628 3.91897 5.71786 3.91897H8.67434C8.95948 1.71645 10.8054 0 13.0565 0H16.9285C19.1796 0 21.0255 1.71645 21.3107 3.91897ZM29.4891 16.2228L29.4291 16.2532C26.3976 18.2886 22.7507 19.6405 18.9238 20.2026C18.3835 20.2785 17.8433 19.9291 17.6932 19.3823C17.363 18.1367 16.2975 17.3165 15.0219 17.3165H15.0069H14.9768C13.7012 17.3165 12.6357 18.1367 12.3055 19.3823C12.1554 19.9291 11.6152 20.2785 11.0749 20.2026C7.24798 19.6405 3.60116 18.2886 0.569644 16.2532C0.554637 16.238 0.404562 16.1469 0.284502 16.2228C0.149434 16.2988 0.149434 16.4811 0.149434 16.4811L0.254487 24.2279C0.254487 27.4177 2.80576 30 5.95734 30H24.0264C27.1779 30 29.7292 27.4177 29.7292 24.2279L29.8493 16.4811C29.8493 16.4811 29.8493 16.2988 29.7142 16.2228C29.6392 16.1773 29.5491 16.1925 29.4891 16.2228ZM16.1175 22.5875C16.1175 23.2255 15.6223 23.7267 14.992 23.7267C14.3766 23.7267 13.8664 23.2255 13.8664 22.5875V20.628C13.8664 20.0052 14.3766 19.4888 14.992 19.4888C15.6223 19.4888 16.1175 20.0052 16.1175 20.628V22.5875Z" fill="white"/>
</svg>
