<svg width="37" height="36" viewBox="0 0 37 36" fill="none" xmlns="http://www.w3.org/2000/svg">
<path d="M23.3925 16.2493C23.3673 17.3765 20.4081 19.814 19.1862 20.7734L19.1941 20.7731C20.5834 20.7731 21.8448 21.4794 22.5691 22.6627L24.6165 26.0049L25.8552 28.0292C28.5693 27.8766 30.4607 27.1699 30.4607 24.0019C30.4618 19.9433 27.3575 16.6111 23.3925 16.2493ZM14.1027 26.69C14.8101 26.69 15.4879 26.8758 16.0859 27.2181L15.8253 26.7923C15.5528 26.3499 15.3707 25.8579 15.2896 25.3447C15.2086 24.8315 15.2301 24.3073 15.3529 23.8025C15.473 23.2969 15.6921 22.8203 15.9977 22.4001C16.3033 21.9798 16.6892 21.6244 17.1331 21.3545C17.4901 21.1371 17.8791 20.9776 18.2859 20.8818C17.1684 20.0131 13.967 17.4218 13.9407 16.2493C9.97671 16.6111 6.87207 19.9433 6.87207 24.0026C6.87207 27.0374 8.60763 27.8136 11.1395 28.0076C11.1838 27.959 11.2248 27.9093 11.2713 27.8622C11.6423 27.4893 12.0835 27.1937 12.5695 26.9925C13.0556 26.7913 13.5767 26.6885 14.1027 26.69ZM18.6685 17.2681C22.2545 17.2681 25.1611 11.8764 25.1611 8.29115C25.1611 4.70627 22.2549 1.79999 18.6685 1.79999C15.0837 1.79999 12.1774 4.70627 12.1774 8.29115C12.1778 11.8764 15.084 17.2681 18.6685 17.2681Z" fill="white"/>
<path d="M23.621 26.6148L21.5737 23.2729C21.3829 22.9606 21.1324 22.6891 20.8365 22.4737C20.5406 22.2584 20.2052 22.1035 19.8493 22.0179C19.4935 21.9324 19.1243 21.9178 18.7629 21.9751C18.4015 22.0323 18.0549 22.1603 17.7429 22.3517C17.1126 22.7376 16.6614 23.3581 16.4885 24.0767C16.3156 24.7953 16.4352 25.5531 16.821 26.1835L18.8672 29.5261L20.9127 32.8684C21.1039 33.1805 21.3547 33.452 21.6507 33.6673C21.9468 33.8826 22.2824 34.0374 22.6383 34.123C22.9942 34.2086 23.3635 34.2232 23.7251 34.1661C24.0867 34.1089 24.4335 33.9811 24.7457 33.79C25.0578 33.5988 25.3293 33.348 25.5446 33.0519C25.7599 32.7559 25.9147 32.4203 26.0003 32.0644C26.0859 31.7084 26.1005 31.3392 26.0434 30.9776C25.9862 30.616 25.8584 30.2692 25.6672 29.957L23.621 26.6148ZM18.1073 22.945C18.3413 22.8016 18.6014 22.7059 18.8725 22.6631C19.1436 22.6203 19.4205 22.6313 19.6874 22.6956C19.9542 22.7598 20.2058 22.876 20.4277 23.0375C20.6496 23.1991 20.8376 23.4027 20.9808 23.6369L23.027 26.978L19.4623 29.1607L17.4161 25.8188C17.1268 25.346 17.0372 24.7777 17.1668 24.2388C17.2964 23.6999 17.6347 23.2345 18.1073 22.945ZM15.7147 28.3612C15.2401 28.033 14.6767 27.8575 14.0997 27.8582C13.7276 27.8576 13.3591 27.9306 13.0154 28.0731C12.6717 28.2156 12.3596 28.4247 12.097 28.6884C11.1117 29.673 11.0048 31.2008 11.7705 32.306L15.7147 28.3612ZM16.4624 29.1208L12.5283 33.053C12.9944 33.3644 13.5425 33.5303 14.103 33.5297C14.6161 33.5293 15.1196 33.3898 15.5597 33.126C15.9998 32.8621 16.3601 32.4838 16.6023 32.0314C16.8444 31.5789 16.9592 31.0693 16.9346 30.5567C16.91 30.0442 16.7468 29.5479 16.4624 29.1208Z" fill="white"/>
</svg>
