<svg width="37" height="36" viewBox="0 0 37 36" fill="none" xmlns="http://www.w3.org/2000/svg">
<path d="M24.3335 13.5H12.3335C11.9357 13.5 11.5541 13.342 11.2728 13.0607C10.9915 12.7794 10.8335 12.3978 10.8335 12V10.5C10.8335 8.51088 11.6237 6.60322 13.0302 5.1967C14.4367 3.79018 16.3444 3 18.3335 3C20.3226 3 22.2303 3.79018 23.6368 5.1967C25.0433 6.60322 25.8335 8.51088 25.8335 10.5V12C25.8335 12.3978 25.6755 12.7794 25.3942 13.0607C25.1129 13.342 24.7313 13.5 24.3335 13.5ZM13.8335 10.5H22.8335C22.8335 9.30653 22.3594 8.16193 21.5155 7.31802C20.6716 6.47411 19.527 6 18.3335 6C17.14 6 15.9954 6.47411 15.1515 7.31802C14.3076 8.16193 13.8335 9.30653 13.8335 10.5Z" fill="white"/>
<path d="M29.5086 11.325C25.3236 8.22 11.3436 8.22 7.15861 11.325C4.26361 13.5 3.15361 18.45 3.33361 22.5C3.51361 26.55 4.95361 29.685 7.24861 31.065C9.54361 32.445 13.9236 33 18.3336 33C22.7436 33 27.1686 32.34 29.3886 31.005C31.6086 29.67 33.1086 26.505 33.3036 22.44C33.4986 18.375 32.4036 13.5 29.5086 11.325ZM22.0836 22.5H19.8336V24.75C19.8336 25.1478 19.6756 25.5294 19.3943 25.8107C19.113 26.092 18.7314 26.25 18.3336 26.25C17.9358 26.25 17.5543 26.092 17.273 25.8107C16.9916 25.5294 16.8336 25.1478 16.8336 24.75V22.5H14.5836C14.1858 22.5 13.8043 22.342 13.523 22.0607C13.2416 21.7794 13.0836 21.3978 13.0836 21C13.0836 20.6022 13.2416 20.2206 13.523 19.9393C13.8043 19.658 14.1858 19.5 14.5836 19.5H16.8336V17.25C16.8336 16.8522 16.9916 16.4706 17.273 16.1893C17.5543 15.908 17.9358 15.75 18.3336 15.75C18.7314 15.75 19.113 15.908 19.3943 16.1893C19.6756 16.4706 19.8336 16.8522 19.8336 17.25V19.5H22.0836C22.4814 19.5 22.863 19.658 23.1443 19.9393C23.4256 20.2206 23.5836 20.6022 23.5836 21C23.5836 21.3978 23.4256 21.7794 23.1443 22.0607C22.863 22.342 22.4814 22.5 22.0836 22.5Z" fill="white"/>
</svg>
