<svg width="567" height="567" viewBox="0 0 567 567" fill="none" xmlns="http://www.w3.org/2000/svg">
<g clip-path="url(#clip0_197_3288)">
<path d="M0 566.934H566.929V0.00426556H0V566.934Z" fill="#C9C9C9"/>
<path d="M84.0269 486.827C84.0269 499.676 173.57 510.091 284.026 510.091C394.484 510.091 484.026 499.676 484.026 486.827C484.026 473.978 394.484 463.563 284.026 463.563C173.57 463.563 84.0269 473.978 84.0269 486.827Z" fill="#9F9F9F"/>
<path d="M214.365 225.603C212.704 217.233 204.737 209.441 193.803 211.831C182.881 214.227 182.843 224.416 184.504 232.793C184.597 233.225 189.972 255.863 193.133 260.62C196.289 265.391 200.872 274.443 208.557 271.864C213.639 270.157 216.632 261.107 217.835 254.572C219.035 248.037 214.365 225.603 214.365 225.603Z" fill="#F9AA78"/>
<path d="M353.467 225.263C355.129 216.892 363.093 209.103 374.028 211.494C384.96 213.886 386.029 224.372 384.373 232.74C384.281 233.184 378.472 254.132 375.747 260.582C373.504 265.894 367.399 275.246 359.464 271.975C354.504 269.928 351.2 260.766 349.997 254.231C348.797 247.699 353.467 225.263 353.467 225.263Z" fill="#F9AA78"/>
<path d="M113.948 481.611H452.983C452.983 481.611 446.301 398.392 435.179 385.92C424.051 373.451 339.299 345.571 339.299 345.571L228.524 345.25C228.524 345.25 139.345 371.348 133.253 385.92C127.161 400.492 113.948 481.611 113.948 481.611Z" fill="#42A3AB"/>
<path d="M247.725 345.304L245.888 345.299H245.887L247.724 345.304H247.725Z" fill="#B8AA15"/>
<path d="M158.672 481.611H113.948C113.948 481.611 127.161 400.492 133.253 385.92C139.345 371.348 228.524 345.25 228.524 345.25C228.524 345.25 230.677 350.57 234.172 357.88C209.364 366.582 181.301 377.966 177.975 385.92C171.885 400.492 158.672 481.611 158.672 481.611ZM254.632 351.014L245.888 345.299L247.725 345.304C249.992 346.948 252.672 348.818 255.584 350.708C255.269 350.808 254.952 350.911 254.632 351.014Z" fill="#31868F"/>
<path d="M240.507 339.803C240.507 339.803 268.433 362.702 284.097 362.702C299.757 362.702 327.678 339.803 327.678 339.803C327.678 339.803 315.86 326.048 324.007 307.979C332.151 289.915 233.173 291.394 244.68 307.979C256.181 324.567 240.507 339.803 240.507 339.803Z" fill="#D5835C"/>
<path d="M269.523 358.574C255.399 351.986 240.522 339.815 240.507 339.803C240.507 339.803 246.835 333.652 248.499 324.912C259.813 331.254 272.248 335.295 284.092 335.339C284.187 335.339 284.283 335.339 284.378 335.339C284.463 335.339 284.548 335.339 284.633 335.339C284.639 335.339 284.645 335.339 284.652 335.339C284.663 335.339 284.673 335.339 284.685 335.339C297.645 335.284 310.037 331.746 321.02 325.74C293.12 341.675 289.159 337.368 282.495 342.226C275.789 347.11 271.606 352.848 269.523 358.574Z" fill="#BD694C"/>
<path d="M339.299 345.571L323.369 345.524L332.041 340.067L339.299 345.571ZM245.887 345.299L228.524 345.249L234.996 338.181L245.887 345.299Z" fill="#B8AA15"/>
<path d="M302.381 401.744C299.98 401.744 285.849 377.177 284.075 377.177C280.496 377.177 270.487 399.055 265.179 399.055C264.971 399.055 264.771 399.021 264.579 398.952C253.419 394.929 241.135 372.452 234.172 357.88C241.519 355.304 248.584 352.961 254.632 351.013L284.075 370.256L323.369 345.524L339.299 345.571C339.299 345.571 319.615 397.823 302.449 401.737C302.428 401.741 302.405 401.744 302.381 401.744Z" fill="#31868F"/>
<path d="M245.888 345.299L228.524 345.249L245.887 345.299H245.888Z" fill="#878916"/>
<path d="M234.172 357.88C230.677 350.57 228.524 345.25 228.524 345.25L245.888 345.299L254.632 351.014C248.584 352.962 241.519 355.304 234.172 357.88Z" fill="#256E78"/>
<path d="M364.139 162.631C364.139 126.312 341.639 89.8721 282.069 89.8721C222.499 89.8721 200.869 129.749 200.869 166.071C200.869 167.977 200.687 266.737 212.253 289.416C223.819 312.087 255.657 335.232 284.092 335.339C315.188 335.461 343.131 315.487 356.187 289.416C369.244 263.336 364.139 162.631 364.139 162.631Z" fill="#F9AA78"/>
<path d="M353.534 228.784C316.418 228.784 278.781 178.55 258.68 172.292C257.922 172.058 257.153 171.948 256.374 171.948C251.113 171.948 245.397 176.951 239.665 181.952C237.324 183.996 234.978 186.039 232.661 187.742C239.358 182.536 246.49 175.9 251.517 165.283C252.149 165.255 252.782 165.242 253.408 165.242C290.312 165.242 314.185 212.323 355.14 214.943C354.234 220.239 353.969 224.834 354.105 228.78C353.913 228.783 353.726 228.784 353.534 228.784Z" fill="#E79769"/>
<path d="M284.8 335.337C284.801 335.337 284.804 335.337 284.805 335.337C284.803 335.337 284.803 335.337 284.8 335.337ZM284.951 335.337C300.757 335.208 315.624 329.777 328.191 321.135C318.772 325.277 308.525 327.677 297.889 327.677C297.789 327.677 297.691 327.677 297.589 327.677C269.157 327.571 237.316 304.429 225.752 281.751C219.352 269.2 216.549 233.351 215.323 203.509C217.208 199.58 220.965 196.468 225.505 193.081C226.889 221.081 229.733 251.965 235.577 263.424C247.144 286.099 278.98 309.244 307.416 309.352C307.508 309.352 307.599 309.352 307.691 309.352C323.941 309.352 339.311 303.848 352.141 294.88C352.599 294.664 353.047 294.429 353.501 294.213C353.624 294.007 353.781 293.821 353.903 293.615C340.188 317.365 314.008 335.107 284.951 335.337Z" fill="#E79769"/>
<path d="M351.856 295.011C352.535 294.539 353.236 294.101 353.903 293.615C353.32 294.044 352.733 294.465 352.141 294.88C352.047 294.924 351.951 294.968 351.856 295.011Z" fill="#E79769"/>
<path d="M352.142 294.88C352.734 294.466 353.32 294.044 353.903 293.615C353.782 293.822 353.624 294.007 353.502 294.214C353.047 294.43 352.599 294.664 352.142 294.88Z" fill="#D8865C"/>
<path d="M284.376 335.339C284.284 335.339 284.185 335.339 284.092 335.339C284.185 335.339 284.28 335.339 284.373 335.339C284.516 335.339 284.658 335.339 284.8 335.338C284.762 335.339 284.724 335.339 284.685 335.339C284.674 335.339 284.662 335.339 284.652 335.339C284.645 335.339 284.638 335.339 284.633 335.339C284.548 335.339 284.461 335.339 284.376 335.339ZM284.914 335.338C284.925 335.338 284.94 335.338 284.95 335.338C284.938 335.338 284.926 335.338 284.914 335.338Z" fill="#E79769"/>
<path d="M284.373 335.339C284.28 335.339 284.185 335.339 284.092 335.339C255.657 335.232 223.819 312.087 212.253 289.416C205.955 277.066 203.14 242.151 201.883 212.604C201.884 212.604 201.884 212.604 201.884 212.606C204.783 244.311 211.564 244.774 211.957 244.774C211.969 244.774 211.975 244.774 211.975 244.774C211.975 244.774 212.631 222.595 214.08 207.938C214.239 206.334 214.668 204.872 215.323 203.51C216.549 233.351 219.352 269.2 225.752 281.751C237.316 304.43 269.157 327.571 297.589 327.678C297.691 327.678 297.789 327.678 297.889 327.678C308.525 327.678 318.772 325.278 328.191 321.135C315.624 329.778 300.757 335.208 284.951 335.338C284.94 335.338 284.925 335.338 284.915 335.338C284.901 335.338 284.888 335.338 284.875 335.338C284.851 335.338 284.828 335.338 284.805 335.338C284.804 335.338 284.801 335.338 284.8 335.338C284.659 335.339 284.516 335.339 284.373 335.339Z" fill="#D8865C"/>
<path d="M377.465 153.97C370.135 113.987 337.481 84.9978 284.092 85.3285C230.859 85.6631 195.868 118.291 188.873 155.3C185.875 171.15 183.559 201.283 184.792 219.242C193.803 211.831 197.52 210.867 201.884 212.606C204.869 245.263 211.975 244.774 211.975 244.774C211.975 244.774 212.631 222.595 214.08 207.938C215.531 193.286 239.523 190.623 251.517 165.283C289.504 163.631 313.491 212.279 355.14 214.943C351.021 239.02 360.141 248.599 360.141 248.599C360.141 248.599 361.108 228.708 364.469 219.275C367.399 211.056 376.135 211.056 380.453 214.62C382.527 199.663 381.516 176.059 377.465 153.97Z" fill="#311B19"/>
<path d="M380.453 214.62C379.204 213.596 377.58 212.911 375.845 212.585C375.845 212.568 375.845 212.552 375.847 212.535C377.587 212.857 379.204 213.589 380.453 214.62Z" fill="#FABC91"/>
<path d="M256.903 88.5508C256.917 88.5481 256.931 88.5441 256.947 88.5401C256.932 88.5441 256.916 88.5481 256.903 88.5508ZM256.953 88.5388C265.359 86.5148 274.424 85.3895 284.092 85.3281C274.427 85.3895 265.357 86.5161 256.953 88.5388Z" fill="#FDDC1F"/>
<path d="M380.453 214.62C379.204 213.589 377.586 212.857 375.846 212.535C376.168 198.701 374.848 181.688 371.873 165.467C364.582 125.705 332.258 96.8215 279.398 96.8215C279.1 96.8215 278.798 96.8228 278.498 96.8241C237.69 97.0775 207.664 116.339 192.69 141.977C202.217 117.263 224.712 96.3188 256.902 88.5508C256.916 88.5481 256.932 88.5441 256.946 88.5401C256.948 88.5401 256.95 88.5388 256.953 88.5388C265.357 86.5161 274.426 85.3895 284.092 85.3281C284.396 85.3268 284.696 85.3268 284.997 85.3268C337.849 85.3268 370.176 114.213 377.465 153.969C380.15 168.616 381.5 183.929 381.5 196.947C381.5 203.557 381.152 209.576 380.453 214.615C380.453 214.616 380.453 214.619 380.453 214.62Z" fill="#492C25"/>
<path d="M211.957 244.773C211.564 244.773 204.782 244.311 201.884 212.605C200.702 212.135 199.568 211.861 198.362 211.861C195.118 211.861 191.362 213.837 184.792 219.241C184.37 213.101 184.386 205.509 184.681 197.588C184.722 198.46 184.736 199.424 184.792 200.245C200.869 195.508 239.522 171.629 251.517 146.287C252.036 146.264 252.549 146.253 253.066 146.253C290.444 146.253 324.562 204.44 354.622 214.873C313.996 211.881 290.149 165.241 253.41 165.241C252.784 165.241 252.152 165.255 251.517 165.283C239.522 190.623 215.53 193.285 214.08 207.937C212.63 222.595 211.974 244.773 211.974 244.773C211.974 244.773 211.969 244.773 211.957 244.773Z" fill="#21110E"/>
<path d="M234.996 326.854L228.524 345.25C228.524 345.25 247.82 381.584 264.579 387.624C269.695 389.471 280.357 365.852 284.075 365.852C285.867 365.852 300.261 390.911 302.449 390.41C319.615 386.495 339.299 345.571 339.299 345.571L332.041 328.739L284.075 358.928L234.996 326.854Z" fill="white"/>
</g>
<defs>
<clipPath id="clip0_197_3288">
<rect width="566.933" height="566.933" fill="white"/>
</clipPath>
</defs>
</svg>
