<svg width="25" height="24" viewBox="0 0 25 24" fill="none" xmlns="http://www.w3.org/2000/svg">
<path d="M19.5 5.25H16.25V5C16.2495 4.27082 15.9596 3.57165 15.444 3.05604C14.9283 2.54043 14.2292 2.25053 13.5 2.25H11.5C10.7708 2.25053 10.0717 2.54043 9.55604 3.05604C9.04043 3.57165 8.75053 4.27082 8.75 5V5.25H5.5C5.30109 5.25 5.11032 5.32902 4.96967 5.46967C4.82902 5.61032 4.75 5.80109 4.75 6C4.75 6.19891 4.82902 6.38968 4.96967 6.53033C5.11032 6.67098 5.30109 6.75 5.5 6.75H5.75V19C5.75053 19.7292 6.04043 20.4283 6.55604 20.944C7.07165 21.4596 7.77082 21.7495 8.5 21.75H16.5C17.2292 21.7495 17.9283 21.4596 18.444 20.944C18.9596 20.4283 19.2495 19.7292 19.25 19V6.75H19.5C19.6989 6.75 19.8897 6.67098 20.0303 6.53033C20.171 6.38968 20.25 6.19891 20.25 6C20.25 5.80109 20.171 5.61032 20.0303 5.46967C19.8897 5.32902 19.6989 5.25 19.5 5.25ZM10.25 5C10.25 4.311 10.811 3.75 11.5 3.75H13.5C14.189 3.75 14.75 4.311 14.75 5V5.25H10.25V5ZM11.25 16C11.25 16.1989 11.171 16.3897 11.0303 16.5303C10.8897 16.671 10.6989 16.75 10.5 16.75C10.3011 16.75 10.1103 16.671 9.96967 16.5303C9.82902 16.3897 9.75 16.1989 9.75 16V11C9.75 10.8011 9.82902 10.6103 9.96967 10.4697C10.1103 10.329 10.3011 10.25 10.5 10.25C10.6989 10.25 10.8897 10.329 11.0303 10.4697C11.171 10.6103 11.25 10.8011 11.25 11V16ZM15.25 16C15.25 16.1989 15.171 16.3897 15.0303 16.5303C14.8897 16.671 14.6989 16.75 14.5 16.75C14.3011 16.75 14.1103 16.671 13.9697 16.5303C13.829 16.3897 13.75 16.1989 13.75 16V11C13.75 10.8011 13.829 10.6103 13.9697 10.4697C14.1103 10.329 14.3011 10.25 14.5 10.25C14.6989 10.25 14.8897 10.329 15.0303 10.4697C15.171 10.6103 15.25 10.8011 15.25 11V16Z" fill="#FF2E29"/>
</svg>
