<svg width="24" height="24" viewBox="0 0 24 24" fill="none" xmlns="http://www.w3.org/2000/svg">
<path d="M16.0686 5.81268C16.0686 3.58778 14.2585 1.77771 12.0336 1.77771C9.80871 1.77771 7.99863 3.58778 7.99863 5.81268C7.99863 8.03758 9.80865 9.84771 12.0336 9.84771C14.2586 9.84771 16.0686 8.03758 16.0686 5.81268ZM12.0336 9.84771C7.08956 9.84771 3.0672 13.8701 3.0672 18.8141V21.5002C3.0672 21.9952 3.46852 22.3965 3.96354 22.3965H20.1037C20.5987 22.3965 21 21.9952 21 21.5002V18.8141C21 13.8701 16.9776 9.84771 12.0336 9.84771ZM15.9715 16.9587H15.0752V17.855C15.0752 18.3501 14.6739 18.7514 14.1788 18.7514C13.6838 18.7514 13.2825 18.3501 13.2825 17.855V16.9587H12.3862C11.8911 16.9587 11.4898 16.5574 11.4898 16.0624C11.4898 15.5673 11.8911 15.166 12.3862 15.166H13.2825V14.2697C13.2825 13.7746 13.6838 13.3733 14.1788 13.3733C14.6739 13.3733 15.0752 13.7746 15.0752 14.2697V15.166H15.9715C16.4666 15.166 16.8679 15.5673 16.8679 16.0624C16.8679 16.5574 16.4666 16.9587 15.9715 16.9587Z" fill="#3f7473"/>
</svg>
