<svg width="24" height="24" viewBox="0 0 24 24" fill="none" xmlns="http://www.w3.org/2000/svg">
<path d="M16 9H8C7.73478 9 7.48043 8.89464 7.29289 8.70711C7.10536 8.51957 7 8.26522 7 8V7C7 5.67392 7.52678 4.40215 8.46447 3.46447C9.40215 2.52678 10.6739 2 12 2C13.3261 2 14.5979 2.52678 15.5355 3.46447C16.4732 4.40215 17 5.67392 17 7V8C17 8.26522 16.8946 8.51957 16.7071 8.70711C16.5196 8.89464 16.2652 9 16 9ZM9 7H15C15 6.20435 14.6839 5.44129 14.1213 4.87868C13.5587 4.31607 12.7956 4 12 4C11.2044 4 10.4413 4.31607 9.87868 4.87868C9.31607 5.44129 9 6.20435 9 7Z" fill="#3f7473"/>
<path d="M19.45 7.55C16.66 5.48 7.34 5.48 4.55 7.55C2.62 9 1.88 12.3 2 15C2.12 17.7 3.08 19.79 4.61 20.71C6.14 21.63 9.06 22 12 22C14.94 22 17.89 21.56 19.37 20.67C20.85 19.78 21.85 17.67 21.98 14.96C22.11 12.25 21.38 9 19.45 7.55ZM14.5 15H13V16.5C13 16.7652 12.8946 17.0196 12.7071 17.2071C12.5196 17.3946 12.2652 17.5 12 17.5C11.7348 17.5 11.4804 17.3946 11.2929 17.2071C11.1054 17.0196 11 16.7652 11 16.5V15H9.5C9.23478 15 8.98043 14.8946 8.79289 14.7071C8.60535 14.5196 8.5 14.2652 8.5 14C8.5 13.7348 8.60535 13.4804 8.79289 13.2929C8.98043 13.1054 9.23478 13 9.5 13H11V11.5C11 11.2348 11.1054 10.9804 11.2929 10.7929C11.4804 10.6054 11.7348 10.5 12 10.5C12.2652 10.5 12.5196 10.6054 12.7071 10.7929C12.8946 10.9804 13 11.2348 13 11.5V13H14.5C14.7652 13 15.0196 13.1054 15.2071 13.2929C15.3946 13.4804 15.5 13.7348 15.5 14C15.5 14.2652 15.3946 14.5196 15.2071 14.7071C15.0196 14.8946 14.7652 15 14.5 15Z" fill="#3f7473"/>
</svg>
