<svg width="24" height="24" viewBox="0 0 24 24" fill="none" xmlns="http://www.w3.org/2000/svg">
<g clip-path="url(#clip0_196_3286)">
<path d="M10.03 0V3H7.78C5.74 3 4.03 4.71 4.03 6.75V8.25C4.03 10.29 5.35 11.97 7.3 12.48L14.98 14.46C15.4 14.58 16 15.33 16 15.78V17.28C16 17.7 15.67 18.03 15.25 18.03H7.75C7.48942 18.029 7.23266 17.9674 7 17.85V15.03H4V18.03C4 19.05 4.6 19.92 5.32 20.37C6.01 20.85 6.88 21.03 7.75 21.03H10V24.03H13V21.03H15.25C17.32 21.03 19 19.35 19 17.28V15.78C19 13.74 17.68 12.06 15.73 11.55L8.05 9.57C7.63 9.45 7.03 8.7 7.03 8.25V6.75C7.03 6.33 7.36 6 7.78 6H15.28C15.61 6 15.91 6.12 16.03 6.18V9H19.03V6C19.03 4.98 18.43 4.11 17.71 3.66C17.02 3.18 16.15 3 15.28 3H13.03V0H10.03Z" fill="#3f7473"/>
</g>
<defs>
<clipPath id="clip0_196_3286">
<rect width="24" height="24" fill="white"/>
</clipPath>
</defs>
</svg>
