<svg width="17" height="16" viewBox="0 0 17 16" fill="none" xmlns="http://www.w3.org/2000/svg">
<path d="M14.1665 5.59164L8.23067 11.5275C8.02525 11.7329 7.75609 11.8604 7.46567 11.8887L5.39025 12.08H5.31234C5.07859 12.08 4.85192 11.9879 4.689 11.8179C4.50484 11.6337 4.41275 11.3716 4.434 11.1096L4.62525 9.03414C4.65359 8.74373 4.78109 8.47456 4.9865 8.26914L10.9082 2.33331L14.1665 5.59164ZM15.5407 1.46206L15.0378 0.959142C14.6717 0.595023 14.1764 0.390625 13.66 0.390625C13.1437 0.390625 12.6484 0.595023 12.2823 0.959142L11.659 1.58248L14.9173 4.84081L15.5407 4.21748C15.7221 4.03757 15.8661 3.82351 15.9644 3.58766C16.0627 3.3518 16.1133 3.09882 16.1133 2.84331C16.1133 2.5878 16.0627 2.33481 15.9644 2.09896C15.8661 1.8631 15.7221 1.64905 15.5407 1.46914V1.46206ZM14.6978 12.9654V8.84998C14.6978 8.55956 14.4569 8.31873 14.1665 8.31873C13.8761 8.31873 13.6353 8.55956 13.6353 8.84998V12.9654C13.6353 13.8437 12.9198 14.5591 12.0415 14.5591H3.5415C2.66317 14.5591 1.94775 13.8437 1.94775 12.9654V4.45831C1.94775 3.57998 2.66317 2.86456 3.5415 2.86456H7.65692C7.94734 2.86456 8.18817 2.62373 8.18817 2.33331C8.18817 2.04289 7.94734 1.80206 7.65692 1.80206H3.5415C2.07525 1.80206 0.885254 2.99206 0.885254 4.45831V12.9583C0.885254 14.4246 2.07525 15.6146 3.5415 15.6146H12.0415C13.5078 15.6146 14.6978 14.4246 14.6978 12.9583V12.9654Z" fill="black"/>
</svg>
