<svg width="18" height="18" viewBox="0 0 18 18" fill="none" xmlns="http://www.w3.org/2000/svg">
<path d="M14.6665 6.59164L8.73067 12.5275C8.52525 12.7329 8.25609 12.8604 7.96567 12.8887L5.89025 13.08H5.81234C5.57859 13.08 5.35192 12.9879 5.189 12.8179C5.00484 12.6337 4.91275 12.3716 4.934 12.1096L5.12525 10.0341C5.15359 9.74373 5.28109 9.47456 5.4865 9.26914L11.4082 3.33331L14.6665 6.59164ZM16.0407 2.46206L15.5378 1.95914C15.1717 1.59502 14.6764 1.39062 14.16 1.39062C13.6437 1.39062 13.1484 1.59502 12.7823 1.95914L12.159 2.58248L15.4173 5.84081L16.0407 5.21748C16.2221 5.03757 16.3661 4.82351 16.4644 4.58766C16.5627 4.3518 16.6133 4.09882 16.6133 3.84331C16.6133 3.5878 16.5627 3.33481 16.4644 3.09896C16.3661 2.8631 16.2221 2.64905 16.0407 2.46914V2.46206ZM15.1978 13.9654V9.84998C15.1978 9.55956 14.9569 9.31873 14.6665 9.31873C14.3761 9.31873 14.1353 9.55956 14.1353 9.84998V13.9654C14.1353 14.8437 13.4198 15.5591 12.5415 15.5591H4.0415C3.16317 15.5591 2.44775 14.8437 2.44775 13.9654V5.45831C2.44775 4.57998 3.16317 3.86456 4.0415 3.86456H8.15692C8.44734 3.86456 8.68817 3.62373 8.68817 3.33331C8.68817 3.04289 8.44734 2.80206 8.15692 2.80206H4.0415C2.57525 2.80206 1.38525 3.99206 1.38525 5.45831V13.9583C1.38525 15.4246 2.57525 16.6146 4.0415 16.6146H12.5415C14.0078 16.6146 15.1978 15.4246 15.1978 13.9583V13.9654Z" fill="#3f7473"/>
</svg>
