<svg width="24" height="24" viewBox="0 0 48 48" fill="#3f7473" xmlns="http://www.w3.org/2000/svg">
<rect x="0.5" y="0.5" width="47" height="47" rx="14.5" fill="#3f7473"/>
<rect x="0.5" y="0.5" width="47" height="47" rx="14.5" stroke="#1768BC"/>
<mask id="mask0_2359_18411" style="mask-type:alpha" maskUnits="userSpaceOnUse" x="12" y="12" width="24" height="24">
<rect x="12" y="12" width="24" height="24" fill="#D9D9D9"/>
</mask>
<g mask="url(#mask0_2359_18411)">
<path d="M19.5928 16.9758C19.5928 18.1127 20.5153 19.0352 21.6521 19.0352C22.789 19.0352 23.7115 18.1127 23.7115 16.9758C23.7115 15.839 22.789 14.9165 21.6521 14.9165C20.5153 14.9165 19.5928 15.8356 19.5928 16.9758Z" fill="white"/>
<path d="M27.514 27.9195C27.2689 27.494 26.8128 27.249 26.3531 27.249C26.3258 27.249 26.3054 27.249 26.2747 27.2559H26.2678C26.227 27.249 26.176 27.249 26.1351 27.249H23.7115V25.9896C23.6707 25.9556 23.6332 25.9181 23.5992 25.8773L21.4922 23.7771C21.3594 23.6375 21.3594 23.4197 21.4922 23.2801C21.6318 23.1474 21.8564 23.1474 21.9891 23.2801L23.8035 25.0944H28.181C28.7425 25.0944 29.1953 24.6383 29.1953 24.08C29.1953 23.5287 28.7392 23.0657 28.181 23.0657L24.1406 23.0652L23.7151 22.6397V22.0169C23.7151 21.4484 23.4836 20.9311 23.1127 20.5599C22.7416 20.1888 22.2242 19.9575 21.6558 19.9575C20.5223 19.9575 19.5964 20.8833 19.5964 22.0169V27.8853C19.5964 28.0249 19.61 28.1576 19.6373 28.2834C19.8177 29.2296 20.6585 29.9412 21.6524 29.9412H25.5738L28.4739 34.9553C28.7259 35.3808 29.1751 35.6258 29.6348 35.6258C29.8663 35.6258 30.0978 35.5612 30.3053 35.4454C30.9419 35.0742 31.1665 34.2472 30.7954 33.6106L27.514 27.9195Z" fill="white"/>
<path d="M24.3854 31.4253H17.4856C16.992 31.4253 16.5869 31.8304 16.5869 32.324C16.5869 32.8176 16.992 33.2227 17.4856 33.2227H24.3854C24.879 33.2227 25.2841 32.8176 25.2841 32.324C25.2874 31.8304 24.8823 31.4253 24.3854 31.4253Z" fill="white"/>
<path d="M28.8084 12.918C27.0468 12.918 25.6167 14.3518 25.6167 16.1097C25.6167 17.8713 27.0505 19.3014 28.8084 19.3014C30.5664 19.3014 32.0001 17.8676 32.0001 16.1097C32.0001 14.3517 30.57 12.918 28.8084 12.918ZM30.1492 15.2456L29.1435 16.2513V17.823C29.1435 18.0093 28.9983 18.1545 28.812 18.1545C28.6333 18.1545 28.4806 18.0093 28.4806 17.823V16.1359C28.473 16.0429 28.5065 15.9497 28.5811 15.8751L29.6873 14.7689C29.8138 14.6424 30.0263 14.6424 30.1528 14.7689C30.2832 14.903 30.2832 15.1116 30.1492 15.2456Z" fill="white"/>
</g>
</svg>
