
<svg version="1.0" xmlns="http://www.w3.org/2000/svg"
 width="24" height="24" viewBox="0 0 1300.000000 1390.000000"
 preserveAspectRatio="xMidYMid meet">

<g transform="translate(0.000000,1390.000000) scale(0.100000,-0.100000)"
fill="#3f7473" stroke="none">
<path d="M8265 12724 c-490 -89 -885 -429 -1046 -901 -51 -153 -64 -233 -64 -423 0 -194 9 -258 61 -420 142 -445 504 -780 968 -896 138 -35 375 -44 526 -20 187 30 386 109 550 219 95 64 280 249 347 347 113 166 190 360 224 560 7 41 12 138 12 215 -2 383 -159 731 -447 994 -50 47 -76 64 -95 66 -27 3 -51 17 -46 25 5 9 -41 50 -56 50 -5 0 -10 -19 -11 -42 l-1 -43 -7 45 -6 45 -5 -45 -6 -45 -1 43 c-1 23 -6 42 -11 42 -5 0 -11 10 -13 22 -2 13 -11 24 -20 26 -14 3 -16 -3 -11 -32 3 -21 1 -36 -4 -36 -20 0 -43 37 -44 71 l-2 34 -6 -35 c-5 -23 -3 -40 6 -51 20 -24 17 -45 -3 -28 -14 11 -18 10 -30 -6 -23 -34 -36 -47 -41 -41 -3 3 2 13 11 22 9 9 14 19 10 23 -4 3 -9 0 -11 -7 -3 -6 -9 -10 -14 -6 -5 3 -9 -4 -9 -15 0 -14 21 -31 78 -61 316 -171 534 -477 597 -837 99 -569 -264 -1144 -825 -1306 -659 -191 -1336 229 -1471 913 -16 83 -16 325 0 410 46 237 157 448 326 615 312 311 757 421 1173 290 l83 -26 26 20 c14 12 21 21 15 21 -13 0 -7 40 9 54 9 8 10 4 5 -15 -4 -19 -1 -29 9 -33 29 -11 40 4 41 53 1 45 -1 49 -30 59 -28 10 -29 10 -12 -3 17 -13 18 -17 6 -28 -10 -10 -12 -9 -6 3 4 8 -2 4 -13 -9 -12 -13 -21 -29 -21 -37 0 -7 -4 -15 -9 -18 -12 -7 -2 34 12 52 8 10 7 16 -4 23 -8 5 -9 9 -3 9 6 0 11 7 11 15 0 19 -119 58 -243 79 -111 20 -350 20 -459 0z m688 -126 c-6 -7 -13 -26 -17 -42 -6 -23 -4 -27 8 -23 9 4 13 0 12 -11 -3 -17 -27 -25 -25 -8 0 5 -5 12 -11 16 -17 11 6 80 27 80 11 0 13 -4 6 -12z m260 -99 c-9 -9 -12 -7 -10 9 1 14 5 18 11 12 7 -7 6 -14 -1 -21z m-113 2 c0 -5 3 -18 7 -28 6 -17 6 -17 -10 -1 -19 18 -22 38 -7 38 6 0 10 -4 10 -9z m-34 -15 c10 -8 16 -17 12 -21 -4 -4 -17 2 -29 14 -26 24 -13 29 17 7z m149 -16 c3 -5 1 -10 -4 -10 -6 0 -11 5 -11 10 0 6 2 10 4 10 3 0 8 -4 11 -10z"/>
<path d="M9070 12581 c0 -10 7 -24 15 -31 9 -8 15 -9 15 -2 0 6 -5 14 -11 17 -6 4 -8 13 -5 21 3 8 1 14 -4 14 -6 0 -10 -8 -10 -19z"/>
<path d="M9158 12553 c7 -3 16 -2 19 1 4 3 -2 6 -13 5 -11 0 -14 -3 -6 -6z"/>
<path d="M8451 12513 c-31 -26 -42 -73 -26 -111 26 -60 97 -71 146 -23 31 31 36 64 18 104 -21 46 -98 62 -138 30z"/>
<path d="M8446 12278 c-14 -19 -16 -74 -16 -400 0 -208 -2 -378 -5 -378 -3 0 -69 43 -148 95 -155 104 -182 112 -216 69 -26 -33 -27 -65 -3 -92 9 -12 104 -80 211 -151 165 -111 200 -131 233 -131 25 0 45 7 58 20 19 19 20 33 20 476 0 523 2 514 -82 514 -27 0 -41 -6 -52 -22z"/>
<path d="M7398 11451 c-26 -23 -32 -36 -31 -66 1 -39 30 -80 65 -91 48 -15 118 38 118 90 0 47 -51 96 -99 96 -12 0 -35 -13 -53 -29z"/>
<path d="M9477 11459 c-11 -6 -25 -26 -33 -45 -12 -29 -12 -39 0 -68 17 -40 42 -56 86 -56 43 0 90 47 90 90 0 65 -86 112 -143 79z"/>
<path d="M5104 10976 c-150 -34 -268 -100 -379 -211 -162 -163 -232 -342 -222 -575 7 -172 51 -290 162 -437 143 -191 403 -307 645 -290 115 9 188 29 295 82 345 171 508 572 380 937 -79 227 -264 404 -500 478 -90 28 -289 37 -381 16z"/>
<path d="M8457 10429 c-11 -6 -25 -26 -33 -45 -12 -29 -12 -39 0 -68 17 -40 42 -56 86 -56 43 0 90 47 90 90 0 65 -86 112 -143 79z"/>
<path d="M4705 9176 c-22 -7 -54 -20 -71 -29 -49 -26 -130 -121 -156 -185 l-23 -57 -3 -1940 c-3 -2171 -9 -1992 70 -2059 81 -70 30 -66 1070 -66 593 1 938 4 938 10 0 6 -7 10 -15 10 -8 0 -15 8 -14 18 0 10 3 12 6 5 2 -7 12 -13 21 -13 15 0 15 2 2 10 -13 8 -12 10 3 10 12 0 17 -8 17 -30 0 -16 -4 -30 -9 -30 -5 0 -11 -14 -13 -30 -5 -36 -1 -39 11 -7 8 18 9 16 8 -15 -2 -38 -11 -49 -20 -25 -3 7 -6 5 -6 -5 -1 -10 6 -18 14 -18 8 0 15 -4 15 -10 0 -5 -7 -7 -15 -4 -13 6 -15 -130 -15 -1204 0 -992 3 -1213 14 -1224 9 -9 13 -40 12 -96 -1 -90 -12 -112 -15 -30 -1 28 -4 54 -7 57 -3 3 -4 -37 -2 -90 4 -79 9 -106 31 -152 33 -67 100 -130 175 -165 49 -23 70 -27 152 -27 88 0 101 3 162 33 81 40 149 111 177 188 21 54 21 64 21 1792 0 1939 6 1779 -70 1879 -39 52 -121 107 -185 124 -27 8 -197 11 -507 10 -277 -1 -469 2 -472 7 -3 5 -6 344 -7 753 0 409 -3 738 -6 731 -3 -6 -9 -10 -14 -6 -15 9 -10 24 9 25 13 0 12 2 -5 9 -13 5 -23 15 -23 22 0 10 2 10 9 0 6 -10 11 -5 21 17 6 16 10 36 7 43 -3 7 -6 3 -6 -9 -1 -12 -5 -25 -11 -28 -14 -9 -12 5 5 38 15 29 17 139 3 130 -5 -2 -8 -13 -8 -24 0 -10 -4 -19 -10 -19 -14 0 -13 5 10 58 20 46 20 64 18 697 l-3 650 -23 57 c-29 72 -109 161 -176 196 l-51 27 -500 2 c-385 2 -509 -1 -540 -11z m729 -230 c69 -34 138 -104 173 -174 l28 -57 3 -1600 c3 -1764 6 -1652 -60 -1751 -40 -59 -116 -118 -183 -141 -72 -26 -194 -23 -267 6 -80 31 -157 104 -194 183 l-29 63 -3 1600 c-2 1275 0 1609 10 1645 7 25 13 55 13 67 0 28 109 123 183 159 95 48 228 48 326 0z m1043 -4029 c15 6 14 7 -3 15 -13 5 -9 6 15 3 33 -4 80 -35 53 -35 -7 0 -12 6 -12 13 0 8 -3 8 -9 -2 -5 -8 -16 -11 -24 -8 -9 3 -21 -1 -27 -9 -17 -20 -50 -18 -49 4 0 10 3 12 6 5 2 -7 12 -13 21 -13 12 0 13 3 4 12 -7 7 -12 19 -12 28 1 12 2 12 11 -2 6 -11 16 -15 26 -11z"/>
<path d="M5162 8870 c-23 -10 -58 -31 -77 -46 l-35 -26 0 -89 c0 -90 -11 -118 -35 -86 -7 10 -15 17 -19 17 -3 0 -6 -540 -6 -1200 0 -1013 2 -1200 14 -1200 7 0 20 -8 27 -17 13 -17 12 -17 -4 -4 -16 13 -20 13 -28 0 -5 -8 -8 -25 -7 -39 1 -24 1 -24 5 3 4 28 17 35 28 17 4 -6 11 -8 16 -5 5 4 9 -1 9 -9 0 -17 -26 -22 -32 -6 -1 5 -4 -17 -5 -50 -1 -50 1 -60 15 -60 15 0 15 2 2 11 -10 7 -11 12 -4 15 6 3 9 16 6 31 -3 18 -1 24 7 19 14 -9 15 -122 1 -131 -6 -3 -18 2 -28 11 -16 17 -17 5 -20 -236 -3 -288 4 -328 63 -397 128 -150 371 -123 463 51 l27 51 0 1600 0 1600 -22 40 c-29 54 -88 109 -143 134 -60 27 -159 28 -218 1z"/>
<path d="M5000 8670 c0 -5 5 -10 10 -10 6 0 10 5 10 10 0 6 -4 10 -10 10 -5 0 -10 -4 -10 -10z"/>
<path d="M5025 8659 c-4 -12 -3 -25 2 -29 4 -5 9 4 10 21 3 34 -3 38 -12 8z"/>
<path d="M4992 6095 c-1 -31 4 -44 21 -56 21 -16 23 -16 23 1 0 9 -7 17 -16 16 -10 -1 -17 12 -21 39 l-6 40 -1 -40z"/>
<path d="M3702 9130 c-95 -34 -163 -97 -205 -187 -22 -48 -22 -49 -25 -720 l-3 -672 25 -7 c43 -11 50 -28 48 -132 -2 -101 -5 -113 -24 -94 -14 14 -19 74 -6 66 5 -4 8 -17 5 -30 -2 -14 0 -27 5 -30 5 -3 8 34 7 90 -1 73 -5 96 -15 96 -8 0 -11 -7 -8 -17 2 -10 -1 -8 -7 5 -7 12 -15 22 -19 22 -3 0 -7 -38 -8 -85 0 -47 4 -85 9 -85 5 0 9 -5 9 -11 0 -5 -4 -7 -10 -4 -7 4 -10 -247 -10 -747 0 -414 -3 -959 -7 -1210 -5 -345 -3 -458 5 -458 7 0 12 7 12 15 0 8 5 15 11 15 6 0 8 -7 5 -16 -4 -11 -1 -14 13 -9 31 9 42 -16 35 -83 -4 -34 -6 -65 -5 -68 2 -4 -3 -11 -11 -15 -10 -7 -9 -9 5 -9 9 0 17 -7 17 -15 0 -19 -34 -19 -50 0 -9 11 -9 15 -1 15 7 0 9 12 6 33 -4 22 -2 28 4 17 5 -8 7 -18 4 -24 -3 -5 -2 -6 4 -3 12 7 24 112 16 133 -4 11 -9 12 -18 4 -7 -6 -18 -9 -25 -8 -12 3 -37 -49 -28 -57 7 -7 48 7 44 14 -7 11 12 36 21 28 4 -4 2 -17 -5 -28 -7 -11 -11 -23 -8 -27 2 -4 -4 -8 -14 -8 -10 0 -16 5 -13 10 3 5 1 6 -5 2 -17 -11 -6 -204 18 -303 26 -106 93 -247 155 -325 102 -130 285 -243 480 -296 l100 -27 895 -3 c646 -2 912 0 955 8 187 37 296 188 283 394 -9 135 -89 255 -206 309 -47 22 -48 22 -967 27 -900 5 -921 5 -947 25 -15 11 -29 29 -32 40 -3 11 -6 946 -6 2077 0 1484 -3 2072 -11 2110 -25 115 -89 196 -194 245 -80 37 -222 43 -303 13z m-185 -1695 c-2 -28 -4 -32 -13 -20 -6 8 -14 12 -18 8 -4 -4 -4 1 0 12 6 17 22 34 31 35 2 0 2 -16 0 -35z"/>
<path d="M0 450 l0 -450 6500 0 6500 0 0 450 0 450 -6500 0 -6500 0 0 -450z m780 50 l0 -200 -35 0 -35 0 0 200 0 200 35 0 35 0 0 -200z m-115 105 c24 -23 25 -30 25 -149 0 -68 3 -131 6 -140 5 -13 -1 -16 -30 -16 -27 0 -36 4 -36 17 0 15 -2 14 -20 -2 -22 -20 -63 -23 -85 -5 -8 6 -17 28 -21 47 -9 50 15 94 70 129 38 23 46 34 44 54 -4 31 -32 33 -36 3 -3 -19 -10 -23 -38 -23 -31 0 -34 2 -34 30 0 46 39 80 90 80 30 0 47 -6 65 -25z m273 19 c41 -11 52 -51 52 -194 l0 -130 -29 0 c-16 0 -31 6 -34 13 -4 10 -7 10 -18 0 -18 -18 -74 -16 -93 3 -21 20 -21 93 -1 122 9 12 36 36 61 53 34 23 44 36 42 52 -4 29 -30 28 -43 0 -7 -17 -18 -23 -44 -23 -32 0 -33 1 -27 33 11 59 66 89 134 71z m234 -13 c12 -19 12 -19 36 0 30 23 55 24 76 3 13 -13 16 -42 16 -165 l0 -149 -30 0 -30 0 0 113 c0 123 -6 157 -25 157 -21 0 -25 -25 -25 -151 l0 -119 -35 0 -34 0 -3 133 c-3 109 -6 132 -18 132 -12 0 -15 -23 -18 -132 l-3 -133 -34 0 -35 0 0 160 0 160 35 0 c21 0 35 -5 35 -12 0 -8 6 -6 17 5 23 23 60 22 75 -2z m220 -121 c3 -121 4 -125 26 -128 22 -3 22 -3 22 127 0 80 4 131 10 132 59 7 55 20 58 -166 2 -94 0 -184 -3 -201 -7 -39 -38 -54 -110 -54 -54 0 -55 0 -55 30 0 27 3 30 34 30 49 0 66 9 66 35 0 23 -1 23 -30 9 -36 -18 -66 -6 -80 32 -6 14 -10 83 -10 154 l0 129 28 3 c15 2 30 1 34 -2 4 -3 9 -62 10 -130z m9913 90 c0 -27 -4 -50 -10 -50 -5 0 -10 23 -10 50 0 28 5 50 10 50 6 0 10 -22 10 -50z m470 0 c0 -27 -4 -50 -10 -50 -5 0 -10 23 -10 50 0 28 5 50 10 50 6 0 10 -22 10 -50z m93 38 c7 -7 12 -24 12 -38 0 -34 -17 -50 -52 -50 -27 0 -28 2 -28 50 0 48 1 50 28 50 15 0 33 -5 40 -12z m172 -3 c10 -12 10 -18 0 -30 -7 -8 -19 -15 -26 -15 -8 0 -14 -9 -14 -20 0 -11 -4 -20 -10 -20 -5 0 -10 23 -10 50 0 46 2 50 24 50 13 0 29 -7 36 -15z m64 -2 c20 26 29 20 11 -7 -15 -23 -15 -27 0 -50 10 -14 13 -26 7 -26 -6 0 -14 10 -18 22 l-7 22 -17 -22 c-25 -30 -34 -28 -13 4 13 21 14 30 5 45 -17 27 -14 38 4 14 14 -19 16 -19 28 -2z m79 10 c-13 -2 -23 -11 -23 -19 0 -8 10 -15 23 -15 l22 -2 -22 -4 c-16 -3 -23 -11 -23 -29 0 -13 -4 -24 -10 -24 -5 0 -10 23 -10 50 l0 50 33 -1 c23 -1 26 -3 10 -6z m65 -34 l18 -42 14 42 c18 56 30 52 28 -11 -1 -47 -2 -49 -5 -13 l-4 39 -19 -39 -18 -40 -16 38 c-20 46 -25 47 -21 2 2 -19 -1 -35 -6 -35 -5 0 -9 23 -9 50 0 61 15 64 38 9z m146 19 c14 -24 -4 -72 -29 -76 -18 -2 -19 -2 -2 8 23 14 22 26 -3 33 -19 5 -27 36 -13 51 11 11 35 3 47 -16z m86 7 c10 -12 10 -18 0 -30 -10 -12 -10 -18 0 -30 7 -9 10 -18 7 -21 -3 -3 -12 3 -19 15 -16 26 -28 27 -28 1 0 -11 -4 -20 -10 -20 -5 0 -10 23 -10 50 0 46 2 50 24 50 13 0 29 -7 36 -15z m-1043 -50 l1 -40 -6 35 c-4 22 -13 35 -22 35 -9 0 -17 -13 -21 -35 l-6 -35 -2 38 c-1 26 -6 37 -16 37 -8 0 -15 -3 -16 -7 -2 -23 -10 -57 -14 -62 -3 -2 -5 14 -5 36 l0 40 53 -1 52 -1 2 -40z m81 4 c3 -34 1 -36 -25 -35 -37 1 -39 37 -3 47 l25 6 -25 12 -25 11 25 -3 c21 -2 25 -8 28 -38z m80 -16 c-3 -54 -5 -58 -28 -60 -25 -3 -25 -3 -2 7 12 5 22 15 22 23 0 8 -10 13 -22 13 -17 -1 -24 5 -26 22 -5 36 5 52 33 52 25 0 26 -2 23 -57z m90 35 c3 -14 -3 -18 -23 -18 -33 0 -29 -21 6 -32 22 -6 21 -7 -6 -5 -23 2 -31 7 -33 25 -2 13 -1 30 2 38 8 21 50 14 54 -8z m232 12 c0 -5 -4 -10 -10 -10 -5 0 -10 5 -10 10 0 6 5 10 10 10 6 0 10 -4 10 -10z m0 -60 c0 -5 -4 -10 -10 -10 -5 0 -10 5 -10 10 0 6 5 10 10 10 6 0 10 -4 10 -10z m-160 -190 c0 -47 -3 -60 -15 -60 -12 0 -15 13 -15 60 0 47 3 60 15 60 12 0 15 -13 15 -60z m-580 10 c0 -11 5 -20 10 -20 6 0 10 9 10 21 0 29 32 21 41 -11 l6 -25 8 28 c7 28 25 38 25 13 0 -27 -22 -76 -35 -76 -7 0 -16 15 -20 33 l-8 32 -6 -30 c-9 -44 -33 -37 -47 13 -11 35 -11 42 2 42 8 0 14 -9 14 -20z m140 0 c0 -11 5 -20 10 -20 6 0 10 9 10 21 0 29 32 21 41 -11 l6 -25 8 28 c11 42 28 33 20 -10 -8 -46 -12 -53 -29 -53 -8 0 -17 15 -21 33 l-8 32 -6 -30 c-9 -44 -33 -37 -47 13 -11 35 -11 42 2 42 8 0 14 -9 14 -20z m140 0 c0 -11 5 -20 10 -20 6 0 10 9 10 21 0 29 32 21 41 -11 l6 -25 8 28 c7 28 25 38 25 13 0 -27 -22 -76 -35 -76 -7 0 -16 15 -20 33 l-7 32 -10 -33 c-12 -43 -29 -36 -45 16 -10 35 -9 42 3 42 8 0 14 -9 14 -20z m235 8 c2 -7 6 -27 8 -44 5 -30 4 -31 -32 -30 -31 1 -36 4 -36 26 0 17 7 26 25 31 24 7 24 7 3 8 -13 1 -23 6 -23 11 0 15 50 12 55 -2z m153 -5 c5 -10 9 -29 7 -43 -1 -20 -7 -24 -36 -25 -30 0 -34 3 -34 25 0 17 7 26 25 31 24 7 24 7 3 8 -31 1 -29 21 2 21 13 0 28 -8 33 -17z m162 -4 c12 -22 7 -62 -8 -67 -8 -2 -12 9 -12 32 0 25 -4 36 -15 36 -10 0 -15 -11 -15 -35 0 -44 -18 -46 -22 -3 -4 46 -28 49 -28 4 0 -25 -4 -36 -15 -36 -11 0 -15 12 -15 44 l0 43 60 0 c48 0 63 -4 70 -18z m55 -6 l8 -28 10 28 c13 33 42 38 31 5 -19 -61 -45 -108 -59 -108 -18 0 -20 17 -3 22 10 4 9 16 -4 56 -13 41 -13 52 -3 52 7 0 16 -12 20 -27z m175 18 c0 -5 -9 -11 -20 -14 -11 -3 -20 -13 -20 -22 0 -9 9 -19 20 -22 23 -6 27 -23 6 -23 -31 0 -46 13 -46 39 0 15 5 32 12 39 14 14 48 16 48 3z m90 -5 c28 -35 -11 -93 -47 -70 -36 22 -23 84 17 84 10 0 23 -7 30 -14z m162 -21 c9 -33 4 -55 -12 -55 -5 0 -10 16 -10 35 0 24 -5 35 -15 35 -10 0 -15 -11 -15 -35 0 -44 -18 -46 -22 -3 -4 46 -28 49 -28 4 0 -25 -4 -36 -15 -36 -11 0 -15 12 -15 44 l0 44 62 -2 c60 -1 62 -2 70 -31z m-891 -48 c-13 -13 -26 -3 -16 12 3 6 11 8 17 5 6 -4 6 -10 -1 -17z m550 0 c-13 -13 -26 -3 -16 12 3 6 11 8 17 5 6 -4 6 -10 -1 -17z"/>
<path d="M592 427 c-26 -27 -28 -55 -7 -63 24 -9 42 12 43 51 2 41 -6 44 -36 12z"/>
<path d="M893 438 c-30 -32 -31 -78 -3 -78 25 0 32 17 28 65 l-3 37 -22 -24z"/>
<path d="M11820 580 c0 -33 3 -41 16 -38 26 5 41 35 28 56 -6 9 -19 18 -28 20 -13 3 -16 -5 -16 -38z"/>
<path d="M12000 600 c0 -11 7 -20 15 -20 8 0 15 9 15 20 0 11 -7 20 -15 20 -8 0 -15 -9 -15 -20z"/>
<path d="M12357 614 c-13 -13 -7 -32 12 -37 13 -3 18 1 17 16 -1 21 -17 32 -29 21z"/>
<path d="M12440 600 c0 -11 7 -20 15 -20 8 0 15 9 15 20 0 11 -7 20 -15 20 -8 0 -15 -9 -15 -20z"/>
<path d="M11470 555 c0 -8 7 -15 15 -15 8 0 15 7 15 15 0 8 -7 15 -15 15 -8 0 -15 -7 -15 -15z"/>
<path d="M11554 586 c-8 -22 3 -49 19 -43 6 2 12 14 12 27 0 27 -22 39 -31 16z"/>
<path d="M11645 590 c-3 -5 3 -10 15 -10 12 0 18 5 15 10 -3 6 -10 10 -15 10 -5 0 -12 -4 -15 -10z"/>
<path d="M11657 333 c-12 -11 -8 -23 8 -23 8 0 15 7 15 15 0 16 -12 20 -23 8z"/>
<path d="M11807 333 c-12 -11 -8 -23 8 -23 8 0 15 7 15 15 0 16 -12 20 -23 8z"/>
<path d="M12283 344 c-8 -21 13 -42 28 -27 13 13 5 43 -11 43 -6 0 -13 -7 -17 -16z"/>
</g>
</svg>
