<svg width="73" height="73" viewBox="0 0 73 73" fill="none" xmlns="http://www.w3.org/2000/svg">
<path d="M45.7197 39.6846C46.9403 39.6846 47.9297 38.6951 47.9297 37.4746C47.9297 36.2541 46.9403 35.2646 45.7197 35.2646C44.4992 35.2646 43.5098 36.2541 43.5098 37.4746C43.5098 38.6951 44.4992 39.6846 45.7197 39.6846Z" fill="#F2F0EC"/>
<path d="M27.2793 39.6846C28.4998 39.6846 29.4893 38.6951 29.4893 37.4746C29.4893 36.2541 28.4998 35.2646 27.2793 35.2646C26.0588 35.2646 25.0693 36.2541 25.0693 37.4746C25.0693 38.6951 26.0588 39.6846 27.2793 39.6846Z" fill="#F2F0EC"/>
<path d="M48.9519 43.2959H48.9012C46.2034 43.1431 43.6586 41.9938 41.7603 40.0708C41.6807 39.9884 41.6185 39.891 41.5773 39.7841C41.5361 39.6773 41.5167 39.5633 41.5204 39.4488C41.5241 39.3344 41.5507 39.2218 41.5987 39.1178C41.6467 39.0139 41.715 38.9206 41.7997 38.8435C41.8844 38.7665 41.9838 38.7072 42.0918 38.6692C42.1998 38.6313 42.3144 38.6154 42.4287 38.6225C42.5429 38.6296 42.6546 38.6596 42.7571 38.7107C42.8596 38.7618 42.9508 38.8329 43.0253 38.9199C44.6254 40.5082 46.7508 41.457 49.0016 41.5878C49.2284 41.5944 49.4434 41.6908 49.5992 41.8559C49.755 42.021 49.8388 42.2412 49.8322 42.4681C49.8256 42.695 49.7292 42.91 49.5641 43.0657C49.399 43.2215 49.1788 43.3053 48.9519 43.2987V43.2959ZM43.51 23.1924H36.5471C36.3202 23.1924 36.1026 23.1023 35.9422 22.9418C35.7817 22.7814 35.6916 22.5638 35.6916 22.3369C35.6916 22.11 35.7817 21.8924 35.9422 21.732C36.1026 21.5716 36.3202 21.4814 36.5471 21.4814H43.51C43.7369 21.4814 43.9545 21.5716 44.1149 21.732C44.2754 21.8924 44.3655 22.11 44.3655 22.3369C44.3655 22.5638 44.2754 22.7814 44.1149 22.9418C43.9545 23.1023 43.7369 23.1924 43.51 23.1924ZM43.9845 53.1458C43.8211 53.1458 43.6611 53.099 43.5234 53.011C43.3857 52.923 43.2762 52.7973 43.2076 52.6489C43.1391 52.5006 43.1145 52.3357 43.1368 52.1738C43.1591 52.0119 43.2272 51.8598 43.3332 51.7354C43.5242 51.5379 43.6724 51.3031 43.7685 51.0457C43.8646 50.7883 43.9065 50.5138 43.8916 50.2395C43.8265 49.4741 43.2471 48.6004 42.2616 47.7786C42.1683 47.7091 42.0902 47.6213 42.0319 47.5206C41.9737 47.4199 41.9367 47.3084 41.923 47.1929C41.9093 47.0774 41.9194 46.9603 41.9525 46.8488C41.9857 46.7373 42.0412 46.6337 42.1157 46.5444C42.1902 46.4551 42.2822 46.3819 42.3859 46.3293C42.4897 46.2768 42.6031 46.2459 42.7192 46.2386C42.8353 46.2314 42.9516 46.2479 43.0611 46.2871C43.1706 46.3263 43.271 46.3875 43.356 46.4668C44.7151 47.5989 45.4901 48.8542 45.5962 50.0957C45.6326 50.5955 45.5662 51.0974 45.4012 51.5706C45.2362 52.0437 44.9762 52.4781 44.637 52.8469C44.5563 52.941 44.4562 53.0165 44.3436 53.0681C44.2309 53.1197 44.1084 53.1462 43.9845 53.1458ZM36.4997 45.8047C35.4835 45.7706 34.5144 45.3676 33.7736 44.6709C33.6316 44.5285 33.5485 44.3377 33.5411 44.1366C33.5336 43.9356 33.6024 43.7391 33.7335 43.5866C33.8647 43.434 34.0486 43.3366 34.2485 43.3138C34.4483 43.291 34.6495 43.3445 34.8116 43.4636C35.979 44.4679 37.0204 44.4679 38.1879 43.4636C38.35 43.3445 38.5511 43.291 38.751 43.3138C38.9509 43.3366 39.1348 43.434 39.266 43.5866C39.3971 43.7391 39.4659 43.9356 39.4584 44.1366C39.451 44.3377 39.3679 44.5285 39.2258 44.6709C38.4851 45.3676 37.516 45.7706 36.4997 45.8047Z" fill="#F2F0EC"/>
<path d="M42.6319 49.3769C42.5528 49.2373 42.4214 49.1349 42.2668 49.0921C42.1121 49.0493 41.9468 49.0697 41.8072 49.1488L41.6994 49.2104C41.5666 49.2717 41.4253 49.3127 41.2803 49.3319C41.0777 49.3633 40.8733 49.3814 40.6683 49.3861C40.2294 49.3938 39.7907 49.3648 39.3566 49.2994C39.2505 49.2834 38.7412 49.1556 38.6831 49.1442C38.4477 49.0961 38.2048 49.0978 37.9701 49.1493C37.7355 49.2007 37.5142 49.3008 37.3206 49.4431C37.0718 49.5978 36.7908 49.6934 36.4993 49.7225C36.2073 49.694 35.9257 49.5988 35.6764 49.4442C35.4828 49.302 35.2615 49.2019 35.0268 49.1504C34.7921 49.0989 34.5493 49.0972 34.3139 49.1454C34.2569 49.1568 33.7464 49.2845 33.6403 49.3005C33.2063 49.3659 32.7675 49.3949 32.3286 49.3872C32.1237 49.3826 31.9193 49.3645 31.7167 49.333C31.5716 49.3138 31.4303 49.2729 31.2975 49.2115L31.1897 49.1499C31.0617 49.0768 30.9113 49.0529 30.7668 49.0829C30.6224 49.1129 30.494 49.1947 30.4056 49.3128C30.3173 49.4309 30.2752 49.5773 30.2873 49.7243C30.2993 49.8713 30.3647 50.0088 30.4711 50.1109C30.7242 50.3468 31.0274 50.5222 31.358 50.6242C31.6275 50.7171 31.9054 50.7835 32.1878 50.8227C32.721 50.9163 33.264 50.941 33.8035 50.8962C34.0552 50.8448 34.3119 50.8218 34.5688 50.8278C34.745 50.8689 34.854 51.0109 35.0045 51.0981C35.1648 51.1924 35.3361 51.2667 35.5144 51.3194C36.1555 51.5133 36.8397 51.5133 37.4808 51.3194C37.6592 51.2667 37.8304 51.1924 37.9907 51.0981C38.1435 51.0109 38.2502 50.87 38.4264 50.8278C38.6833 50.8218 38.94 50.8448 39.1918 50.8962C39.7313 50.941 40.2743 50.9163 40.8075 50.8227C41.0898 50.7835 41.3677 50.7171 41.6373 50.6242C41.9678 50.5222 42.271 50.3468 42.5241 50.1109C42.6209 50.0178 42.684 49.8952 42.7035 49.7624C42.723 49.6295 42.6978 49.4939 42.6319 49.3769ZM36.5233 54.5377C36.0449 54.535 35.5733 54.4236 35.1443 54.212C34.9508 54.1074 34.8052 53.9323 34.7374 53.7231C34.6697 53.5139 34.6851 53.2866 34.7805 53.0885C34.8759 52.8904 35.044 52.7366 35.2497 52.6591C35.4555 52.5815 35.6833 52.5862 35.8857 52.6722C36.0823 52.775 36.3008 52.8287 36.5227 52.8287C36.7446 52.8287 36.9631 52.775 37.1597 52.6722C37.3622 52.5862 37.5899 52.5815 37.7957 52.6591C38.0015 52.7366 38.1695 52.8904 38.2649 53.0885C38.3603 53.2866 38.3757 53.5139 38.308 53.7231C38.2403 53.9323 38.0946 54.1074 37.9012 54.212C37.4724 54.4234 37.0013 54.5347 36.5233 54.5377ZM31.9539 31.8153C30.9844 31.7377 29.9869 31.6836 28.9963 31.598C28.0028 31.5301 27.0082 31.4497 26.0153 31.326C26.0153 31.326 24.8975 31.1851 24.5233 31.1549C24.067 31.1199 23.6091 31.11 23.1517 31.1252C22.2158 31.2556 21.3104 31.5508 20.4775 31.9972L20.4513 32.0109C20.3663 32.0543 20.2681 32.0643 20.1761 32.0389C20.0841 32.0134 20.005 31.9544 19.9543 31.8735C19.9037 31.7926 19.8852 31.6956 19.9026 31.6017C19.92 31.5079 19.9719 31.4239 20.0481 31.3665C20.9123 30.7192 21.8959 30.2492 22.9424 29.9835C23.2116 29.9201 24.1971 29.8181 24.1971 29.8181L24.5787 29.8095L26.1048 29.7935C27.1223 29.7932 28.1389 29.8562 29.1486 29.9823C30.173 30.0861 31.1879 30.2683 32.1843 30.5275C32.3425 30.57 32.4791 30.6701 32.5673 30.8081C32.6556 30.946 32.6891 31.112 32.6613 31.2734C32.6335 31.4348 32.5465 31.58 32.4172 31.6806C32.2879 31.7812 32.1258 31.8298 31.9625 31.817L31.9539 31.8153ZM40.8126 30.527C41.8091 30.2678 42.824 30.0855 43.8484 29.9817C44.8581 29.8556 45.8746 29.7926 46.8921 29.793L48.4183 29.8089L49.2281 29.8414C49.5067 29.8719 49.7833 29.9192 50.0562 29.9829C51.1028 30.2488 52.0864 30.719 52.9506 31.3665C53.0286 31.4233 53.0822 31.5075 53.1006 31.6023C53.119 31.697 53.1008 31.7952 53.0497 31.8771C52.9985 31.9589 52.9183 32.0184 52.8251 32.0434C52.7319 32.0685 52.6326 32.0573 52.5473 32.0121L52.5211 31.9978C51.6876 31.5509 50.7814 31.2555 49.8446 31.1252C49.6215 31.1013 49.3972 31.0908 49.1728 31.0939L48.4759 31.1549L46.984 31.326C45.991 31.4497 44.9964 31.5301 44.0029 31.598C43.0123 31.6836 42.0171 31.7377 41.0453 31.8153H41.035C40.8717 31.8281 40.7096 31.7794 40.5803 31.6789C40.451 31.5783 40.364 31.4331 40.3362 31.2717C40.3084 31.1103 40.342 30.9443 40.4302 30.8064C40.5184 30.6684 40.655 30.5683 40.8132 30.5258L40.8126 30.527ZM21.625 35.7961C21.8963 36.1906 22.2713 36.5024 22.7086 36.6972C22.8492 36.7571 22.9973 36.7974 23.1489 36.8169C23.3724 36.8476 23.6 36.8121 23.8036 36.7149C24.2741 36.4156 24.7618 36.1443 25.2642 35.9022C25.599 35.7898 25.9423 35.7043 26.2907 35.6467C26.9484 35.5234 27.6263 35.5639 28.2646 35.7647C28.9449 36.0058 29.5842 36.3497 30.1603 36.7844L30.1649 36.7879C30.2797 36.8732 30.4224 36.9122 30.5647 36.8972C30.707 36.8822 30.8385 36.8142 30.933 36.7069C31.0275 36.5995 31.0783 36.4605 31.0751 36.3174C31.0719 36.1744 31.0151 36.0378 30.916 35.9347C30.3334 35.2579 29.608 34.7185 28.7921 34.3555C27.917 33.9988 26.9587 33.8976 26.0284 34.0635C25.1081 34.1952 24.2355 34.5552 23.4899 35.1106C23.3672 35.2366 23.2277 35.345 23.0753 35.4328C22.7303 35.4343 22.3885 35.367 22.0699 35.2349L22.0288 35.2229C21.9545 35.2006 21.8751 35.2023 21.8018 35.2276C21.7285 35.2529 21.6651 35.3006 21.6204 35.364C21.5758 35.4274 21.5522 35.5033 21.553 35.5808C21.5538 35.6583 21.579 35.7336 21.625 35.7961ZM51.4301 35.4727C51.4163 35.4261 51.3934 35.3826 51.3628 35.3448C51.3322 35.307 51.2945 35.2756 51.2517 35.2524C51.209 35.2292 51.1621 35.2147 51.1137 35.2096C51.0654 35.2046 51.0165 35.2091 50.9699 35.2229L50.9288 35.2349C50.6101 35.367 50.2683 35.4343 49.9233 35.4328C49.771 35.345 49.6314 35.2366 49.5087 35.1106C48.7632 34.5552 47.8905 34.1952 46.9703 34.0635C46.0399 33.8976 45.0816 33.9988 44.2065 34.3555C43.3906 34.7185 42.6653 35.2579 42.0827 35.9347C41.9878 36.0386 41.9346 36.1739 41.9335 36.3146C41.9323 36.4554 41.9832 36.5916 42.0765 36.697C42.1697 36.8025 42.2986 36.8697 42.4384 36.8859C42.5782 36.902 42.719 36.8659 42.8338 36.7844L42.8383 36.781C43.4142 36.3471 44.0532 36.004 44.7329 35.7636C45.3712 35.5628 46.0491 35.5222 46.7068 35.6455C47.0552 35.7032 47.3985 35.7886 47.7333 35.901C48.2359 36.1431 48.7237 36.4145 49.1945 36.7137C49.3981 36.811 49.6257 36.8465 49.8492 36.8158C50.0008 36.7962 50.1489 36.7559 50.2895 36.696C50.7268 36.5013 51.1018 36.1894 51.3731 35.7949C51.4065 35.7491 51.4289 35.6962 51.4388 35.6404C51.4487 35.5846 51.4457 35.5272 51.4301 35.4727Z" fill="#F2F0EC"/>
<path d="M36.4996 68.9121C36.3484 68.9121 36.2033 68.852 36.0964 68.7451C35.9894 68.6381 35.9293 68.493 35.9293 68.3418V67.2012C35.9293 67.0499 35.9894 66.9049 36.0964 66.7979C36.2033 66.6909 36.3484 66.6309 36.4996 66.6309C36.6509 66.6309 36.7959 66.6909 36.9029 66.7979C37.0099 66.9049 37.0699 67.0499 37.0699 67.2012V68.3418C37.0699 68.493 37.0099 68.6381 36.9029 68.7451C36.7959 68.852 36.6509 68.9121 36.4996 68.9121ZM36.4996 64.9199C36.3484 64.9199 36.2033 64.8598 36.0964 64.7529C35.9894 64.6459 35.9293 64.5009 35.9293 64.3496V63.209C35.9293 63.0577 35.9894 62.9127 36.0964 62.8057C36.2033 62.6988 36.3484 62.6387 36.4996 62.6387C36.6509 62.6387 36.7959 62.6988 36.9029 62.8057C37.0099 62.9127 37.0699 63.0577 37.0699 63.209V64.3496C37.0699 64.5009 37.0099 64.6459 36.9029 64.7529C36.7959 64.8598 36.6509 64.9199 36.4996 64.9199ZM36.4996 60.9277C36.3484 60.9277 36.2033 60.8676 36.0964 60.7607C35.9894 60.6537 35.9293 60.5087 35.9293 60.3574V59.2168C35.9293 59.0655 35.9894 58.9205 36.0964 58.8135C36.2033 58.7066 36.3484 58.6465 36.4996 58.6465C36.6509 58.6465 36.7959 58.7066 36.9029 58.8135C37.0099 58.9205 37.0699 59.0655 37.0699 59.2168V60.3574C37.0699 60.5087 37.0099 60.6537 36.9029 60.7607C36.7959 60.8676 36.6509 60.9277 36.4996 60.9277ZM36.4996 56.9355C36.3484 56.9355 36.2033 56.8755 36.0964 56.7685C35.9894 56.6616 35.9293 56.5165 35.9293 56.3652V55.2246C35.9293 55.0734 35.9894 54.9283 36.0964 54.8213C36.2033 54.7144 36.3484 54.6543 36.4996 54.6543C36.6509 54.6543 36.7959 54.7144 36.9029 54.8213C37.0099 54.9283 37.0699 55.0734 37.0699 55.2246V56.3652C37.0699 56.5165 37.0099 56.6616 36.9029 56.7685C36.7959 56.8755 36.6509 56.9355 36.4996 56.9355ZM36.4996 52.9434C36.3484 52.9434 36.2033 52.8833 36.0964 52.7763C35.9894 52.6694 35.9293 52.5243 35.9293 52.373V51.2324C35.9293 51.0812 35.9894 50.9361 36.0964 50.8292C36.2033 50.7222 36.3484 50.6621 36.4996 50.6621C36.6509 50.6621 36.7959 50.7222 36.9029 50.8292C37.0099 50.9361 37.0699 51.0812 37.0699 51.2324V52.373C37.0699 52.5243 37.0099 52.6694 36.9029 52.7763C36.7959 52.8833 36.6509 52.9434 36.4996 52.9434ZM36.4996 48.9512C36.3484 48.9512 36.2033 48.8911 36.0964 48.7841C35.9894 48.6772 35.9293 48.5321 35.9293 48.3809V47.2402C35.9293 47.089 35.9894 46.9439 36.0964 46.837C36.2033 46.73 36.3484 46.6699 36.4996 46.6699C36.6509 46.6699 36.7959 46.73 36.9029 46.837C37.0099 46.9439 37.0699 47.089 37.0699 47.2402V48.3809C37.0699 48.5321 37.0099 48.6772 36.9029 48.7841C36.7959 48.8911 36.6509 48.9512 36.4996 48.9512ZM36.4996 44.959C36.3484 44.959 36.2033 44.8989 36.0964 44.7919C35.9894 44.685 35.9293 44.5399 35.9293 44.3887V43.248C35.9293 43.0968 35.9894 42.9517 36.0964 42.8448C36.2033 42.7378 36.3484 42.6777 36.4996 42.6777C36.6509 42.6777 36.7959 42.7378 36.9029 42.8448C37.0099 42.9517 37.0699 43.0968 37.0699 43.248V44.3887C37.0699 44.5399 37.0099 44.685 36.9029 44.7919C36.7959 44.8989 36.6509 44.959 36.4996 44.959ZM36.4996 40.9668C36.3484 40.9668 36.2033 40.9067 36.0964 40.7998C35.9894 40.6928 35.9293 40.5477 35.9293 40.3965V39.2559C35.9293 39.1046 35.9894 38.9595 36.0964 38.8526C36.2033 38.7456 36.3484 38.6855 36.4996 38.6855C36.6509 38.6855 36.7959 38.7456 36.9029 38.8526C37.0099 38.9595 37.0699 39.1046 37.0699 39.2559V40.3965C37.0699 40.5477 37.0099 40.6928 36.9029 40.7998C36.7959 40.9067 36.6509 40.9668 36.4996 40.9668ZM36.4996 36.9746C36.3484 36.9746 36.2033 36.9145 36.0964 36.8076C35.9894 36.7006 35.9293 36.5556 35.9293 36.4043V35.2637C35.9293 35.1124 35.9894 34.9674 36.0964 34.8604C36.2033 34.7534 36.3484 34.6934 36.4996 34.6934C36.6509 34.6934 36.7959 34.7534 36.9029 34.8604C37.0099 34.9674 37.0699 35.1124 37.0699 35.2637V36.4043C37.0699 36.5556 37.0099 36.7006 36.9029 36.8076C36.7959 36.9145 36.6509 36.9746 36.4996 36.9746ZM36.4996 32.9824C36.3484 32.9824 36.2033 32.9223 36.0964 32.8154C35.9894 32.7084 35.9293 32.5634 35.9293 32.4121V31.2715C35.9293 31.1202 35.9894 30.9752 36.0964 30.8682C36.2033 30.7613 36.3484 30.7012 36.4996 30.7012C36.6509 30.7012 36.7959 30.7613 36.9029 30.8682C37.0099 30.9752 37.0699 31.1202 37.0699 31.2715V32.4121C37.0699 32.5634 37.0099 32.7084 36.9029 32.8154C36.7959 32.9223 36.6509 32.9824 36.4996 32.9824ZM36.4996 28.9902C36.3484 28.9902 36.2033 28.9301 36.0964 28.8232C35.9894 28.7162 35.9293 28.5712 35.9293 28.4199V27.2793C35.9293 27.128 35.9894 26.983 36.0964 26.876C36.2033 26.7691 36.3484 26.709 36.4996 26.709C36.6509 26.709 36.7959 26.7691 36.9029 26.876C37.0099 26.983 37.0699 27.128 37.0699 27.2793V28.4199C37.0699 28.5712 37.0099 28.7162 36.9029 28.8232C36.7959 28.9301 36.6509 28.9902 36.4996 28.9902ZM36.4996 24.998C36.3484 24.998 36.2033 24.938 36.0964 24.831C35.9894 24.7241 35.9293 24.579 35.9293 24.4277V23.2871C35.9293 23.1359 35.9894 22.9908 36.0964 22.8838C36.2033 22.7769 36.3484 22.7168 36.4996 22.7168C36.6509 22.7168 36.7959 22.7769 36.9029 22.8838C37.0099 22.9908 37.0699 23.1359 37.0699 23.2871V24.4277C37.0699 24.579 37.0099 24.7241 36.9029 24.831C36.7959 24.938 36.6509 24.998 36.4996 24.998ZM36.4996 21.0059C36.3484 21.0059 36.2033 20.9458 36.0964 20.8388C35.9894 20.7319 35.9293 20.5868 35.9293 20.4355V19.2949C35.9293 19.1437 35.9894 18.9986 36.0964 18.8916C36.2033 18.7847 36.3484 18.7246 36.4996 18.7246C36.6509 18.7246 36.7959 18.7847 36.9029 18.8916C37.0099 18.9986 37.0699 19.1437 37.0699 19.2949V20.4355C37.0699 20.5868 37.0099 20.7319 36.9029 20.8388C36.7959 20.9458 36.6509 21.0059 36.4996 21.0059ZM36.4996 17.0137C36.3484 17.0137 36.2033 16.9536 36.0964 16.8466C35.9894 16.7397 35.9293 16.5946 35.9293 16.4434V15.3027C35.9293 15.1515 35.9894 15.0064 36.0964 14.8995C36.2033 14.7925 36.3484 14.7324 36.4996 14.7324C36.6509 14.7324 36.7959 14.7925 36.9029 14.8995C37.0099 15.0064 37.0699 15.1515 37.0699 15.3027V16.4434C37.0699 16.5946 37.0099 16.7397 36.9029 16.8466C36.7959 16.9536 36.6509 17.0137 36.4996 17.0137ZM36.4996 13.0215C36.3484 13.0215 36.2033 12.9614 36.0964 12.8544C35.9894 12.7475 35.9293 12.6024 35.9293 12.4512V11.3105C35.9293 11.1593 35.9894 11.0142 36.0964 10.9073C36.2033 10.8003 36.3484 10.7402 36.4996 10.7402C36.6509 10.7402 36.7959 10.8003 36.9029 10.9073C37.0099 11.0142 37.0699 11.1593 37.0699 11.3105V12.4512C37.0699 12.6024 37.0099 12.7475 36.9029 12.8544C36.7959 12.9614 36.6509 13.0215 36.4996 13.0215ZM36.4996 9.0293C36.3484 9.0293 36.2033 8.96921 36.0964 8.86226C35.9894 8.7553 35.9293 8.61024 35.9293 8.45898V7.31836C35.9293 7.1671 35.9894 7.02204 36.0964 6.91509C36.2033 6.80813 36.3484 6.74805 36.4996 6.74805C36.6509 6.74805 36.7959 6.80813 36.9029 6.91509C37.0099 7.02204 37.0699 7.1671 37.0699 7.31836V8.45898C37.0699 8.61024 37.0099 8.7553 36.9029 8.86226C36.7959 8.96921 36.6509 9.0293 36.4996 9.0293ZM36.4996 5.03711C36.3484 5.03711 36.2033 4.97702 36.0964 4.87007C35.9894 4.76311 35.9293 4.61805 35.9293 4.4668V3.32617C35.9293 3.17492 35.9894 3.02985 36.0964 2.9229C36.2033 2.81595 36.3484 2.75586 36.4996 2.75586C36.6509 2.75586 36.7959 2.81595 36.9029 2.9229C37.0099 3.02985 37.0699 3.17492 37.0699 3.32617V4.4668C37.0699 4.61805 37.0099 4.76311 36.9029 4.87007C36.7959 4.97702 36.6509 5.03711 36.4996 5.03711ZM20.8337 54.9611L20.1225 54.5716C19.9964 54.5033 19.8928 54.3999 19.8243 54.2739L19.4353 53.5633C19.3441 53.3958 19.2095 53.256 19.0456 53.1586C18.8818 53.0612 18.6947 53.0097 18.504 53.0095C18.3133 53.0098 18.1261 53.0612 17.9621 53.1585C17.798 53.2559 17.6632 53.3954 17.5715 53.5627L17.1831 54.2733C17.114 54.3996 17.0101 54.5033 16.8837 54.5722L16.1731 54.9611C16.006 55.0528 15.8666 55.1878 15.7695 55.3518C15.6724 55.5158 15.6212 55.703 15.6212 55.8936C15.6212 56.0842 15.6724 56.2713 15.7695 56.4354C15.8666 56.5994 16.006 56.7343 16.1731 56.826L16.8837 57.215C17.0101 57.2837 17.1139 57.3875 17.1826 57.5138L17.5727 58.2267C17.6644 58.3935 17.7992 58.5326 17.963 58.6295C18.1268 58.7264 18.3137 58.7776 18.504 58.7777C18.6946 58.7774 18.8816 58.7259 19.0454 58.6286C19.2092 58.5312 19.3439 58.3917 19.4353 58.2245L19.8237 57.5138C19.8926 57.3876 19.9963 57.2839 20.1225 57.215L20.8326 56.8266C21 56.7351 21.1397 56.6002 21.237 56.4361C21.3343 56.2719 21.3857 56.0847 21.3857 55.8939C21.3857 55.7031 21.3343 55.5158 21.237 55.3517C21.1397 55.1876 21 55.0527 20.8326 54.9611H20.8337ZM18.5023 56.4114C18.3566 56.2139 18.182 56.0393 17.9844 55.8936C18.1819 55.7479 18.3564 55.5736 18.5023 55.3763C18.6483 55.5735 18.8228 55.7478 19.0201 55.8936C18.8227 56.0394 18.6481 56.214 18.5023 56.4114ZM15.6182 50.4585L14.6167 49.911C14.3807 49.7816 14.1866 49.5875 14.0573 49.3515L13.5098 48.3501C13.4109 48.1693 13.2652 48.0185 13.088 47.9135C12.9108 47.8085 12.7086 47.753 12.5026 47.753C12.2966 47.753 12.0944 47.8085 11.9172 47.9135C11.74 48.0185 11.5943 48.1693 11.4954 48.3501L10.9496 49.351C10.8206 49.5874 10.6264 49.7818 10.3902 49.911L9.38811 50.4585C9.20767 50.5575 9.05714 50.7031 8.95229 50.8802C8.84744 51.0573 8.79211 51.2593 8.79211 51.4651C8.79211 51.6709 8.84744 51.8729 8.95229 52.05C9.05714 52.2271 9.20767 52.3727 9.38811 52.4717L10.3902 53.0198C10.6262 53.1487 10.8201 53.343 10.9485 53.5793L11.496 54.5802C11.5949 54.7609 11.7405 54.9117 11.9177 55.0167C12.095 55.1218 12.2972 55.1772 12.5032 55.1772C12.7092 55.1772 12.9114 55.1218 13.0886 55.0167C13.2658 54.9117 13.4115 54.7609 13.5103 54.5802L14.0578 53.5793C14.1867 53.3429 14.3809 53.1487 14.6173 53.0198L15.6193 52.4717C15.7998 52.3727 15.9503 52.2271 16.0552 52.05C16.16 51.8729 16.2153 51.6709 16.2153 51.4651C16.2153 51.2593 16.16 51.0573 16.0552 50.8802C15.9503 50.7031 15.7998 50.5575 15.6193 50.4585H15.6182ZM13.7961 51.5181C13.2725 51.8041 12.8422 52.2345 12.5562 52.758L12.5032 52.8561L12.4496 52.758C12.1635 52.2346 11.7332 51.8045 11.2097 51.5187L11.1122 51.4651L11.2097 51.4115C11.7332 51.1257 12.1635 50.6956 12.4496 50.1722L12.5032 50.0747L12.5568 50.1728C12.8424 50.6959 13.2724 51.1259 13.7955 51.4115L13.893 51.4651L13.7961 51.5181Z" fill="#F2F0EC"/>
<path d="M60.5955 34.9553C60.5573 34.9137 60.514 34.8789 60.474 34.8413C61.3962 29.6161 61.3563 20.2601 58.8675 15.0988C54.8114 6.69007 45.4081 0.588867 36.5112 0.588867H36.4947C27.5938 0.588867 18.1905 6.69121 14.135 15.0988C11.6462 20.2601 11.6062 29.6161 12.5284 34.8413C12.4885 34.8812 12.4452 34.916 12.407 34.9553C11.1893 36.2767 10.712 38.1719 11.0644 40.2912C11.6108 43.5859 14.9317 47.1218 18.2875 47.1349C19.4235 50.9948 21.1253 54.1019 23.3547 56.2645C25.0269 57.9416 26.9027 59.4027 28.938 60.6137C28.6529 63.0974 27.482 68.8347 22.6828 70.7653C22.4984 70.8393 22.3455 70.9752 22.2504 71.1497C22.1553 71.3242 22.1239 71.5264 22.1617 71.7215C22.1994 71.9166 22.3038 72.0925 22.4571 72.219C22.6104 72.3454 22.8029 72.4146 23.0017 72.4146C23.1111 72.4145 23.2194 72.3936 23.321 72.353C28.5679 70.2428 30.1015 64.4992 30.5509 61.46C31.9393 62.114 33.3919 62.6221 34.8853 62.9759C35.9498 63.2292 37.0589 63.2292 38.1235 62.9759C39.6169 62.622 41.0694 62.114 42.4579 61.46C42.9056 64.4969 44.4391 70.2428 49.6883 72.353C49.7925 72.3949 49.904 72.4158 50.0164 72.4146C50.1287 72.4134 50.2397 72.39 50.343 72.3459C50.4463 72.3018 50.54 72.2378 50.6185 72.1575C50.6971 72.0772 50.7591 71.9822 50.801 71.8779C50.8856 71.6674 50.8831 71.432 50.7941 71.2233C50.7051 71.0147 50.5369 70.8499 50.3265 70.7653C45.5273 68.837 44.3559 63.0997 44.0713 60.6137C46.1068 59.4027 47.9827 57.9416 49.6552 56.2645C51.884 54.1019 53.5858 50.9948 54.7224 47.1349C58.0776 47.1207 61.3985 43.5847 61.9449 40.2912C62.2905 38.1719 61.8131 36.2767 60.5955 34.9553ZM12.7463 40.0112C12.5897 39.3352 12.5906 38.6323 12.7488 37.9567C12.907 37.2811 13.2183 36.6509 13.6588 36.1148C14.0487 35.7231 14.5127 35.413 15.0237 35.2027C15.5348 34.9923 16.0826 34.886 16.6353 34.8897C16.6467 35.8965 16.6818 36.8794 16.7408 37.8383C16.1236 37.592 15.4578 37.4919 14.7954 37.5457C14.5706 37.5687 14.3639 37.6798 14.2207 37.8547C14.0775 38.0296 14.0093 38.2541 14.0311 38.4791C14.0529 38.7041 14.1628 38.9114 14.3369 39.0555C14.511 39.1997 14.7351 39.2692 14.9602 39.2486C15.3224 39.2114 15.6882 39.2602 16.0279 39.391C16.3676 39.5218 16.6717 39.731 16.9153 40.0015C17.0981 41.8089 17.3971 43.6026 17.8107 45.3715C15.5271 45.0139 13.133 42.3289 12.7486 40.0112H12.7463ZM48.457 55.0349C45.8193 57.5916 42.6934 60.1209 37.7208 61.3083C36.9177 61.4997 36.0808 61.4997 35.2776 61.3083C30.3062 60.1221 27.1792 57.5927 24.5426 55.0349C20.2681 50.8899 18.073 42.8302 18.3639 32.3444C18.5179 29.754 18.8597 27.1782 19.3864 24.6372C24.3219 23.9146 27.3537 19.7263 29.6201 16.5656C30.4421 15.3533 31.5552 14.3668 32.8574 13.6965C34.1597 13.0262 35.6093 12.6936 37.0735 12.7291C38.3035 12.7499 39.5085 13.0793 40.578 13.6872C41.6474 14.2951 42.547 15.1619 43.1941 16.208C43.3577 16.4811 43.5847 16.7107 43.8558 16.8775C44.1269 17.0442 44.4342 17.1433 44.7517 17.1661C44.9564 17.1781 45.1457 17.1838 45.3248 17.189C45.6942 17.1765 46.0632 17.2217 46.4187 17.323C48.0156 17.8819 48.9178 19.2677 49.8765 20.7352C50.2941 21.4027 50.7512 22.0446 51.2452 22.6577C51.8406 23.3691 52.574 23.9525 53.401 24.3726C54.1474 26.9665 54.5622 29.6446 54.6357 32.3427C54.9266 42.8302 52.7315 50.8899 48.457 55.0349ZM52.5159 21.5918C52.0651 21.029 51.6479 20.4402 51.2663 19.8284C50.2478 18.2697 49.0946 16.5029 46.9673 15.7575C46.4511 15.5944 45.9116 15.5173 45.3704 15.5293C45.2068 15.5248 45.034 15.5196 44.8469 15.5088C44.7963 15.5009 44.7481 15.4814 44.7064 15.4517C44.6646 15.422 44.6303 15.383 44.6062 15.3377C43.8092 14.0644 42.7093 13.0082 41.4046 12.2636C40.0999 11.5191 38.6311 11.1092 37.1294 11.0706C35.3937 11.0364 33.6764 11.4319 32.1305 12.222C30.5847 13.0121 29.2581 14.1721 28.2691 15.5989C25.8104 19.0282 22.7541 23.3016 17.5141 23.0877C17.4037 23.0809 17.2931 23.0961 17.1887 23.1327C17.0842 23.1692 16.9882 23.2262 16.9061 23.3003C16.824 23.3745 16.7576 23.4643 16.7107 23.5644C16.6638 23.6646 16.6374 23.7732 16.633 23.8837C16.6287 23.9942 16.6464 24.1045 16.6853 24.208C16.7241 24.3116 16.7832 24.4064 16.8592 24.4868C16.9352 24.5672 17.0264 24.6316 17.1276 24.6762C17.2288 24.7209 17.3379 24.7448 17.4485 24.7467C17.5056 24.7467 17.5626 24.7433 17.6168 24.7467C17.122 27.2377 16.7999 29.76 16.6529 32.2954C16.645 32.5965 16.6461 32.8885 16.6415 33.1856C15.7594 33.2006 14.8894 33.3936 14.0837 33.7531C13.3594 28.7344 13.4906 20.3662 15.6731 15.8396C19.4589 7.99152 28.2126 2.29752 36.4924 2.29752H36.5078C44.7864 2.29752 53.5413 7.99209 57.3242 15.8396C59.5074 20.3673 59.6362 28.7355 58.9114 33.752C58.1064 33.3928 57.2372 33.2 56.3558 33.1851C56.3512 32.8879 56.3524 32.5965 56.3444 32.2954C56.2737 29.8546 55.9439 27.4281 55.3606 25.057C55.5414 25.0952 55.7228 25.1328 55.911 25.1608C55.9518 25.1666 55.9929 25.1697 56.0342 25.1699C56.2485 25.1771 56.4572 25.1011 56.6167 24.9577C56.7762 24.8144 56.874 24.6149 56.8896 24.4011C56.9052 24.1872 56.8375 23.9756 56.7005 23.8106C56.5636 23.6456 56.3681 23.5401 56.1551 23.516C54.7414 23.361 53.44 22.6728 52.5159 21.5918ZM60.251 40.0129C59.8661 42.3323 57.4702 45.0282 55.1821 45.3858C55.5975 43.6128 55.8977 41.8149 56.0809 40.0032C56.3243 39.7324 56.6284 39.5231 56.9681 39.3922C57.3079 39.2614 57.6738 39.2128 58.036 39.2504C58.2612 39.2695 58.4849 39.1999 58.6594 39.0562C58.8339 38.9125 58.9452 38.7063 58.9696 38.4816C58.9804 38.3698 58.9691 38.2569 58.9364 38.1494C58.9036 38.042 58.85 37.942 58.7786 37.8553C58.7073 37.7685 58.6195 37.6967 58.5203 37.6439C58.4212 37.591 58.3126 37.5583 58.2008 37.5474C57.5372 37.4967 56.871 37.6011 56.2549 37.8525C56.3149 36.891 56.3503 35.9041 56.3609 34.892C56.9136 34.8879 57.4615 34.9941 57.9725 35.2044C58.4836 35.4146 58.9476 35.7247 59.3374 36.1165C59.7778 36.6523 60.0892 37.2822 60.2476 37.9575C60.406 38.6327 60.4072 39.3354 60.251 40.0112V40.0129Z" fill="#F2F0EC"/>
<path d="M60.5955 34.9553C60.5573 34.9137 60.514 34.8789 60.474 34.8413C61.3962 29.6161 61.3563 20.2601 58.8675 15.0988C54.8114 6.69007 45.4081 0.588867 36.5112 0.588867H36.4947C27.5938 0.588867 18.1905 6.69121 14.135 15.0988C11.6462 20.2601 11.6062 29.6161 12.5284 34.8413C12.4885 34.8812 12.4452 34.916 12.407 34.9553C11.1893 36.2767 10.712 38.1719 11.0644 40.2912C11.6108 43.5859 14.9317 47.1218 18.2875 47.1349C19.4235 50.9948 21.1253 54.1019 23.3547 56.2645C25.0269 57.9416 26.9027 59.4027 28.938 60.6137C28.6529 63.0974 27.482 68.8347 22.6828 70.7653C22.4984 70.8393 22.3455 70.9752 22.2504 71.1497C22.1553 71.3242 22.1239 71.5264 22.1617 71.7215C22.1994 71.9166 22.3038 72.0925 22.4571 72.219C22.6104 72.3454 22.8029 72.4146 23.0017 72.4146C23.1111 72.4145 23.2194 72.3936 23.321 72.353C28.5679 70.2428 30.1015 64.4992 30.5509 61.46C31.9393 62.114 33.3919 62.6221 34.8853 62.9759C35.9498 63.2292 37.0589 63.2292 38.1235 62.9759C39.6169 62.622 41.0694 62.114 42.4579 61.46C42.9056 64.4969 44.4391 70.2428 49.6883 72.353C49.7925 72.3949 49.904 72.4158 50.0164 72.4146C50.1287 72.4134 50.2397 72.39 50.343 72.3459C50.4463 72.3018 50.54 72.2378 50.6185 72.1575C50.6971 72.0772 50.7591 71.9822 50.801 71.8779C50.8856 71.6674 50.8831 71.432 50.7941 71.2233C50.7051 71.0147 50.5369 70.8499 50.3265 70.7653C45.5273 68.837 44.3559 63.0997 44.0713 60.6137C46.1068 59.4027 47.9827 57.9416 49.6552 56.2645C51.884 54.1019 53.5858 50.9948 54.7224 47.1349C58.0776 47.1207 61.3985 43.5847 61.9449 40.2912C62.2905 38.1719 61.8131 36.2767 60.5955 34.9553ZM12.7463 40.0112C12.5897 39.3352 12.5906 38.6323 12.7488 37.9567C12.907 37.2811 13.2183 36.6509 13.6588 36.1148C14.0487 35.7231 14.5127 35.413 15.0237 35.2027C15.5348 34.9923 16.0826 34.886 16.6353 34.8897C16.6467 35.8965 16.6818 36.8794 16.7408 37.8383C16.1236 37.592 15.4578 37.4919 14.7954 37.5457C14.5706 37.5687 14.3639 37.6798 14.2207 37.8547C14.0775 38.0296 14.0093 38.2541 14.0311 38.4791C14.0529 38.7041 14.1628 38.9114 14.3369 39.0555C14.511 39.1997 14.7351 39.2692 14.9602 39.2486C15.3224 39.2114 15.6882 39.2602 16.0279 39.391C16.3676 39.5218 16.6717 39.731 16.9153 40.0015C17.0981 41.8089 17.3971 43.6026 17.8107 45.3715C15.5271 45.0139 13.133 42.3289 12.7486 40.0112H12.7463ZM48.457 55.0349C45.8193 57.5916 42.6934 60.1209 37.7208 61.3083C36.9177 61.4997 36.0808 61.4997 35.2776 61.3083C30.3062 60.1221 27.1792 57.5927 24.5426 55.0349C20.2681 50.8899 18.073 42.8302 18.3639 32.3444C18.5179 29.754 18.8597 27.1782 19.3864 24.6372C24.3219 23.9146 27.3537 19.7263 29.6201 16.5656C30.4421 15.3533 31.5552 14.3668 32.8574 13.6965C34.1597 13.0262 35.6093 12.6936 37.0735 12.7291C38.3035 12.7499 39.5085 13.0793 40.578 13.6872C41.6474 14.2951 42.547 15.1619 43.1941 16.208C43.3577 16.4811 43.5847 16.7107 43.8558 16.8775C44.1269 17.0442 44.4342 17.1433 44.7517 17.1661C44.9564 17.1781 45.1457 17.1838 45.3248 17.189C45.6942 17.1765 46.0632 17.2217 46.4187 17.323C48.0156 17.8819 48.9178 19.2677 49.8765 20.7352C50.2941 21.4027 50.7512 22.0446 51.2452 22.6577C51.8406 23.3691 52.574 23.9525 53.401 24.3726C54.1474 26.9665 54.5622 29.6446 54.6357 32.3427C54.9266 42.8302 52.7315 50.8899 48.457 55.0349ZM52.5159 21.5918C52.0651 21.029 51.6479 20.4402 51.2663 19.8284C50.2478 18.2697 49.0946 16.5029 46.9673 15.7575C46.4511 15.5944 45.9116 15.5173 45.3704 15.5293C45.2068 15.5248 45.034 15.5196 44.8469 15.5088C44.7963 15.5009 44.7481 15.4814 44.7064 15.4517C44.6646 15.422 44.6303 15.383 44.6062 15.3377C43.8092 14.0644 42.7093 13.0082 41.4046 12.2636C40.0999 11.5191 38.6311 11.1092 37.1294 11.0706C35.3937 11.0364 33.6764 11.4319 32.1305 12.222C30.5847 13.0121 29.2581 14.1721 28.2691 15.5989C25.8104 19.0282 22.7541 23.3016 17.5141 23.0877C17.4037 23.0809 17.2931 23.0961 17.1887 23.1327C17.0842 23.1692 16.9882 23.2262 16.9061 23.3003C16.824 23.3745 16.7576 23.4643 16.7107 23.5644C16.6638 23.6646 16.6374 23.7732 16.633 23.8837C16.6287 23.9942 16.6464 24.1045 16.6853 24.208C16.7241 24.3116 16.7832 24.4064 16.8592 24.4868C16.9352 24.5672 17.0264 24.6316 17.1276 24.6762C17.2288 24.7209 17.3379 24.7448 17.4485 24.7467C17.5056 24.7467 17.5626 24.7433 17.6168 24.7467C17.122 27.2377 16.7999 29.76 16.6529 32.2954C16.645 32.5965 16.6461 32.8885 16.6415 33.1856C15.7594 33.2006 14.8894 33.3936 14.0837 33.7531C13.3594 28.7344 13.4906 20.3662 15.6731 15.8396C19.4589 7.99152 28.2126 2.29752 36.4924 2.29752H36.5078C44.7864 2.29752 53.5413 7.99209 57.3242 15.8396C59.5074 20.3673 59.6362 28.7355 58.9114 33.752C58.1064 33.3928 57.2372 33.2 56.3558 33.1851C56.3512 32.8879 56.3524 32.5965 56.3444 32.2954C56.2737 29.8546 55.9439 27.4281 55.3606 25.057C55.5414 25.0952 55.7228 25.1328 55.911 25.1608C55.9518 25.1666 55.9929 25.1697 56.0342 25.1699C56.2485 25.1771 56.4572 25.1011 56.6167 24.9577C56.7762 24.8144 56.874 24.6149 56.8896 24.4011C56.9052 24.1872 56.8375 23.9756 56.7005 23.8106C56.5636 23.6456 56.3681 23.5401 56.1551 23.516C54.7414 23.361 53.44 22.6728 52.5159 21.5918ZM60.251 40.0129C59.8661 42.3323 57.4702 45.0282 55.1821 45.3858C55.5975 43.6128 55.8977 41.8149 56.0809 40.0032C56.3243 39.7324 56.6284 39.5231 56.9681 39.3922C57.3079 39.2614 57.6738 39.2128 58.036 39.2504C58.2612 39.2695 58.4849 39.1999 58.6594 39.0562C58.8339 38.9125 58.9452 38.7063 58.9696 38.4816C58.9804 38.3698 58.9691 38.2569 58.9364 38.1494C58.9036 38.042 58.85 37.942 58.7786 37.8553C58.7073 37.7685 58.6195 37.6967 58.5203 37.6439C58.4212 37.591 58.3126 37.5583 58.2008 37.5474C57.5372 37.4967 56.871 37.6011 56.2549 37.8525C56.3149 36.891 56.3503 35.9041 56.3609 34.892C56.9136 34.8879 57.4615 34.9941 57.9725 35.2044C58.4836 35.4146 58.9476 35.7247 59.3374 36.1165C59.7778 36.6523 60.0892 37.2822 60.2476 37.9575C60.406 38.6327 60.4072 39.3354 60.251 40.0112V40.0129Z" fill="#F2F0EC"/>
</svg>
