<svg width="142" height="142" viewBox="0 0 142 142" fill="none" xmlns="http://www.w3.org/2000/svg">
<path d="M92.2703 17.903L92.8915 18.0711C95.0825 18.6637 97.3584 17.4584 98.0998 15.3132L100.38 8.71407C101.196 6.35028 99.8401 3.78929 97.4258 3.13643L95.8821 2.71875C93.4681 2.06588 91.0059 3.59404 90.5197 6.04714L89.1624 12.8958C88.7211 15.1224 90.0793 17.3103 92.2703 17.903Z" stroke="#F2F0EC" stroke-width="3.05078" stroke-miterlimit="10" stroke-linecap="round" stroke-linejoin="round"/>
<path d="M110.853 28.4977L111.307 28.9539C112.909 30.5625 115.482 30.6568 117.197 29.1694L122.471 24.5944C124.36 22.9558 124.466 20.0598 122.702 18.2873L121.574 17.1538C119.809 15.3813 116.913 15.4737 115.265 17.3552L110.666 22.6075C109.17 24.3151 109.252 26.8888 110.853 28.4977Z" stroke="#F2F0EC" stroke-width="3.05078" stroke-miterlimit="10" stroke-linecap="round" stroke-linejoin="round"/>
<path d="M121.649 46.9642L121.814 47.5863C122.396 49.7801 124.578 51.1485 126.806 50.7178L133.661 49.3926C136.116 48.9178 137.656 46.4631 137.015 44.046L136.605 42.5001C135.963 40.0831 133.408 38.7149 131.041 39.5203L124.431 41.769C122.282 42.5001 121.066 44.7702 121.649 46.9642Z" stroke="#F2F0EC" stroke-width="3.05078" stroke-miterlimit="10" stroke-linecap="round" stroke-linejoin="round"/>
<path d="M108.025 68.2988H73.4087C70.2295 68.2988 67.6519 65.7215 67.6519 62.542V57.818C67.6519 54.6386 70.2295 52.0612 73.4087 52.0612H108.025C111.204 52.0612 113.781 54.6386 113.781 57.818V62.542C113.781 65.7215 111.204 68.2988 108.025 68.2988Z" stroke="#F2F0EC" stroke-width="3.05078" stroke-miterlimit="10" stroke-linecap="round" stroke-linejoin="round"/>
<path d="M123.928 118.494L104.926 84.9056V68.2989H76.51V84.9056L57.5081 118.494C52.0936 128.064 59.0077 139.92 70.0041 139.92H111.432C122.428 139.92 129.342 128.064 123.928 118.494Z" stroke="#F2F0EC" stroke-width="3.05078" stroke-miterlimit="10" stroke-linecap="round" stroke-linejoin="round"/>
<path d="M113.534 117.028L116.682 122.592C118.224 125.315 117.167 127.701 116.643 128.605C116.119 129.503 114.56 131.597 111.432 131.597H70.0048C66.8736 131.597 65.3149 129.503 64.7908 128.605C64.2666 127.701 63.2127 125.315 64.7519 122.592L79.6009 96.3469H101.835L109.44 109.79" stroke="#F2F0EC" stroke-width="3.05078" stroke-miterlimit="10" stroke-linecap="round" stroke-linejoin="round"/>
<path d="M72.3812 38.8947L47.8521 14.3657C45.0418 11.5551 45.0418 6.99888 47.8521 4.18857C50.6622 1.37825 55.2186 1.37825 58.0289 4.18857L82.5583 28.7176C85.3686 31.5279 85.3686 36.0844 82.5583 38.8947C79.7479 41.705 75.1915 41.705 72.3812 38.8947Z" stroke="#F2F0EC" stroke-width="3.05078" stroke-miterlimit="10" stroke-linecap="round" stroke-linejoin="round"/>
<path d="M19.9918 43.0082L48.2419 14.7581L71.9908 38.5042L33.4984 76.9938C26.942 83.5502 16.3114 83.5502 9.75225 76.9938C3.19586 70.4347 3.19586 59.8041 9.75225 53.2477L14.1093 48.8907" stroke="#F2F0EC" stroke-width="3.05078" stroke-miterlimit="10" stroke-linecap="round" stroke-linejoin="round"/>
<path d="M64.7693 33.9499L27.615 71.1069C24.3108 74.4084 18.9395 74.4084 15.638 71.1069C12.3365 67.8054 12.3365 62.4344 15.638 59.1329L40.8182 33.9499H64.7693Z" stroke="#F2F0EC" stroke-width="3.05078" stroke-miterlimit="10" stroke-linecap="round" stroke-linejoin="round"/>
</svg>
