<svg width="24" height="24" viewBox="0 0 24 24" fill="none" xmlns="http://www.w3.org/2000/svg">
<g clip-path="url(#clip0_40_2728)">
<path d="M23.2405 0H3.52612C3.10659 0 2.7666 0.340031 2.7666 0.759516V13.9722H8.95354C15.1055 7.82006 13.7915 9.13406 15.5534 7.37273H12.0927C11.6835 7.37273 11.3315 7.05797 11.3127 6.64931C11.2927 6.21314 11.6397 5.8537 12.0714 5.8537H17.3868C17.835 5.8537 18.1463 6.22392 18.1463 6.61322V11.9072C18.1463 12.316 17.8325 12.6678 17.4242 12.6874C16.988 12.708 16.6275 12.3607 16.6275 11.9287V8.44664C14.866 10.2085 16.1803 8.89416 10.028 15.0465V21.2334H23.2405C23.6601 21.2334 24 20.8935 24 20.4739V0.759516C24 0.339984 23.66 0 23.2405 0Z" fill="white"/>
<path d="M3.46327 20.5359C3.16702 20.2392 3.16702 19.758 3.46327 19.4614L7.43447 15.4902H0.759516C0.339984 15.4902 0 15.8304 0 16.2498V23.2396C0 23.6591 0.340031 23.9991 0.759516 23.9991H7.74938C8.16891 23.9991 8.50889 23.6591 8.50889 23.2396V16.5647L4.53773 20.5359C4.24148 20.8322 3.75989 20.8325 3.46327 20.5359V20.5359Z" fill="white"/>
</g>
<defs>
<clipPath id="clip0_40_2728">
<rect width="24" height="24" fill="white"/>
</clipPath>
</defs>
</svg>
