<svg width="25" height="25" viewBox="0 0 25 25" fill="none" xmlns="http://www.w3.org/2000/svg">
<path d="M21.47 1.5957H18.53C17.66 1.5957 17.02 1.9557 16.73 2.5957C16.57 2.8857 16.5 3.2257 16.5 3.6257V6.5657C16.5 7.8357 17.26 8.5957 18.53 8.5957H21.47C21.87 8.5957 22.21 8.5257 22.5 8.3657C23.14 8.0757 23.5 7.4357 23.5 6.5657V3.6257C23.5 2.3557 22.74 1.5957 21.47 1.5957ZM22.41 5.5257C22.31 5.6257 22.16 5.6957 22 5.7057H20.59V6.2157L20.6 7.0957C20.59 7.2657 20.53 7.4057 20.41 7.5257C20.31 7.6257 20.16 7.6957 20 7.6957C19.67 7.6957 19.4 7.4257 19.4 7.0957V5.6957L18 5.7057C17.67 5.7057 17.4 5.4257 17.4 5.0957C17.4 4.7657 17.67 4.4957 18 4.4957L18.88 4.5057H19.4V3.1057C19.4 2.7757 19.67 2.4957 20 2.4957C20.33 2.4957 20.6 2.7757 20.6 3.1057L20.59 3.8157V4.4957H22C22.33 4.4957 22.6 4.7657 22.6 5.0957C22.59 5.2657 22.52 5.4057 22.41 5.5257Z" fill="#292D32"/>
<path d="M9.5 10.9757C10.8144 10.9757 11.88 9.91014 11.88 8.5957C11.88 7.28126 10.8144 6.2157 9.5 6.2157C8.18556 6.2157 7.12 7.28126 7.12 8.5957C7.12 9.91014 8.18556 10.9757 9.5 10.9757Z" fill="#292D32"/>
<path d="M21.47 8.5957H21V13.2057L20.87 13.0957C20.09 12.4257 18.83 12.4257 18.05 13.0957L13.89 16.6657C13.11 17.3357 11.85 17.3357 11.07 16.6657L10.73 16.3857C10.02 15.7657 8.89 15.7057 8.09 16.2457L4.35 18.7557C4.13 18.1957 4 17.5457 4 16.7857V8.4057C4 5.5857 5.49 4.0957 8.31 4.0957H16.5V3.6257C16.5 3.2257 16.57 2.8857 16.73 2.5957H8.31C4.67 2.5957 2.5 4.7657 2.5 8.4057V16.7857C2.5 17.8757 2.69 18.8257 3.06 19.6257C3.92 21.5257 5.76 22.5957 8.31 22.5957H16.69C20.33 22.5957 22.5 20.4257 22.5 16.7857V8.3657C22.21 8.5257 21.87 8.5957 21.47 8.5957Z" fill="#292D32"/>
</svg>
