<svg width="25" height="24" viewBox="0 0 25 24" fill="none" xmlns="http://www.w3.org/2000/svg">
<g clip-path="url(#clip0_1_1135)">
<path d="M6.1665 21C5.50346 21 4.86758 20.7366 4.39874 20.2678C3.9299 19.7989 3.6665 19.163 3.6665 18.5V1.5C3.6665 1.10218 3.50847 0.720644 3.22716 0.43934C2.94586 0.158035 2.56433 0 2.1665 0C1.76868 0 1.38715 0.158035 1.10584 0.43934C0.824539 0.720644 0.666504 1.10218 0.666504 1.5L0.666504 18.5C0.666504 19.9587 1.24597 21.3576 2.27742 22.3891C3.30887 23.4205 4.70781 24 6.1665 24H23.1665C23.5643 24 23.9459 23.842 24.2272 23.5607C24.5085 23.2794 24.6665 22.8978 24.6665 22.5C24.6665 22.1022 24.5085 21.7206 24.2272 21.4393C23.9459 21.158 23.5643 21 23.1665 21H6.1665Z" fill="#455A64"/>
<path d="M20.1665 18C20.5643 18 20.9459 17.842 21.2272 17.5607C21.5085 17.2794 21.6665 16.8978 21.6665 16.5V10.5C21.6665 10.1022 21.5085 9.72064 21.2272 9.43934C20.9459 9.15804 20.5643 9 20.1665 9C19.7687 9 19.3871 9.15804 19.1058 9.43934C18.8245 9.72064 18.6665 10.1022 18.6665 10.5V16.5C18.6665 16.8978 18.8245 17.2794 19.1058 17.5607C19.3871 17.842 19.7687 18 20.1665 18ZM8.1665 18C8.56433 18 8.94586 17.842 9.22716 17.5607C9.50847 17.2794 9.6665 16.8978 9.6665 16.5V10.5C9.6665 10.1022 9.50847 9.72064 9.22716 9.43934C8.94586 9.15804 8.56433 9 8.1665 9C7.76868 9 7.38715 9.15804 7.10584 9.43934C6.82454 9.72064 6.6665 10.1022 6.6665 10.5V16.5C6.6665 16.8978 6.82454 17.2794 7.10584 17.5607C7.38715 17.842 7.76868 18 8.1665 18ZM14.1665 18C14.5643 18 14.9459 17.842 15.2272 17.5607C15.5085 17.2794 15.6665 16.8978 15.6665 16.5V5.5C15.6665 5.10218 15.5085 4.72064 15.2272 4.43934C14.9459 4.15804 14.5643 4 14.1665 4C13.7687 4 13.3871 4.15804 13.1058 4.43934C12.8245 4.72064 12.6665 5.10218 12.6665 5.5V16.5C12.6665 16.8978 12.8245 17.2794 13.1058 17.5607C13.3871 17.842 13.7687 18 14.1665 18Z" fill="#455A64"/>
</g>
<defs>
<clipPath id="clip0_1_1135">
<rect width="24" height="24" fill="white" transform="translate(0.666504)"/>
</clipPath>
</defs>
</svg>
