<svg width="112" height="70" viewBox="0 0 112 70" fill="none" xmlns="http://www.w3.org/2000/svg">
<path d="M78.96 46.4262L88.764 36.6223C96.4263 28.9599 96.4263 16.5371 88.764 8.87471C81.1016 1.21234 68.6786 1.21234 61.0164 8.87471L56.2842 13.6069L51.552 8.87471C43.8896 1.21234 31.4668 1.21234 23.8044 8.87471C16.142 16.5371 16.142 28.9601 23.8044 36.6223L52.4771 65.2949C54.5797 67.3976 57.9889 67.3976 60.0915 65.2949L65.0738 60.3127" stroke="#F2F0EC" stroke-width="4.375" stroke-miterlimit="10" stroke-linecap="round" stroke-linejoin="round"/>
<path d="M11.9142 38.5074H39.3732C40.2928 38.5074 41.1232 37.957 41.4817 37.1103L46.2728 25.7899C46.688 24.8088 48.1009 24.8771 48.4196 25.8938L55.3848 48.1208C55.6994 49.1249 57.088 49.2084 57.5207 48.2492L64.6347 32.4811C65.0057 31.6586 66.1382 31.5687 66.6343 32.3223L70.0291 37.4771C70.2376 37.7937 70.5215 38.0536 70.8553 38.2335C71.189 38.4133 71.5622 38.5074 71.9414 38.5074H100.654" stroke="#F2F0EC" stroke-width="4.375" stroke-miterlimit="10" stroke-linecap="round" stroke-linejoin="round"/>
<path d="M105.233 42.7114C107.762 42.7114 109.812 40.6611 109.812 38.132C109.812 35.603 107.762 33.5527 105.233 33.5527C102.704 33.5527 100.654 35.603 100.654 38.132C100.654 40.6611 102.704 42.7114 105.233 42.7114Z" stroke="#F2F0EC" stroke-width="4.375" stroke-miterlimit="10" stroke-linecap="round" stroke-linejoin="round"/>
<path d="M6.76681 42.7114C9.2959 42.7114 11.3461 40.6611 11.3461 38.132C11.3461 35.603 9.2959 33.5527 6.76681 33.5527C4.23773 33.5527 2.1875 35.603 2.1875 38.132C2.1875 40.6611 4.23773 42.7114 6.76681 42.7114Z" stroke="#F2F0EC" stroke-width="4.375" stroke-miterlimit="10" stroke-linecap="round" stroke-linejoin="round"/>
</svg>
