<svg width="236" height="142" viewBox="0 0 236 142" fill="none" xmlns="http://www.w3.org/2000/svg">
<path d="M295.189 141.944L243.827 142.294L178.316 142.046L31.8498 141.506C31.8498 141.506 0.751872 120.776 0.410604 89.6026C0.0693351 58.4287 16.0137 32.4887 61.5298 22.8446C104.21 13.7841 92.853 -43.7888 155.79 -38.1278C180.628 -35.8955 191.651 -13.733 210.831 -19.642C291.946 -44.5766 309.745 7.29143 315.853 57.6421C318.107 76.2154 312.014 134.022 295.189 141.944Z" fill="#0D7BA9"/>
<path d="M145.769 48.894H135.608C134.936 48.894 134.389 48.3445 134.389 47.6697V37.8366C134.389 37.1618 134.936 36.6123 135.608 36.6123H145.769C146.441 36.6123 146.998 37.1618 146.998 37.8366V47.6697C146.998 48.3445 146.441 48.894 145.769 48.894Z" fill="#1F7FE1"/>
<path d="M145.336 48.3638H136.049C135.435 48.3638 134.926 47.8529 134.926 47.2359V38.2705C134.926 37.6439 135.435 37.1426 136.049 37.1426H145.336C145.951 37.1426 146.45 37.6439 146.45 38.2705V47.2359C146.45 47.8529 145.951 48.3638 145.336 48.3638Z" fill="#045CB8"/>
<path d="M140.43 38.2603C140.43 38.1157 140.545 38 140.689 38C140.833 38 140.948 38.1157 140.948 38.2603C140.948 38.4049 140.833 38.5302 140.689 38.5302C140.545 38.5302 140.43 38.4049 140.43 38.2603Z" fill="#BED2FA"/>
<path d="M142.534 38.6366C142.611 38.5113 142.765 38.4631 142.89 38.5306C143.024 38.6077 143.063 38.7619 142.995 38.8872C142.928 39.0126 142.765 39.0608 142.64 38.9933C142.515 38.9258 142.467 38.7619 142.534 38.6366Z" fill="#BED2FA"/>
<path d="M144.349 40.0733C144.464 39.9962 144.627 40.0348 144.704 40.1504C144.781 40.2758 144.752 40.4397 144.627 40.5168C144.502 40.5939 144.349 40.565 144.262 40.4397C144.185 40.3143 144.224 40.1504 144.349 40.0733Z" fill="#BED2FA"/>
<path d="M145.242 42.3086C145.386 42.3086 145.501 42.4243 145.501 42.5689C145.501 42.7135 145.386 42.8292 145.242 42.8292C145.098 42.8292 144.973 42.7135 144.973 42.5689C144.973 42.4243 145.098 42.3086 145.242 42.3086Z" fill="#BED2FA"/>
<path d="M144.78 44.892C144.886 44.9981 144.886 45.162 144.78 45.2584C144.684 45.3644 144.511 45.3644 144.415 45.2584C144.31 45.162 144.31 44.9981 144.415 44.892C144.511 44.786 144.684 44.786 144.78 44.892Z" fill="#BED2FA"/>
<path d="M143.138 46.5401C143.243 46.6461 143.243 46.81 143.138 46.916C143.041 47.0124 142.869 47.0124 142.773 46.916C142.667 46.81 142.667 46.6461 142.773 46.5401C142.869 46.4437 143.041 46.4437 143.138 46.5401Z" fill="#BED2FA"/>
<path d="M140.43 47.3902C140.43 47.2456 140.545 47.1299 140.689 47.1299C140.833 47.1299 140.948 47.2456 140.948 47.3902C140.948 47.5348 140.833 47.6601 140.689 47.6601C140.545 47.6601 140.43 47.5348 140.43 47.3902Z" fill="#BED2FA"/>
<path d="M138.837 38.6366C138.77 38.5113 138.607 38.4631 138.482 38.5306C138.357 38.6077 138.309 38.7619 138.376 38.8872C138.453 39.0126 138.607 39.0608 138.731 38.9933C138.866 38.9258 138.904 38.7619 138.837 38.6366Z" fill="#BED2FA"/>
<path d="M137.032 40.0724C136.907 39.9952 136.744 40.0338 136.667 40.1495C136.59 40.2748 136.629 40.4387 136.744 40.5158C136.869 40.5929 137.032 40.564 137.109 40.4387C137.186 40.3134 137.157 40.1495 137.032 40.0724Z" fill="#BED2FA"/>
<path d="M136.138 42.3086C135.994 42.3086 135.879 42.4243 135.879 42.5689C135.879 42.7135 135.994 42.8292 136.138 42.8292C136.282 42.8292 136.397 42.7135 136.397 42.5689C136.397 42.4243 136.282 42.3086 136.138 42.3086Z" fill="#BED2FA"/>
<path d="M136.59 44.892C136.494 44.9981 136.494 45.162 136.59 45.2584C136.695 45.3644 136.859 45.3644 136.964 45.2584C137.06 45.162 137.06 44.9981 136.964 44.892C136.859 44.786 136.695 44.786 136.59 44.892Z" fill="#BED2FA"/>
<path d="M138.232 46.542C138.136 46.6481 138.136 46.812 138.232 46.918C138.338 47.0144 138.501 47.0144 138.607 46.918C138.703 46.812 138.703 46.6481 138.607 46.542C138.501 46.4456 138.338 46.4456 138.232 46.542Z" fill="#BED2FA"/>
<path d="M140.621 42.5699C140.621 42.4252 140.736 42.3096 140.88 42.3096C141.024 42.3096 141.14 42.4252 141.14 42.5699C141.14 42.7145 141.024 42.8301 140.88 42.8301C140.736 42.8301 140.621 42.7145 140.621 42.5699Z" fill="#BED2FA"/>
<path d="M140.919 42.5697H140.842V39.292H140.919V42.5697Z" fill="#BED2FA"/>
<path d="M140.91 42.6471L140.785 42.4735L142.514 41.1143L142.648 41.2878L140.91 42.6471Z" fill="#BED2FA"/>
<path d="M82.1729 92.6528C82.1729 92.6528 79.9641 90.0596 82.0385 88.4207C82.0385 88.4207 83.5462 87.5049 84.7851 87.582C84.7851 87.582 83.0372 90.5223 83.6038 90.8115C84.1704 91.1007 85.3133 87.3892 85.3133 87.3892C85.3133 87.3892 88.7513 87.0615 89.8653 87.5917C89.8653 87.5917 86.917 90.0114 87.5413 90.156C88.1559 90.3006 91.3346 87.9291 91.3346 87.9291C91.3346 87.9291 94.5422 88.4689 94.3693 90.4356C94.1965 92.3925 93.0921 92.9999 92.6119 92.9517C92.1221 92.8938 89.2891 91.8141 89.2219 92.2094C89.1643 92.6046 90.8737 93.9157 92.0645 93.9735C92.0645 93.9735 89.8077 96.4704 88.3095 95.757C86.8114 95.034 86.677 93.8868 85.7454 93.453C84.8043 93.0288 84.0072 93.0288 84.3913 93.4626C84.7851 93.906 86.4753 94.3302 87.0131 95.2846C87.5413 96.2293 88.0214 96.8752 86.4753 96.6342C84.9195 96.4029 82.3938 95.2653 82.2882 93.9542C82.1729 92.6528 82.1729 92.6528 82.1729 92.6528Z" fill="#88A4EA"/>
<path d="M92.7947 90.4839C92.7947 90.4839 84.094 90.1465 82.1733 92.653C82.1733 92.653 81.7507 93.9255 80.4447 95.092L80.2334 95.6511C80.2334 95.6511 81.7411 94.0508 82.2885 93.9544C82.2885 93.9544 81.4434 90.8599 92.7947 90.4839Z" fill="#88A4EA"/>
<path d="M80.4448 95.0913C80.4448 95.0913 78.5721 96.4795 78.4473 98.957L78.7834 98.986C78.7834 98.986 79.3788 96.4217 80.4544 95.4191C81.5396 94.4165 80.4448 95.0913 80.4448 95.0913Z" fill="#6D89CF"/>
<path d="M74.4517 89.3938C74.4517 89.3938 77.9665 87.4271 76.3243 84.7472C76.3243 84.7472 75.0183 83.0987 73.6162 82.6745C73.6162 82.6745 74.3652 86.6752 73.6162 86.762C72.8671 86.8584 73.0976 82.2503 73.0976 82.2503C73.0976 82.2503 69.4002 80.4669 67.9501 80.6115C67.9501 80.6115 70.2453 84.5061 69.4963 84.4194C68.7472 84.323 66.1735 80.3705 66.1735 80.3705C66.1735 80.3705 62.3801 79.6668 61.7655 81.9226C61.1604 84.1784 62.14 85.3063 62.7066 85.4509C63.2636 85.5955 66.8745 85.5473 66.7785 86.01C66.6825 86.4824 64.2528 87.2343 62.8891 86.8102C62.8891 86.8102 64.3872 90.5217 66.3559 90.3385C68.3246 90.1457 68.9297 88.931 70.1493 88.8346C71.369 88.7382 72.2525 89.066 71.6475 89.3938C71.0424 89.7312 68.9777 89.5094 67.9981 90.3481C67.009 91.1868 66.2215 91.6978 68.0461 92.0737C69.8708 92.4497 73.1456 92.2183 73.7986 90.8109C74.4517 89.3937 74.4517 89.3938 74.4517 89.3938Z" fill="#88A4EA"/>
<path d="M63.5034 82.626C63.5034 82.626 73.3278 85.8265 74.4514 89.3934C74.4514 89.3934 74.413 90.9937 75.3925 92.8254V93.5291C75.3925 93.5291 74.365 91.1383 73.7984 90.8105C73.7984 90.8105 75.9975 87.7064 63.5034 82.626Z" fill="#88A4EA"/>
<path d="M75.3934 92.826C75.3934 92.826 76.9108 95.1397 76.0465 97.9546L75.6527 97.8486C75.6527 97.8486 76.0369 94.7444 75.2398 93.1924C74.4427 91.6306 75.3934 92.826 75.3934 92.826Z" fill="#88A4EA"/>
<path d="M80.0408 86.6751C80.0408 86.6751 75.4119 84.0722 77.5727 80.5439C77.5727 80.5439 79.3013 78.3748 81.1548 77.8157C81.1548 77.8157 80.1656 83.0793 81.1548 83.2046C82.144 83.3299 81.827 77.2566 81.827 77.2566C81.827 77.2566 86.7056 74.9044 88.6167 75.0875C88.6167 75.0875 85.5916 80.2354 86.5808 80.1101C87.5699 79.9848 90.96 74.779 90.96 74.779C90.96 74.779 95.9634 73.8536 96.7605 76.8228C97.5672 79.8016 96.2707 81.2862 95.5312 81.4694C94.7917 81.6622 90.038 81.5947 90.1629 82.2117C90.2877 82.8383 93.4953 83.8216 95.2815 83.2721C95.2815 83.2721 93.3128 88.1597 90.7199 87.9187C88.1269 87.668 87.3202 86.0581 85.7165 85.9328C84.1127 85.8075 82.9411 86.2413 83.7477 86.6751C84.5448 87.1089 87.2626 86.8197 88.5591 87.9187C89.8556 89.0273 90.9023 89.7118 88.4919 90.2034C86.091 90.7047 81.7694 90.3962 80.9051 88.5357C80.0408 86.6751 80.0408 86.6751 80.0408 86.6751Z" fill="#BED2FA"/>
<path d="M94.4844 77.7568C94.4844 77.7568 81.5197 81.9696 80.0408 86.6741C80.0408 86.6741 80.108 88.7756 78.8115 91.1953V92.1208C78.8115 92.1208 80.1656 88.9684 80.9051 88.5346C80.9051 88.5346 78.0048 84.4472 94.4844 77.7568Z" fill="#BED2FA"/>
<path d="M78.8118 91.1949C78.8118 91.1949 76.8047 94.2413 77.9475 97.9527L78.4661 97.8081C78.4661 97.8081 77.9667 93.7303 79.0135 91.677C80.0507 89.6236 78.8118 91.1949 78.8118 91.1949Z" fill="#BED2FA"/>
<path d="M79.888 105.994C84.8914 105.994 88.9536 101.916 88.9536 96.8936H70.8223C70.8223 101.916 74.8749 105.994 79.888 105.994Z" fill="#2E426B"/>
<path d="M89.0783 106.457H70.6973C70.6973 105.84 71.1966 105.329 71.8113 105.329H87.9547C88.579 105.329 89.0783 105.84 89.0783 106.457Z" fill="#93B3F4"/>
<path d="M89.1542 97.1731H70.5234V96.8936H89.1542V97.1731Z" fill="#202F55"/>
<path d="M90.9703 107.016V107.884C90.9703 108.192 90.8743 108.443 90.7591 108.443H59.0099C58.8851 108.443 58.7891 108.192 58.7891 107.884V107.016C58.7891 106.708 58.8851 106.457 59.0099 106.457H90.7591C90.8743 106.457 90.9703 106.708 90.9703 107.016Z" fill="#294378"/>
<path d="M90.9701 107.016V107.884C90.9701 108.192 90.8836 108.443 90.7684 108.443H65.5689C65.4536 108.443 65.3672 108.192 65.3672 107.884V107.016C65.3672 106.708 65.4536 106.457 65.5689 106.457H90.7684C90.8836 106.457 90.9701 106.708 90.9701 107.016Z" fill="#C0D3FA"/>
<path d="M82.9417 141.422H60.4023V108.442H82.9417V141.422Z" fill="#1E3157"/>
<path d="M89.2513 141.422H66.7119V108.442H89.2513V141.422Z" fill="#E7EFFE"/>
<path fill-rule="evenodd" clip-rule="evenodd" d="M88.0423 139.599H67.9326V109.367H88.0423V139.599ZM68.1439 139.387H87.831V109.599H68.1439V139.387Z" fill="#7B9BDC"/>
<path d="M87.9365 119.585H68.0381V119.373H87.9365V119.585Z" fill="#7B9BDC"/>
<path d="M87.9365 129.784H68.0381V129.562H87.9365V129.784Z" fill="#7B9BDC"/>
<path d="M80.023 111.324H76.3353C76.1528 111.324 76.0088 111.17 76.0088 110.997C76.0088 110.814 76.1528 110.669 76.3353 110.669H80.023C80.2055 110.669 80.3496 110.814 80.3496 110.997C80.3496 111.17 80.2055 111.324 80.023 111.324Z" fill="#7B9BDC"/>
<path d="M80.023 121.292H76.3353C76.1528 121.292 76.0088 121.138 76.0088 120.964C76.0088 120.781 76.1528 120.637 76.3353 120.637H80.023C80.2055 120.637 80.3496 120.781 80.3496 120.964C80.3496 121.138 80.2055 121.292 80.023 121.292Z" fill="#7B9BDC"/>
<path d="M80.023 131.675H76.3353C76.1528 131.675 76.0088 131.531 76.0088 131.357C76.0088 131.174 76.1528 131.029 76.3353 131.029H80.023C80.2055 131.029 80.3496 131.174 80.3496 131.357C80.3496 131.531 80.2055 131.675 80.023 131.675Z" fill="#7B9BDC"/>
<path d="M65.3872 101.934V106.514H60.7871V101.915C60.7871 101.87 60.7903 101.828 60.7967 101.79C60.8447 101.26 61.1809 100.816 61.6418 100.623C61.9779 100.479 62.2084 100.18 62.2276 99.8136L62.266 99.1484H63.9467L63.9659 99.8136C63.9659 100.17 64.1963 100.479 64.5229 100.623C64.9934 100.816 65.3296 101.26 65.3872 101.79C65.3872 101.835 65.3872 101.883 65.3872 101.934Z" fill="#93B3F4"/>
<path d="M64.0713 99.4483H62.1025L62.1506 98.9277H64.0232L64.0713 99.4483Z" fill="#BED2FA"/>
<path d="M65.3872 101.936V104.886H60.7871V101.916C60.7871 101.871 60.7903 101.83 60.7967 101.791H65.3872C65.3872 101.836 65.3872 101.884 65.3872 101.936Z" fill="white"/>
<path d="M69.1704 103.951V106.515H66.5967V103.941C66.5967 103.922 66.5999 103.899 66.6063 103.873C66.6255 103.575 66.8176 103.334 67.0769 103.218C67.2593 103.141 67.3938 102.967 67.4034 102.765L67.4226 102.398H68.3637L68.3733 102.765C68.3733 102.967 68.4982 103.141 68.6902 103.218C68.9495 103.334 69.1416 103.575 69.1704 103.873C69.1704 103.899 69.1704 103.925 69.1704 103.951Z" fill="#93B3F4"/>
<path d="M68.4315 102.562H67.3271L67.3656 102.272H68.4027L68.4315 102.562Z" fill="#BED2FA"/>
<path d="M69.1704 103.95V105.608H66.5967V103.941C66.5967 103.921 66.5999 103.899 66.6063 103.873H69.1704C69.1704 103.899 69.1704 103.924 69.1704 103.95Z" fill="white"/>
<path d="M214.585 142H162.145V44.1484H214.585V142Z" fill="#406DC7"/>
<path d="M212.464 141.711H164.303V46.6582H212.464V141.711Z" fill="#304467"/>
<path d="M204.291 93.5289C204.291 92.3528 205.242 91.3984 206.423 91.3984C207.595 91.3984 208.555 92.3528 208.555 93.5289C208.555 94.7147 207.595 95.6691 206.423 95.6691C205.242 95.6691 204.291 94.7147 204.291 93.5289Z" fill="#BED2FA"/>
<path d="M198.393 67.3653H178.514V61.0605H198.393V67.3653Z" fill="#406DC7"/>
<path d="M194.705 63.3396C194.705 63.5179 194.56 63.6625 194.382 63.6625H182.524C182.346 63.6625 182.201 63.5179 182.201 63.3396C182.201 63.1612 182.346 63.0166 182.524 63.0166H194.382C194.56 63.0166 194.705 63.1612 194.705 63.3396Z" fill="#DDE8FD" fill-opacity="0.5"/>
<path d="M192.948 65.0847C192.948 65.263 192.803 65.4076 192.625 65.4076H184.272C184.094 65.4076 183.949 65.263 183.949 65.0847C183.949 64.9063 184.094 64.7617 184.272 64.7617H192.625C192.803 64.7617 192.948 64.9063 192.948 65.0847Z" fill="#DDE8FD" fill-opacity="0.5"/>
<path fill-rule="evenodd" clip-rule="evenodd" d="M198.635 67.6061H178.275V60.8193H198.635V67.6061ZM178.746 67.1337H198.155V61.311H178.746V67.1337Z" fill="#506795"/>
<path d="M165.598 54.3803C163.946 53.5223 162.621 54.0621 162.621 54.0621C157.579 53.4645 156.1 59.3739 156.168 61.408C156.235 63.4421 156.475 65.6304 154.218 68.2719C147.697 75.9069 161.344 76.2443 161.344 76.2443C161.459 70.1421 168.739 72.369 168.422 72.9859C177.756 75.2321 169.353 56.3372 165.598 54.3803Z" fill="#1C1860"/>
<path d="M146.123 79.8019C146.123 79.8019 145.23 78.4523 144.519 78.4234C143.799 78.3945 142.474 78.0185 142.579 78.2884C142.685 78.5583 143.511 78.5776 143.588 78.7415C143.664 78.8958 142.368 79.1368 141.993 79.1657C141.628 79.1946 140.755 79.1657 140.774 79.3488C140.803 79.5416 142.358 80.3129 143.453 80.2068C144.538 80.1008 145.892 80.525 145.892 80.525L146.123 79.8019Z" fill="#FCB090"/>
<path d="M158.963 80.2438C158.963 80.2438 158.482 81.1982 157.599 82.3068C156.552 83.6276 154.92 85.1603 152.874 85.4688C151.904 85.6134 150.953 85.4014 150.07 85.0061C147.592 83.8975 145.719 81.3621 145.719 81.3621C145.287 80.1667 145.998 79.3473 145.998 79.3473C145.998 79.3473 151.011 80.4848 151.491 80.2438C151.962 80.0028 154.747 71.9532 155.409 70.941C156.072 69.9288 158.329 69.4082 158.329 69.4082L158.963 80.2438Z" fill="#5F8DFF"/>
<path d="M157.599 82.3075C156.552 83.6282 154.92 85.161 152.874 85.4695C151.904 85.6141 150.954 85.402 150.07 85.0068C150.166 85.0261 152.644 85.3249 153.633 83.5511C154.641 81.7484 155.736 78.8756 157.225 79.83C157.878 80.2445 157.849 81.2664 157.599 82.3075Z" fill="#6386DD"/>
<path d="M177.653 134.528C177.653 134.528 179.179 135.926 178.882 136.919C178.584 137.922 177.211 138.577 177.019 139.802C176.836 141.016 176.087 141.682 175.415 141.682C174.743 141.682 172.217 141.682 172.217 141.682C172.217 141.682 171.727 140.824 172.918 140.563C174.109 140.303 174.56 138.876 174.483 137.546C174.407 136.225 174.599 134.451 174.599 134.451L177.134 133.863L177.653 134.528Z" fill="#E79153"/>
<path d="M164.714 135.128C164.714 135.128 165.262 141.057 164.589 141.384L156.004 141.375C156.004 141.375 156.004 140.372 157.387 140.151C158.76 139.929 161.19 139.119 161.593 137.316C162.006 135.514 164.714 135.128 164.714 135.128Z" fill="#E79153"/>
<path d="M170.833 92.5651C169.066 88.5836 167.991 87.4365 168.192 86.2025C168.346 85.2867 167.722 69.0718 167.722 69.0718C167.51 69.0043 167.097 68.9465 166.867 68.8886C166.137 68.7344 165.542 68.2235 165.292 67.5197C164.985 66.6714 164.754 65.4278 164.754 63.8564L164.533 63.9046L160.721 64.6566C160.721 64.6566 160.807 65.8616 160.807 66.9992C160.807 67.0056 160.807 67.0152 160.807 67.0281C160.817 68.0114 160.173 68.879 159.232 69.1489C158.752 69.2839 158.329 69.4092 158.329 69.4092C158.329 69.4092 156.937 73.4099 156.668 77.5263C156.399 81.6427 159.213 83.4358 156.649 91.6589C154.027 100.056 171.813 94.763 170.833 92.5651Z" fill="#FCB090"/>
<path d="M160.721 64.6572C160.721 64.6572 160.807 65.8622 160.807 66.9998C162.939 66.9323 164.072 64.985 164.533 63.9053L160.721 64.6572Z" fill="#ED6966"/>
<path d="M160.009 65.737C160.009 65.737 165.051 65.8141 165.051 62.6617C165.06 59.5094 165.713 57.3982 162.496 57.215C159.269 57.0319 158.645 58.2272 158.395 59.278C158.136 60.3385 158.703 65.6309 160.009 65.737Z" fill="#FCB090"/>
<path d="M161.086 62.0666C161.086 62.1825 161.18 62.2766 161.295 62.2766C161.411 62.2838 161.504 62.1969 161.504 62.0883C161.512 61.9725 161.418 61.8784 161.302 61.8784C161.187 61.8711 161.093 61.958 161.086 62.0666Z" fill="#263238"/>
<path d="M159.02 62.0666C159.02 62.1825 159.106 62.2766 159.221 62.2766C159.337 62.2838 159.438 62.1969 159.438 62.0883C159.438 61.9725 159.351 61.8784 159.236 61.8784C159.113 61.8711 159.02 61.958 159.02 62.0666Z" fill="#263238"/>
<path d="M158.784 61.3417C158.805 61.3706 158.964 61.2475 159.188 61.2475C159.418 61.2403 159.584 61.3561 159.606 61.3272C159.62 61.3199 159.591 61.2692 159.519 61.2186C159.447 61.1606 159.325 61.1172 159.188 61.1172C159.043 61.1172 158.928 61.1751 158.856 61.2258C158.791 61.2837 158.769 61.3344 158.784 61.3417Z" fill="#263238"/>
<path d="M161.071 61.446C161.1 61.4749 161.244 61.3373 161.475 61.3084C161.698 61.2794 161.879 61.3736 161.893 61.3446C161.907 61.3301 161.871 61.2867 161.799 61.2432C161.72 61.1998 161.59 61.1636 161.453 61.178C161.316 61.1998 161.201 61.2649 161.143 61.3229C161.078 61.3808 161.056 61.4387 161.071 61.446Z" fill="#263238"/>
<path d="M160.227 63.0689C160.227 63.0544 160.083 63.0327 159.852 63.0109C159.794 63.0037 159.744 62.9965 159.729 62.953C159.715 62.9096 159.744 62.8516 159.765 62.7792C159.818 62.6392 159.874 62.492 159.931 62.3375C160.162 61.7076 160.328 61.1863 160.299 61.179C160.278 61.1645 160.068 61.6714 159.845 62.3013C159.787 62.4606 159.734 62.6103 159.686 62.7503C159.664 62.8154 159.628 62.8951 159.657 62.982C159.672 63.0254 159.715 63.0544 159.751 63.0616C159.787 63.0761 159.823 63.0761 159.852 63.0761C160.083 63.0834 160.227 63.0833 160.227 63.0689Z" fill="#263238"/>
<path d="M160.89 60.5594C160.919 60.6174 161.142 60.5594 161.409 60.5667C161.676 60.5594 161.892 60.6101 161.921 60.5522C161.936 60.5232 161.892 60.4725 161.799 60.4218C161.705 60.3712 161.568 60.335 161.402 60.335C161.243 60.335 161.106 60.3784 161.012 60.4291C160.919 60.4798 160.875 60.5305 160.89 60.5594Z" fill="#263238"/>
<path d="M158.845 60.3688C158.888 60.4195 159.04 60.3615 159.227 60.3615C159.415 60.3471 159.573 60.3905 159.609 60.3326C159.624 60.3109 159.602 60.2529 159.53 60.2095C159.458 60.1588 159.35 60.1226 159.22 60.1298C159.09 60.1371 158.975 60.1805 158.917 60.2384C158.845 60.2891 158.83 60.3398 158.845 60.3688Z" fill="#263238"/>
<path d="M160.201 57.1374C160.201 57.1374 161.574 60.8393 163.697 61.3791C165.81 61.9286 166.732 61.3598 166.732 61.3598C166.732 61.3598 165.109 60.0681 164.772 57.8026C164.772 57.8026 161.238 55.3733 160.201 57.1374Z" fill="#1C1860"/>
<path d="M160.537 57.4362C160.537 57.4362 159.519 57.8218 159.096 58.5737C158.683 59.3064 158.328 60.2704 158.414 61.4658C158.414 61.4658 157.377 58.9497 158.539 57.5326C159.778 56.0191 160.537 57.4362 160.537 57.4362Z" fill="#1C1860"/>
<path d="M161.104 63.7788C161.104 63.7788 160.758 64.2319 160.067 64.203C159.5 64.1741 159.289 63.6921 159.289 63.6921C159.289 63.6921 160.317 63.4414 161.104 63.7788Z" fill="white"/>
<path d="M170.151 76.2446C170.151 76.2446 170.132 78.645 169.998 80.8141C169.921 82.2601 169.786 83.6001 169.575 84.0725C169.066 85.2679 168.48 85.4703 168.48 85.4703L163.967 86.5789L162.382 86.9645L157.379 85.4703C157.379 85.4703 155.103 79.0885 156.025 75.4927C156.937 71.9065 158.329 69.4097 158.329 69.4097C158.329 69.4097 162.411 73.42 167.722 69.0723L170.151 76.2446Z" fill="#5F8DFF"/>
<path d="M169.998 80.8141C169.921 82.2601 169.787 83.6001 169.575 84.0725C169.066 85.2679 168.481 85.4703 168.481 85.4703L163.967 86.5789L162.008 86.0005C162.008 86.0005 168.548 85.0076 167.828 79.3584L169.998 80.8141Z" fill="#6386DD"/>
<path d="M157.705 86.4336C157.705 86.4336 155.227 94.1747 155.064 96.8065C154.91 99.4383 159.799 134.23 160 135.445C160.183 136.582 161.594 137.315 161.594 137.315C161.594 137.315 162.247 137.7 163.179 137.44C164.466 137.074 164.869 136.63 164.869 136.63C164.869 136.63 166.8 111.826 165.609 102.967C164.418 94.0976 164.399 86.4336 164.399 86.4336H157.705Z" fill="#19335A"/>
<path d="M168.193 86.2021C168.193 86.2021 171.967 91.2922 172.322 94.7338C172.678 98.1657 172.879 110.255 173.629 113.6C174.378 116.955 177.134 123.404 177.134 133.863C177.134 133.863 176.846 134.461 175.962 134.779C175.674 134.885 175.3 134.982 174.935 135.069C174.205 135.232 173.456 134.876 173.12 134.211C171.256 130.441 165.322 118.295 165.014 115.769C164.803 113.985 162.93 102.176 158.839 95.2447C157.86 93.5866 159.444 86.9637 159.444 86.9637L168.193 86.2021Z" fill="#1D3B67"/>
<path d="M157.302 85.2393C157.302 85.2393 158.301 86.0298 160.279 86.0683C162.632 86.1165 168.481 85.4706 168.481 85.4706C168.481 85.4706 168.74 86.1936 168.73 86.9649C168.73 86.9649 161.585 88.7772 157.456 87.2252C157.456 87.2252 156.918 86.2226 157.302 85.2393Z" fill="white"/>
<path fill-rule="evenodd" clip-rule="evenodd" d="M159.71 88.1117C159.115 88.1117 158.635 87.5622 158.635 86.8874C158.635 86.2126 159.115 85.6631 159.71 85.6631C160.296 85.6631 160.786 86.2126 160.786 86.8874C160.786 87.5622 160.296 88.1117 159.71 88.1117ZM159.71 86.0198C159.307 86.0198 158.99 86.415 158.99 86.8874C158.99 87.3694 159.307 87.755 159.71 87.755C160.104 87.755 160.431 87.3694 160.431 86.8874C160.431 86.415 160.104 86.0198 159.71 86.0198Z" fill="#1C1860"/>
<path d="M177.602 98.4353L166.366 100.865L165.012 94.5407L176.248 92.1113L177.602 98.4353Z" fill="#8BA3D2"/>
<path d="M165.012 94.5407C165.012 94.5407 168.152 97.1821 171.638 96.2663C175.134 95.3504 176.248 92.1113 176.248 92.1113L165.012 94.5407Z" fill="#687EA9"/>
<path fill-rule="evenodd" clip-rule="evenodd" d="M166.577 94.7532C166.241 94.7532 165.953 94.4737 165.953 94.1266C165.953 93.7796 166.241 93.5 166.577 93.5C166.923 93.5 167.202 93.7796 167.202 94.1266C167.202 94.4737 166.923 94.7532 166.577 94.7532ZM166.577 93.7121C166.356 93.7121 166.164 93.8952 166.164 94.1266C166.164 94.358 166.356 94.5508 166.577 94.5508C166.808 94.5508 167 94.358 167 94.1266C167 93.8952 166.808 93.7121 166.577 93.7121Z" fill="#1E1D26"/>
<path d="M175.73 94.9277C175.73 94.9277 175.73 95.8435 175.903 96.2773C176.076 96.7208 176.595 97.3088 176.768 97.3088C176.941 97.3088 176.614 96.393 176.7 96.4123C176.787 96.4316 177.2 97.9451 177.507 97.9837C177.805 98.0126 178.083 96.2773 177.92 95.6025C177.766 94.9181 177.085 94.0986 177.085 94.0986L175.73 94.9277Z" fill="#FC9290"/>
<path d="M167.722 69.0723C167.722 69.0723 170.516 69.4482 172.014 72.4174C173.176 74.7118 173.974 81.9227 174.79 84.1978C175.568 86.3669 176.653 90.57 177.258 93.9344C177.296 94.2044 177.152 94.455 176.912 94.5514L175.885 94.9659C175.664 95.0527 175.414 94.9659 175.289 94.7635C174.377 93.2211 170.785 87.0706 169.537 83.5133C168.077 79.3584 165.35 76.7748 165.35 76.7748L167.722 69.0723Z" fill="#5F8DFF"/>
<path d="M166.376 93.6452C166.367 93.5392 165.723 83.2531 165.848 77.4689C165.915 74.4322 166.376 72.2921 166.76 71.0292C167.173 69.6603 167.798 69.0915 167.807 69.0723L168.018 69.1301C168.009 69.159 166.29 71.7522 166.165 77.4785C166.04 83.2434 166.684 93.5199 166.693 93.6259L166.376 93.6452Z" fill="#1E1D26"/>
<path d="M112.875 141.354H118.167C118.128 141.075 117.994 140.226 117.744 139.445C117.658 139.175 117.561 138.915 117.446 138.684C116.928 137.652 113.653 138.308 113.653 138.308C113.653 138.308 113.355 138.568 113.115 139.561C113.009 140.005 112.923 140.593 112.875 141.354Z" fill="#232065"/>
<path d="M122.594 60.1348C122.594 60.1348 126.819 60.8771 127.77 63.3835C128.721 65.8803 134.118 106.283 134.118 106.283C134.118 106.283 131.448 108.403 125.715 107.642C119.982 106.88 122.594 60.1348 122.594 60.1348Z" fill="#93B3F4"/>
<path d="M128.875 139.677C128.894 140.4 128.98 141.084 129.24 141.354H139.717C139.592 140.978 139.208 140.4 138.133 140.226C136.913 140.034 135.011 139.436 133.897 138.26C133.504 137.836 133.206 137.344 133.072 136.766C132.582 134.568 129 137.44 129 137.44C129 137.44 128.856 138.597 128.875 139.677Z" fill="#232065"/>
<path d="M133.388 138.607C132.216 138.983 129.979 140.13 128.557 139.59C127.635 139.243 122.507 124.329 122.171 117.803C122.142 117.331 122.056 116.675 121.912 115.865C121.604 114.178 121.076 111.865 120.462 109.31C118.819 102.475 116.591 93.9241 116.639 91.1862C116.716 86.9445 129.239 90.2993 129.239 90.2993C129.239 90.2993 130.104 93.7795 130.276 98.8213C130.613 108.828 131.554 125.727 134.099 137.459C134.204 137.961 133.878 138.452 133.388 138.607Z" fill="#9E332E"/>
<path d="M124.699 91.196L118.072 139.378C118.072 139.378 115.172 140.082 112.906 139.513C112.906 139.513 110.966 113.899 111.129 107.7C111.292 101.501 109.736 91.1285 111.484 89.9813C113.232 88.8341 124.699 91.196 124.699 91.196Z" fill="#AB4E49"/>
<path d="M110.646 62.3424C110.646 62.3424 117.599 57.8308 122.593 60.1348C123.39 60.5011 124.293 61.5326 124.946 62.246C126.752 64.2415 130.276 95.9483 130.276 95.9483C130.276 95.9483 120.269 99.3513 110.646 94.7915V62.3424Z" fill="white"/>
<path d="M122.988 60.0186C122.988 60.0186 130.037 62.9203 130.988 65.1472C131.948 67.3741 135.041 81.0439 135.041 82.6538C135.041 84.2541 129.643 83.0105 128.779 80.4269C128.059 78.2772 125.62 71.6736 124.333 67.509L122.988 60.0186Z" fill="#BED2FA"/>
<path d="M121.527 62.2265C119.99 62.535 117.734 62.2072 116.072 61.1178C116.821 59.3248 117.129 57.9076 117.234 56.9918C117.241 56.9468 117.247 56.9018 117.253 56.8569C117.302 56.3845 117.292 56.0567 117.273 55.9121H121.249C121.249 55.9121 122.334 56.4134 122.334 56.7508C122.334 56.9372 122.337 57.1139 122.343 57.281C122.35 57.7438 122.366 58.1454 122.391 58.4861C122.468 59.6043 122.593 60.1345 122.593 60.1345C122.593 60.1345 123.083 61.9276 121.527 62.2265Z" fill="#FCB090"/>
<path d="M122.392 58.487C119.377 59.075 117.629 57.4169 117.235 56.9927C117.177 56.9349 117.158 56.8963 117.158 56.8963C117.184 56.8835 117.216 56.8706 117.254 56.8578C118.378 56.4047 120.923 56.7614 122.344 57.2819C122.35 57.7447 122.366 58.1463 122.392 58.487Z" fill="#EA8888"/>
<path d="M116.255 55.2578C116.793 58.1691 120.529 58.0727 122.142 57.8896C122.603 57.8317 122.882 57.7739 122.882 57.7739C123.4 57.6389 123.688 56.8291 123.813 55.7687C124.082 53.6671 123.746 50.5823 123.391 49.7918C122.863 48.606 121.864 47.3239 118.099 48.2493C114.335 49.1748 115.564 51.527 116.255 55.2578Z" fill="#FCB090"/>
<path d="M123.535 48.1716C123.017 47.4582 121.931 46.581 120.942 46.0411C118.81 44.8843 116.083 46.0797 116.073 46.0893C113 47.4389 112.194 49.8008 113.826 53.4834C115.555 57.3684 117.197 56.9346 117.197 56.9346C117.197 56.9346 116.842 56.7129 116.88 55.5078C116.88 55.4371 116.88 55.3761 116.88 55.3247C116.899 55.0837 116.813 54.833 116.63 54.6691C116.246 54.3221 116.054 53.2906 116.381 53.0014C116.765 52.6543 117.303 53.0785 117.475 53.3966C117.629 53.628 117.898 53.7051 118.157 53.5509C119.108 52.9435 118.493 51.7289 119.406 50.9866C120.318 50.2443 122.172 50.8612 123.545 50.2732C125.341 49.5984 123.919 48.7115 123.535 48.1716Z" fill="#232065"/>
<path d="M123.967 109.252C123.359 109.407 122.757 109.532 122.162 109.628C121.637 109.718 121.112 109.786 120.587 109.831C117.609 110.091 114.613 109.677 111.118 108.664C110.33 108.439 109.514 108.182 108.669 107.893C108.582 107.864 108.899 98.5902 109.274 89.0175C109.312 88.0245 109.35 87.0316 109.389 86.0483C109.402 85.6306 109.418 85.216 109.437 84.8047C109.773 76.3309 110.1 68.6862 110.167 68.2717C110.33 67.3462 110.484 66.5461 110.647 65.8616C111.118 63.8565 111.713 62.7575 113 61.8127C113.125 61.7163 114.162 61.1958 115.065 60.733C115.823 60.3571 116.495 60.0293 116.495 60.0293C116.793 60.1835 117.149 60.868 117.533 61.8417C118.224 63.6251 118.973 66.3533 119.492 68.397C119.492 68.4034 119.492 68.4067 119.492 68.4067C119.828 69.7274 120.068 70.7492 120.135 71.0481C120.25 71.5494 120.404 72.5038 120.587 73.8148C120.827 75.5886 121.124 77.9987 121.432 80.7365C121.464 81.0193 121.496 81.3021 121.528 81.5849C121.566 81.9191 121.601 82.2533 121.633 82.5874C121.646 82.6903 121.659 82.7963 121.672 82.9056C121.797 83.9949 121.912 85.1132 122.027 86.2507C122.133 87.1858 123.554 87.8607 123.65 88.8247C123.708 89.3838 123.823 94.5606 123.977 96.2091C124.082 97.3949 124.005 108.693 123.967 109.252Z" fill="#BED2FA"/>
<path d="M113.692 71.6846C113.692 71.7039 113.452 80.2547 119.857 81.2862C126.253 82.3274 121.999 82.5973 121.999 82.5973C121.999 82.5973 109.956 82.0864 109.755 81.7683C109.562 81.4501 113.692 71.6846 113.692 71.6846Z" fill="#93B3F4"/>
<path d="M119.098 84.9589C119.098 84.9589 118.983 85.0456 118.752 85.1902C118.746 85.1902 118.743 85.1935 118.743 85.1999C117.763 85.8265 114.863 87.5328 110.647 88.6704C110.199 88.7925 109.741 88.9082 109.274 89.0174C109.312 88.0245 109.351 87.0315 109.389 86.0482C108.832 86 108.294 85.9325 107.795 85.8265C107.814 85.698 107.833 85.5694 107.853 85.4409C108.39 85.2192 108.919 85.0071 109.437 84.8046C109.85 84.6407 110.263 84.4769 110.647 84.3323C112.376 83.6767 113.663 83.2236 113.663 83.2236L118.791 84.8528L119.098 84.9589Z" fill="#93B3F4"/>
<path d="M120.462 84.8144C120.462 84.8144 119.799 84.9782 118.753 85.1903C118.746 85.1903 118.743 85.1903 118.743 85.1903C116.803 85.5856 113.548 86.1351 110.647 86.0965C110.215 86.0965 109.793 86.0772 109.389 86.0483C108.832 86.0001 108.294 85.9326 107.795 85.8266C106.739 85.6049 105.846 85.2192 105.269 84.6215C100.938 80.2063 107.622 64.3385 109.034 62.796C110.666 60.9933 113.663 60.3571 115.315 60.145C115.385 60.1321 115.452 60.1225 115.516 60.1161C116.102 60.0486 116.467 60.0389 116.496 60.0293C116.496 60.0293 116.361 60.4535 116.15 61.1572C116.064 61.4368 115.968 61.7549 115.852 62.1116C114.844 65.4471 112.885 72.0121 112.021 75.7043C111.704 77.0636 111.531 78.0373 111.608 78.3265C111.944 79.5893 115.439 80.2352 117.648 80.5244C118.58 80.6401 119.281 80.698 119.434 80.7076C119.447 80.7076 119.457 80.7108 119.463 80.7173L119.598 81.2378L119.895 82.5007L120.203 83.7443L120.462 84.8144Z" fill="#BED2FA"/>
<path d="M132.515 92.4211L117.668 91.7945L120.683 73.2178L135.53 73.8444L132.515 92.4211Z" fill="#232065"/>
<path d="M119.462 80.7169C119.462 80.7169 122.353 80.5145 122.497 81.1893C122.843 82.7607 120.019 84.0621 119.097 83.9753C118.185 83.8789 118.8 80.6109 119.462 80.7169Z" fill="#FCB090"/>
<path d="M134.724 77.6138C134.724 77.6138 131.958 76.7462 131.66 77.3728C130.969 78.8285 133.418 80.7373 134.321 80.8722C135.233 80.9976 135.396 77.6717 134.724 77.6138Z" fill="#FCB090"/>
<path d="M116.793 59.1035C116.793 59.1035 115.574 59.6819 114.969 60.5592C114.969 60.5592 119.511 68.4835 119.492 68.4063C119.473 68.3292 117.955 60.1157 116.793 59.1035Z" fill="#93B3F4"/>
<path d="M122.451 59.209C122.855 59.3632 123.623 60.1537 123.796 60.5875L124.333 67.5092C124.333 67.5092 123.181 62.4288 122.595 60.1344C122.451 59.556 122.47 59.3729 122.451 59.209Z" fill="#93B3F4"/>
<path d="M125.6 73.4196C125.6 73.4196 125.724 72.9086 126.397 72.9665C127.069 73.0243 130.872 73.2171 130.872 73.2171C130.872 73.2171 131.602 73.1978 131.535 73.6702L125.6 73.4196Z" fill="#AB4E49"/>
<path d="M121.25 55.9124C121.25 55.9124 121.74 56.3655 122.537 56.2209C123.007 56.1438 123.276 55.5268 123.276 55.5268C123.276 55.5268 122.364 55.3629 121.25 55.9124Z" fill="white"/>
</svg>
