<svg width="25" height="24" viewBox="0 0 25 24" fill="none" xmlns="http://www.w3.org/2000/svg">
<path d="M19.5205 5.42L14.3505 2.43C13.3605 1.86 11.8105 1.86 10.8205 2.43L5.60052 5.44C3.53052 6.84 3.41052 7.05 3.41052 9.28V14.71C3.41052 16.94 3.53052 17.16 5.64052 18.58L10.8105 21.57C11.3105 21.86 11.9505 22 12.5805 22C13.2105 22 13.8505 21.86 14.3405 21.57L19.5605 18.56C21.6305 17.16 21.7505 16.95 21.7505 14.72V9.28C21.7505 7.05 21.6305 6.84 19.5205 5.42ZM12.5805 15.25C10.7905 15.25 9.33052 13.79 9.33052 12C9.33052 10.21 10.7905 8.75 12.5805 8.75C14.3705 8.75 15.8305 10.21 15.8305 12C15.8305 13.79 14.3705 15.25 12.5805 15.25Z" fill="#292D32"/>
</svg>
