<svg width="403" height="142" viewBox="0 0 403 142" fill="none" xmlns="http://www.w3.org/2000/svg">
<g opacity="0.09">
<path style="mix-blend-mode:screen" fill-rule="evenodd" clip-rule="evenodd" d="M343.028 84.8203H351.08V92.5998H343.028V100.662H335.259V92.5998H327.207V84.8203H335.259V76.7578H343.028V84.8203ZM335.918 77.465V85.4803H327.913V91.9397H335.918V100.002H342.369V91.9397H350.421V85.4803H342.369V77.465H335.918Z" fill="url(#paint0_linear_40_2615)"/>
<path style="mix-blend-mode:screen" d="M308.278 95.9477C308.278 96.702 307.619 97.315 306.866 97.315C306.065 97.315 305.453 96.702 305.453 95.9477C305.453 95.1461 306.065 94.5332 306.866 94.5332C307.619 94.5332 308.278 95.1461 308.278 95.9477Z" fill="url(#paint1_linear_40_2615)"/>
<g style="mix-blend-mode:screen">
<path d="M321.463 39.5109H306.819V24.8477H292.599V39.5109H277.955V53.7498H292.599V68.4131H306.819V53.7498H321.463V39.5109Z" fill="url(#paint2_linear_40_2615)"/>
</g>
<g style="mix-blend-mode:screen">
<path d="M49.3984 65.9622H39.934V56.4854H30.7993V65.9622H21.335V75.1563H30.7993V84.6331H39.934V75.1563H49.3984V65.9622Z" fill="url(#paint3_linear_40_2615)"/>
</g>
<path style="mix-blend-mode:screen" fill-rule="evenodd" clip-rule="evenodd" d="M256.956 36.0208H265.855V44.649H256.956V53.6072H248.292V44.649H239.393V36.0208H248.292V27.0625H256.956V36.0208ZM249.092 27.864V36.7751H240.146V43.8946H249.092V52.8529H256.202V43.8946H265.102V36.7751H256.202V27.864H249.092Z" fill="url(#paint4_linear_40_2615)"/>
<path style="mix-blend-mode:screen" fill-rule="evenodd" clip-rule="evenodd" d="M36.9668 105.944H46.6195V115.279H36.9668V124.897H27.6908V115.279H18.0381V105.944H27.6908V96.3252H36.9668V105.944ZM28.4912 97.1267V106.745H18.8856V114.43H28.4912V124.049H36.1663V114.43H45.7719V106.745H36.1663V97.1267H28.4912Z" fill="url(#paint5_linear_40_2615)"/>
<path style="mix-blend-mode:screen" fill-rule="evenodd" clip-rule="evenodd" d="M330.221 117.779H339.45V126.737H330.221V135.978H321.275V126.737H311.999V117.779H321.275V108.49H330.221V117.779ZM322.075 109.339V118.58H312.799V125.982H322.075V135.224H329.421V125.982H338.65V118.58H329.421V109.339H322.075Z" fill="url(#paint6_linear_40_2615)"/>
<path style="mix-blend-mode:screen" fill-rule="evenodd" clip-rule="evenodd" d="M371.845 109.243H378.861V116.032H371.845V123.058H365.065V116.032H358.049V109.243H365.065V102.218H371.845V109.243ZM365.63 102.784V109.856H358.614V115.419H365.63V122.445H371.233V115.419H378.249V109.856H371.233V102.784H365.63Z" fill="url(#paint7_linear_40_2615)"/>
<path style="mix-blend-mode:screen" d="M129.069 90.3845H110.8V72.0908H93.1425V90.3845H74.873V108.112H93.1425V126.359H110.8V108.112H129.069V90.3845Z" fill="url(#paint8_linear_40_2615)"/>
<path style="mix-blend-mode:screen" d="M261.381 116.552C261.381 117.778 260.392 118.768 259.168 118.768C257.991 118.768 257.002 117.778 257.002 116.552C257.002 115.326 257.991 114.383 259.168 114.383C260.392 114.383 261.381 115.326 261.381 116.552Z" fill="url(#paint9_linear_40_2615)"/>
<g style="mix-blend-mode:screen">
<path d="M260.769 72.9399H251.963V64.123H243.441V72.9399H234.636V81.4738H243.441V90.2906H251.963V81.4738H260.769V72.9399Z" fill="url(#paint10_linear_40_2615)"/>
</g>
<path style="mix-blend-mode:screen" fill-rule="evenodd" clip-rule="evenodd" d="M-4.89182 86.2362H4.14874V95.0058H-4.89182V104.058H-13.6499V95.0058H-22.6904V86.2362H-13.6499V77.1836H-4.89182V86.2362ZM-12.8965 77.938V86.9905H-21.937V94.2514H-12.8965V103.304H-5.6452V94.2514H3.39536V86.9905H-5.6452V77.938H-12.8965Z" fill="url(#paint11_linear_40_2615)"/>
<path style="mix-blend-mode:screen" d="M135.567 59.2649C135.567 61.4338 133.825 63.1783 131.659 63.1783C129.493 63.1783 127.751 61.4338 127.751 59.2649C127.751 57.1432 129.493 55.3516 131.659 55.3516C133.825 55.3516 135.567 57.1432 135.567 59.2649Z" fill="url(#paint12_linear_40_2615)"/>
<path style="mix-blend-mode:screen" fill-rule="evenodd" clip-rule="evenodd" d="M75.6259 77.7008H95.2138V96.6546H75.6259V116.268H56.6973V96.6546H37.1094V77.7008H56.6973V58.0869H75.6259V77.7008ZM58.3924 59.7843V79.3982H38.8045V95.0044H58.3924V114.618H73.9779V95.0044H93.5658V79.3982H73.9779V59.7843H58.3924Z" fill="url(#paint13_linear_40_2615)"/>
<path style="mix-blend-mode:screen" fill-rule="evenodd" clip-rule="evenodd" d="M206.008 23.3394H228.28V44.8864H206.008V67.1878H184.49V44.8864H162.218V23.3394H184.49V1.03809H206.008V23.3394ZM186.373 2.97118V25.2725H164.101V43.0005H186.373V65.3018H204.125V43.0005H226.349V25.2725H204.125V2.97118H186.373Z" fill="url(#paint14_linear_40_2615)"/>
<path style="mix-blend-mode:screen" d="M181.24 107.828H173.801V100.379H166.644V107.828H159.204V114.995H166.644V122.397H173.801V114.995H181.24V107.828Z" fill="url(#paint15_linear_40_2615)"/>
<path style="mix-blend-mode:screen" d="M169.328 36.5393C169.328 37.2466 168.763 37.8124 168.103 37.8124C167.397 37.8124 166.832 37.2466 166.832 36.5393C166.832 35.8793 167.397 35.3135 168.103 35.3135C168.763 35.3135 169.328 35.8793 169.328 36.5393Z" fill="url(#paint16_linear_40_2615)"/>
<path style="mix-blend-mode:screen" fill-rule="evenodd" clip-rule="evenodd" d="M377.072 25.0831H402.169V49.3647H377.072V74.495H352.823V49.3647H327.726V25.0831H352.823V0H377.072V25.0831ZM354.941 2.07454V27.2048H329.892V47.1959H354.941V72.3262H374.953V47.1959H400.003V27.2048H374.953V2.07454H354.941Z" fill="url(#paint17_linear_40_2615)"/>
<path style="mix-blend-mode:screen" fill-rule="evenodd" clip-rule="evenodd" d="M147.385 96.5124H155.908V104.763H147.385V113.297H139.098V104.763H130.575V96.5124H139.098V87.9785H147.385V96.5124ZM139.851 88.6857V97.2197H131.329V104.009H139.851V112.59H146.632V104.009H155.154V97.2197H146.632V88.6857H139.851Z" fill="url(#paint18_linear_40_2615)"/>
<path style="mix-blend-mode:screen" d="M108.068 45.876C108.068 46.6775 107.409 47.3847 106.561 47.3847C105.714 47.3847 105.055 46.6775 105.055 45.876C105.055 45.0273 105.714 44.3672 106.561 44.3672C107.409 44.3672 108.068 45.0273 108.068 45.876Z" fill="url(#paint19_linear_40_2615)"/>
<path style="mix-blend-mode:screen" d="M299.615 107.453H288.55V96.4199H277.861V107.453H266.796V118.203H277.861V129.283H288.55V118.203H299.615V107.453Z" fill="url(#paint20_linear_40_2615)"/>
<path style="mix-blend-mode:screen" fill-rule="evenodd" clip-rule="evenodd" d="M74.2599 33.3348H84.4776V43.1889H74.2599V53.4202H64.3718V43.1889H54.2012V33.3348H64.3718V23.1035H74.2599V33.3348ZM65.2664 23.9993V34.1835H55.0487V42.3402H65.2664V52.5715H73.4124V42.3402H83.583V34.1835H73.4124V23.9993H65.2664Z" fill="url(#paint21_linear_40_2615)"/>
<g style="mix-blend-mode:screen">
<path d="M247.914 96.1829H220.651V68.8838H194.329V96.1829H167.066V122.586H194.329V149.838H220.651V122.586H247.914V96.1829Z" fill="url(#paint22_linear_40_2615)"/>
</g>
</g>
<defs>
<linearGradient id="paint0_linear_40_2615" x1="351.08" y1="100.662" x2="327.207" y2="100.662" gradientUnits="userSpaceOnUse">
<stop offset="0.139" stop-color="#E6E6E6"/>
<stop offset="1" stop-color="#000308"/>
</linearGradient>
<linearGradient id="paint1_linear_40_2615" x1="308.278" y1="97.315" x2="305.453" y2="97.315" gradientUnits="userSpaceOnUse">
<stop offset="0.139" stop-color="#E6E6E6"/>
<stop offset="1" stop-color="#000308"/>
</linearGradient>
<linearGradient id="paint2_linear_40_2615" x1="321.463" y1="68.4131" x2="277.955" y2="68.4131" gradientUnits="userSpaceOnUse">
<stop offset="0.139" stop-color="#E6E6E6"/>
<stop offset="1" stop-color="#000308"/>
</linearGradient>
<linearGradient id="paint3_linear_40_2615" x1="49.3984" y1="84.6331" x2="21.335" y2="84.6331" gradientUnits="userSpaceOnUse">
<stop offset="0.139" stop-color="#E6E6E6"/>
<stop offset="1" stop-color="#000308"/>
</linearGradient>
<linearGradient id="paint4_linear_40_2615" x1="265.855" y1="53.6072" x2="239.393" y2="53.6072" gradientUnits="userSpaceOnUse">
<stop offset="0.139" stop-color="#E6E6E6"/>
<stop offset="1" stop-color="#000308"/>
</linearGradient>
<linearGradient id="paint5_linear_40_2615" x1="46.6195" y1="124.897" x2="18.0381" y2="124.897" gradientUnits="userSpaceOnUse">
<stop offset="0.139" stop-color="#E6E6E6"/>
<stop offset="1" stop-color="#000308"/>
</linearGradient>
<linearGradient id="paint6_linear_40_2615" x1="339.45" y1="135.978" x2="311.999" y2="135.978" gradientUnits="userSpaceOnUse">
<stop offset="0.139" stop-color="#E6E6E6"/>
<stop offset="1" stop-color="#000308"/>
</linearGradient>
<linearGradient id="paint7_linear_40_2615" x1="378.861" y1="123.058" x2="358.049" y2="123.058" gradientUnits="userSpaceOnUse">
<stop offset="0.139" stop-color="#E6E6E6"/>
<stop offset="1" stop-color="#000308"/>
</linearGradient>
<linearGradient id="paint8_linear_40_2615" x1="129.069" y1="126.359" x2="74.873" y2="126.359" gradientUnits="userSpaceOnUse">
<stop offset="0.139" stop-color="#E6E6E6"/>
<stop offset="1" stop-color="#000308"/>
</linearGradient>
<linearGradient id="paint9_linear_40_2615" x1="261.381" y1="118.768" x2="257.002" y2="118.768" gradientUnits="userSpaceOnUse">
<stop offset="0.139" stop-color="#E6E6E6"/>
<stop offset="1" stop-color="#000308"/>
</linearGradient>
<linearGradient id="paint10_linear_40_2615" x1="260.769" y1="90.2906" x2="234.636" y2="90.2906" gradientUnits="userSpaceOnUse">
<stop offset="0.139" stop-color="#E6E6E6"/>
<stop offset="1" stop-color="#000308"/>
</linearGradient>
<linearGradient id="paint11_linear_40_2615" x1="4.14874" y1="104.058" x2="-22.6904" y2="104.058" gradientUnits="userSpaceOnUse">
<stop offset="0.139" stop-color="#E6E6E6"/>
<stop offset="1" stop-color="#000308"/>
</linearGradient>
<linearGradient id="paint12_linear_40_2615" x1="135.567" y1="63.1783" x2="127.751" y2="63.1783" gradientUnits="userSpaceOnUse">
<stop offset="0.139" stop-color="#E6E6E6"/>
<stop offset="1" stop-color="#000308"/>
</linearGradient>
<linearGradient id="paint13_linear_40_2615" x1="95.2138" y1="116.268" x2="37.1094" y2="116.268" gradientUnits="userSpaceOnUse">
<stop offset="0.139" stop-color="#E6E6E6"/>
<stop offset="1" stop-color="#000308"/>
</linearGradient>
<linearGradient id="paint14_linear_40_2615" x1="228.28" y1="67.1878" x2="162.218" y2="67.1878" gradientUnits="userSpaceOnUse">
<stop offset="0.139" stop-color="#E6E6E6"/>
<stop offset="1" stop-color="#000308"/>
</linearGradient>
<linearGradient id="paint15_linear_40_2615" x1="181.24" y1="122.397" x2="159.204" y2="122.397" gradientUnits="userSpaceOnUse">
<stop offset="0.139" stop-color="#E6E6E6"/>
<stop offset="1" stop-color="#000308"/>
</linearGradient>
<linearGradient id="paint16_linear_40_2615" x1="169.328" y1="37.8124" x2="166.832" y2="37.8124" gradientUnits="userSpaceOnUse">
<stop offset="0.139" stop-color="#E6E6E6"/>
<stop offset="1" stop-color="#000308"/>
</linearGradient>
<linearGradient id="paint17_linear_40_2615" x1="402.169" y1="74.495" x2="327.726" y2="74.495" gradientUnits="userSpaceOnUse">
<stop offset="0.139" stop-color="#E6E6E6"/>
<stop offset="1" stop-color="#000308"/>
</linearGradient>
<linearGradient id="paint18_linear_40_2615" x1="155.908" y1="113.297" x2="130.575" y2="113.297" gradientUnits="userSpaceOnUse">
<stop offset="0.139" stop-color="#E6E6E6"/>
<stop offset="1" stop-color="#000308"/>
</linearGradient>
<linearGradient id="paint19_linear_40_2615" x1="108.068" y1="47.3847" x2="105.055" y2="47.3847" gradientUnits="userSpaceOnUse">
<stop offset="0.139" stop-color="#E6E6E6"/>
<stop offset="1" stop-color="#000308"/>
</linearGradient>
<linearGradient id="paint20_linear_40_2615" x1="299.615" y1="129.283" x2="266.796" y2="129.283" gradientUnits="userSpaceOnUse">
<stop offset="0.139" stop-color="#E6E6E6"/>
<stop offset="1" stop-color="#000308"/>
</linearGradient>
<linearGradient id="paint21_linear_40_2615" x1="84.4776" y1="53.4202" x2="54.2012" y2="53.4202" gradientUnits="userSpaceOnUse">
<stop offset="0.139" stop-color="#E6E6E6"/>
<stop offset="1" stop-color="#000308"/>
</linearGradient>
<linearGradient id="paint22_linear_40_2615" x1="247.914" y1="149.838" x2="167.066" y2="149.838" gradientUnits="userSpaceOnUse">
<stop offset="0.139" stop-color="#E6E6E6"/>
<stop offset="1" stop-color="#000308"/>
</linearGradient>
</defs>
</svg>
