<svg width="152" height="152" viewBox="0 0 152 152" fill="none" xmlns="http://www.w3.org/2000/svg">
<path d="M104.798 102.159C103.626 101.011 101.747 101.031 100.599 102.201L100.515 102.288C99.3674 103.459 99.3867 105.338 100.558 106.486C101.112 107.031 101.858 107.335 102.635 107.334C103.03 107.335 103.422 107.256 103.786 107.103C104.15 106.95 104.48 106.726 104.756 106.443L104.841 106.357C105.988 105.186 105.969 103.306 104.798 102.159ZM136.733 71.0347H128.844V63.1455C128.844 61.5059 127.515 60.1768 125.875 60.1768C124.236 60.1768 122.907 61.5059 122.907 63.1455V71.0347H115.017C113.378 71.0347 112.049 72.3638 112.049 74.0034C112.049 75.6431 113.378 76.9722 115.017 76.9722H122.907V84.8613C122.907 86.501 124.236 87.8301 125.875 87.8301C127.515 87.8301 128.844 86.501 128.844 84.8613V76.9722H136.733C138.373 76.9722 139.702 75.6431 139.702 74.0034C139.702 72.3638 138.373 71.0347 136.733 71.0347Z" fill="#F2F0EC"/>
<path d="M135.581 49.7491C132.808 29.2558 115.676 13.9229 95.3411 13.9229C85.0761 13.9229 75.4736 17.7493 67.9844 24.7629C60.4948 17.7493 50.8924 13.9229 40.6276 13.9229C18.2255 13.9229 0 32.5823 0 55.518C0 60.0495 1.32198 65.1287 3.952 70.7355H2.96875C1.32911 70.7355 0 72.0646 0 73.7043C0 75.3439 1.32911 76.673 2.96875 76.673H7.11372C12.6585 86.0602 21.427 96.7349 33.3833 108.624C49.5867 124.735 66.017 137.34 66.1812 137.466C66.7132 137.873 67.3488 138.076 67.9844 138.076C68.62 138.076 69.2553 137.873 69.7876 137.466C69.9129 137.37 82.479 127.734 96.4048 114.604C97.598 113.48 97.6532 111.601 96.5283 110.408C95.4038 109.215 93.5248 109.159 92.3317 110.284C81.7113 120.298 71.9064 128.237 67.9847 131.339C63.3243 127.651 50.3503 117.126 37.5274 104.371C27.2614 94.159 19.4026 84.8525 14.0894 76.673H40.6674C41.312 76.673 41.939 76.4632 42.4538 76.0754C42.9686 75.6875 43.3432 75.1426 43.521 74.523L48.708 56.4428L63.072 102.464C63.2606 103.068 63.6372 103.596 64.147 103.971C64.6568 104.345 65.273 104.548 65.9058 104.548C66.5386 104.548 67.1548 104.345 67.6646 103.971C68.1744 103.596 68.551 103.068 68.7396 102.464L76.6944 76.9702H89.9481C91.5877 76.9702 92.9168 75.6411 92.9168 74.0014C92.9168 72.3618 91.5877 71.0327 89.9481 71.0327H74.5109C73.878 71.0327 73.2617 71.2349 72.7519 71.6099C72.2421 71.9849 71.8654 72.5129 71.6769 73.117L65.9051 91.6138L51.4217 45.2105C51.2323 44.6003 50.8506 44.0676 50.3337 43.6921C49.8167 43.3165 49.1922 43.1181 48.5533 43.1264C47.9146 43.1339 47.2953 43.347 46.7874 43.7344C46.2795 44.1217 45.9101 44.6624 45.7339 45.2764L38.4299 70.7358H10.5759C7.50708 64.942 5.9375 59.8355 5.9375 55.518C5.9375 35.8563 21.4994 19.8604 40.6276 19.8604C50.2416 19.8604 59.1823 23.8124 65.8023 30.9878C66.0804 31.2891 66.4178 31.5296 66.7933 31.694C67.1689 31.8585 67.5744 31.9434 67.9844 31.9434C68.3943 31.9434 68.7999 31.8585 69.1754 31.694C69.551 31.5296 69.8884 31.2891 70.1664 30.9878C76.7864 23.8124 85.7271 19.8604 95.3411 19.8604C111.879 19.8604 125.939 31.787 129.281 48.1006C128.152 47.9528 127.014 47.8786 125.875 47.8785C111.469 47.8785 99.7497 59.5983 99.7497 74.0035C99.7497 88.4088 111.469 100.129 125.875 100.129C140.28 100.129 152 88.4088 152 74.0035C152 63.0263 145.194 53.61 135.581 49.7491ZM125.875 94.191C114.744 94.191 105.688 85.1348 105.688 74.0035C105.688 62.8722 114.744 53.816 125.875 53.816C137.006 53.816 146.062 62.8722 146.062 74.0035C146.062 85.1348 137.006 94.191 125.875 94.191Z" fill="#F2F0EC"/>
</svg>
