<?xml version="1.0" standalone="no"?>
<!DOCTYPE svg PUBLIC "-//W3C//DTD SVG 20010904//EN"
 "http://www.w3.org/TR/2001/REC-SVG-20010904/DTD/svg10.dtd">
<svg version="1.0" xmlns="http://www.w3.org/2000/svg"
 width="800.000000pt" height="800.000000pt" viewBox="0 0 800.000000 800.000000"
 preserveAspectRatio="xMidYMid meet">

<g transform="translate(0.000000,800.000000) scale(0.100000,-0.100000)"
fill="#000000" stroke="none">
<path d="M3735 7200 c-708 -65 -1344 -338 -1863 -798 -94 -84 -104 -93 -215
-210 -750 -792 -1040 -1938 -761 -3011 52 -201 163 -488 253 -654 90 -167 108
-198 184 -312 202 -302 502 -613 793 -821 361 -257 767 -438 1184 -528 998
-215 2025 45 2785 705 107 93 276 264 366 369 107 125 247 324 242 342 -2 5 1
8 7 8 13 0 41 56 32 65 -4 5 -2 5 4 2 10 -6 112 172 105 182 -1 2 2 7 7 10 26
16 163 347 212 514 144 484 175 968 94 1462 -36 221 -120 533 -167 620 -6 11
-12 27 -14 35 -5 30 -102 239 -162 350 -74 135 -222 360 -317 480 -88 110
-385 407 -494 493 -480 382 -998 598 -1640 687 -100 14 -522 21 -635 10z m120
-550 c102 -26 207 -79 273 -136 30 -26 57 -42 63 -38 8 4 9 3 5 -5 -4 -6 9
-30 32 -56 94 -107 152 -271 152 -429 0 -120 -21 -210 -71 -315 -78 -162 -257
-307 -439 -357 -89 -24 -264 -24 -343 -1 -32 10 -62 15 -66 12 -5 -3 -11 -2
-13 3 -1 4 -32 23 -68 41 -36 19 -83 49 -106 67 -22 19 -44 32 -47 29 -4 -3
-5 -2 -2 1 2 4 -17 30 -43 59 -111 123 -163 253 -170 425 -5 139 11 219 68
335 140 288 470 443 775 365z m1542 -974 c29 -14 56 -27 60 -28 16 -4 92 -102
108 -137 9 -20 20 -43 25 -52 4 -9 7 -54 6 -100 -2 -65 -8 -96 -26 -134 -33
-67 -108 -140 -178 -173 -107 -50 -249 -32 -348 43 -17 13 -35 21 -40 17 -5
-4 -6 -3 -2 2 4 5 -4 23 -17 40 -50 65 -69 125 -69 211 0 91 27 163 84 228 97
111 272 147 397 83z m553 -306 c5 -7 92 -54 275 -150 104 -54 135 -79 135
-111 0 -16 -92 -193 -398 -769 -24 -47 -57 -107 -72 -135 -85 -156 -120 -225
-113 -225 4 0 3 -4 -3 -8 -5 -4 -27 -38 -48 -77 -46 -85 -63 -105 -89 -105
-18 0 -82 30 -221 104 l-43 23 -42 -48 c-47 -55 -77 -63 -87 -23 -5 18 0 32
17 50 21 23 21 24 3 24 -26 0 -54 -34 -54 -65 0 -38 33 -65 79 -65 36 0 58
-13 60 -35 1 -5 28 -11 61 -11 33 -1 58 1 56 5 -3 4 0 13 5 21 8 12 9 11 7 -5
-3 -20 3 -20 331 -23 294 -2 337 -4 353 -19 17 -15 18 -38 18 -287 0 -149 -4
-276 -8 -283 -4 -6 -20 -17 -35 -22 -20 -8 -632 -11 -1998 -11 -2165 0 -2011
-5 -2044 60 -12 23 -15 71 -15 237 l0 208 -43 25 c-23 14 -45 27 -49 28 -5 2
-8 -206 -8 -463 0 -444 1 -468 20 -504 42 -84 39 -158 -12 -237 -18 -27 -31
-53 -30 -57 1 -5 -2 -6 -7 -3 -5 4 -27 -4 -48 -16 -30 -18 -53 -23 -109 -23
-65 0 -76 3 -122 35 -28 19 -56 45 -62 58 -7 16 -16 22 -27 18 -12 -5 -13 -3
-6 6 6 8 7 22 2 33 -13 34 -10 124 7 163 32 78 120 141 197 142 30 0 37 4 38
20 1 11 3 25 4 30 1 6 3 349 4 763 1 633 3 756 15 773 11 14 26 19 61 19 68 0
75 -14 75 -153 l0 -114 28 18 c242 160 535 263 875 304 94 12 331 9 610 -6
159 -9 348 19 617 91 268 72 458 98 567 78 44 -9 57 -7 80 7 40 24 89 76 133
140 45 66 103 121 162 152 34 18 60 23 118 23 66 0 80 -4 117 -28 118 -81 153
-247 82 -397 -15 -33 -29 -62 -29 -65 0 -2 -9 -15 -20 -27 -74 -89 -148 -187
-144 -192 2 -3 2 -5 -1 -3 -2 2 -37 -29 -77 -68 -40 -39 -112 -99 -160 -135
-86 -64 -87 -65 -63 -78 21 -10 29 -10 49 3 13 8 29 13 37 11 8 -2 26 -7 41
-10 15 -3 36 -20 48 -37 19 -26 22 -42 21 -120 l-2 -89 61 0 c33 0 60 2 60 5
0 3 -9 15 -20 27 -48 52 -31 166 32 202 l30 18 -24 16 c-42 29 -45 35 -37 67
4 16 24 60 44 97 20 37 51 96 69 130 62 118 299 563 342 644 24 44 41 84 37
87 -3 4 -2 7 3 7 5 0 49 76 98 169 l90 169 45 -1 c26 0 48 -3 51 -7z m407
-625 c13 -3 25 -17 32 -36 8 -23 11 -324 11 -1009 0 -846 2 -982 15 -1013 62
-149 -56 -317 -221 -317 -78 0 -179 68 -205 139 -12 31 -28 141 -20 141 3 0
14 20 24 45 33 79 116 135 202 135 l45 0 0 938 c0 807 2 940 15 958 8 12 12
23 10 26 -5 4 58 0 92 -7z m-884 -942 c-7 -2 -19 -2 -25 0 -7 3 -2 5 12 5 14
0 19 -2 13 -5z m35 -44 c-3 -8 -7 -3 -11 10 -4 17 -3 21 5 13 5 -5 8 -16 6
-23z m362 -1034 l0 -45 -1895 0 -1895 0 0 45 0 45 1895 0 1895 0 0 -45z"/>
<path d="M3570 6275 l0 -165 -165 0 -165 0 0 -120 0 -120 165 0 165 0 0 -175
0 -175 125 0 125 0 0 175 0 175 165 0 165 0 0 114 c0 95 -3 115 -16 120 -9 3
-83 6 -165 6 l-149 0 0 165 0 165 -125 0 -125 0 0 -165z"/>
<path d="M5049 4850 c-25 -13 -55 -47 -93 -104 -52 -78 -110 -136 -179 -179
-23 -15 -34 -16 -65 -7 -76 21 -382 4 -382 -21 0 -5 -6 -6 -13 -3 -7 2 -67
-10 -132 -27 -371 -97 -489 -114 -720 -103 -307 15 -543 10 -685 -14 -132 -22
-259 -56 -375 -99 -88 -32 -308 -140 -332 -162 -10 -9 -26 -20 -35 -24 -9 -3
-31 -30 -47 -59 -49 -85 -41 -188 22 -269 56 -74 146 -108 435 -165 275 -55
312 -78 312 -191 0 -110 16 -120 136 -79 125 42 217 97 339 203 44 38 105 80
135 93 54 24 59 25 240 20 396 -11 492 -7 655 24 130 26 146 31 118 38 -21 5
-42 22 -58 46 -23 34 -25 45 -25 152 0 119 6 140 42 140 11 0 20 -11 26 -32 8
-30 12 -33 42 -30 79 8 122 -17 100 -59 -9 -16 -22 -19 -75 -19 l-65 0 -1 -52
c0 -39 -3 -46 -8 -28 -4 14 -6 41 -6 60 l2 35 72 3 c62 2 72 5 69 20 -3 13
-18 18 -73 22 -67 5 -70 6 -73 33 -2 15 -9 27 -18 27 -11 0 -14 -23 -14 -124
0 -115 2 -127 23 -150 12 -14 38 -28 57 -31 29 -5 40 -2 62 18 29 27 44 67 34
92 -9 25 -26 17 -33 -15 -3 -17 -14 -35 -25 -41 -24 -13 -60 -8 -66 9 -3 11 0
12 16 3 29 -15 52 -3 59 30 7 35 25 51 47 43 39 -15 21 -105 -28 -140 -21 -15
-21 -15 4 -10 14 3 45 8 70 11 l45 5 -3 108 c-3 95 -1 111 16 132 17 21 22 22
36 11 13 -11 16 -35 16 -132 l0 -119 35 0 35 0 0 83 c0 60 5 92 18 118 17 33
17 39 2 83 -8 26 -19 44 -23 40 -4 -4 -4 8 -1 27 l6 34 -21 -32 c-31 -49 -62
-65 -108 -57 -21 3 -48 15 -60 26 -26 24 -38 84 -24 121 9 24 8 27 -12 27 -64
1 -228 22 -273 35 -29 8 -66 28 -83 44 -27 25 -31 36 -31 81 0 46 4 56 34 86
40 40 67 43 208 18 269 -47 485 48 640 280 42 63 76 88 122 89 44 1 85 -27
109 -76 15 -29 16 -43 8 -75 -23 -85 -139 -230 -253 -318 -63 -49 -184 -110
-235 -120 -37 -7 -45 -24 -10 -24 34 0 165 61 232 107 60 42 143 113 131 113
-3 0 11 15 31 34 56 50 125 171 130 226 6 61 -21 109 -77 138 -53 27 -83 27
-131 2z m-2309 -759 c16 -30 13 -246 -4 -284 -28 -61 -49 -79 -102 -84 -43 -5
-54 -2 -82 22 -40 34 -62 74 -62 116 0 75 83 155 136 130 33 -15 31 -48 -3
-63 -65 -28 -83 -78 -43 -118 26 -26 50 -25 78 0 21 19 22 30 22 155 0 134 2
142 37 144 7 1 17 -8 23 -18z m198 -103 c23 -23 13 -48 -23 -63 -27 -12 -35
-22 -41 -50 -3 -19 -3 -50 0 -69 10 -52 -2 -86 -29 -86 -31 0 -37 21 -35 114
2 93 18 132 63 151 40 18 50 18 65 3z m264 -19 c33 -32 28 -55 -22 -104 -32
-32 -54 -46 -64 -42 -27 11 -29 35 -6 64 20 26 20 28 4 32 -39 8 -60 -75 -27
-111 12 -14 31 -18 83 -18 71 0 80 -6 80 -50 0 -16 -10 -19 -66 -22 -36 -1
-81 2 -100 7 -102 30 -115 203 -19 253 42 21 112 17 137 -9z m257 20 c20 -6
47 -25 61 -42 23 -28 25 -40 25 -127 l0 -95 -30 0 -30 0 -3 80 c-3 87 -17 115
-59 115 -26 0 -63 -32 -63 -54 0 -37 21 -67 50 -72 40 -9 54 -27 40 -53 -16
-30 -70 -28 -104 4 -79 73 -66 193 26 238 40 20 41 20 87 6z m306 -3 c25 -11
35 -11 59 2 42 21 100 2 127 -41 16 -27 19 -47 17 -132 -3 -90 -5 -100 -22
-103 -33 -7 -46 25 -46 109 0 81 -11 104 -47 97 -15 -3 -19 -17 -23 -98 -5
-94 -5 -95 -32 -98 -33 -4 -37 8 -40 118 -3 70 -5 75 -26 78 -35 5 -48 -21
-45 -88 4 -78 -9 -110 -42 -110 l-25 0 0 99 c0 85 3 102 23 132 19 29 48 46
82 48 6 0 24 -6 40 -13z m485 -1 c21 -25 -3 -65 -39 -65 -34 0 -41 -14 -41
-76 0 -77 -38 -124 -101 -124 -69 0 -73 61 -4 74 l35 7 0 57 c0 71 25 117 72
131 48 14 64 13 78 -4z"/>
<path d="M2703 4093 c-10 -3 -13 -40 -13 -138 0 -125 -1 -136 -22 -155 -43
-40 -109 -16 -124 47 -8 31 20 71 62 89 44 18 45 44 3 44 -22 0 -41 -10 -65
-34 -30 -30 -34 -41 -34 -84 0 -119 110 -171 189 -89 l31 31 0 142 c0 79 -3
145 -7 147 -5 2 -14 2 -20 0z"/>
<path d="M2855 3956 c-28 -29 -37 -69 -33 -155 2 -52 6 -65 21 -67 15 -2 17 7
17 81 0 87 6 101 51 125 10 6 19 17 19 25 0 24 -48 18 -75 -9z"/>
<path d="M3051 3950 c-37 -37 -47 -82 -29 -135 20 -60 64 -85 149 -85 61 0 69
2 69 19 0 16 -9 19 -70 23 -56 3 -74 8 -95 28 -46 43 -22 124 40 136 48 9 54
-1 22 -34 -29 -30 -36 -62 -14 -62 19 0 87 73 87 93 0 22 -50 47 -94 47 -25 0
-43 -8 -65 -30z"/>
<path d="M3380 3973 c-55 -20 -83 -98 -60 -167 19 -58 120 -105 120 -56 0 12
-7 20 -17 20 -10 0 -29 9 -43 20 -35 27 -36 103 -1 131 33 27 58 24 92 -10 27
-27 29 -35 29 -105 0 -59 3 -76 14 -76 20 0 22 9 16 106 -5 81 -7 87 -38 115
-31 28 -73 36 -112 22z"/>
<path d="M3661 3956 c-21 -22 -25 -38 -29 -111 -5 -94 0 -117 23 -109 12 5 15
23 15 85 0 66 3 82 21 100 20 20 51 19 74 -3 5 -5 11 -46 13 -91 6 -137 42
-132 42 6 0 81 11 107 44 107 9 0 25 -9 36 -20 17 -17 20 -33 20 -105 0 -67 3
-85 14 -85 11 0 15 19 18 83 6 129 -23 176 -101 163 -43 -8 -62 -8 -121 0 -40
5 -48 2 -69 -20z"/>
<path d="M4141 3954 c-16 -20 -21 -41 -21 -85 0 -64 -16 -89 -56 -89 -27 0
-43 -25 -26 -42 15 -15 88 7 101 30 5 9 12 47 16 84 l7 68 39 12 c27 8 39 17
39 30 0 14 -8 18 -39 18 -31 0 -44 -6 -60 -26z"/>
<path d="M4590 4222 c-30 -6 -36 -12 -44 -43 -5 -20 -6 -48 -2 -62 7 -28 50
-57 85 -57 44 0 70 89 32 110 -28 14 -71 -4 -71 -30 0 -28 28 -37 45 -14 14
18 14 18 15 -3 0 -31 -47 -44 -67 -18 -36 50 10 115 71 99 12 -3 30 -17 39
-32 l16 -27 1 25 c0 14 -4 31 -8 38 -11 16 -65 22 -112 14z"/>
<path d="M4600 3860 c0 -113 1 -120 20 -120 19 0 20 7 20 120 0 113 -1 120
-20 120 -19 0 -20 -7 -20 -120z"/>
<path d="M4857 3943 c10 -23 19 -71 21 -121 l3 -83 62 3 62 3 3 61 c4 79 -9
114 -43 114 -28 0 -28 0 -25 -107 1 -39 -3 -63 -9 -63 -16 0 -14 153 1 168 15
15 61 15 76 0 7 -7 12 -44 12 -95 0 -78 1 -83 21 -83 20 0 21 4 17 96 -3 91
-5 97 -31 120 -31 26 -71 31 -112 12 -19 -9 -28 -9 -37 0 -7 7 -18 12 -25 12
-10 0 -9 -9 4 -37z"/>
<path d="M5210 3967 c-35 -27 -50 -62 -50 -115 0 -46 4 -58 29 -83 26 -25 37
-29 85 -29 43 0 56 3 56 15 0 10 -10 15 -31 15 -40 0 -88 29 -96 57 -16 65 30
128 78 107 20 -9 20 -10 -5 -37 -27 -30 -33 -53 -15 -59 11 -4 89 68 89 82 0
11 -89 60 -109 60 -9 0 -23 -6 -31 -13z"/>
<path d="M4750 3935 c-8 -10 -15 -50 -18 -101 -4 -71 -2 -84 11 -84 21 0 57
48 56 74 -1 15 -4 11 -10 -11 -5 -18 -11 -33 -14 -33 -2 0 -2 30 0 67 1 37 0
75 -4 86 -7 17 -8 18 -21 2z"/>
<path d="M1754 2685 c-4 -8 -10 -13 -15 -10 -11 7 -39 -48 -39 -75 0 -33 31
-78 60 -88 105 -37 183 87 101 160 -35 32 -97 39 -107 13z"/>
<path d="M6148 2685 c-51 -28 -59 -112 -15 -153 48 -43 119 -35 150 17 53 91
-42 186 -135 136z"/>
</g>
</svg>
