<?xml version="1.0" standalone="no"?>
<!DOCTYPE svg PUBLIC "-//W3C//DTD SVG 20010904//EN"
 "http://www.w3.org/TR/2001/REC-SVG-20010904/DTD/svg10.dtd">
<svg version="1.0" xmlns="http://www.w3.org/2000/svg"
 width="50" height="50" viewBox="0 0 512.000000 512.000000"
 preserveAspectRatio="xMidYMid meet">

<g transform="translate(0.000000,512.000000) scale(0.100000,-0.100000)"
fill="#FFFFFF" stroke="none">
<path d="M2397 4944 c-427 -77 -739 -474 -714 -909 34 -587 606 -973 1164
-785 246 82 461 297 543 543 111 329 27 677 -220 917 -205 199 -489 285 -773
234z m348 -168 c160 -42 323 -161 416 -304 121 -185 151 -414 80 -618 -40
-118 -84 -187 -176 -279 -92 -92 -161 -136 -279 -176 -204 -71 -433 -41 -618
80 -145 94 -261 255 -305 421 -28 103 -23 293 9 392 39 119 92 204 182 294
111 110 236 177 381 204 69 12 237 5 310 -14z"/>
<path d="M2345 4615 c-24 -23 -25 -29 -25 -160 l0 -135 -135 0 c-131 0 -137
-1 -160 -25 -25 -24 -25 -26 -25 -215 0 -189 0 -191 25 -215 23 -24 29 -25
160 -25 l135 0 0 -135 c0 -131 1 -137 25 -160 24 -25 26 -25 215 -25 189 0
191 0 215 25 24 23 25 29 25 160 l0 135 135 0 c131 0 137 1 160 25 25 24 25
26 25 215 0 189 0 191 -25 215 -23 24 -29 25 -160 25 l-135 0 0 135 c0 131 -1
137 -25 160 -24 25 -26 25 -215 25 -189 0 -191 0 -215 -25z m295 -270 c0 -131
1 -137 25 -160 23 -24 29 -25 160 -25 l135 0 0 -80 0 -80 -135 0 c-131 0 -137
-1 -160 -25 -24 -23 -25 -29 -25 -160 l0 -135 -80 0 -80 0 0 135 c0 131 -1
137 -25 160 -23 24 -29 25 -160 25 l-135 0 0 80 0 80 135 0 c131 0 137 1 160
25 24 23 25 29 25 160 l0 135 80 0 80 0 0 -135z"/>
<path d="M343 3499 c-63 -24 -128 -85 -156 -147 l-22 -47 -3 -1455 c-3 -1631
-8 -1511 71 -1598 63 -68 107 -87 202 -87 70 0 87 4 134 30 29 16 69 49 87 74
58 75 64 113 64 406 0 190 3 264 12 273 17 17 3639 17 3656 0 9 -9 12 -84 12
-278 0 -322 5 -346 85 -426 41 -41 65 -56 110 -70 138 -40 278 25 339 155 21
45 21 57 24 715 2 429 -1 689 -8 724 -32 172 -177 331 -341 372 l-46 12 -6 71
c-13 146 -69 267 -178 381 -76 81 -145 126 -251 164 l-73 27 -1055 3 c-1179 3
-1146 5 -1290 -66 -135 -66 -265 -213 -311 -350 l-21 -63 -62 58 c-33 32 -181
170 -328 306 l-268 248 0 173 c0 218 -10 257 -84 332 -82 82 -186 104 -293 63z
m181 -178 l31 -31 5 -203 c4 -146 10 -210 20 -230 8 -16 186 -189 397 -384
l383 -354 0 -315 0 -315 25 -24 24 -25 1549 0 c1511 0 1550 0 1573 19 24 19
24 21 29 275 l5 256 51 -24 c66 -31 120 -85 153 -155 l26 -56 3 -662 c3 -732
4 -714 -60 -753 -50 -30 -92 -26 -136 14 l-37 34 -5 299 -5 300 -27 40 c-15
22 -44 51 -65 64 l-38 24 -1866 0 -1865 0 -41 -27 c-22 -15 -51 -44 -64 -65
-23 -37 -24 -44 -29 -328 -5 -315 -6 -321 -63 -355 -49 -30 -91 -26 -135 14
l-37 34 -3 1431 c-2 1577 -6 1480 60 1521 46 29 101 21 142 -19z m3497 -691
c121 -23 244 -109 309 -216 62 -104 69 -150 69 -501 l1 -313 -1440 0 -1440 0
0 304 c0 167 5 328 10 357 23 121 109 244 216 309 119 71 72 69 1205 69 641 1
1036 -3 1070 -9z"/>
<path d="M1186 3510 c-63 -16 -153 -70 -197 -117 -22 -24 -55 -74 -72 -111
-29 -61 -32 -76 -32 -163 0 -90 2 -99 37 -171 45 -91 103 -147 196 -191 61
-29 76 -32 162 -32 86 0 101 3 162 32 93 44 151 100 196 191 35 72 37 81 37
172 0 91 -2 100 -37 172 -68 136 -188 217 -336 224 -42 2 -94 -1 -116 -6z
m168 -162 c86 -26 166 -136 166 -228 0 -92 -80 -202 -166 -228 -94 -28 -169
-8 -239 63 -102 101 -102 229 0 330 70 71 145 90 239 63z"/>
</g>
</svg>
