<svg width="20" height="20" viewBox="0 0 20 20" fill="none" xmlns="http://www.w3.org/2000/svg">
<path d="M18.9434 7.50768L18.9432 7.50766L13.1697 6.98351L12.5751 6.92952L12.3405 6.3804L10.0596 1.04019C10.0595 1.04006 10.0595 1.03994 10.0594 1.03981C10.048 1.01374 10.0254 1 10.0001 1C9.97396 1 9.95257 1.0142 9.94241 1.03802L9.9422 1.03851L7.66052 6.3804L7.42597 6.92953L6.8313 6.98351L1.05846 7.50753C1.05836 7.50753 1.05827 7.50754 1.05817 7.50755C1.03349 7.50994 1.01144 7.52637 1.00268 7.55309L0.0523786 7.24177L1.00317 7.55159C0.999264 7.56359 0.99896 7.57646 1.0023 7.58863C1.00563 7.60075 1.01243 7.61164 1.02186 7.61995C1.02189 7.61998 1.02192 7.62 1.02195 7.62003L5.38597 11.4466L5.8337 11.8392L5.70186 12.4199L4.41532 18.0864C4.41529 18.0865 4.41527 18.0866 4.41524 18.0867C4.40897 18.1151 4.41989 18.1393 4.43905 18.1532L4.4416 18.155C4.45155 18.1623 4.46353 18.1662 4.47583 18.1662L4.47668 18.1662C4.48758 18.1662 4.49827 18.1632 4.50762 18.1576L4.50846 18.1571L9.48686 15.1804L10.0001 14.8735L10.5133 15.1804L15.4908 18.1571L15.491 18.1572C15.5015 18.1635 15.5136 18.1666 15.5258 18.166C15.538 18.1655 15.5498 18.1614 15.5597 18.1542L15.561 18.1532C15.5803 18.1393 15.5912 18.115 15.5849 18.0866C15.5849 18.0865 15.5848 18.0865 15.5848 18.0864L18.9434 7.50768ZM18.9434 7.50768C18.9554 7.50877 18.9668 7.51337 18.9763 7.5209C18.9853 7.52813 18.9922 7.53777 18.996 7.5487L18.9434 7.50768Z" stroke="#1768BC" stroke-width="2"/>
</svg>
