<?xml version="1.0" standalone="no"?>
<!DOCTYPE svg PUBLIC "-//W3C//DTD SVG 20010904//EN"
 "http://www.w3.org/TR/2001/REC-SVG-20010904/DTD/svg10.dtd">
<svg version="1.0" xmlns="http://www.w3.org/2000/svg"
 width="24" height="24" viewBox="0 0 59.000000 56.000000"
 preserveAspectRatio="xMidYMid meet">

<g transform="translate(0.000000,56.000000) scale(0.100000,-0.100000)"
fill="#3f7473" stroke="none">
<path d="M319 492 c-6 -15 -15 -34 -20 -42 -5 -8 -27 -49 -48 -91 l-40 -76 34
-16 c32 -15 35 -15 47 1 18 24 97 21 115 -4 18 -25 16 -68 -5 -94 -24 -29
-132 -43 -132 -17 0 9 8 18 18 20 9 3 -17 5 -58 5 -61 1 -70 -1 -50 -10 l25
-10 -22 -15 c-15 -10 -23 -26 -23 -44 l0 -29 165 0 165 0 0 29 c0 17 -4 32
-10 36 -6 4 -6 15 0 31 27 71 0 140 -76 190 -54 36 -58 48 -29 84 26 33 24 47
-11 64 -34 16 -34 16 -45 -12z m41 -162 c0 -11 -6 -20 -14 -20 -18 0 -29 16
-21 30 11 18 35 11 35 -10z"/>
</g>
</svg>
