<svg width="35" height="34" viewBox="0 0 35 34" fill="none" xmlns="http://www.w3.org/2000/svg">
<path d="M14.6874 0C11.0239 0 8.04414 2.98055 8.04414 6.64409V10.0862C8.04414 13.75 11.0239 16.7306 14.6874 16.7306C18.3512 16.7306 21.3307 13.75 21.3307 10.0862V6.64409C21.3308 2.98055 18.3512 0 14.6874 0ZM29.3383 25.3886C27.211 21.7634 23.8108 19.0758 19.764 17.8208C19.7181 17.8064 19.6691 17.8049 19.6224 17.8163C19.5757 17.8277 19.5329 17.8516 19.4988 17.8855C17.6163 19.7416 15.2771 21.1897 14.6923 21.5395C14.0681 21.1405 11.4387 19.4266 9.8755 17.8855C9.84134 17.8516 9.7986 17.8277 9.75188 17.8163C9.70516 17.8049 9.65622 17.8064 9.6103 17.8208C5.56297 19.076 2.163 21.7636 0.03652 25.3888C0.0126062 25.4296 0 25.476 0 25.5233C0 25.5706 0.0126062 25.617 0.03652 25.6578C3.05624 30.8035 8.67001 34 14.6871 34C20.7046 34 26.3186 30.8035 29.3383 25.6578C29.3623 25.617 29.375 25.5705 29.375 25.5232C29.375 25.4758 29.3623 25.4293 29.3383 25.3886ZM23.7226 27.3703C23.7226 27.5169 23.5831 27.629 23.4368 27.629H21.6375C21.4909 27.629 21.331 27.7549 21.331 27.9018V29.7625C21.331 29.9089 21.2526 30.0207 21.106 30.0207H19.4901C19.3435 30.0207 19.2053 29.9089 19.2053 29.7625V27.9018C19.2048 27.7552 19.1047 27.629 18.9581 27.629H17.0813C16.9347 27.629 16.8134 27.5167 16.8134 27.3703V25.7683C16.8134 25.6217 16.9347 25.5033 17.0813 25.5033H18.9581C19.1047 25.5033 19.2048 25.3837 19.2048 25.2368V23.3739C19.2048 23.2273 19.3429 23.1117 19.4895 23.1117H21.0881C21.2344 23.1117 21.3307 23.2273 21.3307 23.3739V25.2422C21.3307 25.3891 21.4727 25.5031 21.6196 25.5031H23.4368C23.5831 25.5031 23.7226 25.6271 23.7226 25.7737V27.3703Z" fill="#3f7473"/>
<path d="M34.2216 14.4613H32.8855C32.7272 14.4613 32.5866 14.5888 32.5339 14.7527L32.1119 16.7931L31.2328 12.7306C31.1977 12.5667 31.0746 12.4574 30.9164 12.4392C30.7581 12.4209 30.6175 12.5302 30.5648 12.676L29.756 15.0989L28.9649 11.2733C28.9121 11.1275 28.7715 11 28.5957 11C28.4198 11 28.2968 11.1093 28.244 11.2733L27.0133 16.283L26.2925 13.4593C26.2574 13.3318 26.1519 13.2225 26.0112 13.1861C25.8706 13.1678 25.7475 13.2225 25.6596 13.3318L24.8684 14.4613H23.6729C23.4795 14.4613 23.3213 14.6252 23.3213 14.8256C23.3213 15.026 23.4795 15.19 23.6729 15.19H25.0442C25.1497 15.19 25.2552 15.1353 25.3255 15.0442L25.8002 14.3884L26.6617 17.8497C26.6969 18.0136 26.8375 18.1229 26.9958 18.1229C27.154 18.1229 27.2946 18.0136 27.3298 17.8497L28.5429 12.9675L29.2989 16.538C29.3341 16.702 29.4571 16.8113 29.6154 16.8295C29.7736 16.8477 29.9142 16.7384 29.967 16.5927L30.7933 14.1516L31.7603 18.5419C31.7954 18.7059 31.9361 18.8334 32.1119 18.8334C32.2701 18.8334 32.4108 18.7059 32.4459 18.5419L33.1668 15.19H34.2216C34.415 15.19 34.5733 15.026 34.5733 14.8256C34.5733 14.6252 34.415 14.4613 34.2216 14.4613Z" fill="#3f7473" stroke="#3f7473" stroke-width="0.244793"/>
</svg>
