<svg width="16" height="16" viewBox="0 0 16 16" fill="none" xmlns="http://www.w3.org/2000/svg">
<path d="M15.6425 0.6575C15.59 0.5225 15.4775 0.41 15.3425 0.3575C15.2675 0.3275 15.2 0.3125 15.125 0.3125H10.25C9.9425 0.3125 9.6875 0.5675 9.6875 0.875C9.6875 1.1825 9.9425 1.4375 10.25 1.4375H13.7675L10.385 4.8275H10.3775C9.3725 3.995 8.09 3.5 6.6875 3.5C3.4775 3.5 0.875 6.1025 0.875 9.3125C0.875 12.5225 3.4775 15.125 6.6875 15.125C9.8975 15.125 12.5 12.5225 12.5 9.3125C12.5 7.91 12.005 6.6275 11.1725 5.6225L14.5625 2.2325V5.75C14.5625 6.0575 14.8175 6.3125 15.125 6.3125C15.4325 6.3125 15.6875 6.0575 15.6875 5.75V0.875C15.6875 0.8 15.6725 0.7325 15.6425 0.6575Z" fill="#292D32"/>
</svg>
