<svg width="9" height="15" viewBox="0 0 9 15" fill="none" xmlns="http://www.w3.org/2000/svg">
<path d="M8.67024 6.95372L2.6104 0.723657C2.47025 0.579447 2.28315 0.5 2.08365 0.5C1.88416 0.5 1.69706 0.579447 1.5569 0.723657L1.11064 1.18235C0.820251 1.48124 0.820251 1.96703 1.11064 2.26547L6.19923 7.4971L1.10499 12.7345C0.964836 12.8787 0.887451 13.071 0.887451 13.276C0.887451 13.4812 0.964836 13.6734 1.10499 13.8178L1.55126 14.2763C1.69153 14.4206 1.87851 14.5 2.07801 14.5C2.2775 14.5 2.4646 14.4206 2.60476 14.2763L8.67024 8.04059C8.81073 7.89592 8.88789 7.70277 8.88745 7.49744C8.88789 7.29131 8.81073 7.09827 8.67024 6.95372Z" fill="black"/>
</svg>
