<svg width="25" height="24" viewBox="0 0 25 24" fill="none" xmlns="http://www.w3.org/2000/svg">
<path d="M20.7705 14.06L19.6405 12.18C19.3905 11.77 19.1705 10.98 19.1705 10.5V8.62999C19.1705 4.99999 16.2205 2.04999 12.6005 2.04999C8.97053 2.05999 6.02053 4.99999 6.02053 8.62999V10.49C6.02053 10.97 5.80053 11.76 5.56053 12.17L4.43053 14.05C4.00052 14.78 3.90053 15.61 4.17053 16.33C4.44053 17.06 5.05052 17.64 5.85053 17.9C6.93053 18.26 8.02052 18.52 9.13053 18.71C9.24053 18.73 9.35052 18.74 9.46053 18.76C9.60052 18.78 9.75052 18.8 9.90052 18.82C10.1605 18.86 10.4205 18.89 10.6905 18.91C11.3205 18.97 11.9605 19 12.6005 19C13.2305 19 13.8605 18.97 14.4805 18.91C14.7105 18.89 14.9405 18.87 15.1605 18.84C15.3405 18.82 15.5205 18.8 15.7005 18.77C15.8105 18.76 15.9205 18.74 16.0305 18.72C17.1505 18.54 18.2605 18.26 19.3405 17.9C20.1105 17.64 20.7005 17.06 20.9805 16.32C21.2605 15.57 21.1805 14.75 20.7705 14.06ZM13.3305 9.99999C13.3305 10.42 12.9905 10.76 12.5705 10.76C12.1505 10.76 11.8105 10.42 11.8105 9.99999V6.89999C11.8105 6.47999 12.1505 6.13999 12.5705 6.13999C12.9905 6.13999 13.3305 6.47999 13.3305 6.89999V9.99999Z" fill="#292D32"/>
<path d="M15.4106 20.01C14.9906 21.17 13.8806 22 12.5806 22C11.7906 22 11.0106 21.68 10.4606 21.11C10.1406 20.81 9.90062 20.41 9.76062 20C9.89062 20.02 10.0206 20.03 10.1606 20.05C10.3906 20.08 10.6306 20.11 10.8706 20.13C11.4406 20.18 12.0206 20.21 12.6006 20.21C13.1706 20.21 13.7406 20.18 14.3006 20.13C14.5106 20.11 14.7206 20.1 14.9206 20.07C15.0806 20.05 15.2406 20.03 15.4106 20.01Z" fill="#292D32"/>
</svg>
