<svg width="72" height="90" viewBox="0 0 72 90" fill="none" xmlns="http://www.w3.org/2000/svg">
<path d="M19.5652 30.894C21.0672 34.935 23.4462 38.856 26.3842 41.731C28.0502 43.357 29.8932 44.643 31.8592 45.422C33.2092 45.961 34.6192 46.255 36.0692 46.255C37.5182 46.255 38.9272 45.961 40.2812 45.422C42.3142 44.614 44.2222 43.268 45.9302 41.557C48.7982 38.697 51.1132 34.833 52.5892 30.862C53.7212 30.53 54.9082 28.407 55.3942 25.697C55.9172 22.757 55.4242 20.196 54.2902 19.763C54.3292 19.044 54.3552 18.321 54.3552 17.577C54.3242 6.91998 48.0762 0.724979 38.2252 0.0629788C29.6362 -0.512021 23.1622 2.89998 20.2162 8.57398C19.2262 10.481 18.6572 12.87 18.4362 15.459C18.1072 16.812 17.9152 18.214 17.9152 19.667H17.9462C17.9462 19.679 17.9462 19.689 17.9452 19.703C17.9232 19.704 17.9022 19.707 17.8822 19.709C16.6242 19.931 16.0522 22.612 16.6052 25.697C17.1042 28.536 18.3852 30.731 19.5652 30.894ZM19.8412 22.956C19.9662 22.592 20.1292 22.31 20.3402 22.159C20.3752 22.141 20.4112 22.136 20.4362 22.118C20.4972 22.083 20.5612 22.046 20.6292 22.038H20.6312C20.6922 22.027 20.7532 22.026 20.8142 22.032C20.9902 22.05 21.1692 22.136 21.3462 22.278C21.3462 22.27 21.3482 22.26 21.3502 22.251C21.3512 22.242 21.3522 22.233 21.3522 22.223C21.4172 21.573 22.1362 16.834 26.0162 15.413C26.0602 15.395 26.1172 15.388 26.1632 15.371C26.4202 15.286 26.6822 15.204 26.9672 15.148C27.3142 15.08 27.6832 15.038 28.0732 15.023C28.4422 15.008 28.8282 15.016 29.2362 15.053C29.2362 15.053 32.0392 16.084 35.5402 16.096C37.1202 16.102 38.8412 15.901 40.5122 15.304C40.8092 15.299 41.1012 15.294 41.3852 15.294C41.6562 15.294 41.9212 15.297 42.1742 15.306C44.3982 15.391 45.9232 16.542 47.5162 17.284H47.5202C47.5192 17.277 47.5162 17.271 47.5162 17.263C47.4472 16.538 46.9002 15.801 46.9252 15.306C46.9252 15.306 46.9252 15.306 46.9252 15.304C46.9412 15.309 46.9532 15.317 46.9682 15.321C47.2052 15.395 47.4232 15.495 47.6312 15.606C48.7812 16.833 49.8942 18.885 50.7772 22.238C50.7772 22.255 50.7772 22.266 50.7822 22.279C50.7842 22.279 50.7842 22.278 50.7862 22.274C50.7862 22.271 50.7862 22.274 50.7932 22.271V22.274V22.277L50.8032 22.26C50.8102 22.255 50.8162 22.255 50.8232 22.25C50.9202 22.177 51.0152 22.125 51.1122 22.087C51.1922 22.055 51.2722 22.039 51.3512 22.031C51.4022 22.027 51.4522 22.023 51.5022 22.032C51.5612 22.042 51.6162 22.061 51.6722 22.087C52.4062 22.431 52.7222 24.145 52.3702 26.104C52.1002 27.602 51.5162 28.835 50.8962 29.368C50.7722 29.472 50.6422 29.55 50.5192 29.595C50.4982 29.601 50.4812 29.601 50.4602 29.606L50.2962 29.625C50.2942 29.625 50.2922 29.625 50.2912 29.625C50.2772 29.625 50.2632 29.625 50.2492 29.625C50.2232 29.625 50.2002 29.628 50.1772 29.631C50.1662 29.632 50.1552 29.635 50.1442 29.634C50.0222 29.615 49.9102 29.552 49.8062 29.462C49.7942 29.452 49.7822 29.446 49.7712 29.436C49.7712 29.436 49.7712 29.436 49.7712 29.441C48.4112 33.678 45.8172 37.899 42.5382 40.464C41.5802 41.215 40.5592 41.818 39.4972 42.247C39.4782 42.255 39.4592 42.26 39.4402 42.267L38.2292 42.637C38.1952 42.645 38.1642 42.655 38.1312 42.664C38.0102 42.691 37.8992 42.744 37.7752 42.765C37.7382 42.773 37.6992 42.776 37.6602 42.78L37.1882 42.827C37.1502 42.831 37.1112 42.832 37.0732 42.837C36.7442 42.876 36.4152 42.934 36.0792 42.935C36.0732 42.936 36.0662 42.936 36.0612 42.936C33.7892 42.936 31.6412 42.035 29.7182 40.566C26.3862 38.014 23.7472 33.753 22.3642 29.466C22.3622 29.458 22.3592 29.45 22.3562 29.443H22.3542C22.2402 29.546 22.1182 29.613 21.9862 29.64C21.9852 29.64 21.9842 29.64 21.9842 29.64C21.9272 29.645 21.8692 29.649 21.8122 29.64C21.5822 29.618 21.3452 29.489 21.1192 29.262C20.5372 28.682 20.0092 27.512 19.7592 26.11C19.7422 26.018 19.7352 25.924 19.7202 25.834C19.7352 24.848 19.7752 23.895 19.8412 22.956Z" fill="white"/>
<path d="M71.6312 61.779C70.1592 56.712 68.2372 53.428 66.2992 51.268C62.8822 47.437 59.4412 47.136 58.4002 46.892C58.1422 46.832 57.8762 46.788 57.6102 46.742C57.7072 46.92 57.8052 47.096 57.8932 47.283C58.2682 48.084 58.5292 48.92 58.6692 49.768C58.9112 49.85 59.1352 49.947 59.3482 50.06C61.6162 51.274 62.4742 54.107 61.2612 56.376C60.4482 57.897 58.8682 58.842 57.1422 58.842C56.3802 58.842 55.6202 58.652 54.9442 58.29C53.8442 57.702 53.0412 56.721 52.6792 55.528C52.3182 54.335 52.4422 53.072 53.0292 51.973C53.6142 50.883 54.6092 50.08 55.8012 49.724C55.5032 48.558 54.8372 47.233 53.7652 46.338C52.0102 46.233 50.3872 46.162 49.2842 45.818C49.0402 47.845 43.1592 54.493 39.3062 58.672L37.6362 52.227C38.8912 51.485 39.1652 49.853 39.1652 48.495H32.8302C32.8302 49.842 33.1042 51.461 34.3322 52.209L32.6892 58.667C28.8342 54.494 22.9522 47.844 22.7122 45.819C21.6482 46.151 20.1042 46.228 18.4212 46.327C17.2392 47.221 16.3722 48.521 16.0552 49.638C16.4292 49.914 16.7322 50.291 16.9322 50.73C18.7292 51.578 20.3162 53.362 21.5312 55.904C21.7352 56.333 21.7612 56.815 21.6122 57.256C22.3352 59.115 22.7482 61.145 22.7552 62.857H25.0622V61.417C25.0622 59.554 26.5772 58.039 28.4402 58.039C30.3022 58.039 31.8182 59.554 31.8182 61.417V62.857H40.1822V61.417C40.1822 59.554 41.6982 58.039 43.5602 58.039C45.4222 58.039 46.9382 59.554 46.9382 61.417V62.857H50.0542C52.6462 62.857 54.7552 64.96 54.7552 67.544V74.436C62.6512 73.23 69.1862 71.052 71.0892 67.448C71.3512 66.955 71.5272 66.437 71.6732 65.901C72.0182 64.574 72.0252 63.138 71.6312 61.779Z" fill="white"/>
<path d="M18.2781 57.4609C17.2131 55.2319 15.7651 53.7909 14.5891 53.7909C13.3851 53.7909 11.8651 55.3479 10.8051 57.6649C10.6321 58.0419 10.3281 58.3509 9.95408 58.5319C9.39908 60.0339 9.09608 61.5789 9.09608 62.8999C9.09608 63.4829 9.09608 65.0279 9.31808 65.3909C9.32108 65.3909 9.37008 65.4199 9.50908 65.4539C9.69108 65.3849 9.88608 65.3489 10.0811 65.3489H11.8401C12.6611 65.3489 13.3451 65.9739 13.4281 66.7849L13.4371 66.8849C13.4371 67.8269 12.7211 68.5449 11.8401 68.5449H10.0811C9.73208 68.5449 9.39408 68.4289 9.11708 68.2169C8.11208 68.0279 7.40508 67.5839 6.95508 66.8629C6.41208 65.9899 6.31208 64.8439 6.31208 62.9009C6.31208 61.1959 6.70608 59.2339 7.42108 57.3589C7.31608 56.9599 7.35108 56.5399 7.52508 56.1629C8.27008 54.5339 9.21708 53.1389 10.2631 52.1319C10.8381 51.5759 11.4561 51.1309 12.1031 50.8049C12.3391 50.2519 12.7411 49.7869 13.2371 49.4919C13.3991 48.5829 13.7771 47.6409 14.3231 46.7529C14.0781 46.7989 13.8301 46.8379 13.5911 46.8939C12.5231 47.1449 8.87708 47.4679 5.34708 51.6759C3.53208 53.8359 1.74608 57.0139 0.364082 61.7799C-0.0139182 63.0839 -0.0189186 64.4529 0.290081 65.7379C0.437081 66.3349 0.622081 66.9139 0.905081 67.4489C2.80908 71.0499 9.34508 73.2279 17.2421 74.4349V68.5359V67.5459C17.2421 66.7539 17.4421 66.0089 17.7921 65.3529C18.2721 64.4539 19.0401 63.7299 19.9711 63.2979C19.9721 63.1529 19.9721 63.0169 19.9721 62.9029C19.9721 61.5059 19.6221 59.8169 19.0101 58.2499C18.6931 58.0649 18.4371 57.7919 18.2781 57.4609Z" fill="white"/>
<path d="M57.146 56.698C58.5395 56.698 59.669 55.5684 59.669 54.175C59.669 52.7816 58.5395 51.652 57.146 51.652C55.7526 51.652 54.623 52.7816 54.623 54.175C54.623 55.5684 55.7526 56.698 57.146 56.698Z" fill="white"/>
<path d="M50.0541 66.2209H46.7381C46.2791 67.5419 45.0351 68.4969 43.5601 68.4969C42.0861 68.4969 40.8421 67.5419 40.3821 66.2209H31.6181C31.1581 67.5419 29.9141 68.4969 28.4401 68.4969C26.9651 68.4969 25.7221 67.5419 25.2621 66.2209H21.9471C21.2081 66.2209 20.6091 66.8129 20.6091 67.5429V88.6789C20.6091 89.4079 21.2081 89.9999 21.9471 89.9999H50.0531C50.7911 89.9999 51.3901 89.4079 51.3901 88.6789V67.5429C51.3911 66.8129 50.7921 66.2209 50.0541 66.2209ZM48.6471 84.9279C48.6471 85.8639 47.8871 86.6239 46.9521 86.6239H25.0491C24.1121 86.6239 23.3531 85.8629 23.3531 84.9279V72.1409C23.3531 71.2029 24.1131 70.4449 25.0491 70.4449H46.9521C47.8881 70.4449 48.6471 71.2039 48.6471 72.1409V84.9279Z" fill="white"/>
<path d="M30.3801 71.75H26.3591C25.8311 71.75 25.4031 72.179 25.4031 72.708V76.729C25.4031 77.257 25.8311 77.685 26.3591 77.685H30.3801C30.9081 77.685 31.3371 77.257 31.3371 76.729V72.708C31.3371 72.179 30.9091 71.75 30.3801 71.75Z" fill="white"/>
<path d="M38.0112 71.75H33.9902C33.4622 71.75 33.0332 72.179 33.0332 72.708V76.729C33.0332 77.257 33.4612 77.685 33.9902 77.685H38.0112C38.5392 77.685 38.9682 77.257 38.9682 76.729V72.708C38.9682 72.179 38.5392 71.75 38.0112 71.75Z" fill="white"/>
<path d="M45.6421 71.75H41.6201C41.0921 71.75 40.6631 72.179 40.6631 72.708V76.729C40.6631 77.257 41.0921 77.685 41.6201 77.685H45.6411C46.1691 77.685 46.5971 77.257 46.5971 76.729V72.708C46.5981 72.179 46.1701 71.75 45.6421 71.75Z" fill="white"/>
<path d="M30.3801 79.381H26.3591C25.8311 79.381 25.4031 79.81 25.4031 80.339V84.36C25.4031 84.888 25.8311 85.317 26.3591 85.317H30.3801C30.9081 85.317 31.3371 84.888 31.3371 84.36V80.339C31.3371 79.81 30.9091 79.381 30.3801 79.381Z" fill="white"/>
<path d="M38.0112 79.381H33.9902C33.4622 79.381 33.0332 79.81 33.0332 80.339V84.36C33.0332 84.888 33.4612 85.317 33.9902 85.317H38.0112C38.5392 85.317 38.9682 84.888 38.9682 84.36V80.339C38.9682 79.81 38.5392 79.381 38.0112 79.381Z" fill="white"/>
<path d="M45.6421 79.381H41.6201C41.0921 79.381 40.6631 79.81 40.6631 80.339V84.36C40.6631 84.888 41.0921 85.317 41.6201 85.317H45.6411C46.1691 85.317 46.5971 84.888 46.5971 84.36V80.339C46.5981 79.81 46.1701 79.381 45.6421 79.381Z" fill="white"/>
<path d="M30.1361 65.1179V61.4159C30.1361 60.4789 29.3771 59.7209 28.4401 59.7209C27.5031 59.7209 26.7441 60.4799 26.7441 61.4159V65.1179C26.7441 66.0559 27.5031 66.8139 28.4401 66.8139C29.3771 66.8139 30.1361 66.0559 30.1361 65.1179Z" fill="white"/>
<path d="M45.256 65.1179V61.4159C45.256 60.4789 44.496 59.7209 43.56 59.7209C42.624 59.7209 41.865 60.4799 41.865 61.4159V65.1179C41.865 66.0559 42.624 66.8139 43.56 66.8139C44.496 66.8139 45.256 66.0559 45.256 65.1179Z" fill="white"/>
</svg>
