<?xml version="1.0" standalone="no"?>
<!DOCTYPE svg PUBLIC "-//W3C//DTD SVG 20010904//EN"
 "http://www.w3.org/TR/2001/REC-SVG-20010904/DTD/svg10.dtd">
<svg version="1.0" xmlns="http://www.w3.org/2000/svg"
 width="100" height="100" viewBox="0 0 760.000000 414.000000"
 preserveAspectRatio="xMidYMid meet">

<g transform="translate(0.000000,414.000000) scale(0.100000,-0.100000)"
fill="#FFFFFF" stroke="none">
<path d="M120 4092 c-35 -20 -75 -53 -88 -72 -48 -71 -67 -30 555 -1176 314
-577 622 -1143 684 -1259 l114 -210 5 -535 5 -535 27 -57 c35 -76 104 -148
175 -184 53 -26 67 -29 163 -29 92 0 112 3 160 26 111 52 202 178 216 300 16
138 -63 295 -184 366 -25 15 -80 34 -121 43 l-76 15 -3 233 -2 232 2544 0
2545 0 3 -482 3 -483 27 -57 c37 -79 98 -142 177 -181 61 -30 73 -32 166 -32
89 0 106 3 155 27 76 37 146 109 184 188 27 58 31 75 30 150 -1 110 -27 180
-96 256 -59 63 -124 100 -206 115 -31 6 -62 15 -69 21 -9 7 -13 107 -15 382
-3 408 -2 402 -65 443 -26 17 -170 18 -2739 23 -2652 5 -2712 5 -2733 24 -12
11 -41 56 -65 100 -801 1477 -1243 2288 -1263 2314 -32 43 -80 72 -118 72 -17
0 -59 -17 -95 -38z"/>
<path d="M1490 3792 c-70 -23 -131 -62 -185 -118 -94 -96 -129 -196 -123 -343
3 -83 8 -105 37 -164 43 -90 127 -174 218 -219 66 -32 72 -33 189 -33 118 0
121 0 195 37 93 46 168 122 212 215 31 65 32 73 32 193 0 120 -1 128 -32 193
-43 91 -130 177 -219 219 -59 27 -80 32 -168 35 -78 2 -113 -1 -156 -15z"/>
<path d="M2450 3435 c-122 -34 -176 -107 -190 -253 -19 -204 -104 -329 -283
-417 -218 -107 -418 -113 -599 -18 -38 20 -88 54 -114 76 l-45 40 38 -69 c21
-38 141 -260 268 -494 l230 -425 60 -30 60 -30 2645 -3 c1455 -1 2654 0 2665
2 35 9 112 75 149 129 49 72 66 125 76 247 16 177 -8 258 -108 363 -117 122
-298 206 -685 318 -472 136 -959 215 -1592 259 -88 6 -376 15 -640 20 -399 7
-503 12 -615 29 -251 37 -460 88 -815 198 -201 63 -215 66 -330 69 -87 3 -135
0 -175 -11z"/>
</g>
</svg>
