<svg width="24" height="24" viewBox="0 0 24 24" fill="#3f7473" xmlns="http://www.w3.org/2000/svg">
<path d="M15.1505 10.8329C15.1337 11.5843 13.1609 13.2094 12.3463 13.849L12.3516 13.8487C13.2778 13.8487 14.1187 14.3196 14.6016 15.1085L15.9665 17.3366L16.7923 18.6862C18.6017 18.5844 19.8626 18.1133 19.8626 16.0013C19.8634 13.2955 17.7938 11.0741 15.1505 10.8329ZM8.95729 17.7934C9.42889 17.7934 9.88081 17.9172 10.2794 18.1454L10.1057 17.8615C9.92402 17.5666 9.80265 17.2386 9.7486 16.8965C9.69455 16.5543 9.7089 16.2049 9.79081 15.8683C9.87082 15.5313 10.0169 15.2135 10.2206 14.9334C10.4244 14.6532 10.6817 14.4163 10.9776 14.2363C11.2155 14.0914 11.4749 13.9851 11.7461 13.9212C11.0011 13.3421 8.86681 11.6146 8.84929 10.8329C6.20665 11.0741 4.13689 13.2955 4.13689 16.0018C4.13689 18.025 5.29393 18.5424 6.98185 18.6718C7.01137 18.6394 7.03873 18.6062 7.06969 18.5748C7.31701 18.3262 7.6112 18.1291 7.9352 17.995C8.25921 17.8608 8.60661 17.7923 8.95729 17.7934ZM12.0012 11.5121C14.3918 11.5121 16.3296 7.9176 16.3296 5.52744C16.3296 3.13752 14.3921 1.2 12.0012 1.2C9.61129 1.2 7.67377 3.13752 7.67377 5.52744C7.67401 7.9176 9.61153 11.5121 12.0012 11.5121Z" fill="#3f7473"/>
<path d="M15.3029 17.7432L13.938 15.5153C13.8108 15.3071 13.6438 15.1261 13.4465 14.9825C13.2493 14.8389 13.0256 14.7357 12.7884 14.6786C12.5512 14.6216 12.3051 14.6119 12.0642 14.65C11.8232 14.6882 11.5921 14.7735 11.3842 14.9011C10.9639 15.1584 10.6631 15.5721 10.5479 16.0511C10.4326 16.5302 10.5123 17.0354 10.7695 17.4557L12.1337 19.6841L13.4974 21.9122C13.6248 22.1204 13.792 22.3013 13.9894 22.4449C14.1868 22.5884 14.4105 22.6916 14.6478 22.7487C14.885 22.8057 15.1312 22.8155 15.3723 22.7774C15.6133 22.7393 15.8445 22.6541 16.0526 22.5266C16.2608 22.3992 16.4418 22.232 16.5853 22.0346C16.7288 21.8372 16.832 21.6135 16.8891 21.3762C16.9461 21.139 16.9559 20.8928 16.9178 20.6517C16.8797 20.4107 16.7945 20.1795 16.667 19.9714L15.3029 17.7432ZM11.627 15.2966C11.7831 15.2011 11.9565 15.1372 12.1372 15.1087C12.318 15.0802 12.5026 15.0876 12.6805 15.1304C12.8584 15.1732 13.0261 15.2507 13.174 15.3584C13.322 15.466 13.4473 15.6018 13.5427 15.7579L14.9069 17.9854L12.5304 19.4405L11.1662 17.2126C10.9734 16.8974 10.9137 16.5185 11.0001 16.1592C11.0865 15.8 11.312 15.4897 11.627 15.2966ZM10.032 18.9074C9.71564 18.6887 9.34001 18.5717 8.95537 18.5722C8.70731 18.5717 8.46163 18.6204 8.23248 18.7154C8.00333 18.8104 7.79526 18.9498 7.62025 19.1256C6.96337 19.782 6.89209 20.8006 7.40257 21.5374L10.032 18.9074ZM10.5305 19.4138L7.90777 22.0354C8.21849 22.2429 8.58386 22.3535 8.95753 22.3531C9.29963 22.3529 9.63526 22.2599 9.92867 22.084C10.2221 21.9081 10.4623 21.6559 10.6237 21.3543C10.7851 21.0526 10.8617 20.7129 10.8453 20.3712C10.8289 20.0295 10.7201 19.6986 10.5305 19.4138Z" fill="#3f7473"/>
</svg>
