<svg width="34" height="33" viewBox="0 0 34 33" fill="none" xmlns="http://www.w3.org/2000/svg">
<path d="M17 0.25C8.04 0.25 0.75 7.54 0.75 16.5C0.75 25.46 8.04 32.75 17 32.75C25.96 32.75 33.25 25.46 33.25 16.5C33.25 7.54 25.96 0.25 17 0.25ZM22.8833 20.6167C23.1111 20.8523 23.2373 21.168 23.2346 21.4958C23.2319 21.8235 23.1006 22.1371 22.8689 22.369C22.6373 22.6008 22.3238 22.7324 21.9961 22.7354C21.6683 22.7384 21.3525 22.6126 21.1167 22.385L17 18.2683L12.8833 22.385C12.7675 22.5013 12.6298 22.5936 12.4783 22.6566C12.3267 22.7195 12.1641 22.7519 12 22.7519C11.8359 22.7519 11.6733 22.7195 11.5217 22.6566C11.3702 22.5936 11.2325 22.5013 11.1167 22.385C11.0005 22.2689 10.9084 22.1311 10.8455 21.9794C10.7826 21.8277 10.7503 21.6651 10.7503 21.5008C10.7503 21.3366 10.7826 21.174 10.8455 21.0223C10.9084 20.8706 11.0005 20.7327 11.1167 20.6167L15.2333 16.5L11.1167 12.3833C10.8822 12.1488 10.7504 11.8308 10.7504 11.4992C10.7504 11.1675 10.8822 10.8495 11.1167 10.615C11.3512 10.3805 11.6692 10.2488 12.0008 10.2488C12.3325 10.2488 12.6505 10.3805 12.885 10.615L17.0017 14.7317L21.1183 10.615C21.3528 10.3805 21.6709 10.2488 22.0025 10.2488C22.3341 10.2488 22.6522 10.3805 22.8867 10.615C23.1212 10.8495 23.2529 11.1675 23.2529 11.4992C23.2529 11.8308 23.1212 12.1488 22.8867 12.3833L18.77 16.5L22.8867 20.6167H22.8833Z" fill="#FF2E29"/>
</svg>
