<svg width="9" height="15" viewBox="0 0 9 15" fill="none" xmlns="http://www.w3.org/2000/svg">
<path d="M0.329761 6.95372L6.3896 0.723657C6.52975 0.579447 6.71685 0.5 6.91635 0.5C7.11584 0.5 7.30294 0.579447 7.4431 0.723657L7.88936 1.18235C8.17975 1.48124 8.17975 1.96703 7.88936 2.26547L2.80077 7.4971L7.89501 12.7345C8.03516 12.8787 8.11255 13.071 8.11255 13.276C8.11255 13.4812 8.03516 13.6734 7.89501 13.8178L7.44874 14.2763C7.30847 14.4206 7.12149 14.5 6.92199 14.5C6.7225 14.5 6.5354 14.4206 6.39524 14.2763L0.329761 8.04059C0.189272 7.89592 0.112108 7.70277 0.112551 7.49744C0.112108 7.29131 0.189272 7.09827 0.329761 6.95372Z" fill="black"/>
</svg>
