<svg width="18" height="18" viewBox="0 0 18 18" fill="none" xmlns="http://www.w3.org/2000/svg">
<path d="M5.25 7.5C5.10166 7.5 4.95666 7.54399 4.83332 7.6264C4.70999 7.70881 4.61386 7.82594 4.55709 7.96299C4.50032 8.10003 4.48547 8.25083 4.51441 8.39632C4.54335 8.5418 4.61478 8.67544 4.71967 8.78033C4.82456 8.88522 4.9582 8.95665 5.10368 8.98559C5.24917 9.01453 5.39997 8.99968 5.53701 8.94291C5.67406 8.88614 5.79119 8.79001 5.8736 8.66668C5.95601 8.54334 6 8.39834 6 8.25C6 8.05109 5.92098 7.86032 5.78033 7.71967C5.63968 7.57902 5.44891 7.5 5.25 7.5ZM14.25 4.5H13.5V2.25C13.5 2.05109 13.421 1.86032 13.2803 1.71967C13.1397 1.57902 12.9489 1.5 12.75 1.5H5.25C5.05109 1.5 4.86032 1.57902 4.71967 1.71967C4.57902 1.86032 4.5 2.05109 4.5 2.25V4.5H3.75C3.15326 4.5 2.58097 4.73705 2.15901 5.15901C1.73705 5.58097 1.5 6.15326 1.5 6.75V11.25C1.5 11.8467 1.73705 12.419 2.15901 12.841C2.58097 13.2629 3.15326 13.5 3.75 13.5H4.5V15.75C4.5 15.9489 4.57902 16.1397 4.71967 16.2803C4.86032 16.421 5.05109 16.5 5.25 16.5H12.75C12.9489 16.5 13.1397 16.421 13.2803 16.2803C13.421 16.1397 13.5 15.9489 13.5 15.75V13.5H14.25C14.8467 13.5 15.419 13.2629 15.841 12.841C16.2629 12.419 16.5 11.8467 16.5 11.25V6.75C16.5 6.15326 16.2629 5.58097 15.841 5.15901C15.419 4.73705 14.8467 4.5 14.25 4.5ZM6 3H12V4.5H6V3ZM12 15H6V12H12V15ZM15 11.25C15 11.4489 14.921 11.6397 14.7803 11.7803C14.6397 11.921 14.4489 12 14.25 12H13.5V11.25C13.5 11.0511 13.421 10.8603 13.2803 10.7197C13.1397 10.579 12.9489 10.5 12.75 10.5H5.25C5.05109 10.5 4.86032 10.579 4.71967 10.7197C4.57902 10.8603 4.5 11.0511 4.5 11.25V12H3.75C3.55109 12 3.36032 11.921 3.21967 11.7803C3.07902 11.6397 3 11.4489 3 11.25V6.75C3 6.55109 3.07902 6.36032 3.21967 6.21967C3.36032 6.07902 3.55109 6 3.75 6H14.25C14.4489 6 14.6397 6.07902 14.7803 6.21967C14.921 6.36032 15 6.55109 15 6.75V11.25Z" fill="#3f7473"/>
</svg>
