<svg width="48" height="48" viewBox="0 0 48 48" fill="none" xmlns="http://www.w3.org/2000/svg">
<rect width="48" height="48" rx="12" fill="#E4EDF5"/>
<g clip-path="url(#clip0_198_4285)">
<path d="M30.7686 32.331H17.2303C16.4018 32.3313 15.6073 32.6605 15.0215 33.2463C14.4357 33.8321 14.1064 34.6266 14.1062 35.4551H33.8928C33.8928 35.0448 33.8121 34.6385 33.6551 34.2595C33.4981 33.8804 33.268 33.536 32.9779 33.2458C32.6878 32.9557 32.3433 32.7256 31.9643 32.5686C31.5852 32.4117 31.1789 32.3309 30.7686 32.331ZM24 17.7518C20.3544 17.7518 17.7518 20.3549 17.7518 24.1786V31.2422H30.2482V24.1786C30.2482 20.3549 27.6473 17.7518 24 17.7518ZM28.1677 25.5857C28.0233 25.5857 27.8848 25.5284 27.7827 25.4263C27.6807 25.3242 27.6233 25.1857 27.6233 25.0414C27.6233 23.0882 26.6641 21.2956 25.3914 20.8721C25.3235 20.8495 25.2607 20.8137 25.2066 20.7669C25.1525 20.72 25.1082 20.663 25.0761 20.599C25.0441 20.535 25.0249 20.4653 25.0198 20.3939C25.0147 20.3225 25.0237 20.2508 25.0463 20.1829C25.0689 20.115 25.1046 20.0522 25.1515 19.9981C25.1983 19.944 25.2554 19.8997 25.3194 19.8676C25.3834 19.8356 25.4531 19.8164 25.5244 19.8113C25.5958 19.8062 25.6675 19.8152 25.7354 19.8378C27.46 20.4132 28.712 22.6015 28.712 25.0414C28.712 25.1857 28.6547 25.3242 28.5526 25.4263C28.4505 25.5284 28.312 25.5857 28.1677 25.5857ZM15.6685 24.5444H12.5444C12.4 24.5444 12.2615 24.487 12.1594 24.3849C12.0574 24.2828 12 24.1444 12 24C12 23.8556 12.0574 23.7172 12.1594 23.6151C12.2615 23.513 12.4 23.4556 12.5444 23.4556H15.6685C15.8129 23.4556 15.9513 23.513 16.0534 23.6151C16.1555 23.7172 16.2128 23.8556 16.2128 24C16.2128 24.1444 16.1555 24.2828 16.0534 24.3849C15.9513 24.487 15.8129 24.5444 15.6685 24.5444ZM17.7077 18.5182C17.6362 18.5183 17.5654 18.5043 17.4993 18.4769C17.4333 18.4495 17.3733 18.4094 17.3228 18.3587L15.2401 16.2754C15.1409 16.1728 15.086 16.0353 15.0873 15.8925C15.0885 15.7498 15.1458 15.6133 15.2467 15.5123C15.3476 15.4114 15.4842 15.3542 15.6269 15.3529C15.7696 15.3517 15.9071 15.4066 16.0098 15.5057L18.0925 17.589C18.1687 17.6651 18.2205 17.7621 18.2415 17.8677C18.2625 17.9733 18.2517 18.0827 18.2105 18.1822C18.1693 18.2816 18.0995 18.3666 18.01 18.4265C17.9205 18.4863 17.8153 18.5182 17.7077 18.5182ZM24 16.2128C23.8556 16.2128 23.7172 16.1555 23.6151 16.0534C23.513 15.9513 23.4556 15.8129 23.4556 15.6685V12.5444C23.4556 12.4 23.513 12.2615 23.6151 12.1594C23.7172 12.0574 23.8556 12 24 12C24.1444 12 24.2828 12.0574 24.3849 12.1594C24.487 12.2615 24.5444 12.4 24.5444 12.5444V15.6685C24.5444 15.8129 24.487 15.9513 24.3849 16.0534C24.2828 16.1555 24.1444 16.2128 24 16.2128ZM30.4099 18.4001C30.3023 18.4001 30.197 18.3681 30.1075 18.3083C30.018 18.2485 29.9483 18.1635 29.9071 18.064C29.8659 17.9646 29.8551 17.8552 29.8761 17.7496C29.8971 17.644 29.9489 17.547 30.025 17.4709L32.1078 15.3881C32.2112 15.2926 32.3475 15.2408 32.4882 15.2436C32.629 15.2463 32.7632 15.3034 32.8627 15.4029C32.9623 15.5024 33.0195 15.6366 33.0224 15.7773C33.0252 15.918 32.9735 16.0544 32.8781 16.1579L30.7948 18.2406C30.7443 18.2912 30.6843 18.3314 30.6183 18.3588C30.5522 18.3861 30.4814 18.4002 30.4099 18.4001ZM35.4556 24.5444H32.3315C32.1871 24.5444 32.0487 24.487 31.9466 24.3849C31.8445 24.2828 31.7872 24.1444 31.7872 24C31.7872 23.8556 31.8445 23.7172 31.9466 23.6151C32.0487 23.513 32.1871 23.4556 32.3315 23.4556H35.4556C35.6 23.4556 35.7385 23.513 35.8406 23.6151C35.9426 23.7172 36 23.8556 36 24C36 24.1444 35.9426 24.2828 35.8406 24.3849C35.7385 24.487 35.6 24.5444 35.4556 24.5444Z" fill="#0056B0"/>
</g>
<defs>
<clipPath id="clip0_198_4285">
<rect width="24" height="24" fill="white" transform="translate(12 12)"/>
</clipPath>
</defs>
</svg>
