<svg width="25" height="24" viewBox="0 0 25 24" fill="none" xmlns="http://www.w3.org/2000/svg">
<path d="M9.52057 2H4.58057C3.48057 2 2.58057 2.94241 2.58057 4.09424V9.26702C2.58057 9.82244 2.79128 10.3551 3.16635 10.7479C3.54143 11.1406 4.05013 11.3613 4.58057 11.3613H9.52057C10.6306 11.3613 11.5206 10.4293 11.5206 9.26702V4.09424C11.5206 3.53881 11.3099 3.00614 10.9348 2.61339C10.5597 2.22064 10.051 2 9.52057 2ZM8.07057 6.68063C8.07057 7.25655 7.62057 7.72775 7.07057 7.72775C6.52057 7.72775 6.07057 7.25655 6.07057 6.68063C6.07057 6.10471 6.51057 5.63351 7.06057 5.63351H7.07057C7.62057 5.63351 8.07057 6.10471 8.07057 6.68063ZM15.6406 11.3613H20.5806C21.111 11.3613 21.6197 11.1406 21.9948 10.7479C22.3699 10.3551 22.5806 9.82244 22.5806 9.26702V4.09424C22.5806 2.94241 21.6806 2 20.5806 2H15.6406C15.1101 2 14.6014 2.22064 14.2264 2.61339C13.8513 3.00614 13.6406 3.53881 13.6406 4.09424V9.26702C13.6406 10.4293 14.5306 11.3613 15.6406 11.3613ZM17.1206 6.68063C17.1206 6.10471 17.5706 5.63351 18.1206 5.63351H18.1306C18.6806 5.63351 19.1306 6.10471 19.1306 6.68063C19.1306 7.25655 18.6806 7.72775 18.1306 7.72775C17.5806 7.72775 17.1206 7.25655 17.1206 6.68063ZM9.52057 12.6387H4.58057C4.05013 12.6387 3.54143 12.8594 3.16635 13.2521C2.79128 13.6449 2.58057 14.1776 2.58057 14.733V19.9058C2.58057 21.0576 3.48057 22 4.58057 22H9.52057C10.051 22 10.5597 21.7794 10.9348 21.3866C11.3099 20.9939 11.5206 20.4612 11.5206 19.9058V14.733C11.5206 13.5707 10.6306 12.6387 9.52057 12.6387ZM8.07057 17.3194C8.07057 17.8953 7.62057 18.3665 7.07057 18.3665C6.52057 18.3665 6.07057 17.8953 6.07057 17.3194C6.07057 16.7435 6.51057 16.2723 7.06057 16.2723H7.07057C7.62057 16.2723 8.07057 16.7435 8.07057 17.3194ZM22.5806 19.9058V19.4136C22.5806 19.1359 22.4752 18.8696 22.2877 18.6732C22.1001 18.4768 21.8458 18.3665 21.5806 18.3665C21.3153 18.3665 21.061 18.4768 20.8735 18.6732C20.6859 18.8696 20.5806 19.1359 20.5806 19.4136V19.9058H15.6406V14.733H16.1106C16.3758 14.733 16.6301 14.6227 16.8177 14.4263C17.0052 14.2299 17.1106 13.9636 17.1106 13.6859C17.1106 13.4082 17.0052 13.1418 16.8177 12.9454C16.6301 12.7491 16.3758 12.6387 16.1106 12.6387H15.6406C14.5186 12.6387 13.6406 13.5602 13.6406 14.733V19.9058C13.6406 21.0597 14.5376 22 15.6406 22H20.5806C21.6836 22 22.5806 21.0597 22.5806 19.9058ZM21.5806 16.2723C21.8458 16.2723 22.1001 16.1619 22.2877 15.9656C22.4752 15.7692 22.5806 15.5028 22.5806 15.2251V14.733C22.5806 13.5791 21.6836 12.6387 20.5806 12.6387H20.1106C19.8454 12.6387 19.591 12.7491 19.4035 12.9454C19.2159 13.1418 19.1106 13.4082 19.1106 13.6859C19.1106 13.9636 19.2159 14.2299 19.4035 14.4263C19.591 14.6227 19.8454 14.733 20.1106 14.733H20.5806V15.2251C20.5806 15.5028 20.6859 15.7692 20.8735 15.9656C21.061 16.1619 21.3153 16.2723 21.5806 16.2723Z" fill="#292D32"/>
<path d="M18.0843 15H18.0693C17.2419 15 16.5806 15.6705 16.5806 16.5C16.5806 17.3295 17.2584 18 18.0843 18C18.4811 18 18.8617 17.842 19.1423 17.5607C19.4229 17.2794 19.5806 16.8978 19.5806 16.5C19.5806 16.1022 19.4229 15.7206 19.1423 15.4393C18.8617 15.158 18.4811 15 18.0843 15Z" fill="#292D32"/>
</svg>
