<svg width="48" height="48" viewBox="0 0 48 48" fill="none" xmlns="http://www.w3.org/2000/svg">
<rect width="48" height="48" rx="12" fill="#FFF3ED"/>
<path d="M27.7328 33.7787V35.4582C27.7328 35.4625 27.7286 35.4667 27.7243 35.4667H20.2758C20.2715 35.4667 20.2672 35.4625 20.2672 35.4582V33.8054C21.3115 34.0406 22.6123 34.1579 23.919 34.1579C25.2768 34.1579 26.6411 34.0315 27.7328 33.7787ZM32.2192 31.9435C32.0192 32.1793 31.7003 32.3259 31.3867 32.3259H30.0576C30.071 32.2641 30.0779 32.2011 30.0784 32.1366L30.0912 30.8225L30.111 28.8075C30.1115 28.7403 30.088 28.679 30.0486 28.6321L29.639 27.3307C30.3219 26.7515 30.9114 26.0705 31.3867 25.3115L32.3952 31.3659C32.4379 31.6209 32.3227 31.8209 32.2192 31.9435ZM17.935 30.7382C17.9264 30.7649 17.9216 30.7931 17.9216 30.8225C17.9216 30.8502 17.9259 30.8769 17.9334 30.9019L17.9216 32.1313C17.9211 32.1974 17.9264 32.2625 17.9387 32.3259H16.6134C16.2998 32.3259 15.9808 32.1793 15.7808 31.9435C15.6774 31.8209 15.5622 31.6209 15.6048 31.3659L16.6134 25.3115C17.0827 26.0614 17.6688 26.743 18.3611 27.3307L17.9339 28.6865C17.912 28.7569 17.9195 28.8331 17.9531 28.8966L17.935 30.7382ZM29.5451 31.0939L29.535 32.1313C29.5339 32.2363 29.4886 32.3345 29.4192 32.423C29.3104 32.5611 29.143 32.6769 28.9931 32.7617C28.7094 32.9211 28.3456 33.0593 27.9238 33.1745C25.8038 33.7542 22.2288 33.7691 20.111 33.2145C20.0827 33.2011 20.0518 33.1926 20.0192 33.1905C19.6027 33.0758 19.2464 32.9382 18.9744 32.7771C18.8102 32.6801 18.6854 32.5793 18.6006 32.4763C18.5872 32.4502 18.5702 32.4262 18.5494 32.4059L18.5488 32.4054C18.4923 32.3174 18.464 32.2278 18.4651 32.1366L18.4752 31.0939H21.1222V31.8454C21.1222 31.9953 21.2438 32.1169 21.3936 32.1169H26.6064C26.7563 32.1169 26.8779 31.9953 26.8779 31.8454V31.0939H29.5451Z" fill="#E79153"/>
<path d="M29.5653 29.0409L29.5503 30.5513H26.6063C26.4565 30.5513 26.3343 30.6729 26.3343 30.8227V31.5737H21.6655V30.8227C21.6655 30.6729 21.5434 30.5513 21.3935 30.5513H18.4805L18.4954 29.0409H29.5653ZM29.4362 28.4974H18.5637L18.9322 27.3289L20.3893 22.7054L20.5637 22.1529C20.6207 21.9721 20.6885 21.8809 20.7663 21.8809H22.0639C21.9017 22.104 21.8145 22.3729 21.8149 22.6489C21.8149 23.3715 22.4026 23.9598 23.1253 23.9598H24.8746C25.5973 23.9598 26.185 23.3715 26.185 22.6489C26.185 22.3625 26.0927 22.0969 25.9359 21.8809H27.2335C27.3114 21.8809 27.3791 21.9726 27.4362 22.1534L28.6725 26.0745L29.0655 27.3214L29.4362 28.4974Z" fill="#E79153"/>
<path d="M24.8742 21.8809C25.2977 21.8809 25.6417 22.2254 25.6417 22.6489C25.6417 23.0718 25.2977 23.4163 24.8742 23.4163H23.1249C22.7014 23.4163 22.3574 23.0718 22.3574 22.6489C22.3574 22.2254 22.7014 21.8809 23.1249 21.8809H24.8742Z" fill="#E79153"/>
<path d="M32.1634 20.6969C32.1634 21.9977 31.8578 23.2548 31.2877 24.3812C31.2871 24.3817 31.2871 24.3823 31.2866 24.3828C31.2786 24.3961 31.2717 24.41 31.2653 24.4249C30.8167 25.2985 30.2087 26.0921 29.4599 26.7652L28.1575 22.634C28.4423 22.026 28.5863 21.3748 28.5863 20.6969C28.5863 18.1679 26.5287 16.1103 23.9997 16.1103C21.4706 16.1103 19.413 18.1684 19.413 20.6969C19.413 21.3743 19.557 22.0255 19.8418 22.6335L18.5399 26.7647C17.7901 26.0916 17.1815 25.2969 16.733 24.4228C16.733 24.4223 16.733 24.4217 16.7319 24.4212C16.7266 24.4079 16.7202 24.3951 16.7127 24.3828C16.1421 23.2559 15.8359 21.9983 15.8359 20.6969C15.8359 18.4084 16.7826 16.3369 18.3047 14.8527H29.6946C31.2167 16.3369 32.1634 18.4084 32.1634 20.6969ZM29.0775 14.3092H18.9218C20.3165 13.1977 22.0818 12.5332 23.9997 12.5332C25.9175 12.5332 27.6829 13.1977 29.0775 14.3092Z" fill="#E79153"/>
</svg>
