<?xml version="1.0" standalone="no"?>
<!DOCTYPE svg PUBLIC "-//W3C//DTD SVG 20010904//EN"
 "http://www.w3.org/TR/2001/REC-SVG-20010904/DTD/svg10.dtd">
<svg version="1.0" xmlns="http://www.w3.org/2000/svg"
 width="24" height="24" viewBox="0 0 57.000000 59.000000"
 preserveAspectRatio="xMidYMid meet">
<g transform="translate(0.000000,59.000000) scale(0.100000,-0.100000)"
fill="#3f7473" stroke="none">
<path d="M222 520 c-12 -11 -24 -31 -28 -45 -14 -55 40 -135 91 -135 34 0 73
37 85 79 11 44 6 66 -23 99 -27 29 -94 31 -125 2z m91 -1 c30 -16 37 -28 37
-70 0 -44 -32 -89 -64 -89 -27 0 -62 35 -71 70 -8 35 10 79 37 90 31 12 36 12
61 -1z"/>
<path d="M148 338 c-23 -19 -30 -48 -13 -48 8 0 15 7 15 15 0 9 12 20 26 25
20 8 31 6 51 -10 14 -11 40 -20 58 -20 18 0 44 9 58 20 20 16 31 18 51 10 14
-5 26 -16 26 -25 0 -8 5 -15 10 -15 15 0 12 27 -6 44 -19 20 -73 20 -98 1 -25
-19 -57 -19 -82 0 -24 18 -75 19 -96 3z"/>
<path d="M114 257 c-2 -7 -3 -56 -2 -108 l3 -94 170 0 170 0 0 105 0 105 -168
3 c-133 2 -168 0 -173 -11z m186 -10 c0 -8 17 -18 37 -23 24 -6 39 -16 41 -27
3 -15 -1 -18 -17 -13 -12 3 -30 9 -41 12 -11 3 -20 1 -20 -5 0 -6 17 -15 38
-21 52 -14 69 -27 56 -40 -7 -7 -19 -6 -40 5 -32 16 -54 19 -54 7 0 -4 16 -14
35 -21 19 -7 35 -19 35 -28 0 -10 -5 -13 -17 -8 -45 18 -53 18 -53 -4 0 -12
-6 -21 -15 -21 -8 0 -15 9 -15 20 0 22 -12 25 -41 10 -11 -6 -24 -8 -30 -5
-16 10 8 33 42 40 16 4 29 11 29 16 0 13 -15 11 -55 -5 -23 -10 -37 -11 -41
-4 -8 13 10 25 59 38 20 6 37 15 37 21 0 6 -9 8 -20 5 -11 -3 -29 -9 -41 -12
-16 -5 -20 -2 -17 13 2 11 17 21 41 27 20 5 37 15 37 23 0 7 7 13 15 13 8 0
15 -6 15 -13z"/>
</g>
</svg>
