<svg width="18" height="18" viewBox="0 0 18 18" fill="none" xmlns="http://www.w3.org/2000/svg">
<path d="M16.3617 10.3299L14.9134 8.28388C14.8566 8.20335 14.7844 8.13482 14.701 8.08222C14.6176 8.02962 14.5247 7.99397 14.4275 7.97733C14.3303 7.96068 14.2308 7.96335 14.1347 7.9852C14.0385 8.00704 13.9476 8.04762 13.8672 8.10463L11.8219 9.55288C11.7407 9.60946 11.6715 9.68156 11.6183 9.76502C11.5651 9.84848 11.5289 9.94165 11.5119 10.0392C11.4949 10.1367 11.4973 10.2366 11.5191 10.3331C11.5408 10.4297 11.5815 10.521 11.6387 10.6017C11.6959 10.6825 11.7685 10.7512 11.8524 10.8037C11.9363 10.8563 12.0297 10.8917 12.1273 10.908C12.225 10.9243 12.3249 10.9211 12.4213 10.8986C12.5176 10.8761 12.6086 10.8347 12.6889 10.7769L13.3737 10.2924C13.2279 10.7953 12.9959 11.269 12.6882 11.6926C12.2665 12.2757 11.712 12.7499 11.0706 13.0759C10.4291 13.402 9.71924 13.5706 8.99969 13.5676C7.66469 13.5676 6.40469 12.9871 5.54594 11.9731C5.41725 11.8215 5.23357 11.7271 5.03532 11.7109C4.83707 11.6946 4.64049 11.7578 4.48882 11.8865C4.33715 12.0152 4.24281 12.1989 4.22657 12.3971C4.21032 12.5954 4.2735 12.792 4.40219 12.9436C4.968 13.6106 5.67248 14.1462 6.46651 14.5131C7.26054 14.8799 8.12502 15.0692 8.99969 15.0676C10.9257 15.0676 12.7572 14.1376 13.8979 12.5791C14.305 12.0195 14.6125 11.3938 14.8069 10.7296L15.1369 11.1961C15.1939 11.2765 15.2661 11.345 15.3495 11.3975C15.4328 11.45 15.5257 11.4856 15.6228 11.5022C15.72 11.5188 15.8194 11.5161 15.9155 11.4943C16.0116 11.4725 16.1024 11.4319 16.1828 11.375C16.2632 11.3181 16.3317 11.2459 16.3842 11.1625C16.4367 11.0791 16.4723 10.9862 16.4889 10.8891C16.5055 10.792 16.5028 10.6926 16.481 10.5965C16.4592 10.5004 16.4186 10.4103 16.3617 10.3299ZM6.35669 7.40263C6.29987 7.32204 6.22772 7.25345 6.14436 7.20077C6.061 7.1481 5.96807 7.11238 5.87089 7.09566C5.77372 7.07894 5.6742 7.08155 5.57803 7.10334C5.48186 7.12513 5.39093 7.16566 5.31044 7.22263L4.62569 7.70788C4.77097 7.20507 5.0024 6.73129 5.30969 6.30763C5.7316 5.72446 6.28637 5.2502 6.92807 4.92413C7.56976 4.59807 8.27991 4.42958 8.99969 4.43263C10.3354 4.43263 11.5947 5.01388 12.4542 6.02713C12.5829 6.1788 12.7666 6.27313 12.9648 6.28938C13.1631 6.30562 13.3596 6.24245 13.5113 6.11375C13.663 5.98506 13.7573 5.80138 13.7736 5.60313C13.7898 5.40488 13.7266 5.2083 13.5979 5.05663C13.032 4.38955 12.3274 3.85393 11.5333 3.48709C10.7391 3.12026 9.87448 2.93104 8.99969 2.93263C8.0453 2.93491 7.10478 3.16129 6.25387 3.59352C5.40296 4.02575 4.66544 4.65175 4.10069 5.42113C3.69379 5.98106 3.38654 6.60698 3.19244 7.27138L2.86244 6.80413C2.80556 6.72371 2.7334 6.65528 2.65008 6.60275C2.56675 6.55022 2.4739 6.51462 2.37682 6.49797C2.27973 6.48133 2.18032 6.48397 2.08426 6.50574C1.98819 6.52752 1.89736 6.568 1.81694 6.62488C1.73652 6.68176 1.6681 6.75392 1.61557 6.83724C1.56304 6.92057 1.52743 7.01342 1.51079 7.1105C1.49414 7.20759 1.49678 7.307 1.51856 7.40306C1.54033 7.49913 1.58081 7.58996 1.63769 7.67038L3.08519 9.71638C3.14201 9.79697 3.21417 9.86556 3.29753 9.91823C3.38088 9.9709 3.47381 10.0066 3.57099 10.0233C3.66817 10.0401 3.76769 10.0375 3.86386 10.0157C3.96003 9.99388 4.05096 9.95334 4.13144 9.89638L6.17744 8.44738C6.25787 8.3905 6.3263 8.31835 6.37884 8.23502C6.43137 8.1517 6.46698 8.05884 6.48363 7.96176C6.50027 7.86467 6.49763 7.76526 6.47585 7.66919C6.45407 7.57313 6.41358 7.48304 6.35669 7.40263Z" fill="white"/>
</svg>
