<?xml version="1.0" standalone="no"?>
<!DOCTYPE svg PUBLIC "-//W3C//DTD SVG 20010904//EN"
 "http://www.w3.org/TR/2001/REC-SVG-20010904/DTD/svg10.dtd">
<svg version="1.0" xmlns="http://www.w3.org/2000/svg"
 width="24" height="24" viewBox="0 0 1024.000000 1024.000000"
 preserveAspectRatio="xMidYMid meet">

<g transform="translate(0.000000,1024.000000) scale(0.100000,-0.100000)"
fill="#3f7473" stroke="none">
<path d="M5000 10233 c-1492 -30 -2918 -733 -3859 -1903 -588 -731 -956 -1577
-1087 -2500 -57 -408 -61 -922 -8 -1350 166 -1348 884 -2595 1974 -3427 1254
-956 2876 -1279 4410 -877 1937 508 3420 2144 3739 4124 48 302 56 407 56 820
0 431 -8 530 -65 870 -203 1192 -835 2284 -1774 3064 -951 791 -2138 1204
-3386 1179z m3115 -2267 c373 -144 529 -564 342 -921 -47 -90 -174 -212 -267
-257 -104 -51 -180 -68 -297 -68 -145 0 -252 33 -369 112 l-51 35 -125 -86
c-621 -429 -699 -485 -692 -500 15 -34 33 -149 33 -206 1 -277 -200 -540 -469
-614 -91 -26 -247 -28 -335 -6 -148 38 -298 146 -383 277 -56 87 -93 202 -100
310 l-5 86 -176 61 c-97 34 -245 85 -329 115 l-154 53 -86 -86 c-146 -145
-276 -196 -481 -189 -136 5 -223 31 -322 97 -34 22 -65 41 -71 41 -8 0 -787
-538 -812 -560 -4 -5 -1 -40 8 -78 77 -339 -133 -681 -469 -767 -78 -20 -240
-19 -319 1 -217 55 -405 240 -461 454 -92 349 117 707 465 796 49 12 94 15
185 12 105 -4 130 -9 201 -37 45 -17 107 -50 138 -72 l56 -40 258 179 c493
343 557 390 554 404 -36 142 -38 279 -6 388 62 211 249 392 459 445 77 19 243
19 320 0 167 -43 335 -175 409 -324 46 -91 76 -204 76 -286 l0 -63 148 -51
c81 -28 230 -80 330 -115 l184 -63 86 86 c146 145 277 196 481 189 140 -5 220
-30 326 -98 l71 -47 410 284 410 285 -19 71 c-24 95 -19 252 13 347 54 163
174 302 325 375 112 55 162 65 310 62 113 -3 139 -7 200 -31z m303 -1905 c43
-22 72 -52 98 -101 18 -34 19 -96 19 -1800 l0 -1765 -22 -40 c-24 -46 -55 -76
-100 -99 -28 -14 -90 -16 -517 -16 -317 0 -494 4 -513 11 -40 15 -92 67 -114
114 -18 38 -19 107 -19 1793 0 1936 -5 1789 63 1861 59 62 46 60 580 61 460 0
490 -1 525 -19z m-3715 -630 c40 -16 99 -73 118 -116 18 -38 19 -109 19 -1473
0 -1273 -2 -1437 -16 -1470 -19 -47 -58 -88 -106 -113 -35 -18 -65 -19 -523
-19 -461 0 -488 1 -524 19 -50 26 -97 81 -110 128 -15 53 -15 2853 0 2906 12
46 60 102 108 127 34 18 64 19 523 20 278 0 497 -4 511 -9z m1866 -651 c48
-24 98 -83 111 -130 14 -50 13 -2213 -1 -2263 -13 -47 -60 -102 -110 -128 -36
-18 -63 -19 -523 -19 -276 0 -495 4 -509 9 -40 16 -99 73 -118 116 -18 38 -19
98 -19 1155 0 1064 1 1117 19 1155 20 44 59 84 106 108 26 14 93 16 518 17
466 0 490 -1 526 -20z m-3703 -636 c45 -22 83 -61 105 -109 18 -38 19 -85 19
-835 0 -750 -1 -797 -19 -835 -22 -49 -65 -93 -108 -111 -26 -11 -131 -14
-518 -14 -464 0 -488 1 -524 20 -48 24 -95 79 -110 129 -16 54 -16 1568 0
1622 15 49 61 104 107 129 35 18 62 19 525 20 427 0 493 -2 523 -16z"/>
<path d="M7850 7669 c-99 -15 -189 -80 -238 -174 -23 -43 -27 -62 -27 -135 0
-73 4 -92 27 -136 35 -67 115 -138 178 -159 109 -36 227 -13 309 61 73 66 106
139 105 234 0 90 -23 147 -82 212 -69 75 -173 112 -272 97z"/>
<path d="M4150 7029 c-68 -10 -115 -33 -169 -84 -67 -63 -95 -129 -95 -225 -1
-55 5 -87 20 -121 93 -201 338 -255 498 -108 131 120 140 311 19 441 -72 77
-172 112 -273 97z"/>
<path d="M6000 6389 c-99 -15 -190 -81 -238 -174 -22 -42 -26 -63 -26 -135 -1
-73 3 -92 26 -136 35 -67 115 -138 178 -159 109 -36 227 -13 309 61 73 66 106
139 106 234 0 89 -23 146 -83 212 -69 75 -173 112 -272 97z"/>
<path d="M2299 5749 c-100 -15 -198 -91 -242 -188 -29 -64 -29 -178 0 -243 90
-200 353 -253 505 -103 70 69 92 123 93 225 0 73 -4 92 -27 135 -31 59 -104
130 -155 152 -52 21 -120 30 -174 22z"/>
</g>
</svg>
