<?xml version="1.0" standalone="no"?>
<!DOCTYPE svg PUBLIC "-//W3C//DTD SVG 20010904//EN"
 "http://www.w3.org/TR/2001/REC-SVG-20010904/DTD/svg10.dtd">
<svg version="1.0" xmlns="http://www.w3.org/2000/svg"
 width="100%" height="100%" viewBox="0 0 200.000000 200.000000"
 preserveAspectRatio="xMidYMid meet">


 
<g transform="translate(0.000000,200.000000) scale(0.100000,-0.100000)"
fill="#3f7473" stroke="none">
<path d="M723 1578 l-223 -222 0 -126 0 -125 128 -128 c70 -70 132 -124 137
-120 4 4 5 3 2 -3 -8 -14 66 -87 78 -77 4 5 5 3 2 -3 -8 -13 146 -167 157
-157 4 4 6 1 4 -7 -2 -9 3 -14 12 -12 8 2 12 0 7 -4 -4 -4 15 -31 43 -59 l50
-51 -65 -64 -65 -65 -186 185 c-167 167 -186 183 -198 168 -7 -10 -16 -18 -20
-18 -4 0 -24 -19 -46 -42 l-39 -42 41 -38 c22 -21 45 -35 51 -31 6 3 7 1 3 -6
-10 -15 141 -164 156 -155 7 5 8 3 3 -5 -8 -14 62 -84 76 -75 5 3 6 -1 3 -9
-5 -13 43 -54 58 -49 4 1 4 -6 1 -15 -5 -13 -2 -15 11 -10 10 4 15 3 11 -3 -4
-6 12 -29 35 -52 l41 -42 244 244 244 244 3 123 3 123 -187 187 -187 187 -21
-27 c-12 -15 -28 -33 -35 -41 -8 -7 -11 -17 -7 -20 3 -4 0 -5 -8 -1 -9 3 -20
-3 -27 -13 -10 -17 10 -40 168 -198 98 -98 179 -183 179 -189 0 -6 -27 -37
-60 -70 l-60 -59 -32 29 c-55 52 -583 585 -586 593 -1 4 81 90 183 192 l185
185 250 -250 250 -250 0 120 0 120 -228 227 -227 228 -45 0 -44 0 -223 -222z"/>
</g>
</svg>
