<?xml version="1.0" standalone="no"?>
<!DOCTYPE svg PUBLIC "-//W3C//DTD SVG 20010904//EN"
 "http://www.w3.org/TR/2001/REC-SVG-20010904/DTD/svg10.dtd">
<svg version="1.0" xmlns="http://www.w3.org/2000/svg"
 width="24" height="24" viewBox="0 0 512.000000 512.000000"
 preserveAspectRatio="xMidYMid meet" >

 




<g transform="translate(0.000000,512.000000) scale(0.100000,-0.100000)"
fill="#3f7473" stroke="none">
<path d="M1577 5080 c-435 -54 -846 -271 -1127 -593 -204 -233 -348 -521 -409
-814 -80 -387 -33 -770 139 -1130 308 -645 959 -1037 1675 -1010 342 13 647
112 929 302 l93 63 284 -284 283 -283 -52 -55 c-55 -57 -61 -79 -38 -124 8
-15 249 -260 535 -545 597 -593 570 -572 726 -572 131 0 168 21 331 187 138
141 155 168 170 279 7 52 -16 156 -46 204 -11 17 -258 270 -550 561 -609 607
-561 572 -653 485 l-53 -50 -287 287 -288 288 46 69 c63 95 146 268 189 391
225 656 46 1382 -460 1864 -259 247 -559 397 -929 467 -94 17 -409 26 -508 13z
m363 -150 c394 -41 715 -194 996 -474 143 -144 227 -260 312 -431 345 -693
143 -1540 -479 -2009 -215 -163 -448 -264 -719 -312 -117 -21 -381 -24 -495
-5 -542 87 -989 411 -1224 886 -72 146 -100 224 -137 380 -27 113 -28 133 -28
345 0 212 1 232 28 345 49 210 122 381 233 550 332 501 926 786 1513 725z
m1485 -3060 l280 -280 -75 -75 -75 -75 -280 280 -279 279 69 74 c39 41 72 75
75 76 3 0 131 -125 285 -279z m1022 -742 c264 -266 488 -497 497 -515 22 -44
20 -118 -4 -169 -11 -23 -64 -84 -118 -136 -133 -130 -194 -151 -294 -104 -18
9 -251 234 -518 501 l-485 485 210 210 c115 115 214 210 220 210 6 0 227 -217
492 -482z"/>
<path d="M1658 4749 c-322 -27 -633 -169 -872 -398 -216 -209 -354 -456 -418
-754 -31 -147 -31 -427 0 -574 138 -641 668 -1106 1312 -1152 533 -37 1023
205 1318 653 227 344 293 788 178 1188 -192 661 -827 1095 -1518 1037z m322
-163 c145 -23 246 -56 378 -122 143 -71 234 -135 338 -239 401 -398 497 -1005
237 -1508 -178 -344 -504 -590 -896 -674 -116 -25 -389 -25 -507 1 -261 56
-466 169 -656 360 -62 62 -134 146 -163 191 -225 344 -277 750 -146 1135 149
438 549 777 1006 854 110 18 303 19 409 2z"/>
<path d="M913 3888 c-32 -36 -81 -128 -113 -215 -84 -232 -81 -517 9 -748 35
-92 123 -240 151 -255 44 -23 99 0 115 50 7 22 2 33 -68 153 -82 142 -124 320
-114 487 8 130 38 236 99 359 54 107 60 141 31 173 -24 26 -84 24 -110 -4z"/>
</g>
</svg>
