<svg width="18" height="17" viewBox="0 0 18 17" fill="none" xmlns="http://www.w3.org/2000/svg">
<path d="M7.9559 11.8363L2.86015 6.01163C2.25878 5.32631 2.74753 4.25 3.66021 4.25H13.8517C14.056 4.24983 14.256 4.30853 14.4277 4.41909C14.5995 4.52964 14.7357 4.68736 14.8201 4.87336C14.9045 5.05936 14.9336 5.26575 14.9037 5.46781C14.8739 5.66988 14.7864 5.85906 14.6518 6.01269L9.55603 11.8352C9.4563 11.9493 9.33331 12.0408 9.19532 12.1034C9.05732 12.1661 8.90752 12.1985 8.75596 12.1985C8.60441 12.1985 8.4546 12.1661 8.31661 12.1034C8.17862 12.0408 8.05563 11.9493 7.9559 11.8352V11.8363Z" fill="#7A7F84"/>
</svg>
