<svg width="20" height="14" viewBox="0 0 20 14" fill="none" xmlns="http://www.w3.org/2000/svg">
<path d="M14.7437 6.1625C15.1187 6.9125 15.3125 7.71875 15.3125 8.5625C15.3125 11.4938 12.9312 13.875 9.99998 13.875C7.06873 13.875 4.68748 11.4938 4.68748 8.5625C4.68748 5.63125 7.06873 3.25 9.99998 3.25C10.0437 3.25 10.15 3.25 10.2625 3.2875C10.475 3.35625 10.6312 3.5375 10.675 3.75625C10.9375 5.0125 12.0562 5.93125 13.3437 5.93125C13.5812 5.93125 13.8125 5.9 14.0125 5.84375C14.3062 5.7625 14.6062 5.9 14.7437 6.1625ZM9.99998 0.125C5.72498 0.125 1.34373 3.875 0.631235 8.14375C0.574985 8.48125 0.806235 8.80625 1.14373 8.8625C1.48123 8.91875 1.80623 8.6875 1.86248 8.35C2.41873 5.05625 6.01248 1.375 9.99998 1.375C13.9875 1.375 17.5812 5.05625 18.1312 8.35C18.1812 8.65625 18.45 8.875 18.75 8.875C18.7812 8.875 18.8187 8.875 18.8562 8.86875C19.1937 8.8125 19.425 8.4875 19.3687 8.15C18.6562 3.875 14.275 0.125 9.99998 0.125Z" fill="#323C47"/>
</svg>
