<svg width="21" height="20" viewBox="0 0 21 20" fill="none" xmlns="http://www.w3.org/2000/svg">
<path d="M6.69377 9.45372L12.7536 3.22366C12.8938 3.07945 13.0809 3 13.2804 3C13.4799 3 13.667 3.07945 13.8071 3.22366L14.2534 3.68235C14.5438 3.98124 14.5438 4.46703 14.2534 4.76547L9.16478 9.9971L14.259 15.2345C14.3992 15.3787 14.4766 15.571 14.4766 15.776C14.4766 15.9812 14.3992 16.1734 14.259 16.3178L13.8128 16.7763C13.6725 16.9206 13.4855 17 13.286 17C13.0865 17 12.8994 16.9206 12.7593 16.7763L6.69377 10.5406C6.55329 10.3959 6.47612 10.2028 6.47656 9.99744C6.47612 9.79131 6.55329 9.59827 6.69377 9.45372Z" fill="black"/>
</svg>
