<svg width="20" height="20" viewBox="0 0 20 20" fill="none" xmlns="http://www.w3.org/2000/svg">
<path d="M13.6695 9.45372L7.60967 3.22366C7.46951 3.07945 7.28242 3 7.08292 3C6.88342 3 6.69633 3.07945 6.55617 3.22366L6.10991 3.68235C5.81952 3.98124 5.81952 4.46703 6.10991 4.76547L11.1985 9.9971L6.10426 15.2345C5.9641 15.3787 5.88672 15.571 5.88672 15.776C5.88672 15.9812 5.9641 16.1734 6.10426 16.3178L6.55053 16.7763C6.69079 16.9206 6.87778 17 7.07728 17C7.27677 17 7.46387 16.9206 7.60402 16.7763L13.6695 10.5406C13.81 10.3959 13.8872 10.2028 13.8867 9.99744C13.8872 9.79131 13.81 9.59827 13.6695 9.45372Z" fill="black"/>
</svg>
