<svg width="24" height="24" viewBox="0 0 24 24" fill="none" xmlns="http://www.w3.org/2000/svg">
<path d="M12.5 22C17.7454 22 22 17.7454 22 12.5C22 7.25463 17.7454 3 12.5 3C7.25463 3 3 7.25463 3 12.5C3 17.7454 7.25463 22 12.5 22ZM11.8214 7.07144C11.8214 6.69821 12.1268 6.39285 12.5 6.39285C12.8732 6.39285 13.1786 6.69821 13.1786 7.07144V12.1743L16.317 14.685C16.6088 14.9191 16.6563 15.3466 16.4221 15.6384C16.3588 15.7179 16.2783 15.7821 16.1866 15.8262C16.095 15.8703 15.9945 15.8931 15.8928 15.8928C15.7436 15.8928 15.5943 15.8453 15.4688 15.7436L12.0759 13.0293C11.9165 12.9004 11.8215 12.707 11.8215 12.5V7.07144H11.8214Z" fill="#293A4A"/>
</svg>
