<svg version="1.2" xmlns="http://www.w3.org/2000/svg" viewBox="0 0 16 16" width="16" height="16"><style>.a{fill:#e71d36}</style><path class="a" d="m14.8 2.9q-1.8-0.2-3.6-0.3l-0.2-0.9c-0.1-0.7-0.3-1.8-2-1.8h-2c-1.7 0-1.9 1-2 1.8l-0.2 0.9q-1 0.1-2.1 0.2l-1.5 0.1c-0.3 0.1-0.5 0.3-0.5 0.6 0 0.3 0.3 0.6 0.6 0.5l1.5-0.1c4-0.4 7.9-0.2 11.9 0.1q0 0 0.1 0c0.2 0 0.5-0.2 0.5-0.5 0-0.3-0.2-0.5-0.5-0.6z"/><path fill-rule="evenodd" class="a" d="m13.7 5.8l-0.5 7.7c-0.1 1.2-0.2 2.6-2.8 2.6h-4.8c-2.6 0-2.7-1.5-2.8-2.6l-0.5-7.7c0-0.3 0.1-0.5 0.3-0.7 0.2-0.2 0.4-0.3 0.7-0.3h9.4c0.3 0 0.5 0.1 0.7 0.3 0.2 0.2 0.3 0.4 0.3 0.7zm-3.9 6c0-0.4-0.2-0.6-0.6-0.6h-2.5c-0.3 0-0.5 0.2-0.5 0.6 0 0.3 0.2 0.5 0.5 0.5h2.5c0.4 0 0.6-0.2 0.6-0.5zm0.6-3c0-0.4-0.2-0.6-0.5-0.6h-3.8c-0.3 0-0.5 0.2-0.5 0.6 0 0.3 0.2 0.5 0.5 0.5h3.8c0.3 0 0.5-0.2 0.5-0.5z"/></svg>