<svg width="30" height="30" viewBox="0 0 30 30" fill="none" xmlns="http://www.w3.org/2000/svg">
<path fill-rule="evenodd" clip-rule="evenodd" d="M6.47637 19.5788C6.36211 19.3475 6.07934 19.2511 5.84684 19.3623L4.92188 19.8047C4.92188 19.8047 7.55859 26.0742 14.9414 26.3672C21.9727 26.1914 26.2649 20.6688 26.3086 15.0586C26.3523 9.44836 21.9727 3.86719 15.1172 3.80859C8.37891 3.69141 5.79422 9.0825 5.79422 9.0825C5.66848 9.30867 5.56641 9.28148 5.56641 9.02379V6.0934C5.56631 5.96914 5.51689 5.85 5.42899 5.76217C5.34109 5.67434 5.22192 5.625 5.09766 5.625H4.33594C4.07707 5.625 3.86719 5.83594 3.86719 6.09469V11.835C3.86703 11.8966 3.87904 11.9577 3.90251 12.0147C3.92599 12.0716 3.96048 12.1234 4.004 12.167C4.04752 12.2107 4.09922 12.2453 4.15614 12.2689C4.21306 12.2925 4.27408 12.3047 4.3357 12.3047H10.2541C10.3156 12.3047 10.3765 12.2927 10.4334 12.2692C10.4902 12.2457 10.5418 12.2112 10.5853 12.1678C10.6288 12.1243 10.6634 12.0727 10.6869 12.0159C10.7105 11.9591 10.7226 11.8982 10.7227 11.8368V11.132C10.7227 10.8736 10.5129 10.6609 10.253 10.657L7.26656 10.6125C7.00711 10.6086 6.88887 10.4157 7.01086 10.1873C7.01086 10.1873 9.14063 5.27344 15.0586 5.33203C20.8008 5.39062 24.756 10.2456 24.7266 15.087C24.375 21.5625 19.4531 24.7266 14.9414 24.6094C8.55469 24.6094 6.47637 19.5788 6.47637 19.5788Z" fill="#3f7473"/>
</svg>
