<svg width="15" height="15" viewBox="0 0 15 15" fill="none" xmlns="http://www.w3.org/2000/svg">
<path d="M11.25 0.882812H3.75C3.25272 0.882813 2.77581 1.08036 2.42417 1.43199C2.07254 1.78362 1.875 2.26053 1.875 2.75781V12.2428C1.875 12.7401 2.07254 13.217 2.42417 13.5686C2.77581 13.9203 3.25272 14.1178 3.75 14.1178H11.25C11.7473 14.1178 12.2242 13.9203 12.5758 13.5686C12.9275 13.217 13.125 12.7401 13.125 12.2428V2.75781C13.125 2.26053 12.9275 1.78362 12.5758 1.43199C12.2242 1.08036 11.7473 0.882813 11.25 0.882812ZM6.25 3.12531H8.75C8.91576 3.12531 9.07473 3.19116 9.19194 3.30837C9.30915 3.42558 9.375 3.58455 9.375 3.75031C9.375 3.91607 9.30915 4.07504 9.19194 4.19225C9.07473 4.30946 8.91576 4.37531 8.75 4.37531H6.25C6.08424 4.37531 5.92527 4.30946 5.80806 4.19225C5.69085 4.07504 5.625 3.91607 5.625 3.75031C5.625 3.58455 5.69085 3.42558 5.80806 3.30837C5.92527 3.19116 6.08424 3.12531 6.25 3.12531ZM4.375 11.8753C4.25139 11.8753 4.13055 11.8387 4.02777 11.77C3.92499 11.7013 3.84488 11.6037 3.79758 11.4895C3.75027 11.3753 3.73789 11.2496 3.76201 11.1284C3.78612 11.0071 3.84565 10.8958 3.93306 10.8084C4.02047 10.721 4.13183 10.6614 4.25307 10.6373C4.37431 10.6132 4.49997 10.6256 4.61418 10.6729C4.72838 10.7202 4.82599 10.8003 4.89467 10.9031C4.96334 11.0059 5 11.1267 5 11.2503C5 11.4161 4.93415 11.575 4.81694 11.6923C4.69973 11.8095 4.54076 11.8753 4.375 11.8753ZM4.375 9.37531C4.25139 9.37531 4.13055 9.33866 4.02777 9.26998C3.92499 9.20131 3.84488 9.10369 3.79758 8.98949C3.75027 8.87529 3.73789 8.74962 3.76201 8.62838C3.78612 8.50714 3.84565 8.39578 3.93306 8.30837C4.02047 8.22096 4.13183 8.16144 4.25307 8.13732C4.37431 8.11321 4.49997 8.12558 4.61418 8.17289C4.72838 8.22019 4.82599 8.3003 4.89467 8.40308C4.96334 8.50586 5 8.6267 5 8.75031C5 8.91607 4.93415 9.07504 4.81694 9.19225C4.69973 9.30946 4.54076 9.37531 4.375 9.37531ZM4.375 6.87531C4.25139 6.87531 4.13055 6.83866 4.02777 6.76998C3.92499 6.70131 3.84488 6.60369 3.79758 6.48949C3.75027 6.37529 3.73789 6.24962 3.76201 6.12838C3.78612 6.00714 3.84565 5.89578 3.93306 5.80837C4.02047 5.72096 4.13183 5.66144 4.25307 5.63732C4.37431 5.61321 4.49997 5.62558 4.61418 5.67289C4.72838 5.72019 4.82599 5.8003 4.89467 5.90308C4.96334 6.00586 5 6.1267 5 6.25031C5 6.41607 4.93415 6.57504 4.81694 6.69225C4.69973 6.80946 4.54076 6.87531 4.375 6.87531ZM4.375 4.37531C4.25139 4.37531 4.13055 4.33866 4.02777 4.26998C3.92499 4.20131 3.84488 4.10369 3.79758 3.98949C3.75027 3.87529 3.73789 3.74962 3.76201 3.62838C3.78612 3.50714 3.84565 3.39578 3.93306 3.30837C4.02047 3.22096 4.13183 3.16144 4.25307 3.13732C4.37431 3.11321 4.49997 3.12558 4.61418 3.17289C4.72838 3.22019 4.82599 3.3003 4.89467 3.40308C4.96334 3.50586 5 3.6267 5 3.75031C5 3.91607 4.93415 4.07504 4.81694 4.19225C4.69973 4.30946 4.54076 4.37531 4.375 4.37531ZM10.625 11.8753H6.25C6.08424 11.8753 5.92527 11.8095 5.80806 11.6923C5.69085 11.575 5.625 11.4161 5.625 11.2503C5.625 11.0846 5.69085 10.9256 5.80806 10.8084C5.92527 10.6912 6.08424 10.6253 6.25 10.6253H10.625C10.7908 10.6253 10.9497 10.6912 11.0669 10.8084C11.1842 10.9256 11.25 11.0846 11.25 11.2503C11.25 11.4161 11.1842 11.575 11.0669 11.6923C10.9497 11.8095 10.7908 11.8753 10.625 11.8753ZM10.625 9.37531H6.25C6.08424 9.37531 5.92527 9.30946 5.80806 9.19225C5.69085 9.07504 5.625 8.91607 5.625 8.75031C5.625 8.58455 5.69085 8.42558 5.80806 8.30837C5.92527 8.19116 6.08424 8.12531 6.25 8.12531H10.625C10.7908 8.12531 10.9497 8.19116 11.0669 8.30837C11.1842 8.42558 11.25 8.58455 11.25 8.75031C11.25 8.91607 11.1842 9.07504 11.0669 9.19225C10.9497 9.30946 10.7908 9.37531 10.625 9.37531ZM10.625 6.87531H6.25C6.08424 6.87531 5.92527 6.80946 5.80806 6.69225C5.69085 6.57504 5.625 6.41607 5.625 6.25031C5.625 6.08455 5.69085 5.92558 5.80806 5.80837C5.92527 5.69116 6.08424 5.62531 6.25 5.62531H10.625C10.7908 5.62531 10.9497 5.69116 11.0669 5.80837C11.1842 5.92558 11.25 6.08455 11.25 6.25031C11.25 6.41607 11.1842 6.57504 11.0669 6.69225C10.9497 6.80946 10.7908 6.87531 10.625 6.87531Z" fill="white"/>
</svg>
