<svg width="18" height="18" viewBox="0 0 18 18" fill="none" xmlns="http://www.w3.org/2000/svg">
<path d="M14.25 6.75C14.25 3.8475 11.9025 1.5 9 1.5C6.0975 1.5 3.75 3.8475 3.75 6.75C3.75 9.465 5.805 11.6925 8.4375 11.97V13.6875H6.75C6.4425 13.6875 6.1875 13.9425 6.1875 14.25C6.1875 14.5575 6.4425 14.8125 6.75 14.8125H8.4375V16.5C8.4375 16.8075 8.6925 17.0625 9 17.0625C9.3075 17.0625 9.5625 16.8075 9.5625 16.5V14.8125H11.25C11.5575 14.8125 11.8125 14.5575 11.8125 14.25C11.8125 13.9425 11.5575 13.6875 11.25 13.6875H9.5625V11.97C12.195 11.6925 14.25 9.465 14.25 6.75Z" fill="#292D32"/>
</svg>
