<?xml version="1.0" standalone="no"?>
<!DOCTYPE svg PUBLIC "-//W3C//DTD SVG 20010904//EN"
 "http://www.w3.org/TR/2001/REC-SVG-20010904/DTD/svg10.dtd">
<svg version="1.0" xmlns="http://www.w3.org/2000/svg"
 width="24" height="24" viewBox="0 0 500.000000 500.000000"
 preserveAspectRatio="xMidYMid meet">

<g transform="translate(0.000000,500.000000) scale(0.100000,-0.100000)"
fill="#3f7473" stroke="none">
<path d="M2210 4480 c-371 -57 -687 -196 -970 -425 -723 -586 -948 -1599 -539
-2430 424 -864 1390 -1305 2319 -1058 562 150 1035 545 1289 1078 62 129 88
203 127 352 94 366 83 769 -30 1113 -47 144 -60 176 -117 286 -300 589 -844
985 -1491 1083 -174 27 -421 27 -588 1z m234 -330 c61 -21 106 -46 145 -79 13
-11 29 -18 35 -14 6 3 8 3 4 -1 -4 -5 12 -36 36 -69 60 -89 79 -157 74 -270
-3 -77 -9 -103 -35 -159 -82 -175 -272 -278 -459 -248 -141 23 -258 109 -321
238 -34 68 -38 85 -41 168 -5 114 12 178 69 263 50 75 127 135 212 167 82 30
200 32 281 4z m955 -613 c119 -79 136 -239 37 -339 -82 -81 -221 -81 -303 1
-107 106 -75 287 62 353 59 28 149 21 204 -15z m420 -233 c69 -36 135 -74 146
-85 19 -19 19 -19 -9 -76 -89 -184 -409 -772 -423 -777 -9 -4 -65 19 -137 57
-66 35 -128 62 -136 59 -8 -3 -12 -1 -8 3 4 4 1 14 -7 22 -24 23 -18 50 32
142 80 149 98 183 168 316 205 390 213 404 239 405 5 0 66 -30 135 -66z m-510
-212 c14 -10 36 -36 49 -58 19 -32 22 -51 20 -105 -3 -55 -9 -76 -38 -122 -62
-99 -146 -188 -277 -294 -21 -17 -22 -24 -16 -95 l6 -78 39 0 39 0 -3 52 c-2
40 -7 54 -20 56 -12 2 -19 -8 -27 -40 l-11 -43 5 39 c5 49 19 65 43 50 12 -8
18 -27 20 -63 2 -28 7 -51 13 -51 12 0 12 117 -1 125 -5 3 -10 11 -10 18 0 6
7 2 15 -9 8 -11 14 -42 15 -76 l0 -57 80 0 c77 0 109 13 53 22 l-28 4 28 2
c16 0 30 -5 33 -14 5 -13 43 -15 258 -15 183 0 255 -3 264 -12 17 -17 17 -349
0 -366 -9 -9 -305 -12 -1269 -12 l-1258 0 -15 22 c-13 18 -16 51 -16 155 l0
132 -30 21 -30 21 0 -289 c0 -238 3 -295 15 -318 47 -90 -13 -202 -113 -212
-96 -9 -162 50 -162 144 0 79 58 144 128 144 l32 0 0 495 0 495 25 12 c19 8
31 8 50 0 23 -11 25 -16 25 -86 l0 -75 63 38 c140 84 296 134 491 159 109 13
151 14 285 4 192 -14 253 -7 501 54 158 40 201 47 293 48 123 1 98 -13 206
116 73 87 164 111 230 62z m683 -124 c2 -2 6 -289 9 -638 4 -349 10 -663 14
-698 l7 -64 -47 -45 c-47 -45 -48 -45 -107 -41 -52 4 -63 9 -95 40 -84 84 -36
232 80 247 l42 6 3 585 c1 322 4 591 7 598 4 10 79 18 87 10z m-868 -477 c4
-5 -3 -7 -14 -4 -23 6 -26 13 -6 13 8 0 17 -4 20 -9z m-54 -11 c0 -5 -2 -10
-4 -10 -3 0 -8 5 -11 10 -3 6 -1 10 4 10 6 0 11 -4 11 -10z m160 -36 c-7 -17
-7 -38 -1 -60 5 -19 6 -32 1 -29 -15 9 -21 61 -11 88 6 15 13 27 16 27 2 0 0
-12 -5 -26z m80 7 c0 -5 -7 -14 -15 -21 -8 -7 -15 -16 -15 -21 0 -15 30 -10
36 6 4 8 11 15 17 15 5 0 2 -9 -8 -20 -10 -11 -24 -20 -31 -20 -23 0 -26 21
-7 42 18 20 18 20 -2 17 -13 -3 -22 -15 -26 -34 -6 -28 -7 -28 -8 -4 0 14 4
30 11 37 14 14 48 16 48 3z m362 -741 c3 -17 2 -32 0 -35 -3 -3 -538 -5 -1189
-5 l-1183 0 0 28 c0 16 3 32 7 35 3 4 536 7 1184 7 l1177 0 4 -30z"/>
<path d="M2238 3918 l-3 -103 -102 -3 -103 -3 0 -69 0 -70 105 0 105 0 0 -107
0 -108 70 0 69 0 3 109 3 109 103 -2 102 -2 0 70 0 70 -102 3 -103 3 -3 103
-3 102 -69 0 -69 0 -3 -102z"/>
<path d="M3146 3019 c-14 -11 -31 -30 -37 -42 -6 -13 1 -8 17 11 17 20 44 37
64 42 30 7 31 8 9 9 -15 1 -38 -8 -53 -20z"/>
<path d="M3251 3004 c13 -17 26 -30 28 -27 3 2 -8 16 -24 31 l-28 27 24 -31z"/>
<path d="M3075 2930 c-10 -11 -16 -22 -14 -24 2 -2 12 7 22 20 22 29 17 32 -8
4z"/>
<path d="M3271 2934 c-1 -21 -44 -91 -78 -129 -10 -11 -24 -29 -32 -40 -7 -11
6 0 28 25 54 58 94 125 88 147 -4 15 -5 14 -6 -3z"/>
<path d="M3009 2869 c-36 -30 -38 -31 -91 -20 -56 12 -132 5 -247 -22 l-55
-13 102 -14 c90 -12 108 -11 169 4 62 15 163 70 163 89 0 10 -1 10 -41 -24z"/>
<path d="M2495 2782 c-96 -24 -113 -26 -395 -27 -310 -1 -364 -7 -516 -51
-111 -32 -280 -113 -317 -152 -30 -32 -45 -91 -33 -136 3 -14 20 -41 37 -61
35 -39 98 -63 244 -89 112 -21 180 -42 197 -63 7 -9 15 -39 18 -67 l5 -51 37
2 c50 3 161 60 234 121 109 91 99 88 404 83 136 -3 183 0 265 17 55 12 122 24
148 28 41 5 48 9 44 25 -3 11 -1 19 4 19 5 0 9 -9 9 -20 0 -16 7 -20 35 -20
l35 0 0 54 c0 30 3 57 8 59 4 3 5 -20 4 -50 -3 -43 -1 -54 10 -51 17 6 15 52
-7 143 l-19 73 -19 -24 c-21 -28 -53 -31 -85 -8 -16 11 -22 25 -22 55 l0 39
-44 0 c-54 0 -144 16 -173 31 -33 18 -48 62 -33 99 7 17 20 35 29 40 23 13 8
11 -104 -18z m207 -314 c-5 -107 -9 -117 -11 -25 0 48 2 87 7 87 4 0 6 -28 4
-62z m67 32 c20 0 42 -5 49 -12 19 -19 -6 -38 -49 -38 -36 0 -38 -1 -42 -37
l-4 -38 -1 43 -2 42 45 0 c33 0 45 4 45 15 0 11 -12 15 -45 15 -40 0 -45 2
-44 23 1 16 2 18 6 5 3 -13 15 -18 42 -18z m-1052 -82 c-2 -18 -4 -4 -4 32 0
36 2 50 4 33 2 -18 2 -48 0 -65z m-77 78 c0 -2 -9 -6 -20 -9 -11 -3 -18 -1
-14 4 5 9 34 13 34 5z m197 -13 c4 -11 -1 -22 -15 -31 -18 -12 -22 -24 -22
-63 0 -26 -5 -51 -12 -55 -8 -5 -9 -2 -5 10 4 10 7 38 7 63 0 36 4 46 20 50
11 3 20 12 20 20 0 10 -7 14 -20 10 -11 -3 -18 -1 -14 4 9 15 34 10 41 -8z
m123 10 c-8 -3 -27 -12 -42 -20 -16 -7 -28 -11 -28 -9 0 9 54 35 70 35 13 -1
13 -1 0 -6z m199 3 c-2 -2 -17 -6 -34 -10 -22 -5 -26 -4 -15 4 14 9 59 15 49
6z m206 -6 c13 -5 14 -9 5 -9 -8 0 -24 4 -35 9 -13 5 -14 9 -5 9 8 0 24 -4 35
-9z m69 1 c3 -4 -6 -6 -19 -3 -14 2 -25 6 -25 8 0 8 39 4 44 -5z m195 6 c-2
-2 -17 -11 -34 -21 l-30 -17 24 20 c13 12 28 21 34 21 6 0 8 -1 6 -3z m28 -31
c-4 -9 -16 -16 -27 -16 -16 0 -20 -7 -20 -32 0 -18 -5 -40 -11 -48 -7 -11 -8
-4 -4 25 10 60 12 65 36 65 17 0 20 4 16 21 -4 16 -3 19 5 11 6 -6 8 -18 5
-26z m251 -55 l-2 -66 -3 65 c-2 36 -8 69 -14 75 -9 9 -14 -19 -10 -55 2 -13
0 -13 -8 -1 -5 8 -7 20 -5 28 14 46 14 46 29 33 11 -9 14 -30 13 -79z m-1248
66 c0 -8 -11 -19 -25 -25 -14 -7 -30 -22 -35 -34 -6 -17 -9 -18 -9 -6 -1 10 6
23 15 30 8 7 23 21 32 30 21 21 22 21 22 5z m549 -31 c-2 -2 -13 8 -23 22
l-19 27 24 -22 c12 -12 21 -24 18 -27z m89 30 c-7 -8 -15 -12 -17 -11 -5 6 10
25 20 25 5 0 4 -6 -3 -14z m166 -2 c3 -8 2 -12 -4 -9 -6 3 -10 10 -10 16 0 14
7 11 14 -7z m-693 -21 c-12 -20 -14 -14 -5 12 4 9 9 14 11 11 3 -2 0 -13 -6
-23z m307 -11 c-16 -40 -2 -81 34 -101 32 -19 51 -6 23 16 -20 15 -20 15 0 11
25 -4 32 -36 10 -44 -35 -14 -85 36 -85 86 0 20 21 72 26 67 2 -2 -2 -17 -8
-35z m-498 13 c-8 -10 -11 -32 -7 -63 4 -30 3 -40 -3 -27 -17 39 -9 105 12
105 6 0 5 -6 -2 -15z m390 -4 c0 -5 -7 -14 -15 -21 -17 -15 -20 -30 -4 -30 13
0 31 18 47 45 6 11 12 15 12 9 0 -17 -40 -64 -55 -64 -21 0 -28 19 -14 36 13
16 6 30 -10 19 -13 -7 -14 -44 -3 -62 4 -6 28 -13 52 -15 37 -2 45 -6 45 -23
0 -16 -7 -20 -35 -21 l-35 -2 33 5 c50 7 42 33 -11 33 -49 0 -67 13 -67 50 0
14 5 31 12 38 14 14 48 16 48 3z m198 -4 c6 -6 13 -26 16 -42 6 -27 5 -27 -7
5 -17 44 -54 49 -74 10 -7 -14 -13 -19 -13 -11 0 38 56 65 78 38z m181 -1 c7
-8 11 -35 8 -63 l-3 -48 -2 52 c-2 38 -7 55 -19 62 -10 6 -13 11 -7 11 6 0 17
-6 23 -14z m89 2 c7 -7 12 -36 12 -65 0 -74 18 -66 23 10 l3 62 2 -67 c2 -61
0 -68 -18 -68 -16 0 -19 8 -22 63 -3 57 -5 62 -25 61 -12 0 -20 3 -17 8 7 12
28 10 42 -4z m-555 -18 c-7 -28 14 -76 40 -88 16 -8 17 -11 6 -11 -32 -2 -69
68 -55 104 8 22 15 18 9 -5z m399 -97 c7 -9 7 -13 0 -13 -16 0 -22 27 -20 83
l2 52 3 -55 c3 -30 9 -60 15 -67z m18 57 l-7 -55 -2 51 c0 28 2 54 6 57 10 11
10 6 3 -53z m266 -16 c-3 -8 -14 -14 -25 -14 -11 0 -22 -7 -24 -15 -4 -11 -4
-10 -3 2 1 10 11 19 24 21 18 3 22 10 24 45 1 39 2 39 5 9 3 -19 2 -40 -1 -48z
m-349 -21 c-2 -16 -4 -3 -4 27 0 30 2 43 4 28 2 -16 2 -40 0 -55z m603 38 c0
-16 -8 -35 -17 -42 -16 -13 -17 -12 -4 3 7 10 11 29 9 43 -3 14 -1 25 3 25 5
0 9 -13 9 -29z m-33 -3 c-3 -8 -6 -5 -6 6 -1 11 2 17 5 13 3 -3 4 -12 1 -19z
m-1121 -14 c-26 -19 -41 -18 -57 4 -13 15 -12 16 3 4 19 -15 58 -8 58 10 0 6
3 8 7 4 5 -4 -1 -14 -11 -22z m719 -43 c-16 -15 -17 -14 -4 9 7 14 12 26 11
28 -1 1 -1 8 -1 15 1 6 4 1 6 -12 3 -14 -2 -30 -12 -40z m-623 24 c3 -13 1
-22 -3 -19 -9 5 -13 44 -5 44 2 0 6 -11 8 -25z m425 -17 c-3 -8 -6 -5 -6 6 -1
11 2 17 5 13 3 -3 4 -12 1 -19z m-572 -6 c-3 -3 -11 0 -18 7 -9 10 -8 11 6 5
10 -3 15 -9 12 -12z m70 9 c-6 -5 -21 -11 -35 -15 -21 -5 -20 -3 5 9 35 17 42
18 30 6z m1050 -9 c-3 -3 -11 0 -18 7 -9 10 -8 11 6 5 10 -3 15 -9 12 -12z
m-165 4 c0 -3 -4 -8 -10 -11 -5 -3 -10 -1 -10 4 0 6 5 11 10 11 6 0 10 -2 10
-4z"/>
<path d="M3105 2724 c-18 -16 -22 -22 -9 -15 18 9 53 42 43 41 -2 -1 -17 -12
-34 -26z"/>
<path d="M2980 2660 c-8 -5 -10 -10 -5 -10 6 0 17 5 25 10 8 5 11 10 5 10 -5
0 -17 -5 -25 -10z"/>
<path d="M2863 2633 c-18 -3 -23 -11 -23 -37 0 -38 15 -56 47 -56 25 0 46 30
37 54 -8 20 -43 21 -51 1 -8 -23 4 -30 23 -14 15 12 17 12 12 -1 -9 -27 -43
-18 -46 12 -3 23 2 29 24 34 20 5 31 2 41 -12 14 -19 15 -18 11 1 -3 21 -31
27 -75 18z"/>
<path d="M1082 1668 c-17 -17 -15 -64 4 -82 33 -34 94 -7 94 42 0 43 -67 71
-98 40z"/>
<path d="M3832 1668 c-18 -18 -14 -63 6 -81 38 -35 92 -10 92 42 0 35 -17 51
-55 51 -17 0 -36 -5 -43 -12z"/>
</g>
</svg>
