<svg width="305" height="270" viewBox="0 0 305 270" fill="none" xmlns="http://www.w3.org/2000/svg">
<mask id="mask0_1_371" style="mask-type:luminance" maskUnits="userSpaceOnUse" x="0" y="0" width="305" height="270">
<path d="M0.682617 0.757361H304.955V269.529H0.682617V0.757361Z" fill="white"/>
</mask>
<g mask="url(#mask0_1_371)">
<g opacity="0.130005">
<path d="M101.285 267.648C101.467 267.647 101.647 267.627 101.828 267.619C101.512 267.635 101.199 267.638 100.888 267.634C101.02 267.636 101.153 267.65 101.285 267.648Z" fill="#212322"/>
<path d="M127.954 168.017C127.549 168.622 127.128 169.224 126.728 169.832L126.742 169.841C127.141 169.229 127.548 168.624 127.954 168.017Z" fill="#212322"/>
<path d="M152.932 62.4448C150.794 63.9688 147.29 66.5821 143.128 69.3888C138.979 72.2128 134.143 75.1848 129.519 77.6288C127.978 78.4608 127.914 78.3568 127.89 78.3074C125.171 79.7848 122.738 81.0554 120.332 82.3048L118.532 83.2328C117.958 83.4714 117.382 83.7114 116.8 83.9528C116.083 84.2381 115.355 84.5288 114.615 84.8221C114.242 86.0661 114.091 86.3354 114.296 84.9488C114.183 84.9941 114.068 85.0394 113.954 85.0848L113.735 86.2314L112.862 85.5194C112.855 85.5221 112.848 85.5248 112.842 85.5274L113.731 86.2514L113.544 87.2221L114.459 86.8434L115.347 87.5674C115.348 87.5621 115.35 87.5541 115.351 87.5488L114.478 86.8368L115.587 86.3768C115.508 86.7661 115.428 87.1688 115.351 87.5488L115.384 87.5754L115.608 86.3674L115.852 86.2661C116.42 86.0314 116.903 85.8408 117.328 85.6728C118.134 85.3554 118.77 85.1048 119.391 84.7808C122.014 83.4141 124.623 82.0234 127.232 80.6328L129.787 79.2714C140.004 73.8381 150.143 66.8501 160.635 58.0034L160.623 57.9901C159.719 58.7394 158.826 59.5048 157.91 60.2408C157.874 60.1954 157.8 60.1061 157.764 60.0621C159.462 58.6621 161.647 56.8168 163.894 54.8328C166.158 52.8661 168.434 50.7208 170.338 48.7421C174.151 44.7874 176.534 41.6261 175.267 42.8541C174.514 43.7448 173.743 44.6221 172.956 45.4834C172.915 45.4448 172.83 45.3688 172.83 45.3688C170.463 47.9434 167.66 50.7061 164.696 53.2901C161.722 55.8901 158.684 58.4181 155.93 60.5901C155.93 60.5901 155.858 60.5008 155.822 60.4568C156.62 59.8114 157.407 59.1528 158.198 58.4981C155.392 60.7688 154.126 61.5661 152.932 62.4448Z" fill="#212322"/>
<path d="M92.381 263.284C92.4584 263.401 92.5544 263.504 92.637 263.619C92.5557 263.504 92.473 263.391 92.3957 263.275L92.381 263.284Z" fill="#212322"/>
<path d="M102.664 88.7563C102.649 88.783 102.639 88.8003 102.664 88.759V88.7563Z" fill="#212322"/>
<path d="M167.317 119.155C165.483 121.256 163.749 123.24 162 125.121C155.849 131.739 149.935 138.597 144.421 145.503C139.284 151.939 134.451 158.511 129.884 165.18C129.933 165.213 130.023 165.275 130.068 165.305C128.087 168.203 125.583 172.017 123.037 176.064C120.497 180.113 117.96 184.424 115.813 188.248C111.536 195.908 108.835 201.619 110.268 199.2C111.141 197.549 111.984 195.881 112.881 194.243C112.932 194.271 113.033 194.325 113.033 194.325C115.709 189.401 118.872 183.945 122.209 178.596C125.541 173.244 129.048 168.001 132.28 163.424C132.28 163.424 132.375 163.489 132.421 163.523C131.593 164.708 130.785 165.907 129.975 167.104C131.152 165.396 132.107 164.076 132.899 163.005C134.137 161.312 135.005 160.213 135.849 159.097C138.395 155.76 142.601 150.175 147.675 143.936C150.216 140.821 152.975 137.544 155.825 134.288C157.249 132.659 158.697 131.036 160.149 129.44C161.597 127.833 163.071 126.299 164.48 124.7C166.361 122.589 166.447 122.665 166.489 122.704C169.792 118.992 172.584 115.671 175.555 112.62C177.031 111.092 178.536 109.629 180.131 108.231C180.936 107.524 181.733 106.868 182.617 106.171C182.627 106.165 182.635 106.157 182.644 106.151C183.168 104.581 183.332 104.248 182.971 105.891C183.109 105.781 183.252 105.668 183.391 105.557L183.993 103.215L185.289 104.049C185.293 104.047 185.296 104.044 185.299 104.041L183.996 103.203L184.148 102.612L183.673 102.995L182.372 102.156C182.371 102.16 182.369 102.164 182.368 102.168L183.664 103.003L181.74 104.552C181.952 103.745 182.163 102.948 182.368 102.168L182.335 102.145L181.721 104.568L180.989 105.157C176.111 109.085 171.64 114.204 167.317 119.155Z" fill="#212322"/>
<path d="M182.842 106.465C182.558 107.84 181.393 112.613 180.079 117.353C180.014 117.591 179.95 117.828 179.885 118.065C180.971 114.464 182.151 110.38 183.138 106.541L183.365 105.659L182.947 105.996C182.915 106.14 182.882 106.293 182.842 106.465Z" fill="#212322"/>
<path d="M115.523 77.5724C114.963 80.0004 114.466 82.4084 114.015 84.7698L113.967 85.0151L114.308 84.8724C114.311 84.8551 114.312 84.8444 114.315 84.8271C114.428 83.9524 114.886 80.9031 115.466 77.8738C115.484 77.7738 115.504 77.6724 115.523 77.5724Z" fill="#212322"/>
<path d="M96.1779 267.864C96.1913 267.869 96.2059 267.873 96.2193 267.88C95.9579 267.769 95.6979 267.654 95.4473 267.522C95.6873 267.646 95.9313 267.761 96.1779 267.864Z" fill="#212322"/>
<path d="M91.4223 263.92C92.4463 265.484 93.8676 266.708 95.4183 267.508C93.821 266.664 92.4183 265.41 91.4223 263.92Z" fill="#212322"/>
<path d="M101.496 268.788C101.561 268.787 101.626 268.788 101.692 268.786C101.88 268.782 102.06 268.759 102.245 268.748L101.654 268.78L101.496 268.788Z" fill="#212322"/>
<path d="M114.477 86.8364L115.352 87.5484C115.428 87.1684 115.508 86.7671 115.586 86.3764L114.477 86.8364Z" fill="#212322"/>
<path d="M183.664 103.002L182.368 102.168C182.163 102.948 181.952 103.745 181.74 104.552L183.664 103.002Z" fill="#212322"/>
<path d="M151.864 136.348C153.116 134.884 154.396 133.408 155.718 131.912C154.743 133.004 153.288 134.682 151.864 136.348Z" fill="#212322"/>
<path d="M137.799 74.7911C137.349 75.0671 136.899 75.3444 136.44 75.6204C136.816 75.3938 137.285 75.1084 137.799 74.7911Z" fill="#212322"/>
<path d="M302.791 71.352L302.559 70.9587C301.856 69.876 301.058 68.8947 300.207 67.9827C301.082 68.9227 301.892 69.932 302.598 71.036C302.644 71.1067 302.714 71.2227 302.791 71.352Z" fill="#212322"/>
<path d="M303.473 72.6187C303.383 72.432 303.306 72.2427 303.207 72.0573L302.906 71.5453C303.026 71.7547 303.157 71.988 303.266 72.1933C303.338 72.3347 303.405 72.4773 303.473 72.6187Z" fill="#212322"/>
<path d="M101.691 268.786C101.627 268.789 101.561 268.787 101.495 268.789L101.654 268.781L102.245 268.749C102.061 268.759 101.879 268.782 101.691 268.786ZM96.1779 267.863C95.9312 267.761 95.6872 267.646 95.4472 267.523C95.6979 267.655 95.9579 267.769 96.2192 267.879C96.2045 267.874 96.1912 267.87 96.1779 267.863ZM91.4219 263.919C92.4179 265.41 93.8205 266.663 95.4192 267.507C93.8672 266.707 92.4459 265.483 91.4219 263.919ZM180.991 132.675C180.613 133.822 180.206 135.035 179.778 136.305C178.501 140.091 177.03 144.341 175.501 148.571C175.418 148.799 175.337 149.026 175.254 149.254C175.097 149.694 174.939 150.138 174.782 150.577C174.573 151.147 174.361 151.71 174.151 152.279C172.33 157.235 170.525 161.973 169.049 165.719C170.783 161.299 172.473 156.815 174.151 152.279C174.519 151.277 174.887 150.267 175.254 149.254C176.777 144.994 178.294 140.683 179.778 136.305C180.186 135.101 180.59 133.89 180.991 132.675C181.398 131.447 181.806 130.221 182.205 128.979C181.843 130.095 181.434 131.339 180.991 132.675ZM168.17 167.93L168.169 167.929C168.322 167.546 168.477 167.166 168.627 166.783C168.471 167.177 168.318 167.562 168.17 167.93ZM101.286 267.649C101.153 267.65 101.021 267.635 100.887 267.633C101.199 267.638 101.511 267.635 101.829 267.619C101.647 267.627 101.467 267.647 101.286 267.649ZM92.3805 263.283L92.3966 263.274C92.4739 263.39 92.5552 263.505 92.6379 263.618C92.5552 263.505 92.4579 263.401 92.3805 263.283ZM96.0899 243.67C96.9845 237.395 98.6059 231.234 100.623 225.374C101.533 222.774 102.427 220.155 101.345 222.701C102.309 220.11 103.357 217.537 104.459 214.994C106.721 209.921 105.406 212.378 107.778 207.334C117.006 187.743 128.525 169.233 141.726 152.046C148.311 143.437 155.338 135.165 162.691 127.198C164.529 125.195 166.347 123.113 168.175 121.073C169.99 119.019 171.751 116.971 173.57 114.979C175.385 112.993 177.233 111.053 179.173 109.247C180.142 108.343 181.131 107.47 182.149 106.643L182.602 106.277C182.133 107.685 181.401 109.993 180.507 112.727C179.469 115.89 178.206 119.625 176.954 123.223C175.673 126.827 174.441 130.293 173.505 132.926C171.622 138.215 173.231 132.835 173.067 132.782C171.33 138.115 170.346 140.746 168.538 146.053C168.538 146.053 168.437 146.295 168.273 146.741C168.109 147.189 167.873 147.837 167.582 148.637C166.999 150.241 166.193 152.461 165.297 154.929C163.483 159.854 161.227 165.731 159.678 169.634C159.678 169.634 159.426 170.289 158.799 171.919C158.161 173.547 157.131 176.149 155.506 180.014C154.413 182.591 154.466 182.614 154.518 182.637C154.466 182.614 154.466 182.614 154.413 182.591C153.419 185.215 151.065 190.291 149.939 192.855C149.887 192.831 149.887 192.831 149.835 192.809C147.622 197.938 145.095 202.927 142.613 207.929C142.562 207.902 142.562 207.902 142.51 207.875C141.874 209.122 141.241 210.366 140.745 211.286C140.497 211.746 140.29 212.127 140.145 212.398C139.995 212.663 139.905 212.813 139.893 212.806C139.842 212.779 139.842 212.779 139.791 212.753C139.125 213.987 138.133 215.826 137.305 217.361C136.885 218.125 136.506 218.813 136.233 219.31C135.953 219.802 135.767 220.098 135.742 220.085C135.793 220.113 135.793 220.113 135.843 220.141C133.118 225.013 130.605 229.201 128.205 233.043C125.797 236.874 123.49 240.335 121.035 243.667C117.749 248.094 114.037 252.619 109.718 256.789C108.637 257.827 107.529 258.855 106.375 259.845C105.787 260.37 105.274 260.79 104.714 261.194C104.163 261.593 103.601 261.942 103.045 262.214C101.923 262.777 100.885 262.975 100.079 262.789C99.2232 262.593 98.5539 262.099 97.9112 261.102C97.5992 260.609 97.3192 260.022 97.0779 259.381C96.8379 258.714 96.6112 258.014 96.4259 257.309C96.0552 255.89 95.8192 254.415 95.6952 252.91C95.4472 249.897 95.6565 246.79 96.0899 243.67ZM127.954 168.017C127.547 168.623 127.141 169.23 126.742 169.841L126.727 169.831C127.129 169.223 127.549 168.623 127.954 168.017ZM155.718 131.911C154.397 133.409 153.117 134.885 151.865 136.347C153.289 134.682 154.743 133.003 155.718 131.911ZM183.138 106.541C182.151 110.381 180.971 114.465 179.885 118.065C179.949 117.829 180.014 117.591 180.079 117.354C181.393 112.614 182.558 107.839 182.842 106.465C182.882 106.293 182.915 106.141 182.947 105.997L183.365 105.658L183.138 106.541ZM181.721 104.567L182.335 102.146L182.369 102.167C182.369 102.163 182.37 102.159 182.371 102.155L183.674 102.994L184.149 102.613L183.997 103.202L185.299 104.042C185.295 104.045 185.293 104.047 185.29 104.05L183.994 103.214L183.391 105.558C183.253 105.667 183.109 105.782 182.971 105.891C183.331 104.247 183.169 104.582 182.643 106.151C182.635 106.158 182.626 106.165 182.618 106.171C181.734 106.869 180.937 107.525 180.131 108.231C178.537 109.63 177.031 111.091 175.555 112.621C172.583 115.67 169.793 118.993 166.49 122.705C166.447 122.666 166.361 122.59 164.479 124.701C163.071 126.299 161.598 127.834 160.15 129.439C158.698 131.037 157.25 132.659 155.825 134.287C152.974 137.543 150.215 140.821 147.674 143.937C142.601 150.175 138.395 155.761 135.85 159.097C135.005 160.214 134.138 161.311 132.898 163.006C132.107 164.075 131.153 165.395 129.974 167.105C130.785 165.907 131.594 164.709 132.422 163.522C132.374 163.49 132.281 163.423 132.281 163.423C129.049 168.002 125.542 173.245 122.209 178.597C118.871 183.945 115.709 189.402 113.033 194.325C113.033 194.325 112.933 194.27 112.882 194.243C111.985 195.882 111.141 197.549 110.269 199.201C108.835 201.618 111.535 195.907 115.813 188.247C117.961 184.425 120.497 180.114 123.038 176.063C125.583 172.017 128.087 168.202 130.069 165.306C130.022 165.274 129.933 165.213 129.885 165.179C134.451 158.51 139.283 151.938 144.421 145.503C149.934 138.597 155.849 131.739 162.001 125.121C163.749 123.241 165.482 121.255 167.318 119.155C171.641 114.205 176.111 109.086 180.989 105.157L181.721 104.567ZM102.663 88.7567C102.663 88.7567 102.663 88.758 102.663 88.7593C102.639 88.7993 102.65 88.782 102.663 88.7567ZM150.367 24.934C151.67 23.798 154.255 21.5314 154.334 21.6287C154.298 21.5847 154.298 21.5847 154.262 21.5394C156.937 19.3794 159.393 17.658 161.743 16.19C162.914 15.4447 164.077 14.8007 165.211 14.1607C166.369 13.5634 167.478 12.9807 168.694 12.386C171.865 10.8287 175.107 9.17534 178.542 8.03801C180.225 7.50468 182.135 6.94868 183.557 6.92335C185.07 6.87801 186.417 7.30202 187.334 8.15668C188.255 8.99135 188.81 10.3274 188.878 11.89C188.89 12.0834 188.889 12.2807 188.886 12.4794L188.857 13.174C188.837 13.642 188.793 14.11 188.747 14.5767C188.654 15.5114 188.495 16.4394 188.309 17.362C187.541 21.0554 186.01 24.5607 184.043 27.7567C183.134 29.222 182.278 30.7274 183.318 29.342C182.378 30.7927 181.423 32.242 180.423 33.65C178.409 36.4567 179.574 35.1673 177.489 37.9287C173.43 43.2873 168.878 48.2593 163.842 52.7113C158.769 57.2233 153.506 61.5113 148.038 65.5047C142.57 69.494 136.886 73.1754 130.979 76.442C128.035 78.0567 124.965 79.6594 121.969 81.258L119.709 82.4607L118.579 83.062L117.503 83.534C117.134 83.6914 116.817 83.842 116.406 84.0073L115.194 84.5007L114.642 84.7313C114.913 83.8273 115.287 82.4607 115.726 80.854C116.279 78.8433 116.95 76.474 117.657 74.2113C118.362 71.9487 119.106 69.7953 119.702 68.1727C120.949 64.9447 119.969 68.266 120.138 68.3193C121.213 65.046 122.003 63.5154 123.387 60.3874C123.387 60.3874 123.47 60.246 123.605 59.9807C123.738 59.714 123.93 59.33 124.167 58.854C124.645 57.9033 125.298 56.5847 126.05 55.1407C127.539 52.2407 129.455 48.8594 130.839 46.686C130.839 46.686 131.065 46.3167 131.623 45.4033C132.205 44.5047 133.13 43.0553 134.682 41.022C135.725 39.6714 135.697 39.65 135.649 39.61C135.693 39.6473 135.693 39.6474 135.738 39.6834C136.231 38.978 137.049 38.0167 137.923 37.0594C138.81 36.0887 139.707 35.1313 140.282 34.4727C140.325 34.5113 140.325 34.5113 140.367 34.55C142.655 31.914 145.161 29.494 147.63 27.0647C147.669 27.106 147.669 27.106 147.709 27.1473C148.345 26.558 148.978 25.9713 149.454 25.53C149.939 25.102 150.271 24.8273 150.29 24.8487C150.329 24.8913 150.329 24.8913 150.367 24.934ZM114.314 84.8274C114.311 84.8434 114.31 84.8553 114.307 84.8727L113.967 85.0153L114.014 84.77C114.466 82.4087 114.963 80.0007 115.523 77.5727C115.505 77.6727 115.485 77.774 115.466 77.874C114.885 80.9033 114.427 83.9527 114.314 84.8274ZM136.439 75.6207C136.898 75.3434 137.35 75.0673 137.799 74.7913C137.285 75.1073 136.817 75.394 136.439 75.6207ZM155.93 60.5914C158.685 58.418 161.721 55.89 164.697 53.29C167.659 50.706 170.463 47.9433 172.829 45.3687C172.829 45.3687 172.914 45.446 172.957 45.4847C173.743 44.622 174.513 43.7447 175.267 42.854C176.534 41.626 174.15 44.7873 170.337 48.742C168.433 50.7207 166.158 52.866 163.894 54.834C161.646 56.8167 159.462 58.662 157.765 60.062C157.801 60.1073 157.873 60.1954 157.91 60.2407C158.826 59.5047 159.719 58.7407 160.623 57.99L160.635 58.0033C150.142 66.85 140.005 73.838 129.787 79.2713L127.233 80.6327C124.623 82.0233 122.013 83.414 119.391 84.7807C118.769 85.1047 118.133 85.3553 117.327 85.674C116.903 85.8407 116.421 86.0313 115.853 86.266L115.607 86.3687L115.383 87.5753L115.351 87.5487C115.35 87.5554 115.349 87.562 115.347 87.5687L114.458 86.8447L113.545 87.2233L113.73 86.2513L112.842 85.5273C112.849 85.5247 112.854 85.522 112.861 85.5193L113.734 86.2313L113.954 85.0847C114.067 85.0393 114.183 84.994 114.297 84.9487C114.09 86.3353 114.242 86.066 114.615 84.822C115.354 84.5287 116.083 84.2394 116.801 83.954C117.382 83.7114 117.958 83.4714 118.533 83.2327L120.333 82.306C122.738 81.0553 125.17 79.7847 127.89 78.3074C127.913 78.358 127.978 78.4607 129.519 77.63C134.143 75.1847 138.979 72.2127 143.129 69.3887C147.29 66.582 150.794 63.97 152.933 62.4447C154.125 61.566 155.393 60.7687 158.198 58.498C157.406 59.1527 156.619 59.8114 155.822 60.4567C155.858 60.5007 155.93 60.5914 155.93 60.5914ZM304.919 78.466C304.866 77.686 304.759 76.85 304.586 75.99C304.407 75.1353 304.195 74.2727 303.833 73.3807C303.77 73.2327 303.691 73.0874 303.623 72.9394C303.713 73.1354 303.797 73.3314 303.874 73.5287C304.219 74.4207 304.426 75.2807 304.595 76.1327C304.759 76.9873 304.861 77.8113 304.903 78.5753C304.943 79.3407 304.926 80.0433 304.921 80.7793C304.909 81.4993 304.897 82.2913 304.854 83.0473L304.455 83.9887C303.653 83.2487 302.853 82.51 302.054 81.7754C301.245 81.038 300.413 80.2314 299.667 79.678C298.905 79.0687 298.143 78.4607 297.383 77.8527C297.193 77.6953 297.006 77.554 296.817 77.4247L296.383 77.1513L295.741 76.7433C294.037 75.6393 292.219 74.7553 290.398 73.9287C286.713 72.3553 282.857 71.3087 278.957 70.7127C275.054 70.1127 271.122 69.926 267.198 69.966C265.235 70.0753 263.273 70.0834 261.315 70.3154L258.378 70.5993L255.447 71.0167C247.639 72.1087 239.967 74.35 232.318 77.4487C224.662 80.5407 217.041 84.4927 209.174 89.066C209.159 89.0407 209.138 89.0033 208.007 89.6193C207.441 89.9247 206.599 90.4033 205.347 91.134C204.077 91.8593 202.479 92.834 200.314 94.2447C198.698 95.2967 197.079 96.3713 195.462 97.462L194.283 98.2607L194.022 98.4393C193.97 98.5153 193.947 98.614 193.909 98.7007C193.569 99.5953 193.226 100.491 192.885 101.39C191.505 105.087 190.129 108.754 189.046 112.549C186.781 120.221 184.319 127.897 181.794 135.509C179.23 143.107 176.558 150.627 173.803 157.966C171.013 165.29 168.203 172.458 165.294 179.322C159.534 193.073 153.57 205.681 148.061 216.515C142.507 227.327 137.526 236.422 133.269 243.017C131.845 245.21 130.365 247.37 128.593 249.727C126.817 252.079 124.754 254.639 122.014 257.483C120.646 258.907 119.099 260.391 117.314 261.921C115.507 263.467 113.362 264.999 110.797 266.27C110.142 266.562 109.498 266.911 108.787 267.166C108.437 267.302 108.083 267.441 107.725 267.581C107.357 267.697 106.985 267.814 106.609 267.933C105.413 268.285 104.138 268.579 102.785 268.711C104.126 268.545 105.451 268.293 106.717 267.882C109.315 267.074 111.746 265.865 113.99 264.389C114.541 264.006 115.091 263.621 115.631 263.222C116.15 262.798 116.698 262.391 117.19 261.954L118.671 260.642C119.161 260.199 119.626 259.734 120.105 259.281C120.065 259.239 119.985 259.158 119.985 259.158C119.506 259.609 119.039 260.074 118.549 260.518C118.051 260.957 117.553 261.397 117.053 261.838C116.55 262.278 115.998 262.69 115.47 263.119C114.914 263.515 114.361 263.921 113.787 264.299C111.483 265.797 108.954 267.035 106.218 267.835C104.842 268.205 103.426 268.51 101.957 268.565C100.499 268.669 98.9885 268.523 97.5299 268.111C94.5805 267.333 91.9979 265.074 90.7512 262.277C89.4552 259.486 89.1819 256.45 89.1672 253.533C89.1846 250.597 89.4312 247.721 89.7472 244.814C90.3912 239.014 91.5819 233.253 93.0952 227.594C96.1646 216.277 100.549 205.407 105.341 195.113C110.219 184.853 115.71 175.261 121.342 166.55C121.342 166.55 121.439 166.611 121.487 166.643C125.266 160.859 129.203 155.178 133.371 149.669C136.601 145.614 134.631 148.189 129.611 155.146C127.15 158.659 123.919 163.267 120.435 168.846C116.921 174.402 113.098 180.895 109.418 188.105C105.718 195.302 102.158 203.211 99.0152 211.475C95.8925 219.742 93.1859 228.393 91.5726 237.082C90.7512 241.421 90.2019 245.761 89.9619 250.023C89.8232 252.15 89.7712 254.274 89.9632 256.361C90.1699 258.439 90.6019 260.507 91.5446 262.339C92.4726 264.169 93.9339 265.702 95.6872 266.629C97.4392 267.569 99.3992 267.909 101.261 267.89C103.133 267.878 104.921 267.479 106.587 266.962C108.261 266.445 109.814 265.75 111.239 264.961C111.213 264.91 111.157 264.809 111.13 264.758C109.617 265.586 108.03 266.29 106.374 266.783C106.277 266.813 106.178 266.835 106.081 266.863C109.63 265.823 113.206 263.81 116.177 261.291C126.378 252.641 133.417 240.626 139.215 230.043C158.79 194.314 175.227 154.055 188.07 110.387C189.21 106.511 192.435 98.174 192.573 97.8207L192.723 97.4313L193.067 97.1954C193.338 97.01 199.75 92.6234 203.491 90.3847C218.574 81.366 235.055 72.5994 253.371 69.5487C280.374 65.0514 295.177 72.3753 303.122 80.2367C303.177 79.046 303.081 77.4407 302.542 75.354C302.039 73.4047 300.763 71.294 298.85 69.2527C295.685 65.8754 288.922 63.2114 283.623 62.0687L283.322 62.0033C275.658 60.3513 267.314 60.086 258.722 61.1807C258.954 61.15 259.186 61.1087 259.419 61.0793C268.402 59.914 277.582 60.4087 284.838 62.1634C288.466 63.05 291.591 64.2553 294.019 65.5033C296.453 66.7447 298.154 68.0793 299.073 69.0433C304.411 74.6767 304.475 74.618 301.127 70.8887C300.707 70.4233 300.237 69.8993 299.715 69.322C299.219 68.75 298.558 68.0834 297.831 67.482C296.35 66.278 294.483 65.17 292.327 64.166C290.165 63.178 287.721 62.262 285.011 61.558C282.305 60.8807 279.386 60.33 276.291 59.986C270.107 59.286 263.261 59.398 256.317 60.4087C252.843 60.9113 249.345 61.626 245.889 62.55C242.439 63.4807 239.026 64.5807 235.689 65.7927C222.341 70.7154 210.442 77.5434 201.469 82.6834C199.658 83.7234 198.298 84.5033 197.306 85.074C197.026 85.2273 196.798 85.3513 196.615 85.4513C196.477 85.5207 196.371 85.5727 196.297 85.61C196.022 85.7313 196.293 85.5274 196.682 85.2527C196.838 85.138 197.19 84.9073 197.526 84.6847C197.689 84.5767 197.857 84.466 198.022 84.3567L198.259 84.198C198.438 84.0874 198.614 83.978 198.786 83.8713C199.47 83.442 200.086 83.054 200.535 82.7713C200.979 82.4873 201.247 82.3047 201.237 82.286C199.735 83.1727 198.325 84.0047 196.983 84.7967C196.87 84.8633 196.758 84.9287 196.649 84.994L196.485 85.09L196.403 85.138C196.395 85.1274 196.411 85.082 196.414 85.0553C196.463 84.81 196.51 84.57 196.557 84.334C197.229 80.914 197.85 77.754 198.469 74.61C199.191 70.9327 199.91 67.274 200.681 63.3487C201.062 61.3847 201.457 59.354 201.87 57.222C202.077 56.1433 202.289 55.038 202.506 53.9033C202.559 53.594 202.609 53.2714 202.647 52.9274C202.667 52.7887 202.687 52.4647 202.705 52.2207C202.709 51.9607 202.719 51.6993 202.698 51.4407C202.643 50.4047 202.326 49.418 201.658 48.666C201.31 48.2754 200.841 47.922 200.289 47.71C199.738 47.4967 199.113 47.4327 198.475 47.4833C198.475 47.4833 198.062 47.478 197.275 47.702C197.081 47.766 196.862 47.838 196.625 47.9313C196.405 48.026 196.089 48.154 195.923 48.2447C195.543 48.434 195.131 48.67 194.699 48.9594C194.266 49.2487 193.81 49.5887 193.342 49.9873C193.11 50.182 192.863 50.4087 192.638 50.6207C192.427 50.822 192.207 51.0313 191.979 51.2473C191.075 52.1207 190.046 53.1154 188.906 54.2154C184.365 58.6314 178.266 64.9113 171.523 71.8567C164.77 78.79 157.295 86.33 149.706 92.9727C147.814 94.6393 145.911 96.2433 144.026 97.7833C142.129 99.3207 140.291 100.811 138.467 102.005C136.639 103.207 134.789 104.134 132.914 104.786C131.038 105.434 129.161 105.845 127.35 106.087C127.35 106.087 127.206 106.105 126.901 106.142C126.595 106.179 126.129 106.226 125.494 106.243C124.25 106.251 122.197 106.259 119.978 104.967C118.887 104.306 117.787 103.271 116.923 101.725C116.493 100.953 116.117 100.059 115.83 99.0567C115.682 98.558 115.566 98.0273 115.47 97.4793C115.421 97.2047 115.382 96.9247 115.347 96.6407C115.314 96.394 115.281 95.9554 115.285 95.9967C115.281 95.9354 115.279 95.874 115.281 95.8113C115.285 95.782 115.274 95.7447 115.289 95.722L115.374 95.6793C115.753 95.498 116.142 95.3127 116.541 95.122C117.867 94.4887 119.261 93.8247 120.723 93.1273C123.662 91.722 126.875 90.186 130.381 88.5114C132.765 87.406 134.469 86.4153 135.778 85.7313C137.085 85.042 137.941 84.5567 138.497 84.206C139.619 83.5247 139.605 83.5007 139.59 83.4753C139.618 83.5247 139.618 83.5247 139.647 83.5753C144.182 80.9233 150.818 76.6567 156.987 71.7607C163.187 66.9073 168.922 61.4847 172.489 57.63C172.53 57.67 172.53 57.67 172.571 57.7087L173.93 56.2887L175.235 54.818L177.842 51.8753C179.489 49.8353 181.225 47.8674 182.775 45.7527C186.017 41.6287 188.917 37.2487 191.705 32.8074C193.023 30.5274 194.414 28.3487 195.638 25.9367C196.855 23.538 197.971 20.938 198.41 18.0047C198.622 16.5447 198.653 15.0047 198.385 13.4807C198.114 11.9447 197.541 10.474 196.763 9.16069C195.202 6.50469 192.843 4.57668 190.314 3.19935C190.342 3.14868 190.342 3.14867 190.369 3.09801C187.814 1.72467 184.91 0.915355 182.191 0.795355C179.511 0.643355 177.059 0.974011 175.03 1.38868C173.002 1.82468 171.375 2.34067 170.255 2.72734C169.698 2.92334 169.259 3.07801 168.961 3.18468C168.662 3.29001 168.502 3.34335 168.502 3.34335C168.482 3.28868 168.482 3.28869 168.461 3.23536C167.194 3.72202 165.802 4.32067 164.355 5.00601C162.903 5.67934 161.426 6.50734 159.879 7.29934C158.319 8.07001 156.805 9.00202 155.297 9.90469C154.542 10.3554 153.793 10.8033 153.054 11.2447C152.341 11.7247 151.637 12.1967 150.951 12.658C148.17 14.45 145.835 16.2967 144.113 17.5794C143.241 18.2074 142.597 18.79 142.127 19.162C141.895 19.3487 141.714 19.4954 141.591 19.594C141.467 19.6914 141.399 19.7393 141.395 19.734C141.431 19.778 141.431 19.778 141.469 19.8233C135.414 24.8767 130.182 30.3193 125.665 35.9433C121.143 41.566 117.335 47.3793 114.214 53.294C111.077 59.2007 108.563 65.1727 106.583 71.1553C106.137 72.666 105.694 74.1674 105.253 75.6607L104.926 76.786C104.825 77.1847 104.727 77.578 104.642 77.9607C104.466 78.7327 104.31 79.4873 104.159 80.242C103.862 81.746 103.593 83.234 103.335 84.7154C103.114 86.0487 102.893 87.3754 102.674 88.698L101.851 89.03C100.977 89.366 100.07 89.6753 99.1565 89.97C97.3259 90.554 95.4566 91.066 93.5752 91.5273C89.8166 92.45 85.9872 93.1993 82.1779 93.8233C72.7859 95.2847 62.9299 95.938 52.8312 96.0407C47.7792 96.0913 42.6632 96.0033 37.4912 95.806C32.3206 95.598 27.0966 95.2527 21.8272 94.8327L0.681885 93.15L20.8099 99.778C29.3459 102.59 38.2992 104.006 47.3219 104.666C56.3566 105.311 65.4952 105.178 74.6459 104.506C79.2166 104.123 83.8006 103.681 88.3752 103.021C92.9539 102.399 97.5259 101.614 102.095 100.623L103.705 100.275L104.071 100.185L104.374 100.11V100.111L104.405 100.231L104.437 100.353L104.451 100.413L104.459 100.443L104.497 100.555L104.806 101.491C105.025 102.11 105.275 102.711 105.541 103.303C106.083 104.482 106.721 105.605 107.439 106.677C108.883 108.81 110.679 110.729 112.83 112.293C113.927 113.047 115.085 113.747 116.366 114.255C116.993 114.527 117.666 114.722 118.329 114.918C119.009 115.065 119.714 115.239 120.345 115.287C122.937 115.623 125.547 115.483 128.038 115.011C130.534 114.541 132.918 113.749 135.179 112.766C137.445 111.785 139.587 110.605 141.63 109.301C142.651 108.65 143.651 107.971 144.623 107.258C145.59 106.553 146.501 105.847 147.442 105.142C154.87 99.45 161.879 93.2874 168.553 86.862C175.219 80.4274 181.553 73.7287 187.606 66.886L189.861 64.3127L190.398 63.694L190.466 63.614L190.687 63.3407C190.695 63.3847 190.667 63.5127 190.655 63.6047L190.606 63.8633C190.363 64.942 190.121 66.0193 189.879 67.0953C188.715 72.086 187.442 77.078 186.823 79.578C186.201 82.078 186.269 82.0953 187.63 77.1273C186.334 82.11 184.971 87.0953 183.566 92.0593L183.301 92.9873L183.27 93.0953C183.267 93.1193 183.257 93.138 183.237 93.1513L182.129 94.242L179.357 96.9714C177.509 98.7887 175.662 100.606 173.818 102.422C159.105 117.013 166.365 109.605 152.193 124.801C138.655 139.81 126.227 155.911 115.813 173.311C110.606 182.003 105.902 191.009 101.815 200.295C97.7912 209.601 94.2179 219.122 91.6952 229.017C90.4245 233.954 89.4592 238.989 88.8526 244.075C88.5339 246.621 88.3632 249.171 88.2406 251.747C88.1512 254.342 88.2099 257.041 88.8779 259.767C89.2152 261.125 89.7179 262.49 90.4699 263.767C90.8379 264.409 91.2846 265.018 91.7806 265.583C92.0112 265.883 92.3126 266.117 92.5819 266.381C92.8659 266.627 93.1205 266.91 93.4352 267.122C94.0645 267.542 94.6726 268.005 95.3739 268.29C95.7166 268.439 96.0499 268.633 96.4046 268.741L97.4712 269.07C97.8259 269.195 98.1885 269.231 98.5485 269.299C98.9085 269.353 99.2699 269.439 99.6286 269.459C100.343 269.487 101.07 269.571 101.77 269.503C104.599 269.371 107.267 268.621 109.733 267.543C112.197 266.455 114.486 265.051 116.582 263.394C124.701 256.753 130.739 248.287 135.963 239.591C138.578 235.227 140.982 230.79 143.362 226.342C145.745 221.893 148.063 217.41 150.307 212.89C159.31 194.825 167.301 176.269 174.401 157.389C177.954 147.949 181.274 138.423 184.373 128.827C185.918 124.027 187.435 119.219 188.87 114.386L189.958 110.773C190.303 109.626 190.705 108.449 191.114 107.278C191.937 104.933 192.81 102.586 193.697 100.247L194.261 98.7727C194.275 98.6873 194.339 98.642 194.41 98.6007L195.027 98.182L198.142 96.09C200.222 94.71 202.321 93.3327 204.415 92.0673C208.71 89.4993 213.041 87.002 217.441 84.666C226.231 79.994 235.351 75.9433 244.883 73.3753C246.074 73.0567 247.265 72.734 248.469 72.4794L250.27 72.07L252.083 71.7273C252.689 71.6193 253.289 71.4927 253.898 71.3967L255.733 71.1327C256.955 70.9753 258.174 70.738 259.402 70.6447C264.302 70.058 269.235 69.938 274.107 70.278C278.969 70.6527 283.806 71.498 288.319 73.1954C290.593 74.0034 292.751 75.0647 294.839 76.2354L296.357 77.1927L296.893 77.5393C297.115 77.6887 297.343 77.8873 297.567 78.0607L298.921 79.1407L300.273 80.218C300.726 80.586 301.221 81.074 301.693 81.4953L304.505 84.082C304.633 83.738 304.766 83.418 304.891 83.0553C304.922 82.2233 304.939 81.4594 304.949 80.7127C304.951 79.962 304.971 79.25 304.919 78.466Z" fill="#212322"/>
<path d="M182.205 128.98C181.806 130.221 181.398 131.446 180.991 132.676C181.434 131.34 181.843 130.094 182.205 128.98Z" fill="#212322"/>
<path d="M180.992 132.676C180.591 133.89 180.187 135.1 179.779 136.304C180.207 135.036 180.612 133.821 180.992 132.676Z" fill="#212322"/>
<path d="M174.151 152.279C172.473 156.816 170.784 161.299 169.048 165.719C170.524 161.972 172.329 157.236 174.151 152.279Z" fill="#212322"/>
<path d="M175.501 148.571C177.031 144.341 178.501 140.091 179.778 136.303C178.294 140.682 176.777 144.994 175.254 149.254C175.337 149.026 175.418 148.799 175.501 148.571Z" fill="#212322"/>
<path d="M174.782 150.576C174.939 150.138 175.097 149.694 175.254 149.254C174.887 150.267 174.518 151.276 174.15 152.279C174.361 151.711 174.573 151.147 174.782 150.576Z" fill="#212322"/>
<path d="M168.171 167.929C168.317 167.563 168.472 167.177 168.628 166.783C168.476 167.167 168.321 167.547 168.169 167.929H168.171Z" fill="#212322"/>
</g>
</g>
</svg>
