<svg width="101" height="103" viewBox="0 0 101 103" fill="none" xmlns="http://www.w3.org/2000/svg">
<g opacity="0.7">
<path d="M93.4168 53.4014C92.9842 53.6698 92.5786 53.9113 92.173 54.1528C89.4148 55.7093 86.4404 56.8095 83.3308 57.6146C80.8431 58.2586 78.3103 58.6611 75.7325 58.8222C69.7295 59.2247 63.9429 58.2854 58.3456 56.2728C54.8303 54.9847 51.4774 53.4283 48.2325 51.6571C44.4198 49.6177 40.7694 47.3635 37.146 45.0825C33.793 42.9893 30.431 40.9051 27.06 38.8299C24.5182 37.2466 21.8412 35.9853 18.9209 35.0998C16.6765 34.4021 14.3781 33.8922 12.0256 33.6238C11.8363 33.597 11.647 33.5702 11.4037 33.5702C11.5118 33.4897 11.5659 33.436 11.62 33.4092C14.0266 32.0137 16.5684 30.9135 19.2183 29.9474C22.7696 28.6772 26.4381 27.7916 30.2237 27.2907C33.3874 26.8614 36.5511 26.7272 39.7419 26.8614C44.9606 27.1029 49.909 28.2568 54.7222 30.0548C59.2379 31.7454 63.5103 33.8385 67.6474 36.2C72.8662 39.1519 77.7875 42.4526 82.6277 45.9144C85.2777 47.8465 87.9006 49.7787 90.5776 51.684C91.2806 52.1938 92.0648 52.65 92.8219 53.1062C92.9842 53.2136 93.1734 53.2941 93.4168 53.4014Z" fill="#18689B"/>
</g>
<path d="M65.4471 58.2582C64.3385 57.9899 63.2569 57.7484 62.1482 57.4532C58.4167 56.4603 54.9014 55.0112 51.4673 53.3474C47.4113 51.3347 43.5175 49.0537 39.6778 46.6922C36.1355 44.4649 32.6203 42.2376 29.0509 40.0371C27.2663 38.91 25.4546 37.8098 23.5347 36.8974C20.5964 35.5019 17.5138 34.518 14.287 33.9455C13.3405 33.7845 12.3941 33.6771 11.4207 33.5161C11.4928 33.4803 11.5559 33.4446 11.61 33.4088C14.0166 32.0133 16.5583 30.9131 19.2083 29.947C22.7596 28.6768 26.428 27.7913 30.2137 27.2903C33.3774 26.861 36.5411 26.7268 39.7318 26.861C44.9236 27.1025 49.8719 28.2564 54.6581 30.0275C59.282 31.745 63.6625 33.9186 67.8808 36.3338C67.9348 36.3606 67.9619 36.3875 67.9889 36.4412C67.7546 36.3338 67.5202 36.2175 67.2859 36.0923C63.9058 34.4017 60.4176 32.9257 56.8213 31.6913C53.8198 30.6447 50.7372 29.8397 47.6006 29.3298C45.194 28.9273 42.7874 28.7126 40.3808 28.6321C38.515 28.5516 36.6763 28.7126 34.8376 28.8736C31.5387 29.1688 28.3209 29.7592 25.1301 30.5911C23.4806 31.0204 21.8582 31.5035 20.2899 32.1475C19.8573 32.3354 19.4787 32.5769 19.046 32.7916C19.028 32.8095 19.001 32.8273 18.9649 32.8452C18.6675 33.0867 18.6675 33.3819 19.019 33.543C19.7761 33.9186 20.5333 34.2943 21.3445 34.6164C24.4271 35.7703 27.3474 37.2462 30.1326 38.9368C33.7019 41.1105 37.2171 43.311 40.7594 45.5115C45.0858 48.2218 49.4393 50.8517 53.9821 53.2132C57.4973 55.038 61.0937 56.6749 64.8523 57.963C65.0686 58.0346 65.2759 58.1062 65.4742 58.1777C65.4742 58.1956 65.4652 58.2224 65.4471 58.2582Z" fill="#18689B"/>
<g opacity="0.7">
<path d="M46.602 13.498C47.1788 13.498 47.7557 13.498 48.3325 13.498C48.4227 13.5159 48.5128 13.5338 48.6029 13.5517C49.0085 13.5517 49.4141 13.5517 49.8198 13.6053C51.7126 13.8469 53.6324 14.0615 55.4982 14.3567C59.7165 15.0008 63.8536 15.9668 67.9367 17.1476C73.2637 18.6503 78.4283 20.5288 83.566 22.5415C86.3241 23.6149 89.0552 24.6883 91.8133 25.708C92.9219 26.1106 94.0576 26.5131 95.3015 26.4057C95.2835 26.4415 95.2654 26.4773 95.2474 26.5131C93.3816 29.8407 90.7858 32.6047 87.5409 34.8588C81.9706 38.6963 75.7514 40.7626 68.775 40.7895C64.9623 40.7895 61.2037 40.3601 57.4721 39.6892C54.1462 39.0988 50.8202 38.3206 47.5213 37.5424C42.9515 36.4421 38.3817 35.2882 33.7578 34.349C30.8916 33.7854 27.9712 33.2756 25.0509 32.9267C22.2387 32.6047 19.4175 32.4437 16.5873 32.4437C14.424 32.4437 12.2608 32.5242 10.0976 32.7389C9.39456 32.8194 8.69151 32.8999 7.96143 32.9804C8.06959 32.873 8.17775 32.7657 8.28591 32.6584C12.2068 28.9551 16.5062 25.6007 21.103 22.6488C24.9968 20.1531 29.0528 17.9795 33.4334 16.3157C37.3272 14.8397 41.3291 13.8468 45.5204 13.5785C45.8809 13.5606 46.2414 13.5338 46.602 13.498Z" fill="#1BB9CF"/>
</g>
<path d="M48.3325 13.498C48.6931 13.5338 49.0536 13.5606 49.4141 13.5785C51.7396 13.7395 54.0651 14.0884 56.3365 14.4909C57.6614 14.7056 58.9864 14.9739 60.3114 15.2154C60.2933 15.2333 60.2843 15.2512 60.2843 15.2691C59.9418 15.2154 59.5993 15.1618 59.2568 15.1081C56.7961 14.7324 54.3625 14.4104 51.8748 14.3835C50.1713 14.3567 48.5218 14.5446 46.8453 14.8129C43.1138 15.3765 39.5444 16.4499 36.0833 17.8185C31.216 19.7506 26.6733 22.2463 22.3739 25.1177C20.7244 26.2179 19.129 27.4255 17.5066 28.5794C17.074 28.9014 16.8036 29.304 16.5061 29.787C16.8306 29.8407 17.1551 29.948 17.4526 30.0017C17.9753 30.0553 18.4981 30.0822 19.0209 30.0822C21.9683 30.1358 24.8886 30.27 27.809 30.5652C31.9732 30.9946 36.1103 31.7191 40.1934 32.6047C45.0336 33.6781 49.8468 34.8052 54.66 35.9054C57.9048 36.63 61.1766 37.3277 64.5026 37.8376C67.5852 38.3206 70.6948 38.6963 73.8315 38.75C74.9672 38.7768 76.1029 38.6695 77.2386 38.5621C79.0232 38.4011 80.7718 38.097 82.4844 37.6497C82.5204 37.6318 82.5655 37.6408 82.6196 37.6766C82.5655 37.6944 82.5114 37.7213 82.4573 37.7571C79.7263 39.0183 76.86 39.9307 73.8585 40.3869C71.6412 40.7089 69.3969 40.8163 67.1526 40.7626C63.1776 40.6553 59.3109 40.0649 55.4441 39.2867C50.8743 38.4011 46.3586 37.2472 41.8429 36.1738C38.3547 35.3419 34.8394 34.5368 31.3242 33.8928C28.5931 33.3829 25.8621 32.9804 23.104 32.7389C19.9943 32.4705 16.8577 32.39 13.721 32.4973C11.8282 32.5779 9.9624 32.712 8.09663 32.9804C8.06959 32.9804 8.01551 32.9804 7.96143 32.9804C8.04255 32.8999 8.09663 32.8462 8.15071 32.7925C14.1807 27.1035 20.8867 22.2463 28.485 18.4625C31.865 16.7987 35.3802 15.457 39.0848 14.5714C41.4643 13.981 43.8979 13.6322 46.3586 13.5517C46.4487 13.5338 46.5299 13.5159 46.602 13.498C47.1788 13.498 47.7557 13.498 48.3325 13.498Z" fill="#1BB9CF"/>
<g opacity="0.7">
<path d="M6.04842 32.6846C6.31882 32.1479 6.58922 31.5575 6.91371 30.9671C10.1585 24.6876 14.3768 18.9986 19.7308 14.0609C23.5435 10.5455 27.8429 7.62042 32.7372 5.50044C35.7116 4.23918 38.8212 3.29995 42.012 2.54856C45.1486 1.82401 48.3664 1.28729 51.5842 0.911597C55.8295 0.401727 60.0749 0.160223 64.3472 0.0528818C67.538 -0.027624 70.7558 -0.0276273 73.9465 0.133384C76.7767 0.258616 79.5979 0.419624 82.4101 0.616416C84.33 0.777427 86.2498 1.01894 88.1967 1.23362C88.3319 1.23362 88.4671 1.26046 88.6294 1.2873C88.4942 1.50198 88.386 1.68983 88.2508 1.87768C86.9259 4.07817 85.4657 6.22498 83.8433 8.29129C80.0576 13.1216 75.1904 16.7444 69.4578 19.3743C66.0237 20.9576 62.4274 22.0578 58.6688 22.7287C56.2081 23.1849 53.7204 23.4801 51.2057 23.6411C47.393 23.9094 43.5803 23.9094 39.7676 23.9631C37.1447 23.9899 34.5218 24.0168 31.9259 24.1241C28.6541 24.2583 25.3822 24.5535 22.1644 25.1439C17.189 26.0831 12.5651 27.8274 8.455 30.6451C8.13051 30.8598 7.779 31.1013 7.48156 31.3696C6.99483 31.799 6.5081 32.2552 6.04842 32.6846Z" fill="#A8DDE8"/>
</g>
<path d="M50.2598 1.09964C48.9889 1.36799 47.7721 1.63635 46.5823 1.9047C42.986 2.76343 39.4978 3.83684 36.1448 5.31278C31.4128 7.40593 27.1674 10.1431 23.3277 13.3902C20.7048 15.6175 18.4334 18.14 16.2972 20.7431C15.3779 21.897 14.4585 23.0241 13.7284 24.2853C13.5391 24.6342 13.3499 25.0367 13.1606 25.3855C13.1786 25.4213 13.1966 25.4571 13.2147 25.4929C13.3499 25.4929 13.5121 25.5197 13.6473 25.466C14.4585 25.2245 15.2968 24.983 16.108 24.7147C18.812 23.8023 21.5791 23.1314 24.4093 22.702C27.1404 22.2727 29.8985 22.0043 32.6837 21.8433C36.8208 21.6018 40.958 21.5749 45.1222 21.5481C48.6104 21.4944 52.0986 21.4139 55.5597 21.1188C59.778 20.7699 63.9151 20.1527 67.9441 19.0524C69.855 18.5157 71.7298 17.8806 73.5685 17.1471C73.6226 17.1203 73.6767 17.0935 73.7578 17.0935C73.7037 17.1471 73.6406 17.1919 73.5685 17.2276C69.2421 19.8038 64.5641 21.5481 59.5346 22.5678C57.1551 23.0509 54.7485 23.3729 52.3149 23.5608C48.4752 23.8828 44.6625 23.9096 40.8228 23.9365C37.8483 23.9901 34.9009 24.0169 31.9265 24.1243C28.5194 24.2585 25.0853 24.5805 21.7323 25.2245C16.7569 26.2174 12.1601 28.0154 8.077 30.9136C7.69844 31.182 7.31988 31.4503 6.99539 31.7723C6.64387 32.0675 6.37347 32.4164 6.02194 32.7921C6.10306 32.6042 6.18419 32.4432 6.26531 32.2822C8.34741 27.9081 10.9974 23.8291 14.107 20.0185C16.9462 16.5567 20.137 13.417 23.8144 10.6798C28.6546 7.05707 34.1168 4.56139 40.0927 3.03178C43.3916 2.17305 46.6905 1.55584 50.0705 1.09964C50.0976 1.09964 50.1517 1.09964 50.2598 1.09964Z" fill="#A8DDE8"/>
<path d="M50.3224 95.6566C33.7014 95.6566 17.0804 95.6566 0.459385 95.6566C0.363006 95.6566 0.262247 95.6566 0.157106 95.6566C0.117679 95.6566 0.0782496 95.6174 0.0388218 95.5783C-0.0137486 95.5261 -0.000605204 95.4088 0.0519652 95.3566C0.0782504 95.3435 0.104536 95.3175 0.117678 95.3175C0.170249 95.3001 0.222819 95.2914 0.275389 95.2914C0.367387 95.2914 0.446242 95.2914 0.525098 95.2914C33.7233 95.2914 66.9215 95.2914 100.12 95.2914C100.225 95.2914 100.317 95.2914 100.422 95.2914C100.475 95.3001 100.527 95.3131 100.58 95.3305C100.619 95.3435 100.659 95.4087 100.672 95.474C100.672 95.5261 100.632 95.6044 100.58 95.6305C100.553 95.6435 100.54 95.6566 100.514 95.6566C100.47 95.6566 100.426 95.6566 100.383 95.6566C100.286 95.6566 100.194 95.6566 100.107 95.6566C83.5119 95.6566 66.9172 95.6566 50.3224 95.6566Z" fill="#A8DDE8"/>
<path d="M5.08628 98.3565H5.07314L3.16746 103L1.28807 98.3565H1.27493L0.3418 102.817H9.15527e-05L1.16978 97.2348L3.16746 102.152L5.17828 97.2348L6.34797 102.817H6.01941L5.08628 98.3565Z" fill="white"/>
<path fill-rule="evenodd" clip-rule="evenodd" d="M6.96544 101.187C6.95229 102.035 7.53057 102.583 8.30598 102.583C8.81855 102.583 9.23911 102.283 9.47568 101.839L9.75167 101.996C9.44939 102.57 8.91054 102.896 8.25341 102.896C7.26772 102.896 6.63687 102.1 6.63687 101.161C6.63687 100.235 7.28086 99.4392 8.25341 99.4392C9.26539 99.4392 9.86995 100.235 9.85681 101.187H6.96544ZM9.54139 100.887C9.46253 100.287 8.94997 99.7392 8.26655 99.7392C7.58314 99.7392 7.03115 100.274 6.96544 100.887H9.54139Z" fill="white"/>
<path d="M10.9681 99.9218H10.9812C11.1258 99.6218 11.4675 99.4392 11.8223 99.4392C12.2429 99.4392 12.5846 99.6479 12.7555 100.039C12.9395 99.6479 13.3075 99.4392 13.728 99.4392C14.5823 99.4392 14.7531 100.013 14.7531 100.743V102.817H14.4377V100.704C14.4377 100.196 14.3589 99.7392 13.7149 99.7392C13.0315 99.7392 12.8606 100.339 12.8606 100.913V102.817H12.532V100.783C12.532 100.261 12.4401 99.7392 11.7961 99.7392C11.0995 99.7392 10.9681 100.457 10.9681 101.004V102.817H10.6395V99.5044H10.9681V99.9218Z" fill="white"/>
<path fill-rule="evenodd" clip-rule="evenodd" d="M15.8704 96.9087H16.1989V100.078H16.2121C16.4881 99.6738 16.9875 99.439 17.4869 99.439C18.4857 99.439 19.1297 100.182 19.1297 101.148C19.1297 102.113 18.4857 102.895 17.4738 102.895C16.9875 102.895 16.4486 102.648 16.2121 102.217H16.1989V102.817H15.8704V96.9087ZM18.8012 101.135C18.8012 100.417 18.2755 99.739 17.5 99.739C16.6589 99.739 16.1726 100.365 16.1726 101.148C16.1726 101.917 16.6589 102.582 17.4869 102.582C18.3017 102.582 18.8012 101.904 18.8012 101.135Z" fill="white"/>
<path fill-rule="evenodd" clip-rule="evenodd" d="M19.9135 101.187C19.9004 102.035 20.4786 102.583 21.2541 102.583C21.7666 102.583 22.1872 102.283 22.4237 101.839L22.6997 101.996C22.3975 102.57 21.8718 102.896 21.2146 102.896C20.2158 102.896 19.5981 102.1 19.5981 101.161C19.5981 100.235 20.2421 99.4392 21.2146 99.4392C22.2135 99.4392 22.818 100.235 22.8049 101.187H19.9135ZM22.4895 100.887C22.4106 100.287 21.898 99.7392 21.2146 99.7392C20.5443 99.7392 19.9792 100.274 19.9135 100.887H22.4895Z" fill="white"/>
<path d="M23.924 99.9348H23.9372C24.0686 99.6348 24.3051 99.4392 24.66 99.4392C24.7914 99.4392 24.8966 99.4653 25.0148 99.5175L24.844 99.8044C24.7651 99.7653 24.6994 99.7392 24.6074 99.7392C23.8846 99.7392 23.924 100.639 23.924 101.135V102.817H23.5954V99.5044H23.924V99.9348Z" fill="white"/>
<path fill-rule="evenodd" clip-rule="evenodd" d="M30.9894 101.161C30.9894 102.139 30.2271 102.896 29.2414 102.896C28.282 102.896 27.5066 102.113 27.5066 101.174C27.5066 100.222 28.282 99.4392 29.2414 99.4392C30.2271 99.4392 30.9894 100.183 30.9894 101.161ZM27.8351 101.174C27.8351 101.917 28.4397 102.583 29.2151 102.583C30.0299 102.583 30.6739 101.97 30.6739 101.174C30.6739 100.352 30.0431 99.7392 29.2151 99.7392C28.4265 99.7392 27.8351 100.404 27.8351 101.174Z" fill="white"/>
<path d="M32.098 102.817H31.7694V99.8172H31.4014V99.5042H31.7694V98.0303C31.7694 97.7825 31.7826 97.4304 31.9009 97.2217C32.0586 96.9608 32.3477 96.8173 32.65 96.8173C32.742 96.8173 32.8471 96.8304 32.9391 96.8695V97.1565C32.8471 97.1434 32.7551 97.1173 32.6631 97.1173C32.1111 97.1173 32.098 97.6782 32.098 98.0955V99.5042H32.9391V99.8172H32.098V102.817Z" fill="white"/>
<path d="M40.0971 98.5261C39.6765 98.0174 38.9406 97.6653 38.2703 97.6653C36.9166 97.6653 35.7995 98.8261 35.7995 100.156C35.7995 100.783 36.0755 101.383 36.5223 101.826C36.9823 102.256 37.6263 102.569 38.2703 102.569C38.9011 102.569 39.6897 102.23 40.0971 101.748V102.217C39.5845 102.635 38.9537 102.895 38.2834 102.895C36.772 102.895 35.4578 101.63 35.4578 100.13C35.4578 98.5913 36.7457 97.3522 38.2966 97.3522C38.9537 97.3522 39.6108 97.6 40.0971 98.0565V98.5261Z" fill="white"/>
<path d="M41.4038 102.817H41.0872V96.9087H41.4038V102.817Z" fill="white"/>
<path fill-rule="evenodd" clip-rule="evenodd" d="M42.5093 101.187C42.4831 102.035 43.0745 102.583 43.8499 102.583C44.3624 102.583 44.783 102.283 45.0196 101.839L45.2956 101.996C44.9933 102.57 44.4544 102.896 43.7973 102.896C42.8116 102.896 42.1808 102.1 42.1808 101.161C42.1808 100.235 42.8248 99.4392 43.7973 99.4392C44.8093 99.4392 45.4139 100.235 45.4007 101.187H42.5093ZM45.0721 100.887C44.9933 100.287 44.4939 99.7392 43.8104 99.7392C43.127 99.7392 42.5619 100.274 42.5093 100.887H45.0721Z" fill="white"/>
<path d="M46.5226 99.9218H46.5357C46.6803 99.6218 47.022 99.4392 47.3637 99.4392C47.7974 99.4392 48.1391 99.6479 48.31 100.039C48.4808 99.6479 48.8488 99.4392 49.2825 99.4392C50.1368 99.4392 50.3076 100.013 50.3076 100.743V102.817H49.9922V100.704C49.9922 100.196 49.9134 99.7392 49.2694 99.7392C48.5859 99.7392 48.4151 100.339 48.4151 100.913V102.817H48.0865V100.783C48.0865 100.261 47.9945 99.7392 47.3505 99.7392C46.654 99.7392 46.5226 100.457 46.5226 101.004V102.817H46.194V99.5044H46.5226V99.9218Z" fill="white"/>
<path fill-rule="evenodd" clip-rule="evenodd" d="M51.4305 101.187C51.4042 102.035 51.9956 102.583 52.7579 102.583C53.2836 102.583 53.7041 102.283 53.9407 101.839L54.2167 101.996C53.9144 102.57 53.3756 102.896 52.7185 102.896C51.7328 102.896 51.1019 102.1 51.1019 101.161C51.1019 100.235 51.7459 99.4392 52.7185 99.4392C53.7304 99.4392 54.335 100.235 54.3219 101.187H51.4305ZM53.9933 100.887C53.9144 100.287 53.415 99.7392 52.7316 99.7392C52.0482 99.7392 51.483 100.274 51.4305 100.887H53.9933Z" fill="white"/>
<path d="M55.4253 100.026H55.4516C55.6355 99.6609 56.0035 99.4392 56.4372 99.4392C57.2915 99.4392 57.5281 99.974 57.5281 100.822V102.817H57.1995V100.822C57.1995 100.222 57.1338 99.7392 56.411 99.7392C55.5698 99.7392 55.4253 100.509 55.4253 101.187V102.817H55.1098V99.5044H55.4253V100.026Z" fill="white"/>
<path d="M61.1932 100.274C60.8778 99.9348 60.4967 99.7392 60.0235 99.7392C59.235 99.7392 58.6435 100.404 58.6435 101.161C58.6435 101.904 59.2218 102.583 60.0104 102.583C60.4835 102.583 60.9304 102.361 61.2326 101.996V102.426C60.9041 102.726 60.4704 102.896 60.0235 102.896C59.0378 102.896 58.315 102.126 58.315 101.161C58.315 100.196 59.051 99.4392 60.0367 99.4392C60.4704 99.4392 60.8646 99.5696 61.1932 99.8435V100.274Z" fill="white"/>
<path fill-rule="evenodd" clip-rule="evenodd" d="M62.0858 101.187C62.0595 102.035 62.6378 102.583 63.4132 102.583C63.9389 102.583 64.3463 102.283 64.596 101.839L64.8589 101.996C64.5566 102.57 64.0309 102.896 63.3738 102.896C62.3881 102.896 61.7572 102.1 61.7572 101.161C61.7572 100.235 62.4012 99.4392 63.3738 99.4392C64.3857 99.4392 64.9772 100.235 64.9772 101.187H62.0858ZM64.6486 100.887C64.5697 100.287 64.0703 99.7392 63.3738 99.7392C62.7035 99.7392 62.1384 100.274 62.0858 100.887H64.6486Z" fill="white"/>
<path fill-rule="evenodd" clip-rule="evenodd" d="M68.6828 102.817H68.3673V102.217H68.3542C68.1045 102.648 67.5656 102.896 67.0794 102.896C66.0674 102.896 65.4365 102.113 65.4365 101.148C65.4365 100.183 66.0674 99.4392 67.0662 99.4392C67.5788 99.4392 68.0651 99.674 68.3542 100.078H68.3673V99.5044H68.6828V102.817ZM65.7651 101.148C65.7651 101.904 66.2645 102.596 67.0662 102.596C67.9205 102.596 68.3805 101.904 68.3805 101.109C68.3805 100.352 67.8548 99.7392 67.0531 99.7392C66.2908 99.7392 65.7651 100.43 65.7651 101.148Z" fill="white"/>
<path d="M72.1439 99.5042V101.487C72.1439 101.826 72.157 102.165 71.9467 102.439C71.7102 102.752 71.329 102.895 70.9479 102.895C70.5799 102.895 70.1856 102.752 69.949 102.439C69.7519 102.165 69.7519 101.826 69.7519 101.487V99.5042H70.0805V101.382C70.0805 102.022 70.1462 102.582 70.9479 102.582C71.7496 102.582 71.8284 102.022 71.8284 101.382V99.5042H72.1439Z" fill="white"/>
<path d="M80.3829 103L75.8224 98.1739V102.817H75.4675V97.3522L80.0412 102.126V97.4174H80.3829V103Z" fill="white"/>
<path fill-rule="evenodd" clip-rule="evenodd" d="M81.528 101.187C81.5017 102.035 82.0931 102.583 82.8554 102.583C83.3811 102.583 83.8017 102.283 84.0382 101.839L84.3142 101.996C84.0119 102.57 83.4731 102.896 82.816 102.896C81.8303 102.896 81.1994 102.1 81.1994 101.161C81.1994 100.235 81.8434 99.4392 82.816 99.4392C83.8279 99.4392 84.4194 100.235 84.4194 101.187H81.528ZM84.0908 100.887C84.0119 100.287 83.5125 99.7392 82.8291 99.7392C82.1457 99.7392 81.5806 100.274 81.528 100.887H84.0908Z" fill="white"/>
<path d="M85.559 102.817H85.2305V99.8176H84.8625V99.5045H85.2305V98.3307H85.559V99.5045H86.1505V99.8176H85.559V102.817Z" fill="white"/>
<path d="M87.6989 102.217L88.8686 99.3346L90.0514 102.217L91.208 99.5042H91.5365L90.0251 103L88.8554 100.143L87.6857 103L86.1875 99.5042H86.5161L87.6989 102.217Z" fill="white"/>
<path fill-rule="evenodd" clip-rule="evenodd" d="M95.297 101.161C95.297 102.139 94.5215 102.896 93.5358 102.896C92.5764 102.896 91.801 102.113 91.801 101.174C91.801 100.222 92.5764 99.4392 93.5358 99.4392C94.5215 99.4392 95.297 100.183 95.297 101.161ZM92.1296 101.174C92.1296 101.917 92.7341 102.583 93.5227 102.583C94.3375 102.583 94.9684 101.97 94.9684 101.174C94.9684 100.352 94.3375 99.7392 93.5227 99.7392C92.721 99.7392 92.1296 100.404 92.1296 101.174Z" fill="white"/>
<path d="M96.4015 99.9348H96.4146C96.546 99.6348 96.7826 99.4392 97.1374 99.4392C97.2689 99.4392 97.374 99.4653 97.4923 99.5175L97.3214 99.8044C97.2426 99.7653 97.1769 99.7392 97.0849 99.7392C96.362 99.7392 96.4015 100.639 96.4015 101.135V102.817H96.0729V99.5044H96.4015V99.9348Z" fill="white"/>
<path d="M98.4162 100.913L99.783 99.5042H100.204L98.7973 100.939L100.677 102.817H100.243L98.5871 101.161L98.4162 101.356V102.817H98.0876V96.9087H98.4162V100.913Z" fill="white"/>
<path d="M7.95134 77.5919C7.9601 77.6615 7.97324 77.7398 7.99077 77.8267C7.99953 77.9137 8.00391 78.018 8.00391 78.1397C8.00391 78.4615 7.94258 78.7571 7.81991 79.0267C7.69725 79.2962 7.48259 79.5266 7.17593 79.7179C6.8605 79.9179 6.44432 80.0744 5.92738 80.1875C5.40167 80.2918 4.73578 80.344 3.9297 80.344C3.15867 80.344 2.51906 80.2744 2.01088 80.1353C1.51146 79.9875 1.1128 79.7832 0.814904 79.5223C0.517005 79.2701 0.306723 78.9745 0.184059 78.6354C0.0613944 78.2876 6.10352e-05 77.9137 6.10352e-05 77.5137V75.5572H1.55089V77.4615C1.55089 77.9745 1.73927 78.3484 2.11602 78.5832C2.48401 78.818 3.09734 78.9354 3.95599 78.9354C4.51674 78.9354 4.96359 78.9006 5.29653 78.831C5.63824 78.7701 5.90109 78.6919 6.08509 78.5962C6.26909 78.5006 6.39175 78.4049 6.45308 78.3093C6.51441 78.205 6.54508 78.1137 6.54508 78.0354C6.54508 77.9311 6.48813 77.8397 6.37423 77.7615C6.26908 77.6745 6.12014 77.5919 5.92738 77.5137C5.72586 77.4354 5.48491 77.3572 5.20453 77.2789C4.93292 77.2093 4.62626 77.1311 4.28455 77.0441V75.6355C4.80149 75.8007 5.30091 75.9442 5.78281 76.0659C6.2647 76.1789 6.69403 76.2355 7.07079 76.2355H8.5559C8.61723 76.2355 8.67418 76.2442 8.72675 76.2616C8.78808 76.2702 8.84066 76.2963 8.88446 76.3398C8.92827 76.3833 8.95894 76.4485 8.97646 76.5355C9.00275 76.6224 9.01589 76.7398 9.01589 76.8876C9.01589 77.1572 8.97646 77.3441 8.89761 77.4485C8.82751 77.5441 8.71361 77.5919 8.5559 77.5919H7.95134ZM2.11602 82.0526C2.11602 81.8179 2.19926 81.6179 2.36573 81.4526C2.5322 81.2874 2.72934 81.2048 2.95715 81.2048C3.19371 81.2048 3.39524 81.2874 3.56171 81.4526C3.72818 81.6179 3.81142 81.8179 3.81142 82.0526C3.81142 82.2787 3.72818 82.4744 3.56171 82.6396C3.39524 82.8048 3.19371 82.8874 2.95715 82.8874C2.72934 82.8874 2.5322 82.8048 2.36573 82.6396C2.19926 82.4744 2.11602 82.2787 2.11602 82.0526ZM4.06113 82.0526C4.06113 81.8179 4.14436 81.6179 4.31084 81.4526C4.47731 81.2874 4.67445 81.2048 4.90226 81.2048C5.13006 81.2048 5.3272 81.2874 5.49367 81.4526C5.66015 81.6179 5.74338 81.8179 5.74338 82.0526C5.74338 82.2787 5.66015 82.4744 5.49367 82.6396C5.3272 82.8048 5.13006 82.8874 4.90226 82.8874C4.67445 82.8874 4.47731 82.8048 4.31084 82.6396C4.14436 82.4744 4.06113 82.2787 4.06113 82.0526Z" fill="white"/>
<path d="M8.55903 77.5919C8.48893 77.5919 8.4276 77.5876 8.37503 77.5789C8.32246 77.5702 8.27427 77.5441 8.23046 77.5006C8.18665 77.4571 8.15161 77.3919 8.12532 77.305C8.09904 77.218 8.08589 77.0963 8.08589 76.9398C8.08589 76.6789 8.12532 76.4963 8.20417 76.392C8.28303 76.2876 8.40132 76.2354 8.55903 76.2354H10.3201C10.3815 76.2354 10.4384 76.2441 10.491 76.2615C10.5523 76.2702 10.6049 76.2963 10.6487 76.3398C10.6925 76.3833 10.7232 76.4485 10.7407 76.5354C10.767 76.6224 10.7801 76.7398 10.7801 76.8876C10.7801 77.1571 10.7407 77.3441 10.6618 77.4484C10.5917 77.5441 10.4778 77.5919 10.3201 77.5919H8.55903Z" fill="white"/>
<path d="M10.3155 77.5919C10.2542 77.5919 10.1928 77.5876 10.1315 77.5789C10.0789 77.5702 10.0307 77.5441 9.98693 77.5006C9.94312 77.4571 9.90808 77.3919 9.88179 77.305C9.85551 77.218 9.84236 77.0963 9.84236 76.9398C9.84236 76.6789 9.88179 76.4963 9.96065 76.392C10.0395 76.2876 10.1578 76.2354 10.3155 76.2354H12.0766C12.1379 76.2354 12.1949 76.2441 12.2475 76.2615C12.3088 76.2702 12.3614 76.2963 12.4052 76.3398C12.449 76.3833 12.4796 76.4485 12.4972 76.5354C12.5235 76.6224 12.5366 76.7398 12.5366 76.8876C12.5366 77.1571 12.5016 77.3441 12.4315 77.4484C12.3526 77.5441 12.2343 77.5919 12.0766 77.5919H10.3155Z" fill="white"/>
<path d="M12.0822 77.5919C12.0208 77.5919 11.9595 77.5876 11.8982 77.5789C11.8456 77.5702 11.7974 77.5441 11.7536 77.5006C11.7098 77.4571 11.6748 77.3919 11.6485 77.305C11.6222 77.218 11.609 77.0963 11.609 76.9398C11.609 76.6789 11.6485 76.4963 11.7273 76.392C11.8062 76.2876 11.9245 76.2354 12.0822 76.2354H13.8433C13.9046 76.2354 13.9616 76.2441 14.0141 76.2615C14.0755 76.2702 14.128 76.2963 14.1718 76.3398C14.2157 76.3833 14.2463 76.4485 14.2638 76.5354C14.2901 76.6224 14.3033 76.7398 14.3033 76.8876C14.3033 77.1571 14.2682 77.3441 14.1981 77.4484C14.1193 77.5441 14.001 77.5919 13.8433 77.5919H12.0822Z" fill="white"/>
<path d="M15.1998 76.2353V69.1661H16.7506V77.5918H13.833C13.7717 77.5918 13.7103 77.5875 13.649 77.5788C13.5964 77.5701 13.5482 77.544 13.5044 77.5005C13.4606 77.457 13.4256 77.3918 13.3993 77.3049C13.3818 77.2179 13.3686 77.0962 13.3598 76.9397C13.3686 76.6788 13.408 76.4962 13.4781 76.3919C13.557 76.2875 13.6753 76.2353 13.833 76.2353H15.1998Z" fill="white"/>
<path d="M23.0454 77.5922C22.8176 77.5922 22.6205 77.5835 22.454 77.5661C22.2875 77.54 22.1473 77.5009 22.0334 77.4487C21.9108 77.4053 21.7969 77.3444 21.6917 77.2661C21.5954 77.1966 21.4902 77.1096 21.3763 77.0053C21.1485 77.2661 20.8988 77.4313 20.6272 77.5009C20.3643 77.5618 20.0796 77.5922 19.7729 77.5922H17.6964V76.2357H20.0621C20.246 76.2357 20.3862 76.2053 20.4826 76.1444C20.5702 76.0923 20.614 76.027 20.614 75.9488C20.614 75.8618 20.5746 75.7531 20.4958 75.6227C20.4257 75.501 20.2855 75.2923 20.0752 74.9966L18.9975 73.4054L20.4169 72.5054L21.8363 74.9053C21.994 75.1575 22.1254 75.3705 22.2306 75.5444C22.3445 75.7184 22.4452 75.8531 22.5329 75.9488C22.6292 76.0531 22.7169 76.127 22.7957 76.1705C22.8746 76.214 22.9578 76.2357 23.0454 76.2357C23.1068 76.2357 23.1637 76.2444 23.2163 76.2618C23.2776 76.2705 23.3302 76.2966 23.374 76.3401C23.4178 76.3836 23.4485 76.4488 23.466 76.5357C23.4923 76.6227 23.5054 76.7401 23.5054 76.8879C23.5054 77.1574 23.4704 77.3444 23.4003 77.4487C23.3214 77.5444 23.2031 77.5922 23.0454 77.5922Z" fill="white"/>
<path d="M23.7787 76.2354C24.0503 76.2354 24.2387 76.1963 24.3438 76.1181C24.449 76.0311 24.5016 75.8442 24.5016 75.5572V72.8964H26.0524V75.4268C26.0524 75.7137 26.1093 75.9224 26.2232 76.0528C26.3284 76.1746 26.5737 76.2354 26.9592 76.2354C27.0206 76.2354 27.0775 76.2441 27.1301 76.2615C27.1914 76.2702 27.244 76.2963 27.2878 76.3398C27.3316 76.3833 27.3623 76.4485 27.3798 76.5354C27.4061 76.6224 27.4192 76.7398 27.4192 76.8876C27.4192 77.1571 27.3842 77.3441 27.3141 77.4484C27.2352 77.5441 27.1169 77.5919 26.9592 77.5919C26.7314 77.5919 26.508 77.5571 26.2889 77.4876C26.0787 77.4093 25.899 77.2441 25.7501 76.9919C25.6625 77.1311 25.5486 77.2397 25.4084 77.318C25.277 77.405 25.1368 77.4658 24.9878 77.5006C24.8301 77.5441 24.6724 77.5702 24.5147 77.5789C24.3482 77.5876 24.1861 77.5919 24.0284 77.5919H23.0559C22.9945 77.5919 22.9332 77.5876 22.8719 77.5789C22.8193 77.5702 22.7711 77.5441 22.7273 77.5006C22.6835 77.4571 22.6484 77.3919 22.6222 77.305C22.5959 77.218 22.5827 77.0963 22.5827 76.9398C22.5827 76.6789 22.6222 76.4963 22.701 76.392C22.7799 76.2876 22.8982 76.2354 23.0559 76.2354H23.7787ZM24.4358 79.5484C24.4358 79.3136 24.5191 79.1136 24.6856 78.9484C24.852 78.7832 25.0492 78.7006 25.277 78.7006C25.5048 78.7006 25.7019 78.7832 25.8684 78.9484C26.0349 79.1136 26.1181 79.3136 26.1181 79.5484C26.1181 79.7744 26.0349 79.9701 25.8684 80.1353C25.7019 80.3005 25.5048 80.3831 25.277 80.3831C25.0492 80.3831 24.852 80.3005 24.6856 80.1353C24.5191 79.9701 24.4358 79.7744 24.4358 79.5484Z" fill="white"/>
<path d="M26.9535 77.5919C26.8922 77.5919 26.8308 77.5876 26.7695 77.5789C26.7169 77.5702 26.6687 77.5441 26.6249 77.5006C26.5811 77.4571 26.5461 77.3919 26.5198 77.305C26.5023 77.218 26.4935 77.0963 26.4935 76.9398C26.4935 76.6789 26.5285 76.4963 26.5986 76.392C26.6775 76.2876 26.7958 76.2354 26.9535 76.2354H28.7146C28.7759 76.2354 28.8329 76.2441 28.8855 76.2615C28.9468 76.2702 28.9994 76.2963 29.0432 76.3398C29.087 76.3833 29.1176 76.4485 29.1352 76.5354C29.1614 76.6224 29.1746 76.7398 29.1746 76.8876C29.1746 77.1571 29.1395 77.3441 29.0695 77.4484C28.9906 77.5441 28.8723 77.5919 28.7146 77.5919H26.9535Z" fill="white"/>
<path fill-rule="evenodd" clip-rule="evenodd" d="M29.5248 76.2354C29.6825 76.2354 29.8577 76.2311 30.0505 76.2224C30.2433 76.2137 30.4185 76.1963 30.5762 76.1702L29.3934 74.7485C29.4109 74.6442 29.4416 74.5355 29.4854 74.4224C29.5292 74.3094 29.5774 74.2007 29.6299 74.0964C29.6737 73.992 29.7219 73.8964 29.7745 73.8094C29.8358 73.7225 29.8884 73.6485 29.9322 73.5877C30.1863 73.3268 30.493 73.1225 30.8522 72.9747C31.2202 72.8181 31.6145 72.7399 32.035 72.7399C32.3943 72.7399 32.7097 72.7877 32.9813 72.8834C33.2529 72.979 33.4763 73.1007 33.6516 73.2486C33.8356 73.4051 33.9714 73.5833 34.059 73.7833C34.1379 73.9746 34.1773 74.1746 34.1773 74.3833C34.1773 74.6529 34.0853 74.9615 33.9013 75.3093C33.7173 75.6485 33.4457 75.9571 33.0864 76.2354H35.0053C35.0666 76.2354 35.1279 76.2441 35.1893 76.2615C35.2418 76.2702 35.29 76.2963 35.3338 76.3397C35.3776 76.3832 35.4127 76.4484 35.439 76.5354C35.4565 76.6223 35.4653 76.7397 35.4653 76.8875C35.4653 77.1571 35.4302 77.3441 35.3601 77.4484C35.2813 77.544 35.163 77.5919 35.0053 77.5919H33.0864C32.8849 77.5919 32.6527 77.5614 32.3899 77.5006C32.1358 77.431 31.8992 77.318 31.6802 77.1615C31.3297 77.2919 30.9792 77.3962 30.6288 77.4745C30.2871 77.5527 29.9366 77.5919 29.5774 77.5919H28.71C28.6486 77.5919 28.5873 77.5875 28.526 77.5788C28.4734 77.5701 28.4252 77.544 28.3814 77.5006C28.3376 77.4571 28.3025 77.3919 28.2762 77.3049C28.2587 77.218 28.25 77.0962 28.25 76.9397C28.25 76.6789 28.285 76.4963 28.3551 76.3919C28.434 76.2876 28.5522 76.2354 28.71 76.2354H29.5248ZM31.9693 74.0703C31.6977 74.0703 31.4655 74.105 31.2728 74.1746C31.08 74.2442 30.9311 74.3181 30.8259 74.3963C30.896 74.5007 30.9792 74.6094 31.0756 74.7224C31.1632 74.8442 31.2596 74.9615 31.3648 75.0746C31.4699 75.1963 31.5707 75.3137 31.667 75.4267C31.7722 75.5311 31.8686 75.6224 31.9562 75.7006C32.1665 75.5702 32.3373 75.3963 32.4687 75.1789C32.5914 74.9615 32.6527 74.7746 32.6527 74.6181C32.6527 74.5659 32.644 74.505 32.6265 74.4355C32.6089 74.3659 32.5783 74.305 32.5345 74.2529C32.4906 74.2094 32.4205 74.1659 32.3242 74.1224C32.2366 74.0877 32.1183 74.0703 31.9693 74.0703Z" fill="white"/>
<path d="M35.0128 77.5919C34.9515 77.5919 34.8902 77.5876 34.8288 77.5789C34.7763 77.5702 34.7281 77.5441 34.6843 77.5006C34.6405 77.4571 34.6054 77.3919 34.5791 77.305C34.5616 77.218 34.5528 77.0963 34.5528 76.9398C34.5528 76.6789 34.5879 76.4963 34.658 76.392C34.7368 76.2876 34.8551 76.2354 35.0128 76.2354H36.7739C36.8353 76.2354 36.8966 76.2441 36.9579 76.2615C37.0105 76.2702 37.0587 76.2963 37.1025 76.3398C37.1463 76.3833 37.1814 76.4485 37.2076 76.5354C37.2252 76.6224 37.2339 76.7398 37.2339 76.8876C37.2339 77.1571 37.1989 77.3441 37.1288 77.4484C37.0499 77.5441 36.9317 77.5919 36.7739 77.5919H35.0128Z" fill="white"/>
<path d="M38.1463 76.2353V69.1661H39.6972V77.5918H36.7795C36.7182 77.5918 36.6569 77.5875 36.5955 77.5788C36.5429 77.5701 36.4948 77.544 36.451 77.5005C36.4071 77.457 36.3721 77.3918 36.3458 77.3049C36.3283 77.2179 36.3195 77.0962 36.3195 76.9397C36.3195 76.6788 36.3546 76.4962 36.4247 76.3919C36.5035 76.2875 36.6218 76.2353 36.7795 76.2353H38.1463Z" fill="white"/>
<path d="M42.6758 69.1661V77.5918H41.125V69.1661H42.6758Z" fill="white"/>
<path d="M54.6226 77.5919C54.6401 77.6615 54.6576 77.7398 54.6751 77.8267C54.6839 77.9137 54.6883 78.018 54.6883 78.1397C54.6883 78.4615 54.6269 78.7571 54.5043 79.0267C54.3816 79.2962 54.1669 79.5266 53.8603 79.7179C53.5449 79.9179 53.1243 80.0744 52.5986 80.1875C52.0816 80.2918 51.4201 80.344 50.6141 80.344C49.843 80.344 49.2034 80.2744 48.6952 80.1353C48.1871 79.9875 47.7884 79.7832 47.4993 79.5223C47.2014 79.2701 46.9911 78.9745 46.8684 78.6354C46.7458 78.2876 46.6844 77.9137 46.6844 77.5137V75.5572H48.2353V77.4615C48.2353 77.9745 48.4236 78.3484 48.8004 78.5832C49.1684 78.818 49.7817 78.9354 50.6403 78.9354C51.1923 78.9354 51.6392 78.9006 51.9809 78.831C52.3138 78.7701 52.5767 78.6919 52.7695 78.5962C52.9534 78.5006 53.0761 78.4049 53.1374 78.3093C53.1988 78.205 53.2294 78.1137 53.2294 78.0354C53.2294 77.9311 53.1725 77.8397 53.0586 77.7615C52.9534 77.6745 52.8001 77.5919 52.5986 77.5137C52.4058 77.4354 52.1693 77.3572 51.8889 77.2789C51.6085 77.2093 51.3019 77.1311 50.9689 77.0441V75.6355C51.4859 75.8007 51.9853 75.9442 52.4672 76.0659C52.9491 76.1789 53.374 76.2355 53.742 76.2355H55.2403C55.3016 76.2355 55.3585 76.2442 55.4111 76.2616C55.4724 76.2702 55.525 76.2963 55.5688 76.3398C55.6126 76.3833 55.6433 76.4485 55.6608 76.5355C55.6871 76.6224 55.7003 76.7398 55.7003 76.8876C55.7003 77.1572 55.6608 77.3441 55.582 77.4485C55.5119 77.5441 55.398 77.5919 55.2403 77.5919H54.6226Z" fill="white"/>
<path d="M55.2381 77.5919C55.168 77.5919 55.1067 77.5876 55.0541 77.5789C55.0015 77.5702 54.9533 77.5441 54.9095 77.5006C54.8657 77.4571 54.8307 77.3919 54.8044 77.305C54.7781 77.218 54.7649 77.0963 54.7649 76.9398C54.7649 76.6789 54.8044 76.4963 54.8832 76.392C54.9621 76.2876 55.0804 76.2354 55.2381 76.2354H56.9992C57.0605 76.2354 57.1175 76.2441 57.17 76.2615C57.2314 76.2702 57.2839 76.2963 57.3278 76.3398C57.3716 76.3833 57.4022 76.4485 57.4198 76.5354C57.446 76.6224 57.4592 76.7398 57.4592 76.8876C57.4592 77.1571 57.4198 77.3441 57.3409 77.4484C57.2708 77.5441 57.1569 77.5919 56.9992 77.5919H55.2381Z" fill="white"/>
<path d="M57.0051 77.5919C56.935 77.5919 56.8737 77.5876 56.8212 77.5789C56.7686 77.5702 56.7204 77.5441 56.6766 77.5006C56.6328 77.4571 56.5977 77.3919 56.5714 77.305C56.5452 77.218 56.532 77.0963 56.532 76.9398C56.532 76.6789 56.5714 76.4963 56.6503 76.392C56.7292 76.2876 56.8474 76.2354 57.0051 76.2354H58.7663C58.8276 76.2354 58.8845 76.2441 58.9371 76.2615C58.9984 76.2702 59.051 76.2963 59.0948 76.3398C59.1386 76.3833 59.1693 76.4485 59.1868 76.5354C59.2131 76.6224 59.2262 76.7398 59.2262 76.8876C59.2262 77.1571 59.1868 77.3441 59.108 77.4484C59.0379 77.5441 58.924 77.5919 58.7663 77.5919H57.0051Z" fill="white"/>
<path d="M58.7559 77.5919C58.6858 77.5919 58.6245 77.5876 58.5719 77.5789C58.5194 77.5702 58.4712 77.5441 58.4274 77.5006C58.3836 77.4571 58.3485 77.3919 58.3222 77.305C58.2959 77.218 58.2828 77.0963 58.2828 76.9398C58.2828 76.6789 58.3222 76.4963 58.4011 76.392C58.4799 76.2876 58.5982 76.2354 58.7559 76.2354H60.517C60.5784 76.2354 60.6353 76.2441 60.6879 76.2615C60.7492 76.2702 60.8018 76.2963 60.8456 76.3398C60.8894 76.3833 60.9201 76.4485 60.9376 76.5354C60.9639 76.6224 60.977 76.7398 60.977 76.8876C60.977 77.1571 60.9376 77.3441 60.8588 77.4484C60.7887 77.5441 60.6748 77.5919 60.517 77.5919H58.7559Z" fill="white"/>
<path d="M60.5226 77.5919C60.4525 77.5919 60.3912 77.5876 60.3386 77.5789C60.2861 77.5702 60.2379 77.5441 60.1941 77.5006C60.1503 77.4571 60.1152 77.3919 60.0889 77.305C60.0626 77.218 60.0495 77.0963 60.0495 76.9398C60.0495 76.6789 60.0889 76.4963 60.1678 76.392C60.2466 76.2876 60.3649 76.2354 60.5226 76.2354H62.2837C62.3451 76.2354 62.402 76.2441 62.4546 76.2615C62.5159 76.2702 62.5685 76.2963 62.6123 76.3398C62.6561 76.3833 62.6868 76.4485 62.7043 76.5354C62.7306 76.6224 62.7437 76.7398 62.7437 76.8876C62.7437 77.1571 62.7043 77.3441 62.6254 77.4484C62.5554 77.5441 62.4414 77.5919 62.2837 77.5919H60.5226Z" fill="white"/>
<path fill-rule="evenodd" clip-rule="evenodd" d="M63.3174 76.2355C63.256 76.1138 63.2122 75.9529 63.1859 75.753C63.1597 75.5617 63.1465 75.3834 63.1465 75.2182C63.1465 74.9138 63.1991 74.6139 63.3042 74.3182C63.4094 74.0139 63.5627 73.7443 63.7642 73.5096C63.9745 73.2835 64.2242 73.0965 64.5133 72.9487C64.8112 72.8096 65.1573 72.74 65.5516 72.74C65.9985 72.74 66.3708 72.8226 66.6687 72.9878C66.9579 73.1444 67.1857 73.3487 67.3521 73.6009C67.5274 73.8443 67.6457 74.1182 67.707 74.4226C67.7771 74.7269 67.8121 75.0225 67.8121 75.3095V76.2355H68.7321C68.7934 76.2355 68.8504 76.2442 68.903 76.2616C68.9643 76.2703 69.0169 76.2964 69.0607 76.3399C69.0957 76.3834 69.1264 76.4486 69.1527 76.5355C69.179 76.6225 69.1921 76.7399 69.1921 76.8877C69.1921 77.1572 69.1527 77.3442 69.0738 77.4485C69.0037 77.5442 68.8898 77.592 68.7321 77.592H62.2791C62.2178 77.592 62.1564 77.5877 62.0951 77.579C62.0425 77.5703 61.9943 77.5442 61.9505 77.5007C61.9067 77.4572 61.8717 77.392 61.8454 77.3051C61.8191 77.2181 61.806 77.0964 61.806 76.9399C61.806 76.679 61.8454 76.4964 61.9242 76.3921C62.0031 76.2877 62.1214 76.2355 62.2791 76.2355H63.3174ZM64.6185 75.153C64.6185 75.5616 64.7149 75.8442 64.9076 76.0008C65.1004 76.1573 65.3326 76.2355 65.6042 76.2355H66.2744V75.3356C66.2744 75.1791 66.2657 75.0269 66.2482 74.8791C66.2306 74.7399 66.1912 74.6139 66.1299 74.5008C66.0685 74.3878 65.9853 74.3008 65.8802 74.24C65.7838 74.1704 65.6524 74.1356 65.4859 74.1356C65.3194 74.1356 65.1792 74.1661 65.0653 74.2269C64.9602 74.2878 64.8726 74.3617 64.8025 74.4487C64.7411 74.5443 64.6973 74.653 64.671 74.7747C64.636 74.8965 64.6185 75.0225 64.6185 75.153ZM64.6579 70.8488C64.6579 70.6227 64.7411 70.4271 64.9076 70.2619C65.0741 70.0966 65.2712 70.014 65.499 70.014C65.7356 70.014 65.9371 70.0966 66.1036 70.2619C66.2701 70.4271 66.3533 70.6227 66.3533 70.8488C66.3533 71.0749 66.2701 71.2705 66.1036 71.4357C65.9371 71.6009 65.7356 71.6835 65.499 71.6835C65.2712 71.6835 65.0741 71.6009 64.9076 71.4357C64.7411 71.2705 64.6579 71.0749 64.6579 70.8488Z" fill="white"/>
<path d="M69.1399 76.2355C69.3151 76.2355 69.4597 76.2312 69.5736 76.2225C69.6963 76.2138 69.7927 76.1921 69.8627 76.1573C69.9328 76.1138 69.981 76.0573 70.0073 75.9877C70.0424 75.9095 70.0599 75.8051 70.0599 75.6747V73.4183H71.6107V75.4269C71.6107 75.679 71.6808 75.8747 71.821 76.0138C71.9524 76.1616 72.1627 76.2355 72.4518 76.2355C72.6884 76.2355 72.8855 76.2007 73.0433 76.1312C73.2097 76.0616 73.2886 75.9095 73.2798 75.6747V73.4183H74.8306V75.4269C74.8306 75.6964 74.892 75.9008 75.0146 76.0399C75.1373 76.1703 75.3388 76.2355 75.6192 76.2355C75.847 76.2355 76.0266 76.2007 76.1581 76.1312C76.2895 76.0529 76.3552 75.8877 76.3552 75.6356V72.8965H77.906V75.4269C77.906 75.7138 77.9674 75.9225 78.09 76.0529C78.2039 76.1747 78.4536 76.2355 78.8391 76.2355C78.9092 76.2355 78.9706 76.2442 79.0231 76.2616C79.0757 76.2703 79.1239 76.2964 79.1677 76.3399C79.2115 76.3834 79.2466 76.4486 79.2728 76.5355C79.2991 76.6225 79.3123 76.7399 79.3123 76.8877C79.3123 77.1572 79.2729 77.3442 79.194 77.4485C79.1239 77.5442 79.0056 77.592 78.8391 77.592C78.6113 77.592 78.3879 77.5529 78.1689 77.4746C77.9411 77.3877 77.7571 77.2181 77.6169 76.9659C77.503 77.1225 77.3847 77.2398 77.262 77.3181C77.1394 77.4051 77.0167 77.4703 76.894 77.5137C76.7626 77.5485 76.6356 77.5703 76.5129 77.579C76.3815 77.5877 76.2588 77.592 76.1449 77.592C75.996 77.592 75.8426 77.5833 75.6849 77.5659C75.5272 77.5398 75.3739 77.5007 75.2249 77.4485C75.076 77.3964 74.9358 77.3311 74.8044 77.2529C74.6817 77.1833 74.5809 77.092 74.5021 76.979C74.2568 77.2485 74.0114 77.4181 73.7661 77.4877C73.512 77.5572 73.2404 77.592 72.9513 77.592C72.1715 77.592 71.6107 77.3877 71.269 76.979C71.05 77.2572 70.7696 77.4311 70.4279 77.5007C70.0862 77.5616 69.6525 77.592 69.1268 77.592H68.7325C68.6624 77.592 68.6011 77.5877 68.5485 77.579C68.4959 77.5703 68.4477 77.5442 68.4039 77.5007C68.3601 77.4572 68.3251 77.392 68.2988 77.3051C68.2725 77.2181 68.2593 77.0964 68.2593 76.9399C68.2593 76.679 68.2988 76.4964 68.3776 76.392C68.4477 76.2877 68.566 76.2355 68.7325 76.2355H69.1399ZM72.2416 70.8488C72.2416 70.6227 72.3248 70.4271 72.4913 70.2618C72.6577 70.0966 72.8549 70.014 73.0827 70.014C73.3193 70.014 73.5208 70.0966 73.6872 70.2618C73.8537 70.4271 73.937 70.6227 73.937 70.8488C73.937 71.0749 73.8537 71.2705 73.6872 71.4357C73.5208 71.6009 73.3193 71.6835 73.0827 71.6835C72.8549 71.6835 72.6577 71.6009 72.4913 71.4357C72.3248 71.2705 72.2416 71.0749 72.2416 70.8488ZM73.2404 69.1402C73.2404 68.9141 73.3236 68.7184 73.4901 68.5532C73.6566 68.388 73.8537 68.3054 74.0815 68.3054C74.3181 68.3054 74.5196 68.388 74.6861 68.5532C74.8526 68.7184 74.9358 68.9141 74.9358 69.1402C74.9358 69.3662 74.8526 69.5619 74.6861 69.7271C74.5196 69.8923 74.3181 69.9749 74.0815 69.9749C73.8537 69.9749 73.6566 69.8923 73.4901 69.7271C73.3236 69.5619 73.2404 69.3662 73.2404 69.1402ZM74.1867 70.8488C74.1867 70.6227 74.2699 70.4271 74.4364 70.2618C74.6028 70.0966 74.8 70.014 75.0278 70.014C75.2556 70.014 75.4527 70.0966 75.6192 70.2618C75.7857 70.4271 75.8689 70.6227 75.8689 70.8488C75.8689 71.0749 75.7857 71.2705 75.6192 71.4357C75.4527 71.6009 75.2556 71.6835 75.0278 71.6835C74.8 71.6835 74.6028 71.6009 74.4364 71.4357C74.2699 71.2705 74.1867 71.0749 74.1867 70.8488Z" fill="white"/>
<path d="M79.5669 76.2355C79.8385 76.2355 80.0268 76.1964 80.132 76.1182C80.2371 76.0312 80.2897 75.8443 80.2897 75.5573V72.8965H81.8405V75.4269C81.8405 75.7138 81.8931 75.9225 81.9982 76.0529C82.1121 76.1747 82.3619 76.2355 82.7474 76.2355C82.8087 76.2355 82.8656 76.2442 82.9182 76.2616C82.9796 76.2703 83.0277 76.2964 83.0628 76.3399C83.1154 76.3834 83.1504 76.4486 83.1679 76.5355C83.1942 76.6225 83.2074 76.7399 83.2074 76.8877C83.2074 77.1572 83.1679 77.3442 83.0891 77.4485C83.019 77.5442 82.9051 77.592 82.7474 77.592C82.5108 77.592 82.2874 77.5572 82.0771 77.4877C81.8581 77.4094 81.6784 77.2442 81.5382 76.992C81.4419 77.1312 81.328 77.2398 81.1965 77.3181C81.0564 77.4051 80.9118 77.4659 80.7628 77.5007C80.6139 77.5442 80.4562 77.5703 80.2897 77.579C80.132 77.5877 79.9743 77.592 79.8166 77.592H78.844C78.7739 77.592 78.7126 77.5877 78.66 77.579C78.6074 77.5703 78.5593 77.5442 78.5154 77.5007C78.4716 77.4572 78.4366 77.392 78.4103 77.3051C78.384 77.2181 78.3709 77.0964 78.3709 76.9399C78.3709 76.679 78.4103 76.4964 78.4892 76.3921C78.5593 76.2877 78.6775 76.2355 78.844 76.2355H79.5669ZM79.1463 70.8488C79.1463 70.6227 79.2295 70.4271 79.396 70.2619C79.5625 70.0966 79.7596 70.014 79.9874 70.014C80.2152 70.014 80.4124 70.0966 80.5788 70.2619C80.7453 70.4271 80.8285 70.6227 80.8285 70.8488C80.8285 71.0749 80.7453 71.2705 80.5788 71.4357C80.4124 71.6009 80.2152 71.6835 79.9874 71.6835C79.7596 71.6835 79.5625 71.6009 79.396 71.4357C79.2295 71.2705 79.1463 71.0749 79.1463 70.8488ZM81.0783 70.8488C81.0783 70.6227 81.1615 70.4271 81.328 70.2619C81.5032 70.0966 81.7047 70.014 81.9325 70.014C82.1603 70.014 82.3575 70.0966 82.5239 70.2619C82.6904 70.4271 82.7737 70.6227 82.7737 70.8488C82.7737 71.0749 82.6904 71.2705 82.5239 71.4357C82.3575 71.6009 82.1603 71.6835 81.9325 71.6835C81.7047 71.6835 81.5032 71.6009 81.328 71.4357C81.1615 71.2705 81.0783 71.0749 81.0783 70.8488Z" fill="white"/>
<path d="M82.7498 77.5919C82.6797 77.5919 82.6184 77.5876 82.5658 77.5789C82.5133 77.5702 82.4651 77.5441 82.4213 77.5006C82.3775 77.4571 82.3424 77.3919 82.3161 77.305C82.2899 77.218 82.2767 77.0963 82.2767 76.9398C82.2767 76.6789 82.3161 76.4963 82.395 76.392C82.4651 76.2876 82.5834 76.2354 82.7498 76.2354H84.511C84.5723 76.2354 84.6292 76.2441 84.6818 76.2615C84.7431 76.2702 84.7913 76.2963 84.8264 76.3398C84.8789 76.3833 84.914 76.4485 84.9315 76.5354C84.9578 76.6224 84.9709 76.7398 84.9709 76.8876C84.9709 77.1571 84.9315 77.3441 84.8527 77.4484C84.7826 77.5441 84.6687 77.5919 84.511 77.5919H82.7498Z" fill="white"/>
<path d="M84.9134 76.2354C85.0886 76.2354 85.2332 76.2311 85.3471 76.2224C85.461 76.2137 85.5574 76.192 85.6362 76.1572C85.7063 76.1137 85.7545 76.0572 85.7808 75.9876C85.8158 75.9094 85.8333 75.805 85.8333 75.6746V73.4182H87.3842V75.4268C87.3842 75.6789 87.4499 75.8746 87.5813 76.0137C87.7215 76.1615 87.9362 76.2354 88.2253 76.2354C88.4619 76.2354 88.659 76.2007 88.8167 76.1311C88.9744 76.0615 89.0577 75.9094 89.0664 75.6746V73.4182H90.6041V75.4268C90.6041 75.6963 90.6654 75.9007 90.7881 76.0398C90.9108 76.1702 91.1123 76.2354 91.3927 76.2354C91.6205 76.2354 91.8001 76.2007 91.9315 76.1311C92.0629 76.0528 92.1287 75.8876 92.1287 75.6355V72.8964H93.6795V75.4268C93.6795 75.7137 93.7364 75.9224 93.8503 76.0528C93.973 76.1746 94.2271 76.2354 94.6126 76.2354C94.6827 76.2354 94.744 76.2441 94.7966 76.2615C94.8492 76.2702 94.8974 76.2963 94.9412 76.3398C94.985 76.3833 95.02 76.4485 95.0463 76.5354C95.0726 76.6224 95.0857 76.7398 95.0857 76.8876C95.0857 77.1571 95.0463 77.3441 94.9675 77.4484C94.8974 77.5441 94.7791 77.5919 94.6126 77.5919C94.3848 77.5919 94.1614 77.5528 93.9423 77.4745C93.7145 77.3876 93.5305 77.218 93.3903 76.9658C93.2764 77.1224 93.1582 77.2398 93.0355 77.318C92.9128 77.405 92.7902 77.4702 92.6675 77.5137C92.5361 77.5484 92.409 77.5702 92.2864 77.5789C92.1549 77.5876 92.0323 77.5919 91.9184 77.5919C91.7694 77.5919 91.6161 77.5832 91.4584 77.5658C91.3007 77.5397 91.1473 77.5006 90.9984 77.4484C90.8494 77.3963 90.7092 77.3311 90.5778 77.2528C90.4552 77.1832 90.3544 77.0919 90.2755 76.9789C90.0302 77.2484 89.7849 77.418 89.5396 77.4876C89.2855 77.5571 89.0139 77.5919 88.7247 77.5919C87.9449 77.5919 87.3842 77.3876 87.0425 76.9789C86.8234 77.2571 86.543 77.431 86.2013 77.5006C85.8596 77.5615 85.4215 77.5919 84.8871 77.5919H84.5059C84.4359 77.5919 84.3745 77.5876 84.3219 77.5789C84.2694 77.5702 84.2212 77.5441 84.1774 77.5006C84.1336 77.4571 84.0985 77.3919 84.0722 77.305C84.0459 77.218 84.0328 77.0963 84.0328 76.9398C84.0328 76.6789 84.0722 76.4963 84.1511 76.392C84.2299 76.2876 84.3482 76.2354 84.5059 76.2354H84.9134Z" fill="white"/>
<path fill-rule="evenodd" clip-rule="evenodd" d="M95.2242 76.2355C95.3118 76.2355 95.4257 76.1572 95.5659 76.0007C95.7061 75.8442 95.8332 75.6137 95.9471 75.3094C96.1223 74.8659 96.3107 74.4964 96.5122 74.2008C96.7137 73.9051 96.924 73.6703 97.143 73.4964C97.3708 73.3138 97.5943 73.1878 97.8133 73.1182C98.0324 73.0486 98.2514 73.0138 98.4704 73.0138C98.7771 73.0138 99.0662 73.0704 99.3378 73.1834C99.6095 73.3051 99.8416 73.4747 100.034 73.6921C100.227 73.9008 100.38 74.1529 100.494 74.4486C100.6 74.7529 100.656 75.0833 100.665 75.4398C100.665 76.1442 100.49 76.705 100.14 77.1224C99.7891 77.5311 99.2546 77.7354 98.5362 77.7354C98.2207 77.7354 97.9009 77.6876 97.5767 77.5919C97.2526 77.4963 96.9152 77.3354 96.5648 77.1093C96.3545 77.3354 96.1442 77.4745 95.9339 77.5267C95.7149 77.5702 95.4783 77.5919 95.2242 77.5919H94.5934C94.532 77.5919 94.4751 77.5876 94.4225 77.5789C94.3699 77.5702 94.3218 77.5441 94.2779 77.5006C94.2341 77.4571 94.1991 77.3919 94.1728 77.305C94.1465 77.218 94.1334 77.0963 94.1334 76.9398C94.1334 76.6789 94.1728 76.4963 94.2517 76.392C94.3217 76.2876 94.4357 76.2355 94.5934 76.2355H95.2242ZM99.1539 75.4007C99.1539 75.279 99.1407 75.1616 99.1144 75.0485C99.0881 74.9268 99.0443 74.8225 98.983 74.7355C98.9217 74.6399 98.8428 74.5616 98.7464 74.5007C98.6501 74.4486 98.5318 74.4225 98.3916 74.4225C98.1813 74.4225 97.9666 74.5312 97.7476 74.7486C97.5198 74.9659 97.3446 75.3572 97.2219 75.9224C97.4146 76.0355 97.603 76.1311 97.787 76.2094C97.9623 76.2876 98.155 76.3224 98.3653 76.3137C98.6194 76.3224 98.8165 76.2398 98.9567 76.0659C99.0881 75.9007 99.1539 75.679 99.1539 75.4007Z" fill="white"/>
<path fill-rule="evenodd" clip-rule="evenodd" d="M2.39205 90.061L1.61663 92.3827H9.15527e-05L2.85204 84.4004H4.84971L7.78052 92.3827H6.08512L5.25713 90.061H2.39205ZM4.99428 88.9263L4.2583 86.9177C4.08744 86.422 3.94287 85.9525 3.81145 85.5221H3.78516C3.66688 85.9525 3.53545 86.4351 3.37774 86.9046L2.66804 88.9263H4.99428Z" fill="white"/>
<path fill-rule="evenodd" clip-rule="evenodd" d="M8.94809 84.5049C9.43437 84.4136 10.3806 84.3223 11.2875 84.3223C12.4703 84.3223 13.1537 84.4658 13.7189 84.8179C14.2446 85.1049 14.6257 85.6266 14.6257 86.344C14.6257 87.0744 14.1526 87.7396 13.2457 88.0526V88.0787C14.0606 88.2874 14.928 88.9134 14.928 90.0612C14.928 90.7916 14.5863 91.3525 14.1 91.7437C13.4823 92.2263 12.4966 92.4611 10.9195 92.4611C10.0258 92.4611 9.35551 92.4089 8.94809 92.3568V84.5049ZM10.4726 87.6352H11.3532C12.4966 87.6352 13.0749 87.1657 13.0749 86.5135C13.0749 85.7309 12.4177 85.444 11.4452 85.444C10.9326 85.444 10.6435 85.4701 10.4726 85.5092V87.6352ZM10.4726 91.2872C10.6961 91.3264 10.9852 91.3264 11.3795 91.3264C12.3652 91.3264 13.3114 91.0133 13.3114 90.009C13.3114 89.083 12.4309 88.7308 11.3269 88.7308H10.4726V91.2872Z" fill="white"/>
<path fill-rule="evenodd" clip-rule="evenodd" d="M16.312 84.5049C17.0612 84.4006 17.9811 84.3223 18.9668 84.3223C20.6622 84.3223 21.8188 84.6614 22.6468 85.3397C23.4616 85.9788 23.961 86.9048 23.961 88.183C23.961 89.5134 23.4485 90.5699 22.6468 91.2872C21.7531 92.0568 20.3074 92.4611 18.5726 92.4611C17.5869 92.4611 16.864 92.422 16.312 92.3568V84.5049ZM17.8497 91.2351C18.0863 91.2742 18.4674 91.2742 18.8354 91.2742C21.0959 91.2872 22.3313 90.1264 22.3313 88.2482C22.3445 86.5005 21.1616 85.4962 19.0588 85.4962C18.4937 85.4962 18.0994 85.5483 17.8497 85.6005V91.2351Z" fill="white"/>
<path fill-rule="evenodd" clip-rule="evenodd" d="M26.8848 90.061L26.1094 92.3827H24.506L27.3448 84.4004H29.3425L32.2733 92.3827H30.591L29.7631 90.061H26.8848ZM29.4739 88.9263L28.7379 86.9177C28.5671 86.422 28.4225 85.9525 28.2911 85.5221H28.2648C28.1465 85.9525 28.0151 86.4351 27.8574 86.9046L27.1477 88.9263H29.4739Z" fill="white"/>
<path d="M33.4536 84.4004H34.9913V91.1045H38.6844V92.3827H33.4536V84.4004Z" fill="white"/>
<path d="M41.402 84.4004V92.3827H39.8643V84.4004H41.402Z" fill="white"/>
<path d="M47.3547 84.4004V87.5568H51.258V84.4004H52.7826V92.3827H51.258V88.8611H47.3547V92.3827H45.817V84.4004H47.3547Z" fill="white"/>
<path fill-rule="evenodd" clip-rule="evenodd" d="M62.5747 88.3136C62.5747 90.8831 60.7479 92.5265 58.2639 92.5265C55.7668 92.5265 54.124 90.7918 54.124 88.4701C54.124 86.005 55.8983 84.2573 58.3822 84.2573C60.945 84.2573 62.5747 85.992 62.5747 88.3136ZM55.7537 88.431C55.7537 90.0222 56.7394 91.3396 58.3428 91.3396C59.9593 91.3396 60.945 90.0614 60.945 88.3658C60.945 86.8398 60.0251 85.4442 58.3559 85.4442C56.6868 85.4442 55.7537 86.8006 55.7537 88.431Z" fill="white"/>
<path d="M63.9248 90.7135C64.4636 91.0135 65.2391 91.2874 66.1065 91.2874C67.0922 91.2874 67.6441 90.857 67.6441 90.1918C67.6441 89.6049 67.2367 89.2527 66.0933 88.9136C64.6213 88.4832 63.7014 87.8049 63.7014 86.5659C63.7014 85.2355 64.8842 84.2573 66.711 84.2573C67.6967 84.2573 68.3933 84.4529 68.8795 84.6877L68.4853 85.8876C68.1698 85.7442 67.539 85.4833 66.6847 85.4833C65.6728 85.4833 65.2653 85.9659 65.2653 86.4354C65.2653 87.0485 65.7779 87.3354 66.9344 87.7006C68.459 88.1962 69.2213 88.8614 69.2213 90.1005C69.2213 91.3396 68.2618 92.5265 65.975 92.5265C65.0419 92.5265 64.0694 92.2526 63.5568 91.9526L63.9248 90.7135Z" fill="white"/>
<path fill-rule="evenodd" clip-rule="evenodd" d="M70.6458 84.4919C71.2241 84.4006 72.0127 84.3223 73.1429 84.3223C74.2995 84.3223 75.1143 84.5701 75.64 85.0005C76.1263 85.3788 76.468 86.0179 76.468 86.7874C76.468 87.5178 76.2314 88.17 75.7583 88.6004C75.1275 89.1873 74.1681 89.4743 73.0115 89.4743C72.6829 89.4743 72.3938 89.4482 72.1704 89.396V92.3829H70.6458V84.4919ZM72.1704 88.2091C72.3807 88.2743 72.6698 88.2874 73.0246 88.2874C74.2075 88.2874 74.9435 87.7526 74.9435 86.8135C74.9435 85.8875 74.2206 85.4701 73.1561 85.4701C72.6698 85.4701 72.3412 85.5092 72.1704 85.5483V88.2091Z" fill="white"/>
<path d="M79.3376 84.4004V92.3827H77.7999V84.4004H79.3376Z" fill="white"/>
<path d="M82.8832 85.6395H80.2941V84.4004H87.0232V85.6395H84.4209V92.3827H82.8832V85.6395Z" fill="white"/>
<path fill-rule="evenodd" clip-rule="evenodd" d="M88.8681 90.061L88.1058 92.3827H86.4893L89.328 84.4004H91.3257L94.2565 92.3827H92.5743L91.7463 90.061H88.8681ZM91.4572 88.9263L90.7212 86.9177C90.5503 86.422 90.4189 85.9525 90.2743 85.5221H90.2612C90.1298 85.9525 90.0115 86.4351 89.8538 86.9046L89.1309 88.9263H91.4572Z" fill="white"/>
<path d="M95.4425 84.4004H96.9802V91.1045H100.673V92.3827H95.4425V84.4004Z" fill="white"/>
</svg>
