<svg width="520" height="419" viewBox="0 0 520 419" fill="none" xmlns="http://www.w3.org/2000/svg">
<path opacity="0.1" fill-rule="evenodd" clip-rule="evenodd" d="M512.313 270.287H500.892C497.598 270.287 494.523 272.477 493.864 275.762C489.911 292.845 483.322 308.834 474.317 323.07C472.34 326.136 472.779 329.86 475.195 332.269L483.102 340.153C486.177 343.22 486.177 348.038 483.102 351.104L451.914 382.205C449.059 385.271 444.007 385.271 440.933 382.205L433.026 374.32C430.61 371.911 426.876 371.473 424.021 373.225C409.525 382.205 393.492 388.995 376.361 392.937C373.066 393.594 370.87 396.441 370.87 399.726V411.115C370.87 415.496 367.356 419 362.963 419H319.037C314.644 419 311.13 415.496 311.13 411.115V399.726C311.13 396.441 308.934 393.594 305.639 392.937C288.508 388.995 272.475 382.205 257.979 373.225C255.124 371.473 251.39 371.911 248.974 374.32L241.067 382.205C237.993 385.271 233.161 385.271 230.086 382.205L198.898 351.104C195.823 348.038 195.823 343.22 198.898 340.153L206.805 332.269C209.221 329.86 209.66 326.136 207.903 323.07C198.679 308.834 192.09 292.845 188.136 275.762C187.477 272.477 184.402 270.287 181.108 270.287H169.907C165.514 270.287 162 266.782 162 262.402V218.379C162 214.218 165.514 210.714 169.907 210.714H181.108C184.402 210.714 187.477 208.523 188.136 205.238C192.09 188.155 198.679 172.166 207.684 157.711C209.66 154.864 209.221 151.14 206.805 148.731L198.898 140.847C195.823 137.78 195.823 132.743 198.898 129.677L230.086 98.7951C233.161 95.7288 237.993 95.7288 241.067 98.7951L248.974 106.68C251.39 109.089 255.124 109.308 257.979 107.556C272.475 98.5761 288.508 92.0055 305.639 88.0632C308.934 87.1871 311.13 84.3399 311.13 81.0546V69.6656C311.13 65.5043 314.644 62 319.037 62H362.963C367.356 62 370.87 65.5043 370.87 69.6656V81.0546C370.87 84.3399 373.066 87.1871 376.361 88.0632C393.492 92.0055 409.525 98.5761 424.021 107.556C426.876 109.308 430.61 109.089 433.026 106.68L440.933 98.7951C444.007 95.7288 449.059 95.7288 451.914 98.7951L483.102 129.677C486.177 132.743 486.177 137.78 483.102 140.847L475.195 148.731C472.779 151.14 472.56 154.864 474.317 157.711C483.322 172.166 489.911 188.155 493.864 205.238C494.523 208.523 497.598 210.714 500.892 210.714H512.313C516.486 210.714 520 214.218 520 218.379V262.402C520 266.782 516.486 270.287 512.313 270.287ZM444.227 240.5C444.227 183.555 398.104 137.561 341 137.561C283.896 137.561 237.773 183.555 237.773 240.5C237.773 297.226 283.896 343.439 341 343.439C398.104 343.439 444.227 297.226 444.227 240.5Z" fill="white"/>
<path opacity="0.1" fill-rule="evenodd" clip-rule="evenodd" d="M198.62 118.471H192.051C190.299 118.471 188.547 119.566 188.109 121.537C185.919 131.173 182.196 140.37 176.941 148.473C176.065 150.224 176.284 152.195 177.598 153.509L182.196 158.108C183.729 159.86 183.729 162.707 182.196 164.458L164.458 181.977C162.706 183.729 159.86 183.729 158.108 181.977L153.728 177.598C152.195 176.065 150.224 175.846 148.472 176.941C140.37 181.977 131.173 185.919 121.537 188.109C119.785 188.547 118.471 190.08 118.471 192.051V198.401C118.471 201.029 116.5 203 114.092 203H89.1273C86.4995 203 84.5285 201.029 84.5285 198.401V192.051C84.5285 190.08 83.4337 188.547 81.4628 188.109C71.8274 185.919 62.63 181.977 54.5276 176.941C52.7757 175.846 50.8047 176.065 49.4908 177.598L44.8921 181.977C43.1402 183.729 40.2934 183.729 38.5415 181.977L21.0226 164.458C19.2707 162.707 19.2707 159.86 21.0226 158.108L25.4023 153.509C26.9352 152.195 26.9353 150.224 26.0594 148.473C20.8037 140.37 17.0809 131.173 14.891 121.537C14.453 119.566 12.7012 118.471 10.9493 118.471H4.37972C1.97087 118.471 0 116.501 0 113.873V88.9083C0 86.4994 1.97087 84.5286 4.37972 84.5286H10.9493C12.7012 84.5286 14.453 83.2147 14.891 81.4628C17.0809 71.8274 20.8037 62.63 26.0594 54.5275C26.9353 52.7756 26.9352 50.5858 25.4023 49.2718L21.0226 44.8921C19.2707 43.1402 19.2707 40.2934 21.0226 38.5415L38.5415 20.8037C40.2934 19.2708 43.1402 19.2708 44.8921 20.8037L49.2718 25.4024C50.8047 26.7163 52.7757 26.9353 54.5276 25.8404C62.63 20.8037 71.8274 17.0809 81.4628 14.8911C83.4337 14.4531 84.5285 12.7012 84.5285 10.7303V4.37972C84.5285 1.97087 86.4995 0 89.1273 0H114.092C116.5 0 118.471 1.97087 118.471 4.37972V10.7303C118.471 12.7012 119.785 14.4531 121.537 14.8911C131.173 17.0809 140.37 20.8037 148.472 25.8404C150.224 26.9353 152.195 26.7163 153.728 25.4024L158.108 20.8037C159.86 19.2708 162.706 19.2708 164.458 20.8037L182.196 38.5415C183.729 40.2934 183.729 43.1402 182.196 44.8921L177.598 49.2718C176.284 50.5858 176.065 52.7756 176.941 54.5275C182.196 62.63 185.919 71.8274 188.109 81.4628C188.547 83.2147 190.299 84.5286 192.051 84.5286H198.62C201.029 84.5286 203 86.4994 203 88.9083V113.873C203 116.501 201.029 118.471 198.62 118.471ZM153.29 101.391C153.29 72.9223 130.078 49.4908 101.61 49.4908C72.9224 49.4908 49.7098 72.9223 49.7098 101.391C49.7098 130.078 72.9224 153.29 101.61 153.29C130.078 153.29 153.29 130.078 153.29 101.391Z" fill="white"/>
</svg>
